<svg width="132" height="132" viewBox="0 0 132 132" fill="none" xmlns="http://www.w3.org/2000/svg">
<path d="M81.2111 73.57L67.2311 47.77C67.2011 47.74 67.1711 47.74 67.1711 47.71C66.9011 47.29 66.4511 46.99 65.9111 46.99C65.3711 46.99 64.9211 47.29 64.6511 47.71C64.6211 47.74 64.5911 47.74 64.5911 47.77L50.6112 73.57C50.493 73.7915 50.4312 74.0388 50.4312 74.29C50.4312 74.5411 50.493 74.7884 50.6112 75.01L57.0611 86.9199H54.0911C53.2511 86.9199 52.5912 87.5799 52.5912 88.4199V95.4999C52.5912 96.3399 53.2511 96.9999 54.0911 96.9999H77.7311C78.5711 96.9999 79.2311 96.3399 79.2311 95.4999V88.4199C79.2311 87.5799 78.5711 86.9199 77.7311 86.9199H74.7611L81.2111 75.01C81.3293 74.7884 81.3911 74.5411 81.3911 74.29C81.3911 74.0388 81.3293 73.7915 81.2111 73.57ZM65.8811 65.83C66.9611 65.83 67.8611 66.7 67.8611 67.81C67.8611 68.92 66.9911 69.79 65.8811 69.79C64.7711 69.79 63.9011 68.92 63.9011 67.81C63.9011 66.7 64.8011 65.83 65.8811 65.83ZM76.2011 93.9999H55.5611V89.9199H76.2011V93.9999ZM71.3411 86.9199H60.4811L53.6411 74.29L64.4111 54.4V63.07C62.4011 63.7 60.9311 65.56 60.9311 67.78C60.9311 70.51 63.1511 72.76 65.9111 72.76C68.6711 72.76 70.8911 70.54 70.8911 67.78C70.8911 65.56 69.4211 63.7 67.4111 63.07V54.4L78.1811 74.29L71.3411 86.9199Z" fill="white" style="fill:white;fill-opacity:1;"/>
<path d="M91.1112 44.2C93.9312 44.2 96.2112 41.92 96.2112 39.1C96.2112 36.28 93.9312 34 91.1112 34C88.8312 34 86.9112 35.53 86.2512 37.6H70.7112C70.0512 35.53 68.1612 34 65.8812 34C63.6012 34 61.6812 35.53 61.0512 37.6H45.5113C44.8513 35.53 42.9613 34 40.6513 34C37.8313 34 35.5513 36.28 35.5513 39.1C35.5513 41.92 37.8313 44.2 40.6513 44.2C42.9313 44.2 44.8513 42.67 45.5113 40.6H53.7012C49.4313 42.8016 45.831 46.1096 43.2768 50.1785C40.7225 54.2473 39.3081 58.9275 39.1813 63.73C37.0813 64.36 35.5513 66.28 35.5513 68.59C35.5513 71.41 37.8313 73.6899 40.6513 73.6899C43.4713 73.6899 45.7513 71.41 45.7513 68.59C45.7513 66.31 44.2513 64.42 42.1813 63.76C42.4513 52.72 50.4313 43.3 61.2012 41.14C61.9812 42.94 63.7812 44.23 65.8812 44.23C67.9812 44.23 69.7812 42.97 70.5612 41.14C81.3312 43.3 89.3112 52.75 89.5812 63.76C87.5112 64.42 86.0112 66.31 86.0112 68.59C86.0112 71.41 88.2912 73.6899 91.1112 73.6899C93.9312 73.6899 96.2112 71.41 96.2112 68.59C96.2112 66.31 94.6812 64.36 92.5812 63.73C92.3712 53.8 86.5812 44.98 78.0612 40.6H86.2512C86.9112 42.67 88.8312 44.2 91.1112 44.2ZM40.6813 70.6899C39.5113 70.6899 38.5813 69.76 38.5813 68.59C38.5813 67.42 39.5113 66.49 40.6813 66.49C41.8513 66.49 42.7813 67.42 42.7813 68.59C42.7813 69.76 41.8213 70.6899 40.6813 70.6899ZM91.1112 70.6899C89.9412 70.6899 89.0112 69.76 89.0112 68.59C89.0112 67.42 89.9412 66.49 91.1112 66.49C92.2812 66.49 93.2112 67.42 93.2112 68.59C93.2112 69.76 92.2812 70.6899 91.1112 70.6899ZM91.1112 37C92.2812 37 93.2112 37.93 93.2112 39.1C93.2112 40.27 92.2812 41.2 91.1112 41.2C89.9412 41.2 89.0112 40.27 89.0112 39.1C89.0112 37.93 89.9412 37 91.1112 37ZM40.6813 41.2C39.5113 41.2 38.5813 40.27 38.5813 39.1C38.5813 37.96 39.5113 37 40.6813 37C41.8513 37 42.7813 37.93 42.7813 39.1C42.7813 40.24 41.8213 41.2 40.6813 41.2ZM65.8812 41.2C64.7112 41.2 63.7812 40.27 63.7812 39.1C63.7812 37.96 64.7112 37 65.8812 37C67.0512 37 67.9812 37.93 67.9812 39.1C67.9812 40.24 67.0512 41.2 65.8812 41.2Z" fill="white" style="fill:white;fill-opacity:1;"/>
</svg>
