<svg width="41" height="20" viewBox="0 0 41 20" fill="none" xmlns="http://www.w3.org/2000/svg">
<path d="M40.3022 0.633591C38.4941 2.47817 36.5197 2.55421 34.8452 2.78997C34.3435 2.85727 33.213 2.84044 32.2697 3.46208C31.3299 4.08043 30.2027 5.55619 29.6455 6.33099C30.1636 5.75983 30.851 5.59814 31.851 5.47862C32.8627 5.3591 34.3205 5.3792 35.3582 5.23106C36.3471 5.09624 38.0388 3.98845 38.6014 3.2084L40.3022 0.633591Z" fill="url(#paint0_linear_90_104)" style=""/>
<path d="M38.7285 3.06113C37.0165 5.39603 33.1168 5.19217 31.9032 5.35888C30.7628 5.5173 30.0363 5.8138 29.5803 6.41359L27.9741 8.62699C28.3244 8.30361 29.3815 8.14542 30.5234 8.11505H30.8312C30.9844 8.11002 31.1555 8.1015 31.3347 8.09473C32.9588 8.02918 35.2133 7.79495 36.5197 6.21475L38.4908 3.39631L38.7285 3.06113Z" fill="url(#paint1_linear_90_104)" style=""/>
<path d="M36.585 6.12714C35.8277 7.13115 34.4771 7.58453 32.8548 7.8203C31.6216 7.99553 30.2208 8.04754 29.8183 8.07288C29.1261 8.10325 28.2106 8.33071 27.958 8.64579C27.181 9.64128 26.4431 10.5679 26.2412 10.9538C26.7151 10.4971 28.2676 10.5476 30.1572 10.4585C32.0337 10.3674 33.9412 9.52678 35.4479 7.75453L36.585 6.12714Z" fill="url(#paint2_linear_90_104)" style=""/>
<path fill-rule="evenodd" clip-rule="evenodd" d="M9.35367 16.0424L7.35216 15.1745L15.6486 14.1632C15.793 14.4035 15.9382 14.6209 16.1072 14.8383L9.35367 16.0424ZM31.6131 16.0424L33.6146 15.127L25.3666 14.1385C25.2944 14.4043 25.077 14.6209 24.9326 14.8383L31.6131 16.0424ZM30.4081 16.1885L27.8997 17.0325L24.3306 15.9481L24.0164 15.8522C24.137 15.7545 24.2338 15.6577 24.3306 15.5388C24.4749 15.4174 24.5955 15.2484 24.7407 15.1278L30.4081 16.1885ZM37.0402 13.8498L34.7491 14.9113L25.5848 13.8498C25.657 13.6341 25.73 13.4168 25.8022 13.1977L37.0402 13.8498ZM37.8596 13.5365L40.8496 11.6309H24.6439C24.6439 12.3077 24.5471 12.8869 24.3306 13.3921C23.703 15.0073 22.1363 15.7792 20.5679 15.7537C19.0249 15.7053 17.4574 14.9113 16.7576 13.438C16.5165 12.9072 16.3721 12.3281 16.3721 11.6301H0.117188L3.08421 13.5356L15.5042 12.8852C15.7446 13.776 16.1785 14.5487 16.7576 15.1261C17.7469 16.1647 19.1693 16.743 20.5679 16.743C21.9427 16.7676 23.3421 16.2623 24.3306 15.1508C24.8613 14.5716 25.2706 13.8235 25.5118 12.9319L37.8596 13.5365ZM24.3306 18.4541L24.6439 19.0349L24.3306 19.181L23.4865 19.5656L22.5218 17.6601C21.9198 17.8775 21.2438 17.9981 20.5679 18.0218C19.8444 18.0465 19.0971 17.9488 18.4458 17.7314L17.6255 19.5656C17.3597 19.5886 16.9979 19.5656 16.7576 19.3983C16.637 19.3253 16.5165 19.2039 16.4689 19.0349L16.7576 18.5526L17.4574 17.2966C17.24 17.154 17.0472 17.058 16.8544 16.8636L17.4336 16.1655C18.422 16.7693 19.5073 17.1056 20.5679 17.1056C21.6293 17.1302 22.69 16.7905 23.6793 16.0925L24.3314 16.2853L24.5964 16.3829C24.5004 16.4543 24.4274 16.5273 24.3314 16.6003C24.1378 16.7914 23.9697 16.985 23.6563 17.154L24.3306 18.4541ZM24.3306 8.59173C24.9573 9.33986 25.415 10.257 25.657 11.3167H24.6201C24.548 11.0017 24.452 10.69 24.3314 10.4013C23.6317 8.56881 22.2085 7.26532 20.5687 6.17838C20.3522 6.05864 20.1594 5.91428 19.942 5.7937C20.1594 5.86673 20.3522 5.93976 20.5687 6.01279C22.0633 6.61316 23.3897 7.43431 24.3306 8.59173ZM21.5325 15.3919C21.7983 15.3435 22.2076 15.1992 22.5218 14.9589L20.8812 11.7031L22.594 10.882L21.147 9.62773L20.5679 9.89522L18.084 11.0263L18.8075 12.6669L19.9896 12.1379L21.5325 15.3919ZM17.0472 15.8513C16.9504 15.7783 16.8536 15.6824 16.7576 15.6093C16.5649 15.442 16.3959 15.273 16.2753 15.1032L10.6121 16.1732L13.023 16.9824L17.0472 15.8513ZM15.5042 13.8498C15.4074 13.6341 15.3353 13.4168 15.2622 13.1977L3.92744 13.8498L6.21851 14.9597L15.5042 13.8498Z" fill="#355792" style="fill:#355792;fill:color(display-p3 0.2078 0.3412 0.5725);fill-opacity:1;"/>
<defs>
<linearGradient id="paint0_linear_90_104" x1="24.9925" y1="7.44272" x2="44.4804" y2="12.8316" gradientUnits="userSpaceOnUse">
<stop stop-color="white" style="stop-color:white;stop-opacity:1;"/>
<stop offset="0.174" stop-color="white" style="stop-color:white;stop-opacity:1;"/>
<stop offset="0.23" stop-color="#F9FAFD" style="stop-color:#F9FAFD;stop-color:color(display-p3 0.9765 0.9804 0.9922);stop-opacity:1;"/>
<stop offset="0.306" stop-color="#E8ECF6" style="stop-color:#E8ECF6;stop-color:color(display-p3 0.9098 0.9255 0.9647);stop-opacity:1;"/>
<stop offset="0.354" stop-color="#D9E0F1" style="stop-color:#D9E0F1;stop-color:color(display-p3 0.8510 0.8784 0.9451);stop-opacity:1;"/>
<stop offset="0.469" stop-color="#EDF0F8" style="stop-color:#EDF0F8;stop-color:color(display-p3 0.9294 0.9412 0.9725);stop-opacity:1;"/>
<stop offset="0.592" stop-color="#FAFBFD" style="stop-color:#FAFBFD;stop-color:color(display-p3 0.9804 0.9843 0.9922);stop-opacity:1;"/>
<stop offset="0.7" stop-color="white" style="stop-color:white;stop-opacity:1;"/>
<stop offset="1" stop-color="white" style="stop-color:white;stop-opacity:1;"/>
</linearGradient>
<linearGradient id="paint1_linear_90_104" x1="26.2305" y1="7.77703" x2="38.4691" y2="12.2766" gradientUnits="userSpaceOnUse">
<stop stop-color="#C7D6EE" style="stop-color:#C7D6EE;stop-color:color(display-p3 0.7804 0.8392 0.9333);stop-opacity:1;"/>
<stop offset="0.073" stop-color="#C7D6EE" style="stop-color:#C7D6EE;stop-color:color(display-p3 0.7804 0.8392 0.9333);stop-opacity:1;"/>
<stop offset="0.118" stop-color="#AFC6E4" style="stop-color:#AFC6E4;stop-color:color(display-p3 0.6863 0.7765 0.8941);stop-opacity:1;"/>
<stop offset="0.214" stop-color="#719DCA" style="stop-color:#719DCA;stop-color:color(display-p3 0.4431 0.6157 0.7922);stop-opacity:1;"/>
<stop offset="0.352" stop-color="#0E5BA1" style="stop-color:#0E5BA1;stop-color:color(display-p3 0.0549 0.3569 0.6314);stop-opacity:1;"/>
<stop offset="0.371" stop-color="#00529B" style="stop-color:#00529B;stop-color:color(display-p3 0.0000 0.3216 0.6078);stop-opacity:1;"/>
<stop offset="0.43" stop-color="#08579E" style="stop-color:#08579E;stop-color:color(display-p3 0.0314 0.3412 0.6196);stop-opacity:1;"/>
<stop offset="0.522" stop-color="#1E66A8" style="stop-color:#1E66A8;stop-color:color(display-p3 0.1176 0.4000 0.6588);stop-opacity:1;"/>
<stop offset="0.636" stop-color="#437EB7" style="stop-color:#437EB7;stop-color:color(display-p3 0.2627 0.4941 0.7176);stop-opacity:1;"/>
<stop offset="0.767" stop-color="#75A0CC" style="stop-color:#75A0CC;stop-color:color(display-p3 0.4588 0.6275 0.8000);stop-opacity:1;"/>
<stop offset="0.912" stop-color="#B5CAE7" style="stop-color:#B5CAE7;stop-color:color(display-p3 0.7098 0.7922 0.9059);stop-opacity:1;"/>
<stop offset="0.949" stop-color="#C7D6EE" style="stop-color:#C7D6EE;stop-color:color(display-p3 0.7804 0.8392 0.9333);stop-opacity:1;"/>
<stop offset="1" stop-color="#C7D6EE" style="stop-color:#C7D6EE;stop-color:color(display-p3 0.7804 0.8392 0.9333);stop-opacity:1;"/>
</linearGradient>
<linearGradient id="paint2_linear_90_104" x1="24.8802" y1="14.5741" x2="32.9127" y2="16.7987" gradientUnits="userSpaceOnUse">
<stop stop-color="#F8ABAD" style="stop-color:#F8ABAD;stop-color:color(display-p3 0.9725 0.6706 0.6784);stop-opacity:1;"/>
<stop offset="0.056" stop-color="#F8ABAD" style="stop-color:#F8ABAD;stop-color:color(display-p3 0.9725 0.6706 0.6784);stop-opacity:1;"/>
<stop offset="0.101" stop-color="#F8A6A8" style="stop-color:#F8A6A8;stop-color:color(display-p3 0.9725 0.6510 0.6588);stop-opacity:1;"/>
<stop offset="0.156" stop-color="#F6979A" style="stop-color:#F6979A;stop-color:color(display-p3 0.9647 0.5922 0.6039);stop-opacity:1;"/>
<stop offset="0.215" stop-color="#F57E82" style="stop-color:#F57E82;stop-color:color(display-p3 0.9608 0.4941 0.5098);stop-opacity:1;"/>
<stop offset="0.278" stop-color="#F25C62" style="stop-color:#F25C62;stop-color:color(display-p3 0.9490 0.3608 0.3843);stop-opacity:1;"/>
<stop offset="0.343" stop-color="#EF3138" style="stop-color:#EF3138;stop-color:color(display-p3 0.9373 0.1922 0.2196);stop-opacity:1;"/>
<stop offset="0.371" stop-color="#ED1C24" style="stop-color:#ED1C24;stop-color:color(display-p3 0.9294 0.1098 0.1412);stop-opacity:1;"/>
<stop offset="0.46" stop-color="#D1181E" style="stop-color:#D1181E;stop-color:color(display-p3 0.8196 0.0941 0.1176);stop-opacity:1;"/>
<stop offset="0.517" stop-color="#C4161C" style="stop-color:#C4161C;stop-color:color(display-p3 0.7686 0.0863 0.1098);stop-opacity:1;"/>
<stop offset="0.607" stop-color="#D1181E" style="stop-color:#D1181E;stop-color:color(display-p3 0.8196 0.0941 0.1176);stop-opacity:1;"/>
<stop offset="0.747" stop-color="#ED1C24" style="stop-color:#ED1C24;stop-color:color(display-p3 0.9294 0.1098 0.1412);stop-opacity:1;"/>
<stop offset="0.961" stop-color="#F8ABAD" style="stop-color:#F8ABAD;stop-color:color(display-p3 0.9725 0.6706 0.6784);stop-opacity:1;"/>
<stop offset="1" stop-color="#F8ABAD" style="stop-color:#F8ABAD;stop-color:color(display-p3 0.9725 0.6706 0.6784);stop-opacity:1;"/>
</linearGradient>
</defs>
</svg>
