<svg width="43" height="22" viewBox="0 0 43 22" fill="none" xmlns="http://www.w3.org/2000/svg">
<path d="M0.45235 0.0438766C2.71416 2.35133 5.18397 2.44645 7.27877 2.74137C7.90633 2.82556 9.32054 2.80451 10.5005 3.58213C11.6761 4.35566 13.0862 6.20173 13.7832 7.17096C13.1351 6.45647 12.2752 6.25421 11.0242 6.1047C9.75869 5.95518 7.93504 5.98033 6.63699 5.79501C5.3999 5.62637 3.28377 4.24059 2.57995 3.2648L0.45235 0.0438766Z" fill="url(#paint0_linear_90_104)" style=""/>
<path d="M2.42099 3.08058C4.56253 6.00139 9.44092 5.74637 10.959 5.95492C12.3855 6.15308 13.2943 6.52399 13.8648 7.27428L15.874 10.0431C15.4359 9.63859 14.1135 9.4407 12.6851 9.4027H12.3C12.1084 9.39642 11.8943 9.38576 11.6702 9.37728C9.63854 9.29529 6.81832 9.00228 5.18408 7.02555L2.71837 3.49987L2.42099 3.08058Z" fill="url(#paint1_linear_90_104)" style=""/>
<path d="M5.10255 6.91595C6.04991 8.17191 7.73936 8.73907 9.76884 9.03399C11.3115 9.2532 13.0638 9.31825 13.5673 9.34996C14.4332 9.38795 15.5785 9.67249 15.8944 10.0666C16.8664 11.3119 17.7894 12.4711 18.042 12.9538C17.4491 12.3826 15.5071 12.4457 13.1434 12.3342C10.796 12.2202 8.40985 11.1687 6.52496 8.95172L5.10255 6.91595Z" fill="url(#paint2_linear_90_104)" style=""/>
<path fill-rule="evenodd" clip-rule="evenodd" d="M11.3527 18.0424L9.35119 17.1745L17.6476 16.1632C17.792 16.4035 17.9372 16.6209 18.1062 16.8383L11.3527 18.0424ZM33.6121 18.0424L35.6136 17.127L27.3656 16.1385C27.2934 16.4043 27.076 16.6209 26.9317 16.8383L33.6121 18.0424ZM32.4071 18.1884L29.8987 19.0325L26.3296 17.9481L26.0154 17.8522C26.136 17.7545 26.2328 17.6577 26.3296 17.5388C26.474 17.4174 26.5945 17.2484 26.7398 17.1278L32.4071 18.1884ZM39.0392 15.8498L36.7481 16.9113L27.5838 15.8498C27.656 15.6341 27.729 15.4167 27.8012 15.1976L39.0392 15.8498ZM39.8587 15.5365L42.8486 13.6309H26.6429C26.6429 14.3077 26.5461 14.8869 26.3296 15.3921C25.7021 17.0072 24.1353 17.7791 22.5669 17.7537C21.024 17.7053 19.4564 16.9113 18.7567 15.438C18.5155 14.9072 18.3711 14.3281 18.3711 13.6301H2.11621L5.08323 15.5356L17.5033 14.8852C17.7436 15.7759 18.1775 16.5487 18.7567 17.1261C19.7459 18.1647 21.1683 18.743 22.5669 18.743C23.9417 18.7676 25.3412 18.2623 26.3296 17.1508C26.8603 16.5716 27.2696 15.8235 27.5108 14.9319L39.8587 15.5365ZM26.3296 20.454L26.6429 21.0349L26.3296 21.1809L25.4855 21.5656L24.5209 19.6601C23.9188 19.8775 23.2428 19.998 22.5669 20.0218C21.8434 20.0464 21.0961 19.9488 20.4448 19.7314L19.6245 21.5656C19.3587 21.5885 18.997 21.5656 18.7567 21.3983C18.6361 21.3253 18.5155 21.2039 18.4679 21.0349L18.7567 20.5525L19.4564 19.2966C19.239 19.154 19.0462 19.058 18.8535 18.8635L19.4326 18.1655C20.421 18.7693 21.5063 19.1056 22.5669 19.1056C23.6284 19.1302 24.689 18.7905 25.6783 18.0925L26.3304 18.2852L26.5954 18.3829C26.4994 18.4542 26.4264 18.5273 26.3304 18.6003C26.1368 18.7914 25.9687 18.985 25.6554 19.154L26.3296 20.454ZM26.3296 10.5917C26.9563 11.3398 27.414 12.257 27.656 13.3167H26.6192C26.547 13.0017 26.451 12.69 26.3304 12.4013C25.6307 10.5688 24.2075 9.26531 22.5678 8.17836C22.3512 8.05863 22.1585 7.91427 21.9411 7.79369C22.1585 7.86672 22.3512 7.93974 22.5678 8.01277C24.0623 8.61314 25.3887 9.43429 26.3296 10.5917ZM23.5316 17.3919C23.7974 17.3435 24.2067 17.1992 24.5209 16.9588L22.8802 13.7031L24.593 12.8819L23.146 11.6277L22.5669 11.8952L20.0831 13.0263L20.8066 14.6669L21.9886 14.1379L23.5316 17.3919ZM19.0462 17.8513C18.9494 17.7783 18.8526 17.6823 18.7567 17.6093C18.5639 17.442 18.3949 17.273 18.2743 17.1032L12.6112 18.1732L15.022 18.9824L19.0462 17.8513ZM17.5033 15.8498C17.4065 15.6341 17.3343 15.4167 17.2613 15.1976L5.92646 15.8498L8.21754 16.9597L17.5033 15.8498Z" fill="#355792" style="fill:#355792;fill:color(display-p3 0.2078 0.3412 0.5725);fill-opacity:1;"/>
<defs>
<linearGradient id="paint0_linear_90_104" x1="19.6038" y1="8.56166" x2="-4.77427" y2="15.3028" gradientUnits="userSpaceOnUse">
<stop stop-color="white" style="stop-color:white;stop-opacity:1;"/>
<stop offset="0.174" stop-color="white" style="stop-color:white;stop-opacity:1;"/>
<stop offset="0.23" stop-color="#F9FAFD" style="stop-color:#F9FAFD;stop-color:color(display-p3 0.9765 0.9804 0.9922);stop-opacity:1;"/>
<stop offset="0.306" stop-color="#E8ECF6" style="stop-color:#E8ECF6;stop-color:color(display-p3 0.9098 0.9255 0.9647);stop-opacity:1;"/>
<stop offset="0.354" stop-color="#D9E0F1" style="stop-color:#D9E0F1;stop-color:color(display-p3 0.8510 0.8784 0.9451);stop-opacity:1;"/>
<stop offset="0.469" stop-color="#EDF0F8" style="stop-color:#EDF0F8;stop-color:color(display-p3 0.9294 0.9412 0.9725);stop-opacity:1;"/>
<stop offset="0.592" stop-color="#FAFBFD" style="stop-color:#FAFBFD;stop-color:color(display-p3 0.9804 0.9843 0.9922);stop-opacity:1;"/>
<stop offset="0.7" stop-color="white" style="stop-color:white;stop-opacity:1;"/>
<stop offset="1" stop-color="white" style="stop-color:white;stop-opacity:1;"/>
</linearGradient>
<linearGradient id="paint1_linear_90_104" x1="18.0552" y1="8.97986" x2="2.74543" y2="14.6086" gradientUnits="userSpaceOnUse">
<stop stop-color="#C7D6EE" style="stop-color:#C7D6EE;stop-color:color(display-p3 0.7804 0.8392 0.9333);stop-opacity:1;"/>
<stop offset="0.073" stop-color="#C7D6EE" style="stop-color:#C7D6EE;stop-color:color(display-p3 0.7804 0.8392 0.9333);stop-opacity:1;"/>
<stop offset="0.118" stop-color="#AFC6E4" style="stop-color:#AFC6E4;stop-color:color(display-p3 0.6863 0.7765 0.8941);stop-opacity:1;"/>
<stop offset="0.214" stop-color="#719DCA" style="stop-color:#719DCA;stop-color:color(display-p3 0.4431 0.6157 0.7922);stop-opacity:1;"/>
<stop offset="0.352" stop-color="#0E5BA1" style="stop-color:#0E5BA1;stop-color:color(display-p3 0.0549 0.3569 0.6314);stop-opacity:1;"/>
<stop offset="0.371" stop-color="#00529B" style="stop-color:#00529B;stop-color:color(display-p3 0.0000 0.3216 0.6078);stop-opacity:1;"/>
<stop offset="0.43" stop-color="#08579E" style="stop-color:#08579E;stop-color:color(display-p3 0.0314 0.3412 0.6196);stop-opacity:1;"/>
<stop offset="0.522" stop-color="#1E66A8" style="stop-color:#1E66A8;stop-color:color(display-p3 0.1176 0.4000 0.6588);stop-opacity:1;"/>
<stop offset="0.636" stop-color="#437EB7" style="stop-color:#437EB7;stop-color:color(display-p3 0.2627 0.4941 0.7176);stop-opacity:1;"/>
<stop offset="0.767" stop-color="#75A0CC" style="stop-color:#75A0CC;stop-color:color(display-p3 0.4588 0.6275 0.8000);stop-opacity:1;"/>
<stop offset="0.912" stop-color="#B5CAE7" style="stop-color:#B5CAE7;stop-color:color(display-p3 0.7098 0.7922 0.9059);stop-opacity:1;"/>
<stop offset="0.949" stop-color="#C7D6EE" style="stop-color:#C7D6EE;stop-color:color(display-p3 0.7804 0.8392 0.9333);stop-opacity:1;"/>
<stop offset="1" stop-color="#C7D6EE" style="stop-color:#C7D6EE;stop-color:color(display-p3 0.7804 0.8392 0.9333);stop-opacity:1;"/>
</linearGradient>
<linearGradient id="paint2_linear_90_104" x1="19.7446" y1="17.4826" x2="9.69641" y2="20.2654" gradientUnits="userSpaceOnUse">
<stop stop-color="#F8ABAD" style="stop-color:#F8ABAD;stop-color:color(display-p3 0.9725 0.6706 0.6784);stop-opacity:1;"/>
<stop offset="0.056" stop-color="#F8ABAD" style="stop-color:#F8ABAD;stop-color:color(display-p3 0.9725 0.6706 0.6784);stop-opacity:1;"/>
<stop offset="0.101" stop-color="#F8A6A8" style="stop-color:#F8A6A8;stop-color:color(display-p3 0.9725 0.6510 0.6588);stop-opacity:1;"/>
<stop offset="0.156" stop-color="#F6979A" style="stop-color:#F6979A;stop-color:color(display-p3 0.9647 0.5922 0.6039);stop-opacity:1;"/>
<stop offset="0.215" stop-color="#F57E82" style="stop-color:#F57E82;stop-color:color(display-p3 0.9608 0.4941 0.5098);stop-opacity:1;"/>
<stop offset="0.278" stop-color="#F25C62" style="stop-color:#F25C62;stop-color:color(display-p3 0.9490 0.3608 0.3843);stop-opacity:1;"/>
<stop offset="0.343" stop-color="#EF3138" style="stop-color:#EF3138;stop-color:color(display-p3 0.9373 0.1922 0.2196);stop-opacity:1;"/>
<stop offset="0.371" stop-color="#ED1C24" style="stop-color:#ED1C24;stop-color:color(display-p3 0.9294 0.1098 0.1412);stop-opacity:1;"/>
<stop offset="0.46" stop-color="#D1181E" style="stop-color:#D1181E;stop-color:color(display-p3 0.8196 0.0941 0.1176);stop-opacity:1;"/>
<stop offset="0.517" stop-color="#C4161C" style="stop-color:#C4161C;stop-color:color(display-p3 0.7686 0.0863 0.1098);stop-opacity:1;"/>
<stop offset="0.607" stop-color="#D1181E" style="stop-color:#D1181E;stop-color:color(display-p3 0.8196 0.0941 0.1176);stop-opacity:1;"/>
<stop offset="0.747" stop-color="#ED1C24" style="stop-color:#ED1C24;stop-color:color(display-p3 0.9294 0.1098 0.1412);stop-opacity:1;"/>
<stop offset="0.961" stop-color="#F8ABAD" style="stop-color:#F8ABAD;stop-color:color(display-p3 0.9725 0.6706 0.6784);stop-opacity:1;"/>
<stop offset="1" stop-color="#F8ABAD" style="stop-color:#F8ABAD;stop-color:color(display-p3 0.9725 0.6706 0.6784);stop-opacity:1;"/>
</linearGradient>
</defs>
</svg>
