<svg width="36" height="36" viewBox="0 0 36 36" fill="none" xmlns="http://www.w3.org/2000/svg">
<path d="M18.8459 35.9818C18.5655 35.9936 18.2843 36 18.0015 36C13.0316 36 8.52993 33.9854 5.27364 30.7277C2.01599 27.4701 0 22.9698 0 17.9998C0 13.0302 2.01599 8.5299 5.27364 5.27226C6.49811 4.04643 7.90002 2.99702 9.43592 2.16443L7.20546 7.08557L7.14519 7.14483C4.36765 9.92238 2.64995 13.7615 2.64995 17.9998C2.64995 22.2399 4.36765 26.0776 7.14519 28.8565C9.84632 31.5576 13.5511 33.2568 17.6531 33.3474" fill="#F3E3CD"/>
<path d="M18.0018 -2.5801e-05C22.9714 -2.5801e-05 27.472 2.01461 30.7294 5.27225C33.987 8.52989 36.002 13.0302 36.002 17.9998C36.002 22.9698 33.987 27.4701 30.7294 30.7277C29.5039 31.9535 28.102 33.0029 26.5657 33.8365L28.7948 28.9154L28.8568 28.8551C31.6343 26.0776 33.353 22.2385 33.353 17.9998C33.353 13.7601 31.6343 9.92237 28.8568 7.14347C26.158 4.44504 22.456 2.74587 18.3593 2.65228L17.1665 0.0181394C17.4429 0.00635585 17.7217 -2.5801e-05 18.0018 -2.5801e-05Z" fill="#F3E3CD"/>
<path d="M14.7323 0.283789C14.0024 0.418121 13.2856 0.595549 12.5887 0.815059L3.11035 21.7376C3.41538 22.9567 3.86652 24.1178 4.44391 25.2029L13.7815 4.59218L22.802 24.5033L24.2537 21.2995" fill="#F3E3CD"/>
<path d="M31.5592 10.7984L22.222 31.4079L13.1988 11.4927L11.7471 14.6964L21.2712 35.7162C22.0011 35.5819 22.7165 35.4045 23.4134 35.1846L32.8928 14.2625C32.5878 13.0434 32.1366 11.8822 31.5592 10.7984Z" fill="#F3E3CD"/>
<path d="M24.0746 6.39673L27.54 14.0466L26.0879 17.2504L20.6133 5.16686C21.8374 5.41432 23 5.83247 24.0746 6.39673Z" fill="#F3E3CD"/>
<path d="M11.928 29.6031L8.45996 21.9492L9.9117 18.7455L15.388 30.833C14.1635 30.5856 13.0023 30.1674 11.928 29.6031Z" fill="#F3E3CD"/>
</svg>
