<svg width="78" height="134" viewBox="0 0 78 134" fill="none" xmlns="http://www.w3.org/2000/svg">
<path d="M34.3674 89.4265L38.8442 93.9032L66.3381 66.4093C73.3571 59.3817 77.6969 49.6749 77.6969 38.9496C77.7055 17.4902 60.3121 0.0968018 38.8528 0.0968018C17.3934 0.0968018 0 17.4902 0 38.9496C0 49.6578 4.34836 59.3903 11.3417 66.3836C11.9323 66.9742 12.7198 67.3252 13.61 67.3252C15.3562 67.3252 16.7686 65.9128 16.7686 64.1666C16.7686 63.285 16.3919 62.4718 15.8013 61.8812C9.96356 56.0434 6.3171 47.8945 6.3171 38.941C6.3171 20.9997 20.9115 6.40535 38.8528 6.40535C56.794 6.40535 71.3884 20.9997 71.3884 38.941C71.3884 47.9116 67.7334 56.052 61.8443 61.9411L34.3674 89.4265Z" fill="#96F006" style="fill:#96F006;fill:color(display-p3 0.5882 0.9412 0.0235);fill-opacity:1;"/>
<path d="M23.1539 47.3381H18.0352L36.2931 29.4139H41.4119L23.1539 47.3381Z" fill="#96F006" style="fill:#96F006;fill:color(display-p3 0.5882 0.9412 0.0235);fill-opacity:1;"/>
<path d="M32.9205 47.3381H27.8018L46.0512 29.4139H51.1699L32.9205 47.3381Z" fill="#96F006" style="fill:#96F006;fill:color(display-p3 0.5882 0.9412 0.0235);fill-opacity:1;"/>
<path d="M43.192 47.3381H38.0732L56.3312 29.4139H61.45L43.192 47.3381Z" fill="#96F006" style="fill:#96F006;fill:color(display-p3 0.5882 0.9412 0.0235);fill-opacity:1;"/>
<path d="M14.5706 129.456H0V112.199H3.84326V126.161H11.2088V112.199H14.9845V126.161H17.7212V133.045H14.5706V129.456Z" fill="#96F006" style="fill:#96F006;fill:color(display-p3 0.5882 0.9412 0.0235);fill-opacity:1;"/>
<path d="M32.8496 120.831C32.8496 117.748 30.9998 115.409 28.2377 115.409C25.5516 115.409 23.6765 117.748 23.6765 120.831C23.6765 123.914 25.5516 126.254 28.2377 126.254C30.9998 126.263 32.8496 123.914 32.8496 120.831ZM19.6812 120.831C19.6812 115.628 23.3301 111.903 28.2377 111.903C33.1959 111.903 36.8196 115.628 36.8196 120.831C36.8196 126.035 33.1959 129.76 28.2377 129.76C23.3301 129.76 19.6812 126.035 19.6812 120.831Z" fill="#96F006" style="fill:#96F006;fill:color(display-p3 0.5882 0.9412 0.0235);fill-opacity:1;"/>
<path d="M43.5853 126.161H49.2023V115.561H45.0128C44.9367 115.831 44.9874 115.662 44.7425 119.015C44.5735 122.098 44.2272 124.464 43.5853 126.119V126.161ZM38.2554 126.161H39.4379C40.4515 125.443 40.9161 122.757 41.4145 117.258C41.7608 112.968 41.8368 112.199 41.8368 112.199H53.0371V126.153H55.7992V133.037H52.5641V129.464H41.4398V133.037H38.2554V126.161Z" fill="#96F006" style="fill:#96F006;fill:color(display-p3 0.5882 0.9412 0.0235);fill-opacity:1;"/>
<path d="M63.2747 126.161H68.9002V115.561H64.7107C64.6346 115.831 64.6853 115.662 64.4404 119.015C64.2714 122.098 63.9251 124.464 63.2832 126.119V126.161H63.2747ZM57.9448 126.161H59.1274C60.141 125.443 60.6055 122.757 61.1039 117.258C61.4502 112.968 61.5262 112.199 61.5262 112.199H72.7266V126.153H75.4887V133.037H72.2536V129.464H61.1292V133.037H57.9448V126.161Z" fill="#96F006" style="fill:#96F006;fill:color(display-p3 0.5882 0.9412 0.0235);fill-opacity:1;"/>
</svg>
