<svg width="78" height="94" viewBox="0 0 78 94" fill="none" xmlns="http://www.w3.org/2000/svg">
<path d="M34.3674 89.4265L38.8442 93.9032L66.3381 66.4093C73.3571 59.3817 77.6969 49.6749 77.6969 38.9496C77.7055 17.4902 60.3121 0.0968018 38.8528 0.0968018C17.3934 0.0968018 0 17.4902 0 38.9496C0 49.6578 4.34836 59.3903 11.3417 66.3836C11.9323 66.9742 12.7198 67.3252 13.61 67.3252C15.3562 67.3252 16.7686 65.9128 16.7686 64.1666C16.7686 63.285 16.3919 62.4718 15.8013 61.8812C9.96356 56.0434 6.3171 47.8945 6.3171 38.941C6.3171 20.9997 20.9115 6.40535 38.8528 6.40535C56.794 6.40535 71.3884 20.9997 71.3884 38.941C71.3884 47.9116 67.7334 56.052 61.8443 61.9411L34.3674 89.4265Z" fill="#96F006" style="fill:#96F006;fill:color(display-p3 0.5882 0.9412 0.0235);fill-opacity:1;"/>
<path d="M23.1539 47.3381H18.0352L36.2931 29.4139H41.4119L23.1539 47.3381Z" fill="#96F006" style="fill:#96F006;fill:color(display-p3 0.5882 0.9412 0.0235);fill-opacity:1;"/>
<path d="M32.9205 47.3381H27.8018L46.0512 29.4139H51.1699L32.9205 47.3381Z" fill="#96F006" style="fill:#96F006;fill:color(display-p3 0.5882 0.9412 0.0235);fill-opacity:1;"/>
<path d="M43.192 47.3381H38.0732L56.3312 29.4139H61.45L43.192 47.3381Z" fill="#96F006" style="fill:#96F006;fill:color(display-p3 0.5882 0.9412 0.0235);fill-opacity:1;"/>
</svg>
