<svg width="109" height="54" viewBox="0 0 109 54" fill="none" xmlns="http://www.w3.org/2000/svg">
<path d="M26.6971 17.5819H22.4085C21.6549 17.5819 21.0449 16.9703 21.0449 16.2149V1.36696C21.0449 0.611533 21.6549 7.05661e-07 22.4085 7.05661e-07H35.0751C35.0751 7.05661e-07 51.6491 -0.0359735 52.5809 16.1368C52.6254 16.9207 52.0018 17.5806 51.2186 17.5806H46.9027C46.19 17.5806 45.6048 17.0286 45.5429 16.3166C44.7374 7.032 35.0738 7.032 35.0738 7.032H28.0594V16.2137C28.0606 16.9691 27.4506 17.5819 26.6971 17.5819Z" fill="white" style="fill:white;fill-opacity:1;"/>
<path d="M81.9079 17.5819H86.1965C86.9501 17.5819 87.5601 16.9703 87.5601 16.2149V1.36696C87.5601 0.611533 86.9501 7.05661e-07 86.1965 7.05661e-07H73.5299C73.5299 7.05661e-07 56.9558 -0.0359735 56.0241 16.1368C55.9796 16.9207 56.6032 17.5806 57.3864 17.5806H61.7022C62.415 17.5806 63.0002 17.0286 63.0621 16.3166C63.8676 7.032 73.5312 7.032 73.5312 7.032H80.5456V16.2137C80.5444 16.9691 81.1544 17.5819 81.9079 17.5819Z" fill="white" style="fill:white;fill-opacity:1;"/>
<path d="M33.667 21.0969C34.444 21.0969 35.0751 21.7283 35.0751 22.5085V26.7173C35.0751 27.4963 34.4453 28.1289 33.667 28.1289H28.0606V31.6455H35.0751C35.0751 31.6455 44.7386 31.6455 45.5441 22.3609C45.606 21.6489 46.19 21.0969 46.904 21.0969H51.2198C52.003 21.0969 52.6266 21.7568 52.5821 22.5408C51.6504 38.7135 35.0763 38.6775 35.0763 38.6775H22.4085C21.6549 38.6775 21.0449 38.066 21.0449 37.3106V22.4639C21.0449 21.7085 21.6549 21.0969 22.4085 21.0969H33.667Z" fill="white" style="fill:white;fill-opacity:1;"/>
<path d="M74.937 21.0969C74.16 21.0969 73.5289 21.7283 73.5289 22.5085V26.7173C73.5289 27.4963 74.1588 28.1289 74.937 28.1289H80.5434V31.6455H73.5289C73.5289 31.6455 63.8654 31.6455 63.0599 22.3609C62.998 21.6489 62.414 21.0969 61.7 21.0969H57.3842C56.601 21.0969 55.9774 21.7568 56.0219 22.5408C56.9536 38.7135 73.5277 38.6775 73.5277 38.6775H86.1955C86.9491 38.6775 87.5591 38.066 87.5591 37.3106V22.4639C87.5591 21.7085 86.9491 21.0969 86.1955 21.0969H74.937Z" fill="white" style="fill:white;fill-opacity:1;"/>
<path d="M96.8359 17.5819H92.5646C91.8073 17.5819 91.1924 16.9666 91.1924 16.2062V1.37564C91.1924 0.616494 91.8061 0 92.5646 0H96.8359C97.5931 0 98.2081 0.615254 98.2081 1.37564V16.2062C98.2068 16.9654 97.5931 17.5819 96.8359 17.5819Z" fill="white" style="fill:white;fill-opacity:1;"/>
<path d="M93.5316 38.6775C92.2571 38.6775 91.2202 37.6939 91.2202 36.4162V31.6455V22.4825C91.2202 21.7171 91.8389 21.0969 92.6023 21.0969H96.8526C97.616 21.0969 98.2347 21.7171 98.2347 22.4825V31.6455H107.374C108.137 31.6455 108.757 32.2658 108.757 33.0323V37.292C108.757 38.0573 108.138 38.6788 107.374 38.6788L93.5316 38.6775Z" fill="white" style="fill:white;fill-opacity:1;"/>
<path d="M16.1533 7.03324H11.9043C11.1409 7.03324 10.521 6.41303 10.521 5.64644V1.3868C10.521 0.621456 11.1397 0 11.9043 0H16.1533C16.9168 0 17.5367 0.620215 17.5367 1.3868V5.64644C17.5354 6.41179 16.9168 7.03324 16.1533 7.03324Z" fill="white" style="fill:white;fill-opacity:1;"/>
<path d="M16.1533 17.5823H11.9043C11.1409 17.5823 10.521 16.9621 10.521 16.1955V11.9359C10.521 11.1705 11.1397 10.5491 11.9043 10.5491H16.1533C16.9168 10.5491 17.5367 11.1693 17.5367 11.9359V16.1955C17.5354 16.9609 16.9168 17.5823 16.1533 17.5823Z" fill="white" style="fill:white;fill-opacity:1;"/>
<path d="M16.1533 28.1292H11.9043C11.1409 28.1292 10.521 27.509 10.521 26.7424V22.4827C10.521 21.7174 11.1397 21.0959 11.9043 21.0959H16.1533C16.9168 21.0959 17.5367 21.7162 17.5367 22.4827V26.7424C17.5354 27.509 16.9168 28.1292 16.1533 28.1292Z" fill="white" style="fill:white;fill-opacity:1;"/>
<path d="M16.1533 38.6778H11.9043C11.1409 38.6778 10.521 38.0576 10.521 37.291V33.0313C10.521 32.266 11.1397 31.6445 11.9043 31.6445H16.1533C16.9168 31.6445 17.5367 32.2647 17.5367 33.0313V37.291C17.5354 38.0576 16.9168 38.6778 16.1533 38.6778Z" fill="white" style="fill:white;fill-opacity:1;"/>
<path d="M5.63235 38.6778H1.38334C0.619904 38.6778 0 38.0576 0 37.291V33.0313C0 32.266 0.618667 31.6445 1.38334 31.6445H5.63235C6.39578 31.6445 7.01569 32.2647 7.01569 33.0313V37.291C7.01445 38.0576 6.39578 38.6778 5.63235 38.6778Z" fill="white" style="fill:white;fill-opacity:1;"/>
<path d="M4.52119 53.2371C4.46528 53.2371 4.41953 53.2193 4.38395 53.1837C4.34837 53.1481 4.33058 53.1024 4.33058 53.0465V52.1697H0.724305C0.668394 52.1697 0.622648 52.1519 0.587069 52.1163C0.551489 52.0756 0.533699 52.0299 0.533699 51.9791V47.0233C0.533699 46.9674 0.551489 46.9216 0.587069 46.8861C0.622648 46.8505 0.668394 46.8327 0.724305 46.8327H1.70784C1.76375 46.8327 1.80949 46.8505 1.84507 46.8861C1.88065 46.9216 1.89844 46.9674 1.89844 47.0233V50.9498H3.78164V47.0233C3.78164 46.9674 3.79943 46.9216 3.83501 46.8861C3.87059 46.8505 3.91633 46.8327 3.97224 46.8327H4.95577C5.01168 46.8327 5.05743 46.8505 5.09301 46.8861C5.12859 46.9216 5.14638 46.9674 5.14638 47.0233V50.9498H5.50472C5.56063 50.9498 5.60638 50.9701 5.64196 51.0108C5.68262 51.0464 5.70295 51.0896 5.70295 51.1404V53.0465C5.70295 53.1024 5.68262 53.1481 5.64196 53.1837C5.60638 53.2193 5.56063 53.2371 5.50472 53.2371H4.52119ZM10.6379 52.1697C10.582 52.1697 10.5363 52.1519 10.5007 52.1163C10.4651 52.0756 10.4473 52.0299 10.4473 51.9791V47.0233C10.4473 46.9674 10.4651 46.9216 10.5007 46.8861C10.5414 46.8505 10.5871 46.8327 10.6379 46.8327H11.6215C11.6774 46.8327 11.7231 46.8505 11.7587 46.8861C11.7943 46.9216 11.8121 46.9674 11.8121 47.0233V50.0959L13.985 46.9776C14.0104 46.9369 14.0434 46.9039 14.0841 46.8784C14.1248 46.8479 14.1781 46.8327 14.2442 46.8327H15.1286C15.1795 46.8327 15.2227 46.8505 15.2582 46.8861C15.2989 46.9216 15.3192 46.9674 15.3192 47.0233V51.9791C15.3192 52.035 15.2989 52.0807 15.2582 52.1163C15.2227 52.1519 15.1795 52.1697 15.1286 52.1697H14.1451C14.0892 52.1697 14.0409 52.1519 14.0002 52.1163C13.9647 52.0807 13.9469 52.035 13.9469 51.9791V49.0209L11.7816 52.0248C11.7562 52.0604 11.7231 52.0934 11.6825 52.1239C11.6469 52.1544 11.5935 52.1697 11.5223 52.1697H10.6379ZM22.8545 52.4137C22.8036 52.4137 22.7579 52.3959 22.7172 52.3603C22.6816 52.3247 22.6638 52.279 22.6638 52.223V51.697C21.9065 51.697 21.3169 51.5292 20.895 51.1938C20.4731 50.8532 20.2342 50.3475 20.1783 49.6765C20.1783 49.6359 20.1758 49.58 20.1707 49.5088C20.1707 49.4326 20.1707 49.3563 20.1707 49.2801C20.1758 49.2038 20.1783 49.1479 20.1783 49.1123C20.2037 48.6701 20.3181 48.2991 20.5214 47.9992C20.7298 47.6942 21.017 47.4655 21.383 47.313C21.7489 47.1555 22.1759 47.0767 22.6638 47.0767V46.6345C22.6638 46.5836 22.6816 46.5404 22.7172 46.5048C22.7579 46.4642 22.8036 46.4439 22.8545 46.4439H23.8456C23.8964 46.4439 23.9396 46.4642 23.9752 46.5048C24.0159 46.5404 24.0362 46.5836 24.0362 46.6345V47.0767C24.5292 47.0767 24.9562 47.1555 25.3171 47.313C25.6831 47.4655 25.9702 47.6942 26.1786 47.9992C26.387 48.2991 26.5014 48.6701 26.5217 49.1123C26.5268 49.2242 26.5293 49.3182 26.5293 49.3944C26.5344 49.4656 26.5319 49.5596 26.5217 49.6765C26.4709 50.3475 26.2345 50.8532 25.8127 51.1938C25.3908 51.5292 24.7986 51.697 24.0362 51.697V52.223C24.0362 52.279 24.0159 52.3247 23.9752 52.3603C23.9396 52.3959 23.8964 52.4137 23.8456 52.4137H22.8545ZM22.6715 50.5991V48.1746C22.3411 48.1746 22.0844 48.2508 21.9014 48.4033C21.7235 48.5558 21.6219 48.7998 21.5964 49.1352C21.5914 49.2216 21.5888 49.3055 21.5888 49.3868C21.5888 49.4631 21.5914 49.5444 21.5964 49.6308C21.6117 49.9663 21.7108 50.2128 21.8938 50.3704C22.0768 50.5228 22.336 50.5991 22.6715 50.5991ZM24.0286 50.5991C24.3641 50.5991 24.6233 50.5228 24.8063 50.3704C24.9892 50.2128 25.0884 49.9663 25.1036 49.6308C25.1087 49.5952 25.1112 49.5469 25.1112 49.4859C25.1112 49.4199 25.1112 49.3538 25.1112 49.2877C25.1112 49.2216 25.1087 49.1708 25.1036 49.1352C25.0782 48.7998 24.974 48.5558 24.791 48.4033C24.6131 48.2508 24.359 48.1746 24.0286 48.1746V50.5991ZM31.5746 52.1697C31.5187 52.1697 31.4729 52.1519 31.4373 52.1163C31.4018 52.0807 31.384 52.035 31.384 51.9791V47.0233C31.384 46.9674 31.4018 46.9216 31.4373 46.8861C31.4729 46.8505 31.5187 46.8327 31.5746 46.8327H33.7094C34.1313 46.8327 34.4972 46.8988 34.8073 47.0309C35.1224 47.158 35.3664 47.3511 35.5392 47.6104C35.7171 47.8696 35.8061 48.1974 35.8061 48.5939C35.8061 48.9853 35.7171 49.308 35.5392 49.5622C35.3664 49.8163 35.1224 50.0044 34.8073 50.1264C34.4972 50.2484 34.1313 50.3094 33.7094 50.3094H32.8021V51.9791C32.8021 52.035 32.7818 52.0807 32.7411 52.1163C32.7055 52.1519 32.6598 52.1697 32.6039 52.1697H31.5746ZM32.7792 49.2572H33.6713C33.8898 49.2572 34.0626 49.2013 34.1897 49.0895C34.3219 48.9777 34.3879 48.8074 34.3879 48.5786C34.3879 48.3855 34.332 48.2228 34.2202 48.0907C34.1084 47.9585 33.9254 47.8925 33.6713 47.8925H32.7792V49.2572ZM42.6815 52.2459C42.2139 52.2459 41.8072 52.1697 41.4616 52.0172C41.116 51.8647 40.8466 51.636 40.6534 51.331C40.4603 51.021 40.3535 50.6347 40.3332 50.1721C40.3281 49.9536 40.3256 49.735 40.3256 49.5164C40.3256 49.2979 40.3281 49.0768 40.3332 48.8531C40.3535 48.3957 40.4603 48.0119 40.6534 47.7019C40.8517 47.3867 41.1236 47.1504 41.4692 46.9928C41.8148 46.8352 42.2189 46.7564 42.6815 46.7564C43.1389 46.7564 43.5405 46.8352 43.8861 46.9928C44.2368 47.1504 44.5113 47.3867 44.7095 47.7019C44.9078 48.0119 45.0145 48.3957 45.0297 48.8531C45.0399 49.0768 45.045 49.2979 45.045 49.5164C45.045 49.735 45.0399 49.9536 45.0297 50.1721C45.0094 50.6347 44.9027 51.021 44.7095 51.331C44.5164 51.636 44.247 51.8647 43.9014 52.0172C43.5557 52.1697 43.1491 52.2459 42.6815 52.2459ZM42.6815 51.148C42.9509 51.148 43.1694 51.0667 43.3372 50.904C43.51 50.7414 43.6015 50.4822 43.6116 50.1264C43.6218 49.9027 43.6269 49.6918 43.6269 49.4936C43.6269 49.2953 43.6218 49.0895 43.6116 48.876C43.6015 48.6371 43.5557 48.444 43.4744 48.2966C43.3982 48.1441 43.2914 48.0322 43.1542 47.9611C43.0169 47.8899 42.8594 47.8543 42.6815 47.8543C42.5087 47.8543 42.3536 47.8899 42.2164 47.9611C42.0792 48.0322 41.9699 48.1441 41.8886 48.2966C41.8072 48.444 41.7615 48.6371 41.7513 48.876C41.7462 49.0895 41.7437 49.2953 41.7437 49.4936C41.7437 49.6918 41.7462 49.9027 41.7513 50.1264C41.7666 50.4822 41.8581 50.7414 42.0258 50.904C42.1935 51.0667 42.4121 51.148 42.6815 51.148ZM50.084 52.1697C50.0281 52.1697 49.9823 52.1519 49.9467 52.1163C49.9112 52.0807 49.8934 52.035 49.8934 51.9791V47.0233C49.8934 46.9674 49.9112 46.9216 49.9467 46.8861C49.9823 46.8505 50.0281 46.8327 50.084 46.8327H52.4094C52.8465 46.8327 53.2048 46.8937 53.4844 47.0157C53.764 47.1377 53.9698 47.313 54.102 47.5417C54.2392 47.7654 54.3078 48.0322 54.3078 48.3423C54.3078 48.5253 54.2722 48.6879 54.2011 48.8302C54.135 48.9675 54.0511 49.0819 53.9495 49.1733C53.8529 49.2648 53.7614 49.3309 53.675 49.3716C53.8682 49.4631 54.0384 49.613 54.1858 49.8214C54.3383 50.0298 54.4146 50.2738 54.4146 50.5533C54.4146 50.8888 54.3383 51.1785 54.1858 51.4225C54.0384 51.6614 53.8199 51.8469 53.5301 51.9791C53.2455 52.1061 52.8948 52.1697 52.478 52.1697H50.084ZM51.2581 51.1785H52.3255C52.5441 51.1785 52.7093 51.115 52.8211 50.9879C52.9329 50.8608 52.9888 50.716 52.9888 50.5533C52.9888 50.3754 52.9304 50.2255 52.8135 50.1035C52.7016 49.9815 52.539 49.9205 52.3255 49.9205H51.2581V51.1785ZM51.2581 48.9522H52.2569C52.4653 48.9522 52.6203 48.8989 52.722 48.7921C52.8287 48.6854 52.8821 48.5482 52.8821 48.3804C52.8821 48.2178 52.8287 48.0856 52.722 47.984C52.6203 47.8772 52.4653 47.8238 52.2569 47.8238H51.2581V48.9522ZM61.4068 52.2459C60.9392 52.2459 60.5325 52.1697 60.1869 52.0172C59.8413 51.8647 59.5719 51.636 59.3787 51.331C59.1856 51.021 59.0788 50.6347 59.0585 50.1721C59.0534 49.9536 59.0509 49.735 59.0509 49.5164C59.0509 49.2979 59.0534 49.0768 59.0585 48.8531C59.0788 48.3957 59.1856 48.0119 59.3787 47.7019C59.577 47.3867 59.8489 47.1504 60.1945 46.9928C60.5402 46.8352 60.9443 46.7564 61.4068 46.7564C61.8642 46.7564 62.2658 46.8352 62.6114 46.9928C62.9621 47.1504 63.2366 47.3867 63.4348 47.7019C63.6331 48.0119 63.7398 48.3957 63.7551 48.8531C63.7652 49.0768 63.7703 49.2979 63.7703 49.5164C63.7703 49.735 63.7652 49.9536 63.7551 50.1721C63.7347 50.6347 63.628 51.021 63.4348 51.331C63.2417 51.636 62.9723 51.8647 62.6267 52.0172C62.281 52.1697 61.8744 52.2459 61.4068 52.2459ZM61.4068 51.148C61.6762 51.148 61.8947 51.0667 62.0625 50.904C62.2353 50.7414 62.3268 50.4822 62.3369 50.1264C62.3471 49.9027 62.3522 49.6918 62.3522 49.4936C62.3522 49.2953 62.3471 49.0895 62.3369 48.876C62.3268 48.6371 62.281 48.444 62.1997 48.2966C62.1235 48.1441 62.0167 48.0322 61.8795 47.9611C61.7423 47.8899 61.5847 47.8543 61.4068 47.8543C61.234 47.8543 61.0789 47.8899 60.9417 47.9611C60.8045 48.0322 60.6952 48.1441 60.6139 48.2966C60.5325 48.444 60.4868 48.6371 60.4766 48.876C60.4715 49.0895 60.469 49.2953 60.469 49.4936C60.469 49.6918 60.4715 49.9027 60.4766 50.1264C60.4919 50.4822 60.5834 50.7414 60.7511 50.904C60.9188 51.0667 61.1374 51.148 61.4068 51.148ZM68.8093 52.1697C68.7534 52.1697 68.7076 52.1519 68.6721 52.1163C68.6365 52.0756 68.6187 52.0299 68.6187 51.9791V47.0233C68.6187 46.9674 68.6365 46.9216 68.6721 46.8861C68.7127 46.8505 68.7585 46.8327 68.8093 46.8327H69.7928C69.8487 46.8327 69.8945 46.8505 69.9301 46.8861C69.9656 46.9216 69.9834 46.9674 69.9834 47.0233V50.0959L72.1563 46.9776C72.1818 46.9369 72.2148 46.9039 72.2555 46.8784C72.2961 46.8479 72.3495 46.8327 72.4156 46.8327H73.3C73.3508 46.8327 73.394 46.8505 73.4296 46.8861C73.4703 46.9216 73.4906 46.9674 73.4906 47.0233V51.9791C73.4906 52.035 73.4703 52.0807 73.4296 52.1163C73.394 52.1519 73.3508 52.1697 73.3 52.1697H72.3165C72.2605 52.1697 72.2123 52.1519 72.1716 52.1163C72.136 52.0807 72.1182 52.035 72.1182 51.9791V49.0209L69.9529 52.0248C69.9275 52.0604 69.8945 52.0934 69.8538 52.1239C69.8182 52.1544 69.7649 52.1697 69.6937 52.1697H68.8093ZM71.0813 46.5201C70.756 46.5201 70.4943 46.4718 70.296 46.3752C70.0978 46.2736 69.9529 46.1414 69.8614 45.9788C69.77 45.811 69.7242 45.6281 69.7242 45.4298C69.7242 45.3892 69.7369 45.3561 69.7623 45.3307C69.7877 45.3002 69.8233 45.285 69.8691 45.285H70.479C70.5248 45.285 70.5603 45.3002 70.5858 45.3307C70.6112 45.3561 70.6239 45.3892 70.6239 45.4298C70.6239 45.4959 70.6366 45.562 70.662 45.6281C70.6874 45.6891 70.7332 45.7399 70.7992 45.7805C70.8653 45.8161 70.9593 45.8339 71.0813 45.8339C71.2033 45.8339 71.2948 45.8161 71.3558 45.7805C71.4219 45.7399 71.4676 45.6891 71.493 45.6281C71.5185 45.562 71.5312 45.4959 71.5312 45.4298C71.5312 45.3892 71.5439 45.3561 71.5693 45.3307C71.5947 45.3002 71.6303 45.285 71.676 45.285H72.286C72.3317 45.285 72.3673 45.3002 72.3927 45.3307C72.4181 45.3561 72.4308 45.3892 72.4308 45.4298C72.4308 45.6281 72.3851 45.811 72.2936 45.9788C72.2072 46.1414 72.0649 46.2736 71.8666 46.3752C71.6684 46.4718 71.4066 46.5201 71.0813 46.5201ZM84.2958 52.1697C84.245 52.1697 84.1992 52.1519 84.1585 52.1163C84.123 52.0807 84.1052 52.035 84.1052 51.9791V47.0233C84.1052 46.9674 84.123 46.9216 84.1585 46.8861C84.1992 46.8505 84.245 46.8327 84.2958 46.8327H85.1192C85.2005 46.8327 85.2615 46.8556 85.3022 46.9013C85.3479 46.942 85.3759 46.975 85.3861 47.0004L86.7279 49.4097L88.0698 47.0004C88.085 46.975 88.1105 46.942 88.146 46.9013C88.1867 46.8556 88.2502 46.8327 88.3366 46.8327H89.1524C89.2084 46.8327 89.2541 46.8505 89.2897 46.8861C89.3303 46.9216 89.3507 46.9674 89.3507 47.0233V51.9791C89.3507 52.035 89.3303 52.0807 89.2897 52.1163C89.2541 52.1519 89.2084 52.1697 89.1524 52.1697H88.2452C88.1892 52.1697 88.141 52.1519 88.1003 52.1163C88.0647 52.0807 88.0469 52.035 88.0469 51.9791V49.12L87.1854 50.7134C87.1651 50.7592 87.1346 50.7999 87.0939 50.8354C87.0532 50.871 86.9973 50.8888 86.9262 50.8888H86.5297C86.4585 50.8888 86.4026 50.871 86.362 50.8354C86.3213 50.7999 86.2883 50.7592 86.2628 50.7134L85.4013 49.12V51.9791C85.4013 52.035 85.3835 52.0807 85.3479 52.1163C85.3124 52.1519 85.2666 52.1697 85.2107 52.1697H84.2958ZM94.5668 52.1697C94.5109 52.1697 94.4651 52.1519 94.4296 52.1163C94.394 52.0756 94.3762 52.0299 94.3762 51.9791V47.0233C94.3762 46.9674 94.394 46.9216 94.4296 46.8861C94.4702 46.8505 94.516 46.8327 94.5668 46.8327H95.5503C95.6062 46.8327 95.652 46.8505 95.6876 46.8861C95.7232 46.9216 95.7409 46.9674 95.7409 47.0233V50.0959L97.9139 46.9776C97.9393 46.9369 97.9723 46.9039 98.013 46.8784C98.0536 46.8479 98.107 46.8327 98.1731 46.8327H99.0575C99.1083 46.8327 99.1515 46.8505 99.1871 46.8861C99.2278 46.9216 99.2481 46.9674 99.2481 47.0233V51.9791C99.2481 52.035 99.2278 52.0807 99.1871 52.1163C99.1515 52.1519 99.1083 52.1697 99.0575 52.1697H98.074C98.0181 52.1697 97.9698 52.1519 97.9291 52.1163C97.8935 52.0807 97.8757 52.035 97.8757 51.9791V49.0209L95.7104 52.0248C95.685 52.0604 95.652 52.0934 95.6113 52.1239C95.5757 52.1544 95.5224 52.1697 95.4512 52.1697H94.5668ZM104.466 52.1697C104.41 52.1697 104.364 52.1519 104.328 52.1163C104.293 52.0807 104.275 52.035 104.275 51.9791V47.0233C104.275 46.9674 104.293 46.9216 104.328 46.8861C104.364 46.8505 104.41 46.8327 104.466 46.8327H106.6C107.022 46.8327 107.388 46.8988 107.698 47.0309C108.013 47.158 108.257 47.3511 108.43 47.6104C108.608 47.8696 108.697 48.1974 108.697 48.5939C108.697 48.9853 108.608 49.308 108.43 49.5622C108.257 49.8163 108.013 50.0044 107.698 50.1264C107.388 50.2484 107.022 50.3094 106.6 50.3094H105.693V51.9791C105.693 52.035 105.673 52.0807 105.632 52.1163C105.596 52.1519 105.551 52.1697 105.495 52.1697H104.466ZM105.67 49.2572H106.562C106.781 49.2572 106.954 49.2013 107.081 49.0895C107.213 48.9777 107.279 48.8074 107.279 48.5786C107.279 48.3855 107.223 48.2228 107.111 48.0907C106.999 47.9585 106.816 47.8925 106.562 47.8925H105.67V49.2572Z" fill="white" style="fill:white;fill-opacity:1;"/>
</svg>
