<svg width="36" height="36" viewBox="0 0 36 36" fill="none" xmlns="http://www.w3.org/2000/svg">
<path d="M22.7 18C21.8 17.5 21.1 17.1 20.5 16.7L17.1 15C16.2 14.5 14.6 13.8 13.3 12.8C12.3 12.1 10.4 10.6 9.7 7.30005C9.7 7.30005 6.8 13.6 13.3 17.8C14.1 18.3 14.8 18.7 15.4 19L19.2 20.9C20.1 21.4 21.5 22.1 22.7 22.9C23.7 23.6 25.6 25.1 26.3 28.4C26.3 28.6 29.2 22.3 22.7 18Z" fill="black" style="fill:black;fill-opacity:1;"/>
<path d="M28.6999 4.5H17.0999C18.8999 5.1 20.7999 5.7 21.9999 6.8C23.2999 8.1 23.7999 10 23.8999 11.5C23.8999 11.6 23.9999 11.7 24.0999 11.7C24.1999 11.7 24.2999 11.6 24.2999 11.5C24.2999 11.5 24.5999 8.7 24.7999 7.7C25.1999 5.9 26.7999 5.6 27.1999 5.5C27.4999 5.4 28.3999 5.4 28.6999 5.4C28.7999 5.4 28.8999 5.4 28.8999 5.4C29.0999 5.4 29.2999 5.2 29.2999 4.9C29.1999 4.7 28.9999 4.5 28.6999 4.5Z" fill="black" style="fill:black;fill-opacity:1;"/>
<path d="M7.29995 31.5H18.9C17.1 30.9 15.2 30.3001 14 29.2001C12.7 27.9001 12.2 26 12.1 24.5C12.1 24.4 12 24.3 11.9 24.3C11.8 24.3 11.7 24.4 11.7 24.5C11.7 24.5 11.4 27.3 11.2 28.3C10.8 30.1 9.19995 30.4 8.79995 30.5C8.49995 30.6 7.59995 30.6 7.29995 30.6C7.19995 30.6 7.09995 30.6 7.09995 30.6C6.89995 30.6 6.69995 30.8 6.69995 31.1C6.79995 31.3 6.99995 31.5 7.29995 31.5Z" fill="black" style="fill:black;fill-opacity:1;"/>
</svg>
