<svg width="132" height="56" viewBox="0 0 132 56" fill="none" xmlns="http://www.w3.org/2000/svg">
<mask id="path-1-outside-1_2219_41" maskUnits="userSpaceOnUse" x="37.9644" y="0" width="56" height="15" fill="black">
<rect fill="white" x="37.9644" width="56" height="15"/>
<path d="M92.3824 1V13.5059H88.5387V4.40332H42.8082V13.5059H38.9644V1H92.3824Z"/>
</mask>
<path d="M92.3824 1V13.5059H88.5387V4.40332H42.8082V13.5059H38.9644V1H92.3824Z" fill="white" style="fill:white;fill-opacity:1;"/>
<path d="M92.3824 1H93.0044V0.377979H92.3824V1ZM92.3824 13.5059V14.1279H93.0044V13.5059H92.3824ZM88.5387 13.5059H87.9166V14.1279H88.5387V13.5059ZM88.5387 4.40332H89.1607V3.7813H88.5387V4.40332ZM42.8082 4.40332V3.7813H42.1862V4.40332H42.8082ZM42.8082 13.5059V14.1279H43.4302V13.5059H42.8082ZM38.9644 13.5059H38.3424V14.1279H38.9644V13.5059ZM38.9644 1V0.377979H38.3424V1H38.9644ZM92.3824 1H91.7604V13.5059H92.3824H93.0044V1H92.3824ZM92.3824 13.5059V12.8838H88.5387V13.5059V14.1279H92.3824V13.5059ZM88.5387 13.5059H89.1607V4.40332H88.5387H87.9166V13.5059H88.5387ZM88.5387 4.40332V3.7813H42.8082V4.40332V5.02534H88.5387V4.40332ZM42.8082 4.40332H42.1862V13.5059H42.8082H43.4302V4.40332H42.8082ZM42.8082 13.5059V12.8838H38.9644V13.5059V14.1279H42.8082V13.5059ZM38.9644 13.5059H39.5865V1H38.9644H38.3424V13.5059H38.9644ZM38.9644 1V1.62202H92.3824V1V0.377979H38.9644V1Z" fill="white" style="fill:white;fill-opacity:1;" mask="url(#path-1-outside-1_2219_41)"/>
<mask id="path-3-outside-2_2219_41" maskUnits="userSpaceOnUse" x="37.9644" y="41.417" width="56" height="14" fill="black">
<rect fill="white" x="37.9644" y="41.417" width="56" height="14"/>
<path d="M92.3824 54.417V42.6523H88.5387V51.2158H42.8082V42.6523H38.9644V54.417H92.3824Z"/>
</mask>
<path d="M92.3824 54.417V42.6523H88.5387V51.2158H42.8082V42.6523H38.9644V54.417H92.3824Z" fill="white" style="fill:white;fill-opacity:1;"/>
<path d="M92.3824 54.417H93.0044V55.039H92.3824V54.417ZM92.3824 42.6523V42.0303H93.0044V42.6523H92.3824ZM88.5387 42.6523H87.9166V42.0303H88.5387V42.6523ZM88.5387 51.2158H89.1607V51.8378H88.5387V51.2158ZM42.8082 51.2158V51.8378H42.1862V51.2158H42.8082ZM42.8082 42.6523V42.0303H43.4302V42.6523H42.8082ZM38.9644 42.6523H38.3424V42.0303H38.9644V42.6523ZM38.9644 54.417V55.039H38.3424V54.417H38.9644ZM92.3824 54.417H91.7604V42.6523H92.3824H93.0044V54.417H92.3824ZM92.3824 42.6523V43.2744H88.5387V42.6523V42.0303H92.3824V42.6523ZM88.5387 42.6523H89.1607V51.2158H88.5387H87.9166V42.6523H88.5387ZM88.5387 51.2158V51.8378H42.8082V51.2158V50.5938H88.5387V51.2158ZM42.8082 51.2158H42.1862V42.6523H42.8082H43.4302V51.2158H42.8082ZM42.8082 42.6523V43.2744H38.9644V42.6523V42.0303H42.8082V42.6523ZM38.9644 42.6523H39.5865V54.417H38.9644H38.3424V42.6523H38.9644ZM38.9644 54.417V53.795H92.3824V54.417V55.039H38.9644V54.417Z" fill="white" style="fill:white;fill-opacity:1;" mask="url(#path-3-outside-2_2219_41)"/>
<path d="M-3.05176e-05 20.3037H8.32567C11.6457 20.3037 14.1486 22.5256 14.1486 25.8456C14.1486 29.1657 11.6457 31.2854 8.32567 31.2854H3.19234V34.4267H-3.05176e-05V20.3037ZM3.19234 23.2151V28.374H8.19798C9.83247 28.374 10.9562 27.4801 10.9562 25.8456C10.9562 24.2111 9.83247 23.2151 8.19798 23.2151H3.19234Z" fill="white" style="fill:white;fill-opacity:1;"/>
<path d="M24.3572 23.1385L21.7266 29.4977H28.0092L25.4553 23.1385H24.3572ZM22.3651 20.3037H27.5495L33.5512 34.4267H30.18L29.2606 32.2815H20.5518L19.6324 34.4267H16.2102L22.3651 20.3037Z" fill="white" style="fill:white;fill-opacity:1;"/>
<path d="M37.1332 20.3037H45.4589C48.779 20.3037 51.2818 22.5256 51.2818 25.8456C51.2818 28.0165 50.2092 29.6509 48.5491 30.5448L50.7199 34.4267H47.2466L45.5866 31.2854H40.3256V34.4267H37.1332V20.3037ZM40.3256 23.2151V28.374H45.3312C46.9657 28.374 48.0894 27.4801 48.0894 25.8456C48.0894 24.2111 46.9657 23.2151 45.3312 23.2151H40.3256Z" fill="white" style="fill:white;fill-opacity:1;"/>
<path d="M53.8672 20.3037H68.5521V23.164H62.8059V34.4267H59.6135V23.164H53.8672V20.3037Z" fill="white" style="fill:white;fill-opacity:1;"/>
<path d="M72.1216 20.3037H75.314V34.4267H72.1216V20.3037Z" fill="white" style="fill:white;fill-opacity:1;"/>
<path d="M79.3902 20.3037H86.6688C90.5508 20.3037 94.2794 23.113 94.2794 27.3524C94.2794 31.5919 90.5508 34.4267 86.6688 34.4267H79.3902V20.3037ZM82.5826 23.1896V31.5153H86.6688C89.2227 31.5153 91.0871 29.7786 91.0871 27.3524C91.0871 24.9262 89.2227 23.1896 86.6688 23.1896H82.5826Z" fill="white" style="fill:white;fill-opacity:1;"/>
<path d="M101.095 27.378C101.095 30.2894 103.163 32.0516 105.819 32.0516C108.475 32.0516 110.544 30.2894 110.544 27.378C110.544 24.4665 108.475 22.7043 105.819 22.7043C103.163 22.7043 101.095 24.4665 101.095 27.378ZM113.736 27.378C113.736 31.8218 110.11 34.7843 105.819 34.7843C101.529 34.7843 97.9022 31.8218 97.9022 27.378C97.9022 22.9342 101.529 19.9717 105.819 19.9717C110.11 19.9717 113.736 22.9342 113.736 27.378Z" fill="white" style="fill:white;fill-opacity:1;"/>
<path d="M131.29 22.0659L129.758 24.4155C128.098 23.2662 126.412 22.8065 124.165 22.8065C121.407 22.8065 120.743 23.5216 120.743 24.3133C120.743 25.1305 121.483 25.3349 122.581 25.4626L126.821 25.9478C129.834 26.3053 131.699 27.5823 131.699 30.1873C131.699 33.3541 128.609 34.7843 124.369 34.7843C121.483 34.7843 119.312 34.1713 117.065 32.5113L118.572 30.034C120.513 31.3876 122.403 32.0005 124.727 32.0005C126.974 32.0005 128.609 31.4387 128.609 30.2383C128.609 29.4722 128.2 29.0891 127 28.9614L122.249 28.4251C119.363 28.0931 117.601 26.9694 117.601 24.3388C117.601 21.3508 120.564 19.9717 124.165 19.9717C126.795 19.9717 129.094 20.4314 131.29 22.0659Z" fill="white" style="fill:white;fill-opacity:1;"/>
</svg>
