<svg width="28" height="30" viewBox="0 0 28 30" fill="none" xmlns="http://www.w3.org/2000/svg">
<path d="M13.127 13.9967L13.1407 13.8386L13.0724 13.818L13.127 13.9967Z" fill="white" style="fill:white;fill-opacity:1;"/>
<path d="M12.8743 14.1632C12.8607 14.1907 12.8402 14.2044 12.806 14.2113L12.3347 14.3006L11.8975 14.7745C11.9863 14.8295 12.1092 14.9188 12.1639 14.9943C12.1844 15.0218 12.2049 15.063 12.2322 15.1248C12.321 15.3034 12.4713 15.5988 12.6899 15.6125C12.9221 15.6194 13.2295 15.5919 13.4003 15.5713L12.9358 14.019L12.8743 14.1632Z" fill="white" style="fill:white;fill-opacity:1;"/>
<path d="M24.2208 10.1082L24.2755 10.1288V10.1906C24.2755 10.1975 24.2755 10.2455 24.2686 10.328L25.9833 9.28389C25.9833 9.28389 26.0038 9.27016 26.0379 9.24956C26.0994 9.20836 26.1609 9.16713 26.2087 9.12593C26.7142 8.76186 27.1036 8.3154 27.1719 7.66974C27.247 7.01721 26.9123 6.48831 26.9123 6.48831C26.9123 6.48831 26.0174 7.72467 25.3889 8.43903C24.7195 9.20836 24.0568 9.71662 23.7426 9.94332C23.7905 9.95019 23.8314 9.96392 23.8656 9.97766C23.9885 10.0189 24.2208 10.1082 24.2208 10.1082Z" fill="white" style="fill:white;fill-opacity:1;"/>
<path d="M20.156 19.0256C20.4498 19.2316 20.969 19.4033 20.969 19.4033C20.969 19.4033 21.2832 19.1492 21.5018 18.7714C21.6726 18.483 21.5223 18.2425 21.5223 18.2425C21.5223 18.2425 21.1944 17.5282 21.0304 17.1573C21.0168 17.1504 21.01 17.1435 20.9963 17.1367C20.9895 17.1985 20.9758 17.2534 20.9417 17.3015C20.8665 17.3977 20.6069 17.7205 20.6069 17.7205L20.5591 17.7755L20.3337 17.6724C20.1629 17.59 20.0194 17.5282 19.9033 17.4458C19.8828 17.432 19.8623 17.4114 19.8486 17.3908C19.835 17.4252 19.8213 17.4595 19.8008 17.487L19.8965 18.531C19.8965 18.5241 19.9375 18.8676 20.156 19.0256Z" fill="white" style="fill:white;fill-opacity:1;"/>
<path d="M21.7337 16.6275C21.7474 16.5726 21.6859 16.4489 21.6449 16.3734C21.6039 16.3184 21.5766 16.2703 21.5698 16.2635L21.0029 15.4255C20.9551 15.5491 20.8732 15.6659 20.8254 15.7277L20.7776 15.7827L20.7024 15.7895C20.6956 15.7895 20.6137 15.8033 20.5181 15.8033C20.5112 15.8033 20.5112 15.8033 20.5044 15.8033L20.9483 16.813C20.9483 16.8199 21.0029 16.9366 21.1054 16.9778C21.2351 17.0328 21.4742 17.0809 21.5903 17.1015C21.6381 16.9572 21.72 16.7031 21.7337 16.6275Z" fill="white" style="fill:white;fill-opacity:1;"/>
<path d="M23.579 11.3864C23.5243 11.407 23.4697 11.4345 23.4219 11.4551C23.3467 11.4894 23.2716 11.5169 23.2169 11.5444C22.7797 11.7436 22.4997 11.8741 22.2059 12.0046V12.0183C22.1991 12.1076 22.1513 12.5266 21.9122 12.6846C22.0488 12.664 22.1923 12.6434 22.3152 12.6297C22.8071 12.5678 23.053 12.5266 23.4151 12.4648L23.8044 12.403C23.9001 12.3892 24.1597 12.3137 24.2553 12.1763C24.3236 12.087 24.4193 11.8054 24.4671 11.6405C24.4671 11.6268 24.4602 11.6199 24.4534 11.6131C24.3236 11.5169 24.1528 11.3864 24.0845 11.3589C23.8796 11.2765 23.8181 11.2834 23.579 11.3864Z" fill="white" style="fill:white;fill-opacity:1;"/>
<path d="M23.5518 17.8714C23.5244 17.837 23.4971 17.8096 23.4903 17.7958L22.5476 16.6625L22.5271 16.6419V16.635C22.4246 16.635 22.1172 16.6281 21.9464 16.5869C21.9328 16.5869 21.9259 16.58 21.9123 16.5732C21.9123 16.6006 21.9191 16.6281 21.9123 16.6556C21.885 16.7724 21.7415 17.2188 21.7347 17.2395L21.7074 17.315L21.6322 17.3013C21.6185 17.3013 21.4546 17.2738 21.2838 17.2326L21.8713 18.5583C21.8713 18.5583 21.9259 18.7781 22.1445 18.9223C22.3631 19.0666 23.2444 19.2108 23.2444 19.2108C23.2444 19.2108 23.3946 18.8948 23.5518 18.4621C23.6611 18.1805 23.5927 17.9676 23.5518 17.8714Z" fill="white" style="fill:white;fill-opacity:1;"/>
<path d="M20.2931 15.7899C20.2111 15.7693 20.1428 15.7418 20.095 15.7006C20.0541 15.6663 20.0199 15.6182 19.9926 15.5564C19.9994 15.6662 19.9721 15.7075 19.9448 15.735C19.8901 15.8037 19.7331 15.9891 19.7331 15.9891L19.7057 16.0166L19.8765 17.0125L19.8833 17.0675C19.8901 17.1087 19.938 17.2323 20.0062 17.2804C20.1087 17.3491 20.2384 17.4109 20.4092 17.4865L20.5048 17.5277C20.5799 17.4315 20.737 17.2392 20.7916 17.1705C20.8394 17.1087 20.819 16.9713 20.737 16.7927L20.2931 15.7899Z" fill="white" style="fill:white;fill-opacity:1;"/>
<path d="M21.4887 11.654C21.4477 11.6884 21.4067 11.7227 21.3657 11.7639C21.4477 11.7365 21.5365 11.7158 21.6253 11.7158C21.6663 11.7158 21.7004 11.7158 21.7346 11.7227C21.9122 11.7433 22.0898 11.8395 22.1103 11.8532H22.1171C22.4177 11.7227 22.6978 11.5922 23.1418 11.3861C23.2033 11.3587 23.2716 11.3312 23.3536 11.2969C23.5039 11.235 23.6747 11.1595 23.8318 11.077C23.9752 11.0015 24.0162 10.8092 24.0504 10.6374C24.0846 10.4863 24.0914 10.3421 24.0914 10.2597C24.0162 10.2322 23.8864 10.1772 23.8113 10.1566C23.7088 10.1223 23.5927 10.0948 23.4219 10.1085C23.3536 10.1154 23.2921 10.1498 23.2511 10.1841C22.9915 10.4451 22.7046 10.6649 22.6841 10.6718C22.6841 10.6718 22.1171 11.1251 21.4887 11.654Z" fill="white" style="fill:white;fill-opacity:1;"/>
<path d="M24.911 16.5525L23.8453 15.9206L23.4491 15.6939H23.4354C23.3944 15.7008 23.0665 15.7282 22.8616 15.7282C22.8138 15.7282 22.7796 15.7282 22.7455 15.7214C22.7386 15.7214 22.7386 15.7214 22.7318 15.7214C22.7591 15.7763 22.7796 15.845 22.7796 15.9137C22.7796 16.0167 22.7045 16.3602 22.6703 16.5044L22.6908 16.5456L23.6677 17.7064L23.6745 17.7133L23.6813 17.7202C23.6813 17.7202 23.695 17.7408 23.7087 17.7683C23.7906 17.8507 23.9478 17.9675 24.2005 17.9675C24.5557 17.9675 25.2115 17.9537 25.2115 17.9537C25.2115 17.9537 25.2184 17.4386 25.1842 16.999C25.1432 16.6555 24.911 16.5525 24.911 16.5525Z" fill="white" style="fill:white;fill-opacity:1;"/>
<path d="M26.1127 15.3711C26.0239 15.1375 25.7644 15.1169 25.7644 15.1169L24.3435 14.8971L23.5579 14.7804C23.5169 14.7941 23.4759 14.8078 23.4486 14.8147C23.4349 14.8147 23.4213 14.8147 23.4076 14.8147C23.4486 14.8697 23.4828 14.9452 23.4964 15.0345C23.5169 15.1994 23.5169 15.3986 23.5169 15.5085L23.6535 15.584L23.9336 15.7489L25.0402 16.3877C25.0402 16.3877 25.2042 16.4701 25.4228 16.4701C25.4706 16.4701 25.5184 16.4632 25.5731 16.4564C25.86 16.4014 26.4065 16.2022 26.4065 16.2022C26.4065 16.2022 26.1742 15.5428 26.1127 15.3711Z" fill="white" style="fill:white;fill-opacity:1;"/>
<path d="M24.713 8.72758C25.157 8.18484 26.0314 7.22994 26.3047 6.43989C26.5848 5.64989 26.4072 4.92168 26.0861 4.68808C26.0314 4.64688 25.9905 4.63315 25.9563 4.63315C25.888 4.63315 25.8607 4.68808 25.8607 4.68808C25.8607 4.68808 25.6284 5.11402 25.1707 5.91779C24.6037 6.90707 23.8045 7.91694 23.5859 8.19171C23.661 8.30851 23.7294 8.45278 23.7635 8.59018C23.8523 8.94742 23.8045 9.46952 23.5039 9.89546C23.7567 9.66876 24.3988 9.11229 24.713 8.72758Z" fill="white" style="fill:white;fill-opacity:1;"/>
<path d="M27.5408 14.2648C27.5408 14.2648 27.3223 14.0588 26.8714 13.9008C26.646 13.8184 26.2908 13.8046 26.0516 13.8046C26.0312 13.8046 26.0107 13.8046 26.0107 13.8046L23.9067 13.8665C24.0365 14.1824 24.1048 14.464 24.1116 14.4778L24.1321 14.5533L24.0638 14.5808C24.057 14.5808 23.9955 14.6083 23.9135 14.6426L24.378 14.7113L25.7374 14.9105C25.7374 14.9105 25.8809 14.938 26.1132 14.938C26.3317 14.938 26.6323 14.9105 26.9465 14.8006C27.2471 14.7045 27.5408 14.2648 27.5408 14.2648Z" fill="white" style="fill:white;fill-opacity:1;"/>
<path d="M19.2342 17.7685C19.3366 17.6861 19.5552 17.5006 19.6371 17.4044C19.7396 17.2808 19.6986 17.0473 19.6986 17.0335L19.5278 16.0376C19.3161 15.9758 19.0703 15.8727 19.0225 15.6873C19.0225 15.6804 19.0225 15.6735 19.0156 15.6735C18.9747 15.8109 18.9132 15.8933 18.8312 15.9346L18.7356 17.1778C18.7288 17.2259 18.722 17.3564 18.7903 17.4319C18.879 17.5418 19.1112 17.6929 19.2342 17.7685Z" fill="white" style="fill:white;fill-opacity:1;"/>
<path d="M23.3324 15.5222C23.3324 15.4123 23.3324 15.22 23.3119 15.062C23.2915 14.8765 23.1138 14.8078 23.0865 14.7941C23.0387 14.7872 23.0045 14.7803 22.9841 14.7735L21.8569 14.5262C21.8706 14.6086 21.8774 14.6911 21.8842 14.7597L21.891 14.8422L21.8364 14.8971C21.8296 14.904 21.8227 14.9109 21.8159 14.9177L22.4785 15.4329C22.4854 15.4329 22.4854 15.4398 22.499 15.4466C22.5332 15.4672 22.6288 15.5222 22.7791 15.5428C22.8679 15.5565 23.1617 15.5359 23.3324 15.5222Z" fill="white" style="fill:white;fill-opacity:1;"/>
<path d="M21.3039 15.1723C21.2561 15.1723 21.2015 15.1654 21.1605 15.1448C21.0854 15.1104 21.0239 15.0761 20.9624 15.0349C20.9829 15.0692 21.0034 15.0967 21.017 15.131L21.7275 16.1751C21.7616 16.2369 21.8641 16.3812 21.9871 16.4155C22.1169 16.4499 22.3355 16.4567 22.4653 16.4567C22.4789 16.4567 22.4857 16.4499 22.4926 16.4499C22.5404 16.2507 22.5951 15.9828 22.5951 15.9141C22.5951 15.7492 22.4311 15.6325 22.3833 15.5981C22.3696 15.5913 22.3628 15.5844 22.3628 15.5844L21.666 15.0417C21.5635 15.1036 21.4337 15.1723 21.3039 15.1723Z" fill="white" style="fill:white;fill-opacity:1;"/>
<path d="M21.8163 11.0977C21.7958 11.132 21.7752 11.1664 21.7548 11.2007C22.2193 10.8229 22.5745 10.5344 22.5745 10.5344C22.5813 10.5276 22.8136 10.3559 23.039 10.136C23.0459 10.1223 23.0732 10.1017 23.1142 10.0674C23.1688 10.0124 23.2235 9.95748 23.2713 9.90251C23.5582 9.56595 23.688 9.05078 23.5855 8.63865C23.5172 8.38452 23.3601 8.17159 23.285 8.08916C23.2781 8.09602 23.1757 8.36389 22.9844 8.71422C22.759 9.11948 22.3696 9.48351 22.151 9.66898C22.1851 9.94375 22.151 10.4108 21.8163 11.0977Z" fill="white" style="fill:white;fill-opacity:1;"/>
<path d="M27.4179 10.7405C27.4042 10.7405 27.3837 10.7405 27.3701 10.7405C27.0217 10.7474 26.6733 10.8779 26.523 10.9466C26.4137 11.0084 26.3317 11.0427 26.3249 11.0427L24.6376 11.7227C24.5898 11.8807 24.4873 12.1692 24.4054 12.2791C24.3439 12.3684 24.2482 12.4302 24.1526 12.4715C24.2414 12.5264 24.3097 12.6019 24.3575 12.6569H24.3712L24.4395 12.6431C24.4463 12.6431 24.4463 12.6431 24.4532 12.6363L25.833 12.3203C25.8399 12.3203 25.8672 12.3135 25.9082 12.3066C26.2634 12.2104 26.7689 12.0387 27.213 11.7708C27.8209 11.4137 27.9985 10.8092 27.9985 10.8092C27.9985 10.8092 27.7253 10.7405 27.4179 10.7405Z" fill="white" style="fill:white;fill-opacity:1;"/>
<path d="M24.1593 11.2005C24.2891 11.2554 24.5965 11.5027 24.6375 11.5302L26.359 10.8227C26.3658 10.8227 26.3931 10.8021 26.4478 10.7815C26.6664 10.6647 27.0147 10.4243 27.247 10.0396C27.5476 9.53825 27.5613 9.00935 27.5613 9.00935C27.5613 9.00935 27.5203 9.00935 27.4519 9.00935C27.3153 9.00935 27.0831 9.02309 26.8918 9.08488C26.4956 9.22229 26.2497 9.35278 26.1404 9.40771C25.4846 9.86108 24.4257 10.4655 24.2823 10.5479L24.2481 10.5754C24.2413 10.6098 24.2345 10.6441 24.2277 10.6716C24.1935 10.8227 24.1525 11.015 24.0159 11.1455C24.0637 11.1593 24.1115 11.173 24.1593 11.2005Z" fill="white" style="fill:white;fill-opacity:1;"/>
<path d="M21.6863 14.0036C21.6316 14.0105 21.5701 14.0174 21.5018 14.0174C21.4677 14.0174 21.4267 14.0174 21.3925 14.0174C21.6726 14.1067 21.7273 14.1616 21.7478 14.1891C21.7819 14.2234 21.8024 14.2784 21.8229 14.3402L23.032 14.6081C23.0662 14.6149 23.1003 14.6218 23.1345 14.6287C23.1345 14.6287 23.1345 14.6287 23.1413 14.6287C23.2438 14.6424 23.3599 14.6561 23.4077 14.6493C23.5102 14.6287 23.7629 14.5256 23.9132 14.4569C23.8791 14.347 23.8176 14.1272 23.722 13.9006C23.6742 13.7907 23.5853 13.7976 23.5853 13.7907C23.5785 13.7907 23.5785 13.7838 23.5717 13.7838C23.558 13.7838 23.5512 13.7838 23.5375 13.7838H23.5033C22.9296 13.7564 22.1713 13.6877 22.1644 13.6877H22.1576C22.062 13.8113 21.9117 13.9624 21.6863 14.0036Z" fill="white" style="fill:white;fill-opacity:1;"/>
<path d="M27.1926 12.4389C27.0765 12.4183 26.9467 12.4183 26.8238 12.4183C26.4685 12.4183 26.1133 12.4733 25.963 12.5007C25.7103 12.5694 25.5327 12.6038 25.519 12.6106L24.4943 12.8304C24.4943 12.8304 24.4943 12.8304 24.4875 12.8304C24.5763 12.9472 24.6583 13.0709 24.6651 13.0777L24.7061 13.1395L24.6514 13.1945C24.6514 13.1945 24.3372 13.4967 24.1733 13.641C24.1528 13.6547 24.1323 13.6684 24.1186 13.6822L25.7854 13.6341C25.7854 13.6341 25.881 13.6272 26.0313 13.6272C26.0382 13.6272 26.045 13.6272 26.045 13.6272C26.1816 13.6204 26.653 13.586 27.056 13.3868C27.5957 13.1189 27.8621 12.6381 27.8621 12.6381C27.8621 12.6381 27.6093 12.5007 27.1926 12.4389Z" fill="white" style="fill:white;fill-opacity:1;"/>
<path d="M21.8779 12.8981C22.0897 12.9943 22.24 13.2965 22.2673 13.3515L22.3015 13.427L22.2673 13.5026C22.2673 13.5026 22.2605 13.5095 22.2605 13.5163C22.4654 13.5301 23.0461 13.5782 23.5106 13.5988H23.5447C23.7497 13.6125 23.9136 13.6194 24.0503 13.4957C24.1664 13.3927 24.3713 13.2004 24.4669 13.1042C24.4123 13.0218 24.3167 12.8844 24.2415 12.7951C24.1391 12.6646 24.0161 12.5753 23.941 12.5753C23.9068 12.5753 23.777 12.5959 23.6882 12.6028C23.6814 12.6028 23.6745 12.5959 23.6677 12.5959L23.4423 12.6303C23.0734 12.6921 22.8343 12.7264 22.3356 12.7951C22.1785 12.8157 22.0009 12.8432 21.8301 12.8707C21.8506 12.8913 21.8643 12.8913 21.8779 12.8981Z" fill="white" style="fill:white;fill-opacity:1;"/>
<path d="M4.46539 10.1081L4.41072 10.1288V10.1906C4.41072 10.1974 4.41072 10.2455 4.41755 10.328L2.70294 9.2839C2.70294 9.2839 2.68245 9.27017 2.64829 9.24953C2.58681 9.20833 2.52533 9.16713 2.47751 9.1259C1.972 8.76187 1.58263 8.31537 1.51432 7.66971C1.43234 7.02404 1.76024 6.49515 1.76024 6.49515C1.76024 6.49515 2.66878 7.72467 3.29725 8.43904C3.96671 9.20833 4.62933 9.71663 4.94356 9.94329C4.89576 9.95016 4.85474 9.96389 4.8206 9.97763C4.69763 10.0189 4.46539 10.1081 4.46539 10.1081Z" fill="white" style="fill:white;fill-opacity:1;"/>
<path d="M8.52982 19.0256C8.23608 19.2316 7.71693 19.4033 7.71693 19.4033C7.71693 19.4033 7.4027 19.1492 7.18408 18.7714C7.01331 18.483 7.16359 18.2425 7.16359 18.2425C7.16359 18.2425 7.49148 17.5282 7.65542 17.1573C7.66908 17.1504 7.67591 17.1435 7.68957 17.1367C7.69644 17.1985 7.7101 17.2534 7.74424 17.3015C7.81937 17.3977 8.07896 17.7205 8.07896 17.7205L8.12677 17.7755L8.35221 17.6724C8.52299 17.59 8.66644 17.5282 8.78258 17.4458C8.80307 17.432 8.82356 17.4114 8.83722 17.3908C8.85088 17.4252 8.86454 17.4595 8.88502 17.487L8.78941 18.531C8.78941 18.5241 8.74843 18.8676 8.52982 19.0256Z" fill="white" style="fill:white;fill-opacity:1;"/>
<path d="M6.9514 16.6275C6.93775 16.5726 6.99921 16.4489 7.04019 16.3734C7.08116 16.3184 7.10848 16.2703 7.11531 16.2635L7.68216 15.4255C7.72996 15.5491 7.81192 15.6659 7.85972 15.7277L7.90753 15.7827L7.98266 15.7895C7.98948 15.7895 8.07144 15.8033 8.16705 15.8033C8.17388 15.8033 8.17388 15.8033 8.18071 15.8033L7.73679 16.813C7.73679 16.8199 7.68216 16.9366 7.57972 16.9778C7.44996 17.0328 7.21092 17.0809 7.09482 17.1015C7.04702 16.9572 6.96506 16.7031 6.9514 16.6275Z" fill="white" style="fill:white;fill-opacity:1;"/>
<path d="M5.10704 11.3864C5.16171 11.407 5.21635 11.4345 5.26415 11.4551C5.33932 11.4894 5.41444 11.5169 5.46911 11.5444C5.90631 11.7436 6.18639 11.8741 6.48013 12.0046V12.0183C6.48696 12.1076 6.53477 12.5266 6.77387 12.6846C6.63725 12.664 6.49379 12.6434 6.37082 12.6297C5.87896 12.5678 5.63306 12.5266 5.27098 12.4648L4.88163 12.403C4.78598 12.3892 4.52639 12.3137 4.43077 12.1763C4.36245 12.087 4.26681 11.8054 4.21899 11.6405C4.21899 11.6268 4.22582 11.6199 4.23266 11.6131C4.36245 11.5169 4.53322 11.3864 4.60155 11.3589C4.80647 11.2765 4.86797 11.2834 5.10704 11.3864Z" fill="white" style="fill:white;fill-opacity:1;"/>
<path d="M5.1344 17.8714C5.16172 17.837 5.18907 17.8096 5.1959 17.7958L6.13859 16.6625L6.15908 16.6419V16.635C6.26156 16.635 6.56896 16.6281 6.73973 16.5869C6.75339 16.5869 6.76022 16.58 6.77388 16.5732C6.77388 16.6006 6.76705 16.6281 6.77388 16.6556C6.8012 16.7724 6.94465 17.2188 6.95148 17.2395L6.97884 17.315L7.05396 17.3013C7.06762 17.3013 7.23157 17.2738 7.40238 17.2326L6.81489 18.5583C6.81489 18.5583 6.76022 18.7781 6.54164 18.9223C6.32302 19.0666 5.4418 19.2108 5.4418 19.2108C5.4418 19.2108 5.29152 18.8948 5.1344 18.4621C5.02509 18.1805 5.09342 17.9676 5.1344 17.8714Z" fill="white" style="fill:white;fill-opacity:1;"/>
<path d="M8.39315 15.7899C8.4751 15.7693 8.54339 15.7418 8.5912 15.7006C8.63218 15.6663 8.66632 15.6182 8.69364 15.5564C8.68681 15.6662 8.71413 15.7075 8.74145 15.735C8.79608 15.8037 8.95316 15.9891 8.95316 15.9891L8.98048 16.0166L8.80974 17.0125L8.79609 17.0675C8.78926 17.1087 8.74828 17.2323 8.67315 17.2804C8.57071 17.3491 8.44095 17.4109 8.27022 17.4865L8.1746 17.5277C8.09948 17.4315 7.9424 17.2392 7.88776 17.1705C7.83996 17.1087 7.86045 16.9713 7.9424 16.7927L8.39315 15.7899Z" fill="white" style="fill:white;fill-opacity:1;"/>
<path d="M7.19779 11.654C7.23876 11.6884 7.27974 11.7227 7.32075 11.7639C7.23876 11.7365 7.14994 11.7158 7.06116 11.7158C7.02018 11.7158 6.986 11.7158 6.95185 11.7227C6.77425 11.7433 6.59665 11.8395 6.57616 11.8532H6.56933C6.26872 11.7227 5.98867 11.5922 5.54465 11.3861C5.48315 11.3587 5.41485 11.3312 5.33286 11.2969C5.18258 11.235 5.0118 11.1595 4.85469 11.077C4.71123 11.0015 4.67025 10.8092 4.63607 10.6374C4.60192 10.4863 4.59509 10.3421 4.59509 10.2597C4.67025 10.2322 4.80005 10.1772 4.87517 10.1566C4.97765 10.1223 5.09379 10.0948 5.26457 10.1085C5.33286 10.1154 5.39436 10.1498 5.43534 10.1841C5.69493 10.4451 5.98184 10.6649 6.00233 10.6718C6.00233 10.6718 6.56933 11.1251 7.19779 11.654Z" fill="white" style="fill:white;fill-opacity:1;"/>
<path d="M3.7755 16.5525L4.84114 15.9206L5.23737 15.6939H5.25102C5.292 15.7008 5.61993 15.7282 5.82485 15.7282C5.87265 15.7282 5.90684 15.7282 5.94099 15.7214C5.94781 15.7214 5.94781 15.7214 5.95464 15.7214C5.92733 15.7763 5.90684 15.845 5.90684 15.9137C5.90684 16.0167 5.98196 16.3602 6.01611 16.5044L6.00245 16.5456L5.02561 17.7064L5.01878 17.7133L5.01196 17.7202C5.01196 17.7202 4.9983 17.7408 4.9846 17.7683C4.90265 17.8507 4.74553 17.9675 4.4996 17.9675C4.14438 17.9675 3.4886 17.9537 3.4886 17.9537C3.4886 17.9537 3.48176 17.4386 3.51592 16.999C3.54324 16.6555 3.7755 16.5525 3.7755 16.5525Z" fill="white" style="fill:white;fill-opacity:1;"/>
<path d="M3.98053 8.72758C3.53651 8.19171 2.66212 7.22994 2.38204 6.43989C2.10196 5.64989 2.27957 4.92855 2.60064 4.68808C2.65528 4.64688 2.69627 4.63315 2.73043 4.63315C2.79874 4.63315 2.82606 4.68808 2.82606 4.68808C2.82606 4.68808 3.05832 5.11402 3.51601 5.91779C4.083 6.90707 4.88225 7.91694 5.10083 8.19171C5.0257 8.30851 4.95737 8.45278 4.92323 8.59018C4.83444 8.94742 4.88225 9.46952 5.18282 9.89546C4.93005 9.66876 4.28793 9.11229 3.98053 8.72758Z" fill="white" style="fill:white;fill-opacity:1;"/>
<path d="M9.45162 17.7685C9.34918 17.6861 9.13064 17.5006 9.04869 17.4044C8.94624 17.2808 8.98722 17.0473 8.98722 17.0335L9.15796 16.0376C9.36967 15.9758 9.61553 15.8727 9.66334 15.6873C9.66334 15.6804 9.66334 15.6735 9.67017 15.6735C9.71114 15.8109 9.77261 15.8933 9.85456 15.9346L9.95018 17.1778C9.95701 17.2259 9.96384 17.3564 9.89554 17.4319C9.80676 17.5418 9.58138 17.6929 9.45162 17.7685Z" fill="white" style="fill:white;fill-opacity:1;"/>
<path d="M5.35315 15.5222C5.35315 15.4123 5.35315 15.22 5.37364 15.062C5.39413 14.8765 5.57173 14.8078 5.59905 14.7941C5.64689 14.7872 5.68104 14.7803 5.70153 14.7735L6.82868 14.5262C6.81503 14.6086 6.8082 14.6911 6.80137 14.7597L6.79454 14.8422L6.84917 14.8971C6.856 14.904 6.86283 14.9109 6.86966 14.9177L6.20706 15.4329C6.20023 15.4329 6.20023 15.4398 6.18657 15.4466C6.15238 15.4672 6.05677 15.5222 5.90648 15.5428C5.81766 15.5565 5.52392 15.5359 5.35315 15.5222Z" fill="white" style="fill:white;fill-opacity:1;"/>
<path d="M7.38189 15.1723C7.42973 15.1723 7.47754 15.1654 7.52534 15.1448C7.6005 15.1104 7.66197 15.0761 7.72347 15.0349C7.70298 15.0692 7.68246 15.0967 7.6688 15.131L6.95838 16.1751C6.9242 16.2369 6.82176 16.3812 6.69879 16.4155C6.56899 16.4499 6.35038 16.4567 6.22062 16.4567C6.20696 16.4567 6.20009 16.4499 6.19326 16.4499C6.14546 16.2575 6.09082 15.9828 6.09082 15.9141C6.09082 15.7492 6.25476 15.6325 6.30257 15.5981C6.31623 15.5913 6.32306 15.5844 6.32306 15.5844L7.01985 15.0417C7.12233 15.1036 7.25213 15.1723 7.38189 15.1723Z" fill="white" style="fill:white;fill-opacity:1;"/>
<path d="M6.86996 11.0979C6.89045 11.1322 6.91094 11.1666 6.93142 11.2009C6.46691 10.8231 6.11167 10.5346 6.11167 10.5346C6.10484 10.5278 5.8726 10.3561 5.64715 10.1363C5.64032 10.1225 5.613 10.1019 5.57203 10.0676C5.51735 10.0057 5.46272 9.9508 5.41491 9.89583C5.128 9.55926 4.9982 9.0441 5.10068 8.63197C5.16898 8.37784 5.32609 8.16491 5.40125 8.08247C5.40808 8.08934 5.51052 8.35724 5.70182 8.70754C5.92723 9.1128 6.31662 9.47683 6.5352 9.6623C6.50106 9.94393 6.5352 10.411 6.86996 11.0979Z" fill="white" style="fill:white;fill-opacity:1;"/>
<path d="M1.26815 10.7405C1.28181 10.7405 1.3023 10.7405 1.31596 10.7405C1.66435 10.7474 2.01274 10.8779 2.16303 10.9466C2.27233 11.0084 2.3543 11.0427 2.36113 11.0427L4.04843 11.7227C4.09625 11.8807 4.19872 12.1692 4.28069 12.286C4.34217 12.3753 4.4378 12.4371 4.53345 12.4783C4.44463 12.5332 4.37633 12.6088 4.32851 12.6637H4.31485L4.24654 12.65C4.23971 12.65 4.23971 12.65 4.23288 12.6431L2.85298 12.3272C2.84615 12.3272 2.81882 12.3203 2.77784 12.3135C2.42262 12.2173 1.91711 12.0456 1.47308 11.7777C0.858275 11.4274 0.680664 10.8229 0.680664 10.8229C0.680664 10.8229 0.960742 10.7405 1.26815 10.7405Z" fill="white" style="fill:white;fill-opacity:1;"/>
<path d="M4.52636 11.2005C4.3966 11.2554 4.08918 11.5027 4.04819 11.5302L2.32674 10.8227C2.3199 10.8227 2.29258 10.8021 2.23793 10.7815C2.01933 10.6647 1.67095 10.4243 1.43868 10.0396C1.13811 9.53825 1.12445 9.00935 1.12445 9.00935C1.12445 9.00935 1.16544 9.00935 1.23375 9.00935C1.37037 9.00935 1.60263 9.02309 1.79391 9.08488C2.19011 9.22229 2.43603 9.35278 2.54534 9.40771C3.20113 9.86108 4.25996 10.4655 4.40343 10.5479L4.43758 10.5754C4.44441 10.6098 4.45123 10.6441 4.45806 10.6716C4.49221 10.8227 4.53319 11.015 4.66981 11.1455C4.62201 11.1593 4.5742 11.173 4.52636 11.2005Z" fill="white" style="fill:white;fill-opacity:1;"/>
<path d="M6.99925 14.0037C7.05388 14.0105 7.11535 14.0174 7.18368 14.0174C7.21783 14.0174 7.2588 14.0174 7.29299 14.0174C7.01291 14.1067 6.95823 14.1616 6.93774 14.1891C6.9036 14.2235 6.88311 14.2784 6.86262 14.3402L5.65347 14.6081C5.61932 14.615 5.58518 14.6219 5.55103 14.6287C5.55103 14.6287 5.55103 14.6287 5.5442 14.6287C5.44172 14.6425 5.32558 14.6562 5.27778 14.6493C5.18213 14.615 4.9294 14.512 4.77911 14.4501C4.81326 14.3402 4.87473 14.1204 4.97038 13.8938C5.01818 13.7839 5.107 13.7907 5.107 13.7839C5.11383 13.7839 5.11383 13.777 5.12066 13.777C5.13432 13.777 5.14115 13.777 5.15481 13.777H5.18896C5.76278 13.7495 6.52104 13.6808 6.52786 13.6808H6.53469C6.62351 13.8113 6.7738 13.9624 6.99925 14.0037Z" fill="white" style="fill:white;fill-opacity:1;"/>
<path d="M1.49325 12.4389C1.60938 12.4183 1.73917 12.4183 1.86214 12.4183C2.21735 12.4183 2.57258 12.4733 2.72286 12.5007C2.97562 12.5694 3.15323 12.6038 3.16689 12.6106L4.19157 12.8304C4.19157 12.8304 4.19157 12.8304 4.1984 12.8304C4.10959 12.9472 4.02762 13.0709 4.02079 13.0777L3.9798 13.1395L4.03445 13.1945C4.03445 13.1945 4.34868 13.4967 4.51262 13.641C4.53311 13.6547 4.55363 13.6684 4.56729 13.6822L2.90047 13.6341C2.90047 13.6341 2.80484 13.6272 2.65455 13.6272C2.64772 13.6272 2.64089 13.6272 2.64089 13.6272C2.50427 13.6204 2.03291 13.586 1.62988 13.3868C1.09704 13.1121 0.830627 12.6312 0.830627 12.6312C0.830627 12.6312 1.07655 12.5007 1.49325 12.4389Z" fill="white" style="fill:white;fill-opacity:1;"/>
<path d="M6.80802 12.8981C6.59623 12.9943 6.44595 13.2965 6.41863 13.3515L6.38448 13.427L6.41863 13.5026C6.41863 13.5026 6.42546 13.5095 6.42546 13.5163C6.22054 13.5301 5.63989 13.5782 5.17537 13.5988H5.14119C4.93627 13.6125 4.77232 13.6194 4.6357 13.4957C4.51956 13.3927 4.31463 13.2004 4.21899 13.1042C4.27364 13.0218 4.36928 12.8844 4.44443 12.7951C4.54688 12.6646 4.66984 12.5753 4.745 12.5753C4.77915 12.5753 4.90895 12.5959 4.99773 12.6028C5.00456 12.6028 5.01143 12.5959 5.01826 12.5959L5.24367 12.6303C5.61257 12.6921 5.85164 12.7264 6.35034 12.7951C6.50745 12.8157 6.68505 12.8432 6.85583 12.8707C6.83534 12.8913 6.82168 12.8913 6.80802 12.8981Z" fill="white" style="fill:white;fill-opacity:1;"/>
<path d="M21.6594 8.81013C21.6594 8.81013 21.1608 9.03683 20.6826 8.8445C20.3274 8.70713 20.1429 8.6247 19.8833 8.52853C19.5008 8.39113 19.1524 8.56286 19.1524 8.56286C19.1524 8.56286 19.5691 8.5148 19.9995 8.85823C20.4981 9.24976 20.7441 9.34593 21.0856 9.29783C21.475 9.25663 21.6594 8.81013 21.6594 8.81013Z" fill="white" style="fill:white;fill-opacity:1;"/>
<path d="M17.8948 5.84923C18.3662 5.84923 19.3157 5.84236 19.6641 5.84923C19.6778 5.78053 19.6982 5.71186 19.7256 5.62943C19.8827 5.18983 20.0535 4.92193 19.8485 4.66094C19.7187 4.49607 19.466 4.42054 19.2611 4.39304L19.022 5.4852C19.0152 5.51266 18.9947 5.54013 18.9673 5.55386C18.9537 5.56073 18.9468 5.56073 18.9332 5.56073C18.9127 5.56073 18.8922 5.55386 18.8785 5.54013L18.7829 5.46456L18.6804 5.54013C18.6531 5.56073 18.6189 5.56073 18.5916 5.547C18.5643 5.53326 18.5438 5.51266 18.5369 5.47833L18.3593 4.38617C18.1408 4.41367 17.8538 4.48234 17.7104 4.6678C17.5055 4.9288 17.6831 5.1967 17.8334 5.6363C17.8607 5.71186 17.8812 5.78743 17.8948 5.84923Z" fill="white" style="fill:white;fill-opacity:1;"/>
<path d="M18.6944 5.31317L18.7354 5.28571C18.7695 5.26507 18.8105 5.26507 18.8446 5.28571L18.8856 5.31317L19.0905 4.37215C19.0017 4.36528 18.9402 4.36528 18.9402 4.36528H18.6261C18.6261 4.36528 18.5919 4.36528 18.5441 4.36528L18.6944 5.31317Z" fill="white" style="fill:white;fill-opacity:1;"/>
<path d="M19.63 6.02831C19.3089 6.02831 18.5438 6.02831 17.9359 6.02831C17.9632 6.19993 17.9427 6.28915 17.9427 6.28915H18.7487H18.8171H19.6231C19.6231 6.29602 19.6026 6.20679 19.63 6.02831Z" fill="white" style="fill:white;fill-opacity:1;"/>
<path d="M9.80041 5.31313L9.84139 5.28566C9.87554 5.26506 9.91651 5.2582 9.95066 5.28566L9.99164 5.31313L10.1487 4.3721C10.1009 4.3721 10.0668 4.3721 10.0668 4.3721H9.7526C9.7526 4.3721 9.69114 4.3721 9.60236 4.37897L9.80041 5.31313Z" fill="white" style="fill:white;fill-opacity:1;"/>
<path d="M9.02124 5.84923C9.36962 5.84923 10.3192 5.84923 10.7905 5.84923C10.8042 5.78053 10.8247 5.71186 10.8588 5.62943C11.0159 5.18983 11.1867 4.92193 10.9818 4.66094C10.8383 4.47547 10.5514 4.40677 10.3328 4.38617L10.1484 5.47833C10.1416 5.5058 10.121 5.53326 10.0937 5.547C10.0664 5.56073 10.0323 5.55386 10.0049 5.54013L9.90247 5.46456L9.80682 5.54013C9.79316 5.55386 9.77267 5.56073 9.75218 5.56073C9.73852 5.56073 9.73169 5.56073 9.71804 5.55386C9.69072 5.54013 9.67019 5.51953 9.66336 5.4852L9.42429 4.39304C9.21934 4.42054 8.96661 4.49607 8.83681 4.66094C8.63185 4.92193 8.80949 5.18983 8.95978 5.62943C8.98027 5.71186 9.00076 5.78743 9.02124 5.84923Z" fill="white" style="fill:white;fill-opacity:1;"/>
<path d="M10.7498 6.03458C10.1419 6.03458 9.36995 6.02771 9.05573 6.03458C9.08304 6.2062 9.06255 6.29546 9.06255 6.29546H9.86862H9.93695H10.743C10.743 6.29546 10.7294 6.2062 10.7498 6.03458Z" fill="white" style="fill:white;fill-opacity:1;"/>
<path d="M12.888 4.18652C13.4823 4.17966 15.1354 4.18652 15.7844 4.18652C15.8117 4.06289 15.8527 3.92552 15.9074 3.76753C16.1601 3.03944 16.447 2.60671 16.1123 2.1671C15.8664 1.84427 15.3404 1.73437 14.9783 1.70003L14.6709 3.50652C14.6641 3.54086 14.6436 3.56147 14.6163 3.57521C14.5889 3.58895 14.5548 3.58208 14.5275 3.56834L14.3225 3.42409L14.1244 3.57521C14.1108 3.58895 14.0903 3.59582 14.0698 3.59582C14.063 3.59582 14.0493 3.59582 14.0356 3.58895C14.0083 3.57521 13.981 3.5546 13.981 3.52026L13.5848 1.71376C13.2364 1.76185 12.7787 1.87862 12.5533 2.1671C12.2185 2.59984 12.5054 3.03944 12.7582 3.76753C12.8197 3.92552 12.8607 4.06289 12.888 4.18652Z" fill="white" style="fill:white;fill-opacity:1;"/>
<path d="M14.1311 3.34189L14.2677 3.23886C14.3018 3.21138 14.3428 3.21138 14.3769 3.23886L14.5203 3.34189L14.8004 1.69337C14.6774 1.68651 14.6023 1.68651 14.6023 1.68651H14.0764C14.0764 1.68651 13.9535 1.68651 13.7691 1.70024L14.1311 3.34189Z" fill="white" style="fill:white;fill-opacity:1;"/>
<path d="M15.7436 4.36557C14.7326 4.35867 13.4415 4.35867 12.9224 4.36557C12.977 4.68841 12.9429 4.8601 12.9429 4.8601H14.2749H14.3911H15.7231C15.7231 4.8601 15.6958 4.68841 15.7436 4.36557Z" fill="white" style="fill:white;fill-opacity:1;"/>
<path d="M7.034 8.81013C7.034 8.81013 7.53266 9.03683 8.01087 8.8445C8.36608 8.70713 8.55051 8.6247 8.8101 8.52853C9.19266 8.39113 9.54104 8.56286 9.54104 8.56286C9.54104 8.56286 9.12433 8.5148 8.69397 8.85823C8.1953 9.24976 7.94937 9.34593 7.60782 9.29783C7.2116 9.25663 7.034 8.81013 7.034 8.81013Z" fill="white" style="fill:white;fill-opacity:1;"/>
<path d="M14.6166 11.4682C14.8489 11.0011 15.17 10.7264 15.1836 10.7126L15.3681 10.5547L15.3339 10.7882C15.3339 10.7951 15.2724 11.2347 15.3339 11.5987C15.3749 11.8323 15.4569 12.0521 15.532 12.2169C15.5593 12.0383 15.6072 11.8048 15.6959 11.5712C15.8257 11.2347 16.1127 10.8638 16.1263 10.8431L16.2561 10.6783L16.2903 10.8844C16.2903 10.8912 16.4201 11.6949 16.8846 12.1894C16.9939 12.2993 17.1168 12.3955 17.233 12.4711C17.3081 12.4985 17.3833 12.5191 17.4652 12.5191C17.9366 12.5191 17.9708 12.0864 17.9708 12.0864C17.9708 12.0864 17.841 12.162 17.6429 12.1688C17.3969 12.1688 17.2193 12.0246 17.11 11.8391C17.0007 11.6674 16.9256 11.4545 16.8846 11.2278C16.8846 11.2278 16.8846 11.2278 16.8846 11.2209C16.8846 11.2141 16.8846 11.2003 16.8777 11.1935C16.8777 11.1797 16.8777 11.1729 16.8709 11.1591C16.7821 10.7401 16.7753 10.1975 16.8573 9.72354C16.9256 9.33887 16.9939 9.05724 17.0417 8.89241C16.8846 8.9542 16.8026 9.00917 16.6182 9.13967C16.3313 9.34574 16.0785 9.593 16.0717 9.593L15.9214 9.74413V9.5312C15.9214 9.51747 15.9214 9.18777 16.0512 8.80997C16.0853 8.70007 16.1605 8.54207 16.222 8.42531C16.1127 8.45968 15.9692 8.51461 15.8257 8.61077C15.2998 8.9542 14.9992 9.45564 14.8557 9.7716C14.7259 10.1082 14.6166 10.4654 14.5278 10.9393C14.4732 11.2209 14.4527 11.585 14.439 11.9353C14.48 11.791 14.5415 11.6331 14.6166 11.4682Z" fill="white" style="fill:white;fill-opacity:1;"/>
<path d="M19.0635 6.98979C18.9679 6.98979 18.8244 6.99666 18.6742 7.01039C18.8176 7.0723 18.9269 7.1204 18.9884 7.1479L19.0635 6.98979Z" fill="white" style="fill:white;fill-opacity:1;"/>
<path d="M16.4944 6.90016C16.6857 6.96882 16.8701 6.98942 16.9658 6.99629C17.3073 6.98942 17.7035 6.96882 18.0519 6.92076C18.0656 6.92076 18.0997 6.91389 18.1407 6.90702C18.1954 6.90016 18.25 6.89325 18.3047 6.87952C18.7214 6.80399 19.1791 6.80399 19.1995 6.80399C19.2337 6.80399 19.261 6.81773 19.2747 6.84519C19.2884 6.87266 19.2952 6.90016 19.2815 6.92762L19.1176 7.30539C19.1039 7.32602 19.0902 7.34662 19.0629 7.35349C19.0561 7.35349 19.0424 7.36035 19.0356 7.36035C19.0219 7.36035 19.0015 7.35349 18.9878 7.34662C18.9878 7.34662 18.8239 7.25732 18.4891 7.12682C18.3525 7.07872 18.2364 7.07185 18.1612 7.07872C18.1339 7.08559 18.1134 7.08559 18.0861 7.09245C18.0793 7.09245 18.0724 7.09245 18.0724 7.09245C17.28 7.20235 16.2758 7.18175 16.1187 7.17489C16.1118 7.17489 16.0982 7.17489 16.0982 7.18175C16.0982 7.18175 16.1665 7.29165 16.3441 7.37409C16.4739 7.43592 16.5286 7.44965 16.5286 7.44965C16.5286 7.44965 15.7976 7.97168 15.3058 8.79595C15.4288 8.67914 15.5586 8.56238 15.7157 8.45935C16.0436 8.24641 16.3578 8.21208 16.3714 8.20522L16.5422 8.18462L16.4603 8.33571C16.4603 8.33571 16.2758 8.67914 16.2143 8.86461C16.1597 9.02948 16.1255 9.18744 16.1118 9.31107C16.2143 9.22181 16.351 9.10501 16.5012 8.99511C16.754 8.81655 16.836 8.76844 17.1365 8.66541L17.3141 8.60361L17.2527 8.78218C17.2527 8.78218 17.1297 9.13251 17.0204 9.75757C17.0136 9.79191 17.0136 9.8331 17.0067 9.87434C17.0136 9.85374 17.0204 9.8331 17.0272 9.8125C17.2117 9.36604 17.5532 9.06381 17.929 8.80281C18.0451 8.71351 18.168 8.61735 18.3047 8.51431C18.6189 8.28078 18.981 8.01288 19.2679 7.73812C19.5548 7.46339 19.7324 7.23672 19.8348 7.06499C19.8963 6.96196 19.9237 6.89326 19.9237 6.89326C19.9237 6.89326 20.0261 6.72156 19.8827 6.66659C19.7461 6.61166 19.6231 6.73529 19.6231 6.73529C19.6231 6.73529 19.7734 6.51549 19.5889 6.50176C19.5069 6.49489 19.3703 6.51549 19.1244 6.52923C18.8785 6.54296 18.414 6.54296 18.0178 6.54296C17.4781 6.53609 16.9248 6.53609 16.672 6.54296C16.2826 6.54982 15.9342 6.50176 15.9342 6.50176C15.9342 6.50176 16.1392 6.76962 16.4944 6.90016Z" fill="white" style="fill:white;fill-opacity:1;"/>
<path d="M19.4118 7.87643C19.3161 7.9726 19.2342 8.055 19.1795 8.1031C19.1112 8.16493 18.8721 8.34349 18.633 8.52209C18.5647 8.57016 18.4964 8.62513 18.4349 8.67319C18.2983 8.77622 18.1685 8.87239 18.0524 8.96169C18.0592 8.97542 18.0729 8.99602 18.107 9.02353C18.1753 9.07159 18.2914 8.97542 18.2914 8.97542C18.2914 8.97542 18.5647 8.68696 19.118 8.38473C19.5484 8.15116 19.9788 8.0825 20.3135 8.0825C20.6482 8.0825 20.9351 8.39846 20.9351 8.39846C20.9351 8.39846 21.2015 8.18553 21.2015 7.80086C21.2015 7.4643 21.0649 7.29257 20.8873 7.14834C20.7575 7.03844 20.5047 6.92854 20.2315 6.956C20.1837 6.96287 20.1427 6.98347 20.1086 7.01097C20.0061 7.1964 19.808 7.49863 19.4118 7.87643Z" fill="white" style="fill:white;fill-opacity:1;"/>
<path d="M10.0117 7.01707C9.86147 7.00333 9.71805 6.99643 9.62244 6.99643L9.69073 7.16144C9.76586 7.12021 9.8683 7.07207 10.0117 7.01707Z" fill="white" style="fill:white;fill-opacity:1;"/>
<path d="M7.75061 8.39828C7.75061 8.39828 8.0307 8.08232 8.37224 8.08232C8.70696 8.08232 9.13733 8.14415 9.5677 8.38455C10.121 8.68678 10.3943 8.97528 10.3943 8.97528C10.3943 8.97528 10.5104 9.07145 10.5787 9.02335C10.6129 9.00275 10.6265 8.97528 10.6334 8.96155C10.5172 8.87225 10.3874 8.76922 10.2508 8.67305C10.1893 8.62495 10.121 8.57688 10.0527 8.52192C9.81363 8.34335 9.57453 8.16475 9.50623 8.10292C9.45156 8.05485 9.36278 7.97242 9.27396 7.87625C8.87774 7.49849 8.67964 7.19626 8.58399 7.00393C8.54985 6.97646 8.50887 6.95586 8.46103 6.949C8.18098 6.92149 7.93505 7.03139 7.79842 7.14129C7.62082 7.29243 7.48419 7.45726 7.48419 7.79386C7.48419 8.18535 7.75061 8.39828 7.75061 8.39828Z" fill="white" style="fill:white;fill-opacity:1;"/>
<path d="M12.8675 8.61797C12.724 8.5218 12.5806 8.46687 12.4713 8.43254C12.5328 8.54931 12.6011 8.70727 12.642 8.81717C12.7718 9.19497 12.7718 9.52467 12.7718 9.5384V9.75133L12.6147 9.60023C12.6147 9.60023 12.3552 9.35293 12.0682 9.14687C11.8906 9.01637 11.8018 8.9683 11.6447 8.90647C11.6925 9.07134 11.7608 9.35293 11.8291 9.7376C11.9111 10.2115 11.9043 10.7542 11.8155 11.1732C11.8155 11.1869 11.8086 11.1938 11.8086 11.2075C11.8086 11.2144 11.8086 11.2281 11.8018 11.235C11.8018 11.235 11.8018 11.235 11.8018 11.2419C11.7608 11.4685 11.6789 11.6815 11.5764 11.8532C11.4671 12.0386 11.2895 12.1829 11.0436 12.1829C10.8386 12.1829 10.7156 12.1004 10.7156 12.1004C10.7156 12.1004 10.7567 12.5332 11.2212 12.5332C11.3031 12.5332 11.3783 12.5126 11.4534 12.4851C11.5695 12.4095 11.6993 12.3202 11.8018 12.2035C12.2732 11.709 12.3961 10.9053 12.3961 10.8984L12.4303 10.6924L12.5601 10.8572C12.5737 10.871 12.8606 11.2419 12.9904 11.5853C13.0792 11.8189 13.1271 12.0524 13.1544 12.231C13.2295 12.0661 13.3183 11.8395 13.3525 11.6128C13.414 11.2487 13.3525 10.8091 13.3525 10.8023L13.3183 10.5687L13.5028 10.7267C13.5164 10.7404 13.8375 11.0152 14.0698 11.4823C14.1517 11.6471 14.2132 11.7983 14.261 11.9562C14.2474 11.5991 14.2269 11.235 14.1722 10.9603C14.0834 10.4863 13.9741 10.136 13.8443 9.79943C13.6941 9.4697 13.3935 8.95457 12.8675 8.61797Z" fill="white" style="fill:white;fill-opacity:1;"/>
<path d="M8.82986 7.06525C8.93917 7.23695 9.10994 7.47048 9.39685 7.73838C9.68377 8.01314 10.0458 8.28101 10.3601 8.51454C10.4967 8.61757 10.6196 8.71374 10.7358 8.80304C11.1115 9.06407 11.453 9.3663 11.6375 9.81276C11.6443 9.83336 11.6511 9.85396 11.658 9.87456C11.6511 9.84023 11.6511 9.79903 11.6443 9.7578C11.535 9.13273 11.4189 8.78244 11.4189 8.78244L11.3574 8.60384L11.535 8.66567C11.8356 8.7687 11.9244 8.81677 12.1703 8.99537C12.3206 9.10527 12.4572 9.22203 12.5597 9.31133C12.546 9.1877 12.5119 9.0297 12.4572 8.86487C12.3957 8.6794 12.2181 8.33597 12.2113 8.33597L12.1293 8.18484L12.3001 8.20544C12.3138 8.20544 12.6212 8.23981 12.9559 8.45961C13.113 8.56264 13.2496 8.67254 13.3658 8.79617C12.8808 7.97191 12.143 7.44988 12.143 7.44988C12.143 7.44988 12.1976 7.43614 12.3274 7.37435C12.505 7.29191 12.5665 7.18201 12.5665 7.18201C12.5665 7.18201 12.5528 7.17515 12.546 7.17515C12.3889 7.18201 11.3847 7.20261 10.5923 7.09958C10.5855 7.09958 10.5855 7.09958 10.5786 7.09958C10.5513 7.09958 10.5308 7.09271 10.5035 7.09271C10.4284 7.08585 10.3122 7.09271 10.1756 7.14078C9.84088 7.27131 9.67694 7.36058 9.67694 7.36058C9.66328 7.36744 9.64962 7.37435 9.62913 7.37435C9.6223 7.37435 9.60864 7.37435 9.60181 7.36744C9.57446 7.36058 9.5608 7.33998 9.54714 7.31938L9.3832 6.94158C9.36954 6.91411 9.37637 6.87978 9.39002 6.85918C9.40368 6.83168 9.43783 6.81795 9.46519 6.81795C9.48567 6.81795 9.94336 6.81795 10.3601 6.89352C10.4147 6.90038 10.4693 6.91411 10.524 6.92098C10.565 6.92098 10.5923 6.92785 10.6128 6.93471C10.9612 6.98282 11.3574 6.99655 11.699 7.01028C11.7946 7.00341 11.9791 6.98282 12.1772 6.91411C12.5324 6.78362 12.7441 6.50885 12.7441 6.50885C12.7441 6.50885 12.3957 6.55695 12.0064 6.55009C11.7468 6.54322 11.2003 6.54322 10.6606 6.55009C10.2576 6.55695 9.79307 6.55009 9.55397 6.53635C9.30807 6.52258 9.17144 6.50198 9.06214 6.51572C8.88453 6.53635 9.03482 6.74928 9.03482 6.74928C9.03482 6.74928 8.91185 6.62562 8.7684 6.68058C8.62494 6.73551 8.72742 6.90725 8.72742 6.90725C8.72742 6.90725 8.7684 6.96222 8.82986 7.06525Z" fill="white" style="fill:white;fill-opacity:1;"/>
<path d="M11.2209 6.31633C11.2209 6.31633 11.9928 6.3438 12.874 5.93857C13.6118 5.5951 13.9807 5.02501 13.9807 5.02501H12.9491C12.9491 5.02501 13.0038 5.41654 12.4641 5.78744C12.0816 6.04847 11.6786 6.15837 11.4326 6.24077C11.2619 6.30947 11.2209 6.31633 11.2209 6.31633Z" fill="white" style="fill:white;fill-opacity:1;"/>
<path d="M7.3272 3.93925C7.3272 3.93925 7.41598 4.00107 7.38867 4.22087C7.36135 4.4338 7.14964 5.0039 7.12915 5.20996C7.10183 5.42976 7.12915 5.83502 7.68233 6.09606C8.10576 6.29526 8.39943 6.34332 8.39943 6.34332C8.39943 6.34332 7.70282 6.02049 7.63453 5.62209C7.57989 5.30613 7.77112 4.96956 7.94868 4.5643C8.11942 4.17277 8.10576 3.96674 7.92137 3.85682C7.81209 3.78813 7.70282 3.80874 7.60038 3.83621C7.43647 3.87743 7.3272 3.93925 7.3272 3.93925Z" fill="white" style="fill:white;fill-opacity:1;"/>
<path d="M5.01886 4.40676C5.01886 4.40676 5.20329 4.25563 5.61317 4.2213C6.0572 4.18696 6.42606 4.0908 6.76078 3.94653C7.20481 3.76109 7.58054 3.45886 7.92892 3.59623C8.10656 3.66492 8.1407 3.83664 8.1407 3.83664C8.1407 3.83664 8.16802 3.65805 8.03823 3.55502C7.86745 3.42451 7.29363 3.10855 7.29363 3.10855C7.29363 3.10855 7.14334 3.01239 6.91793 3.10855C6.59684 3.23906 6.33728 3.67866 6.08452 3.85038C5.78395 4.05643 5.57899 4.0015 5.3126 4.13886C5.08033 4.2625 5.01886 4.40676 5.01886 4.40676Z" fill="white" style="fill:white;fill-opacity:1;"/>
<path d="M6.09747 4.3721C6.09747 4.3721 5.4212 4.4614 5.19576 4.5095C5.07966 4.53697 4.8064 4.63313 4.94986 4.94223C5.01815 5.09333 5.17527 5.18263 5.32555 5.3681C5.44852 5.51919 5.48267 5.62223 5.43486 5.72526C5.38023 5.85576 5.2436 5.95192 5.01815 5.84203C4.79957 5.73213 4.62193 5.85576 4.58779 5.97943C4.53315 6.17863 4.65612 6.33659 4.65612 6.33659C4.65612 6.33659 4.7449 6.06182 4.98401 6.17172C5.23677 6.28852 5.41437 6.33659 5.57149 6.26102C5.81742 6.15112 5.87206 5.88326 5.87206 5.88326C5.87206 5.88326 6.02917 5.97943 6.00869 6.17863C5.97454 6.48769 5.66714 6.61136 5.73543 6.97539C5.77641 7.16085 6.04966 7.33945 6.04966 7.33945C6.04966 7.33945 5.88572 7.00972 6.07015 6.75559C6.24775 6.51519 6.3434 6.37779 6.39804 6.21982C6.46637 6.00689 6.43905 5.78023 6.26145 5.51919C6.11799 5.30626 6.04283 5.10706 6.00186 4.901C5.91987 4.52324 6.09747 4.3721 6.09747 4.3721Z" fill="white" style="fill:white;fill-opacity:1;"/>
<path d="M17.4579 6.31633C17.4579 6.31633 16.686 6.3438 15.8048 5.93857C15.067 5.5951 14.6981 5.02501 14.6981 5.02501H15.7296C15.7296 5.02501 15.675 5.41654 16.2146 5.78744C16.5972 6.04847 17.0002 6.15837 17.2461 6.24077C17.4169 6.30947 17.4579 6.31633 17.4579 6.31633Z" fill="white" style="fill:white;fill-opacity:1;"/>
<path d="M21.2562 3.93943C21.2562 3.93943 21.1674 4.00124 21.1947 4.22104C21.2289 4.43397 21.4406 5.0041 21.4611 5.21017C21.4884 5.42997 21.4611 5.83523 20.9079 6.09623C20.4845 6.29543 20.1908 6.34349 20.1908 6.34349C20.1908 6.34349 20.8874 6.02066 20.9557 5.6223C21.0103 5.30633 20.8191 4.96973 20.6415 4.56451C20.4776 4.16611 20.4913 3.96004 20.6757 3.85013C20.785 3.78145 20.8942 3.80206 20.9967 3.82953C21.1469 3.87761 21.2562 3.93943 21.2562 3.93943Z" fill="white" style="fill:white;fill-opacity:1;"/>
<path d="M23.5653 4.40732C23.5653 4.40732 23.3809 4.25619 22.971 4.22186C22.527 4.18753 22.1649 4.09136 21.8234 3.95399C21.3793 3.76852 21.0036 3.4663 20.6552 3.60367C20.4776 3.67236 20.4435 3.84408 20.4435 3.84408C20.4435 3.84408 20.423 3.66549 20.5596 3.55559C20.7235 3.42508 21.2973 3.10225 21.2973 3.10225C21.2973 3.10225 21.4476 3.00609 21.6731 3.10225C21.9941 3.23275 22.2537 3.67236 22.5065 3.84408C22.807 4.05012 23.012 3.99519 23.2784 4.13256C23.5107 4.26309 23.5653 4.40732 23.5653 4.40732Z" fill="white" style="fill:white;fill-opacity:1;"/>
<path d="M22.4854 4.3721C22.4854 4.3721 23.1617 4.4614 23.3871 4.5095C23.5101 4.53697 23.7765 4.63313 23.633 4.94223C23.5647 5.09333 23.4076 5.18263 23.2573 5.3681C23.1412 5.51919 23.1002 5.62223 23.148 5.72526C23.2027 5.84889 23.3461 5.95192 23.5647 5.84203C23.7833 5.73213 23.9609 5.85576 23.9951 5.97943C24.0497 6.17863 23.9268 6.33659 23.9268 6.33659C23.9268 6.33659 23.838 6.06182 23.5989 6.17172C23.3461 6.28852 23.1685 6.33659 23.0114 6.26102C22.7723 6.15112 22.7177 5.87639 22.7177 5.87639C22.7177 5.87639 22.5605 5.97256 22.581 6.17172C22.6152 6.48769 22.9294 6.61136 22.8543 6.97539C22.8133 7.16085 22.5332 7.33945 22.5332 7.33945C22.5332 7.33945 22.6971 7.00972 22.5127 6.75559C22.3351 6.51519 22.2463 6.37779 22.1916 6.21982C22.1233 6.00689 22.1507 5.78023 22.3283 5.51919C22.4717 5.30626 22.54 5.10706 22.5879 4.901C22.6698 4.52324 22.4854 4.3721 22.4854 4.3721Z" fill="white" style="fill:white;fill-opacity:1;"/>
<path d="M11.1253 24.09L10.8316 23.8084L10.7155 23.6916C10.6608 23.6366 10.5993 23.6229 10.5378 23.6229C10.4217 23.6229 10.3124 23.6916 10.3124 23.6916C10.3124 23.6916 9.04865 24.2823 8.24942 24.454C8.11279 24.4815 7.983 24.4952 7.86686 24.4952C7.25889 24.4952 6.98563 24.1449 6.98563 24.1449L6.84222 23.932C6.84222 23.932 6.77388 23.7603 6.63043 23.7603C6.59628 23.7603 6.56213 23.7671 6.52112 23.7946C6.33669 23.8977 6.46648 24.0831 6.46648 24.0831L7.31356 25.6698C7.31356 25.6698 7.79856 25.1959 8.81641 24.8249C9.74544 24.4815 10.5174 24.4678 10.6472 24.4678H10.6676C10.6676 24.4678 10.7223 24.4746 10.7906 24.4746C10.9067 24.4746 11.0775 24.4609 11.1322 24.4128C11.2893 24.2754 11.1253 24.09 11.1253 24.09Z" fill="white" style="fill:white;fill-opacity:1;"/>
<path d="M23.6059 23.1339H23.6196H23.722L23.8245 21.7808C23.7562 21.7739 23.6879 21.7602 23.6128 21.7602C23.5377 21.7602 23.4694 21.7739 23.4011 21.7808L23.5035 23.1339H23.6059Z" fill="white" style="fill:white;fill-opacity:1;"/>
<path d="M21.9192 23.4426C21.9192 23.5044 21.9328 23.5662 21.9397 23.628H25.2938C25.3006 23.5662 25.3143 23.5044 25.3143 23.4426C25.3143 23.4014 25.3006 23.3534 25.3006 23.3122H23.8934H23.627H23.6133H23.3469H21.9397C21.926 23.3602 21.9192 23.4014 21.9192 23.4426Z" fill="white" style="fill:white;fill-opacity:1;"/>
<path d="M23.3258 23.1336L23.2233 21.8148C22.5744 21.9659 22.0688 22.4811 21.9459 23.1405H23.3258V23.1336Z" fill="white" style="fill:white;fill-opacity:1;"/>
<path d="M24.0018 21.8148L23.8994 23.1405H25.2724C25.1563 22.4811 24.6508 21.9659 24.0018 21.8148Z" fill="white" style="fill:white;fill-opacity:1;"/>
<path d="M23.6131 25.3118C22.9983 25.3118 22.445 25.0096 22.1034 24.5562C22.0283 24.6936 21.8165 24.8859 21.2222 24.7554C20.4161 24.5837 18.5102 23.6976 18.5102 23.6976C18.5102 23.6976 18.2711 23.5397 18.114 23.6976L17.9979 23.8144L17.7041 24.096C17.7041 24.096 17.5334 24.2815 17.6905 24.4189C17.7861 24.5082 18.155 24.4807 18.155 24.4807C18.155 24.4807 18.9884 24.4601 20.0063 24.8379C21.0241 25.2088 22.3015 25.6553 22.889 25.7033C23.2579 25.7308 23.6951 25.5041 24.0571 25.2569C23.9137 25.2843 23.7702 25.3118 23.6131 25.3118Z" fill="white" style="fill:white;fill-opacity:1;"/>
<path d="M23.6126 25.133C24.4254 25.133 25.0949 24.5697 25.2657 23.8142H21.9594C22.1302 24.5629 22.8065 25.133 23.6126 25.133Z" fill="white" style="fill:white;fill-opacity:1;"/>
<path d="M5.10047 25.0372C5.23706 25.4699 6.00196 25.9714 6.00196 25.9714L5.34633 24.5152C5.34633 24.5152 4.97754 24.6525 5.10047 25.0372Z" fill="white" style="fill:white;fill-opacity:1;"/>
<path d="M2.72983 17.1835C2.53177 17.1835 2.37469 17.3415 2.37469 17.5338C2.37469 17.7262 2.53177 17.8841 2.72983 17.8841C2.92788 17.8841 3.08496 17.7262 3.08496 17.5338C3.08496 17.3415 2.92788 17.1835 2.72983 17.1835Z" fill="white" style="fill:white;fill-opacity:1;"/>
<path d="M7.23221 26.0057L3.09934 17.9817C3.01737 18.0504 2.9149 18.0916 2.8056 18.1053L6.41249 26.356C6.41249 26.3629 6.56277 26.6995 6.85651 26.6995C6.91798 26.6995 6.98627 26.6858 7.05461 26.6514C7.16391 26.6033 7.23221 26.5346 7.27319 26.4385C7.34152 26.2461 7.23221 26.0125 7.23221 26.0057Z" fill="white" style="fill:white;fill-opacity:1;"/>
<path d="M24.1111 20.8736L23.7628 20.9904L23.8789 20.6469H23.4281L23.5442 20.9904L23.1959 20.8736V21.3269L23.5442 21.2102L23.4281 21.5536H23.8789L23.7628 21.2102L24.1111 21.3269V20.8736Z" fill="white" style="fill:white;fill-opacity:1;"/>
<path d="M19.1657 3.60982L18.872 3.70599L18.9744 3.4175H18.592L18.6876 3.70599L18.4008 3.60982V3.98759L18.6876 3.88457L18.592 4.17992H18.9744L18.872 3.88457L19.1657 3.98759V3.60982Z" fill="white" style="fill:white;fill-opacity:1;"/>
<path d="M10.0662 3.4175H9.68378L9.77939 3.70599L9.49255 3.60982V3.98759L9.77939 3.88457L9.68378 4.17992H10.0662L9.96379 3.88457L10.2575 3.98759V3.60982L9.96379 3.70599L10.0662 3.4175Z" fill="white" style="fill:white;fill-opacity:1;"/>
<path d="M14.083 0.250427L14.1991 0.593867L13.8508 0.477097V0.930436L14.1991 0.813667L14.083 1.15711H14.5337L14.4176 0.813667L14.7659 0.930436V0.477097L14.4176 0.593867L14.5337 0.250427H14.083Z" fill="white" style="fill:white;fill-opacity:1;"/>
<path d="M1.74671 14.814C1.90383 14.8689 2.05411 14.8964 2.19074 14.917L2.23855 14.7521L2.3137 14.4911L2.52547 14.6628C2.5323 14.6697 2.66209 14.7796 2.79188 14.9445C2.89435 14.9376 2.96266 14.9239 2.96266 14.9239L4.32206 14.7247L4.78657 14.656C4.70462 14.6216 4.64312 14.5942 4.63629 14.5942L4.56799 14.5667L4.58848 14.4911C4.58848 14.4774 4.6636 14.1889 4.7934 13.8798L2.68941 13.818C2.68941 13.818 2.66892 13.818 2.64843 13.818C2.40934 13.818 2.05411 13.8317 1.82869 13.9141C1.36416 14.0584 1.14557 14.2645 1.14557 14.2645C1.14557 14.2645 1.43931 14.7041 1.74671 14.814Z" fill="white" style="fill:white;fill-opacity:1;"/>
<path d="M2.85333 15.4328C2.7577 15.0825 2.41614 14.8009 2.41614 14.8009L2.22486 15.4603C2.22486 15.4603 2.31367 15.5977 2.31367 15.6458C2.31367 15.6664 2.23853 15.7145 2.16338 15.7145C2.08824 15.7145 2.00627 15.6664 1.9926 15.5084C1.97894 15.3436 2.19754 15.2474 2.19754 15.2474C2.19754 15.2474 2.10873 15.1237 1.98577 15.1237C1.97894 15.1237 1.97211 15.1237 1.96528 15.1237C1.77401 15.1444 1.69887 15.3092 1.73302 15.4603C1.73302 15.4603 1.72619 15.4535 1.72619 15.4466C1.69203 15.3848 1.61689 15.3298 1.52808 15.3229C1.47343 15.3229 1.40512 15.3436 1.34364 15.4054C1.24801 15.4947 1.29582 15.6595 1.29582 15.6595C1.29582 15.6595 1.38463 15.6183 1.48027 15.6183C1.53491 15.6183 1.58956 15.632 1.63055 15.6733C1.83549 15.8793 1.61006 16.0098 1.54175 16.0098C1.53491 16.0098 1.52808 16.0098 1.52808 16.003C1.49393 15.9755 1.43928 15.8175 1.43928 15.8175L0.80398 15.5427C0.80398 15.5427 0.797149 15.9824 1.00892 16.2846C1.1797 16.5319 1.3778 16.6074 1.49393 16.6074C1.50759 16.6074 1.51442 16.6074 1.52808 16.6074C1.75351 16.5731 1.7945 16.4426 1.7945 16.4426C1.78084 16.4907 1.78084 16.628 1.81499 16.6967C1.82183 16.7105 1.82866 16.7105 1.84232 16.7105C1.92429 16.7105 2.11557 16.5387 2.11557 16.5387C2.18388 16.8547 2.0131 16.889 2.0131 16.889C2.12923 16.9921 2.23169 17.0196 2.31367 17.0196C2.40247 17.0196 2.46395 16.9852 2.46395 16.9852C2.51177 16.9646 2.67572 16.8684 2.66889 16.5868C2.66889 16.5868 2.64157 16.6074 2.58692 16.6074C2.52544 16.6074 2.43663 16.5731 2.32733 16.4357C2.32733 16.4357 2.67572 16.3876 2.64157 16.3052C2.61424 16.2296 2.50494 16.1472 2.45713 16.1266C2.45713 16.1266 2.47762 16.1335 2.51861 16.1335C2.57325 16.1335 2.66206 16.1129 2.7577 16.0236C2.85333 15.9549 2.94214 15.7488 2.85333 15.4328Z" fill="white" style="fill:white;fill-opacity:1;"/>
<path d="M5.24387 14.8147C5.21655 14.8078 5.17557 14.7941 5.13456 14.7804L4.34215 14.8971L2.92126 15.1169C2.92126 15.1169 2.91443 15.1169 2.9076 15.1169C2.95542 15.1994 2.99641 15.2887 3.02373 15.3848C3.1262 15.7763 3.01007 16.0511 2.88028 16.1679C2.85295 16.1885 2.83246 16.2297 2.83246 16.2297L2.83929 16.4014C2.93493 16.4289 3.03739 16.4564 3.11254 16.4701C3.16035 16.477 3.21501 16.4838 3.26282 16.4838C3.48142 16.4838 3.64537 16.4014 3.64537 16.4014L4.75204 15.7626L5.03212 15.5978L5.16871 15.5222C5.16871 15.4123 5.16871 15.2131 5.18923 15.0482C5.19606 14.9589 5.23704 14.8834 5.27802 14.8284C5.27119 14.8147 5.25753 14.8216 5.24387 14.8147Z" fill="white" style="fill:white;fill-opacity:1;"/>
<path d="M15.3677 28.6703C15.6887 28.155 15.7024 27.7222 15.3882 26.7673C15.0056 25.5994 14.7051 24.6102 14.5753 24.1774C14.4728 24.2736 14.3908 24.3285 14.343 24.3285C14.302 24.3285 14.2132 24.2736 14.1039 24.1774C13.9741 24.6102 13.6667 25.5926 13.291 26.7673C12.9768 27.7291 12.9972 28.1619 13.3115 28.6703C13.7009 29.3023 14.3362 29.7832 14.3362 29.7832H14.343C14.3362 29.79 14.9715 29.3092 15.3677 28.6703Z" fill="white" style="fill:white;fill-opacity:1;"/>
<path d="M18.9816 25.6275C18.9953 25.7855 18.9611 25.9641 18.7835 26.0465C18.722 26.074 18.6605 26.0878 18.5854 26.0878C18.2165 26.0878 17.6905 25.758 17.1372 25.4077L17.0279 25.339C16.1057 24.7619 15.7163 24.4939 15.3474 24.1505C15.2313 24.0749 15.122 23.9856 15.0059 23.8619C15.1288 24.1367 15.3884 24.7 15.7436 25.2427C15.8803 25.4557 16.0101 25.6481 16.133 25.8198C16.6385 26.5687 16.9732 27.0633 17.0757 27.6129C17.1303 27.8808 17.1099 28.135 17.0347 28.3685C17.2738 28.5128 17.588 28.6502 17.9227 28.6502C18.1687 28.6502 18.3941 28.5746 18.599 28.4166C19.2753 27.8945 18.8176 26.8915 18.8108 26.8847L18.7562 26.7679L18.8791 26.7541C18.8996 26.7541 19.3232 26.6992 19.4188 26.287C19.5281 25.916 19.1865 25.7168 18.9816 25.6275Z" fill="white" style="fill:white;fill-opacity:1;"/>
<path d="M12.5532 25.8336C12.6694 25.655 12.7992 25.4626 12.9426 25.2565C13.3047 24.7138 13.5642 24.1436 13.6872 23.8619C13.5779 23.9787 13.4686 24.0749 13.3525 24.1505C12.9836 24.5008 12.5942 24.7687 11.6652 25.3458L11.5559 25.4145C11.0026 25.7649 10.4697 26.0946 10.1077 26.0946C10.0325 26.0946 9.96423 26.0809 9.90959 26.0534C9.73195 25.971 9.69781 25.7855 9.71146 25.6344C9.50654 25.7168 9.165 25.9229 9.26061 26.3145C9.36309 26.7267 9.78663 26.7747 9.80028 26.7816L9.92325 26.7954L9.86858 26.9121C9.86175 26.9259 9.40406 27.922 10.0804 28.4441C10.2785 28.5952 10.5039 28.6777 10.7566 28.6777C11.0914 28.6777 11.4124 28.5403 11.6447 28.396C11.5696 28.1624 11.5491 27.9083 11.6037 27.6403C11.713 27.077 12.0477 26.5824 12.5532 25.8336Z" fill="white" style="fill:white;fill-opacity:1;"/>
<path d="M10.6062 21.4441C10.5788 21.4922 10.5174 21.6296 10.5447 21.7326C10.5583 21.8013 10.5857 21.8975 10.613 21.9799C10.8179 21.6502 11.1253 21.4579 11.5147 21.4098C11.5899 21.4029 11.6718 21.396 11.7401 21.396C11.8768 21.396 11.9997 21.4166 12.109 21.4441L11.8426 21.1762C11.6582 21.135 11.4259 21.0526 11.2278 20.8809C11.1868 20.8465 11.1458 20.8053 11.1185 20.7572L10.6062 21.4441Z" fill="white" style="fill:white;fill-opacity:1;"/>
<path d="M13.1132 21.2104H12.1773C12.1705 21.2104 12.1568 21.2104 12.1295 21.2104L12.6213 21.7118C12.635 21.7255 12.9766 22.0621 13.0927 22.7559C13.2088 23.4702 12.758 23.9923 12.4847 24.2327C12.7716 24.2327 13.243 24.1365 13.6324 23.6351C13.4616 23.3672 13.3113 23.0306 13.2566 22.6391C13.1679 22.0415 13.1747 21.4577 13.1815 21.2104C13.1405 21.2104 13.1132 21.2104 13.1132 21.2104Z" fill="white" style="fill:white;fill-opacity:1;"/>
<path d="M10.6679 19.225C10.7703 19.1288 10.8318 19.0052 10.8659 18.9159V17.8787C10.7498 17.8512 10.4561 17.7825 10.2717 17.7138C10.34 17.8855 10.4493 18.2359 10.4493 18.6686C10.4493 19.1013 10.2239 19.4104 10.2239 19.4104C10.2239 19.4104 10.463 19.4173 10.6679 19.225Z" fill="white" style="fill:white;fill-opacity:1;"/>
<path d="M17.8406 15.5909C17.8201 15.5909 17.7996 15.5909 17.7791 15.5772V17.7065C17.9703 17.6584 18.3255 17.5691 18.4211 17.5073C18.5099 17.4524 18.5372 17.2806 18.544 17.1913C18.544 17.1707 18.544 17.1501 18.5508 17.1501L18.6396 16.003C18.544 16.0374 18.4552 16.0717 18.4552 16.0717L18.3664 16.1061L18.2845 16.0511C18.1616 15.9687 17.9567 15.8038 17.9498 15.6252C17.9498 15.6046 17.9498 15.5772 17.9498 15.5497C17.9225 15.584 17.8884 15.5909 17.8406 15.5909Z" fill="white" style="fill:white;fill-opacity:1;"/>
<path d="M20.8463 22.8994C20.7506 22.8994 20.5457 22.8788 20.4501 22.7003C20.3681 22.556 20.3749 22.3637 20.4432 21.8348C20.5252 21.2029 20.2861 20.9281 19.8967 20.6877C19.7123 20.5709 19.48 20.5435 19.3024 20.5435C19.2341 20.5435 19.1795 20.5503 19.1385 20.5503C19.1043 20.5778 19.0633 20.6053 19.0223 20.6328L19.2341 20.7701C19.3707 20.8457 19.5825 21.0312 19.5825 21.3128C19.5825 21.5669 19.562 21.8348 19.562 21.8416L19.5484 22.0271H19.5347L19.5415 22.034C19.241 22.4461 19.2751 23.4696 20.1358 23.5176C20.1563 23.5176 20.17 23.5176 20.1905 23.5176C20.8053 23.5176 20.9009 22.8926 20.9009 22.8926C20.9009 22.8926 20.8736 22.8994 20.8463 22.8994Z" fill="white" style="fill:white;fill-opacity:1;"/>
<path d="M10.3943 16.0644L10.3124 16.1194L10.2236 16.085C10.2236 16.085 10.1416 16.0507 10.0392 16.0163L10.128 17.1634C10.128 17.1634 10.128 17.184 10.1348 17.2046C10.1416 17.2871 10.1689 17.4588 10.2577 17.5206C10.3533 17.5824 10.6812 17.6649 10.8656 17.7061V15.5974C10.8587 15.5974 10.8519 15.5974 10.8451 15.5974C10.7973 15.5974 10.7631 15.5905 10.729 15.563C10.729 15.5905 10.7358 15.618 10.729 15.6386C10.7221 15.8171 10.5172 15.982 10.3943 16.0644Z" fill="white" style="fill:white;fill-opacity:1;"/>
<path d="M17.7791 13.8528C17.984 13.9009 18.223 13.8734 18.223 13.8734C18.223 13.8734 18.4825 13.8048 18.6055 13.5712C18.824 13.1797 18.6601 12.8637 18.6601 12.8637C18.6601 12.8637 18.2777 13.214 17.7791 13.0973V13.8528Z" fill="white" style="fill:white;fill-opacity:1;"/>
<path d="M11.4743 19.0123C11.7885 19.0878 11.8637 19.3077 11.8705 19.4863C11.8842 19.8229 11.9252 20.1183 12.3418 20.29C12.8747 20.5099 13.4417 20.3931 13.6398 20.0152C13.7696 19.7748 13.7832 19.5206 13.6876 19.3626C13.6193 19.2527 13.5032 19.1977 13.346 19.1909H13.3392C13.1753 19.1909 13.0523 19.239 12.984 19.3214C12.861 19.4794 12.9157 19.7336 12.9157 19.7336C12.9293 19.7817 12.8952 19.8298 12.8474 19.8435C12.7995 19.8572 12.7517 19.8229 12.7381 19.7748C12.7381 19.7611 12.6629 19.4313 12.8405 19.2114C12.9498 19.081 13.1069 19.0054 13.346 19.0123C13.5647 19.0123 13.7423 19.1016 13.8379 19.2664C13.9677 19.4794 13.954 19.8023 13.7969 20.0977C13.6329 20.4068 13.2777 20.5786 12.8679 20.5786C12.6698 20.5786 12.4648 20.5373 12.2667 20.4549C11.7544 20.2419 11.6997 19.8641 11.6861 19.4931C11.6792 19.2733 11.5494 19.2183 11.4401 19.1909L11.4128 19.184C11.365 19.1703 11.3377 19.1153 11.3582 19.0672C11.3787 19.0191 11.4265 18.9985 11.4743 19.0123ZM11.5836 18.0298C11.5836 18.0298 11.6792 17.8306 11.6861 17.597C11.6929 17.3429 11.6519 17.0062 11.6109 16.6559C11.5699 16.3055 11.6929 16.1338 11.809 16.0513C11.973 15.9414 12.2121 15.9346 12.4307 16.0513C12.6083 16.1406 12.7517 16.2849 12.8201 16.3674C12.8884 16.3399 12.9977 16.2987 13.1479 16.2506C13.3051 16.1956 13.469 16.175 13.5715 16.1613L13.5305 15.9964L13.4553 15.7491C13.2914 15.7697 12.943 15.804 12.6834 15.7903C12.3623 15.7765 12.1711 15.4056 12.0755 15.2064C12.0549 15.1583 12.0344 15.1239 12.0208 15.1033C11.973 15.0346 11.8022 14.9315 11.7134 14.8766C11.6861 14.8628 11.6724 14.8422 11.6656 14.8147C11.6588 14.7873 11.6724 14.7598 11.6861 14.7392L12.2189 14.1621C12.2326 14.1484 12.2531 14.1346 12.2667 14.1346L12.7244 14.0453L12.861 13.7568L12.8542 13.7362C12.8474 13.7224 12.8405 13.7156 12.8337 13.7018L12.7859 13.5164C12.7722 13.4683 12.7995 13.4202 12.8474 13.4064C12.8952 13.3927 12.943 13.4202 12.9566 13.4683L12.9977 13.6125L13.2504 13.695C13.2914 13.7087 13.3187 13.7431 13.3119 13.7911L13.2914 14.011L13.4417 14.0522C13.4895 14.0659 13.5168 14.114 13.5032 14.1621C13.4895 14.2102 13.4417 14.2377 13.3938 14.2239L13.1753 14.169C13.1684 14.169 13.1616 14.1621 13.1548 14.1621L13.5783 15.5911C13.592 15.6048 13.6056 15.6185 13.6125 15.6392L13.6876 15.962L14.7328 19.4657L15.2519 19.5C15.2861 19.4931 15.3271 19.5069 15.3681 19.5344C15.3954 19.555 15.4159 19.5893 15.4295 19.6168L15.8258 19.5138L15.6823 18.6893L15.4842 17.8924C15.4705 17.8444 15.4979 17.7963 15.5457 17.7825L15.9077 17.6657C15.9556 17.652 16.0034 17.6795 16.0239 17.7276C16.0375 17.7757 16.0102 17.8237 15.9624 17.8375L15.6823 17.9268L15.8599 18.6481L16.0034 19.4794C16.0034 19.4931 15.9965 19.5137 15.9897 19.5275C15.9965 19.5344 16.0034 19.5412 16.0102 19.555C16.0239 19.6031 15.9965 19.6511 15.9487 19.6649L15.3886 19.816C15.3817 19.816 15.3749 19.816 15.3681 19.816C15.3476 19.816 15.3339 19.8092 15.3134 19.8023C15.2929 19.7885 15.2793 19.7611 15.2724 19.7336C15.2724 19.713 15.2588 19.6786 15.2519 19.6718L14.6713 19.6374C14.6167 19.658 14.4322 19.7198 14.3912 19.7336C14.3844 19.7336 14.3844 19.7405 14.3775 19.7405C14.3297 19.7542 14.2751 19.7267 14.2614 19.6855C14.2409 19.6305 14.2409 19.6168 14.3229 19.5756V19.5687C14.3297 19.5687 14.3366 19.5687 14.3434 19.5687C14.3844 19.5481 14.4527 19.5275 14.5483 19.4931L14.0633 17.865C13.995 17.9543 13.8789 18.0711 13.7286 18.1672C13.7627 18.2909 13.7901 18.4626 13.6944 18.5451C13.6876 18.5519 13.6808 18.5588 13.6808 18.5588L14.4049 19.2458C14.439 19.2802 14.439 19.3351 14.4049 19.3764C14.3844 19.397 14.3639 19.4038 14.3366 19.4038C14.3161 19.4038 14.2887 19.397 14.2751 19.3764L13.5168 18.655C13.51 18.6481 13.5032 18.6344 13.4963 18.6275C13.4895 18.6138 13.4553 18.5107 13.5783 18.4077C13.5851 18.3939 13.5783 18.3252 13.5647 18.2565C13.2299 18.4077 12.9977 18.6481 12.9977 18.655C12.9772 18.6756 12.9566 18.6825 12.9293 18.6825C12.9088 18.6825 12.8884 18.6756 12.8679 18.6619C12.8337 18.6275 12.8269 18.5726 12.861 18.5382C12.8747 18.5245 13.1206 18.2634 13.4963 18.0917C13.8106 17.9543 13.9745 17.6864 13.995 17.652L13.6056 16.3467C13.5168 16.3536 13.3392 16.3811 13.1753 16.4292C12.943 16.5047 12.8064 16.5666 12.8064 16.5666C12.7654 16.5872 12.7176 16.5734 12.6903 16.5391C12.6903 16.5391 12.54 16.333 12.3214 16.2231C12.1574 16.1406 11.9866 16.1406 11.8842 16.2093C11.7749 16.2849 11.7339 16.436 11.7612 16.6421C11.809 16.9994 11.8432 17.3429 11.8364 17.6108C11.8295 17.7482 11.8022 17.865 11.7749 17.9611C11.9046 17.9199 12.0891 17.8237 12.1438 17.5902C12.2257 17.2742 12.1438 17.0749 12.0823 16.9169C12.0344 16.8001 11.9866 16.6834 12.0413 16.5734C12.0959 16.4635 12.1711 16.4292 12.2326 16.4223C12.4033 16.4017 12.581 16.5941 12.6151 16.6353C12.6219 16.6421 12.6219 16.6559 12.6288 16.6696C12.6288 16.6834 12.6356 16.6902 12.6356 16.704C12.6356 16.7108 12.5741 17.123 12.7244 17.4596C12.8064 17.6451 12.8474 17.7001 12.861 17.707C12.8815 17.7207 12.902 17.7482 12.902 17.7825C12.902 17.8306 12.8952 18.2565 12.7107 18.4283C12.6561 18.4832 12.581 18.5039 12.5126 18.5039C12.4307 18.5863 12.3077 19.081 12.2394 19.5138L12.2667 19.7542C12.2736 19.8023 12.2326 19.8504 12.1847 19.8504H12.1779C12.1301 19.8504 12.0891 19.816 12.0891 19.7679L12.0618 19.5138C12.0618 19.5069 12.0618 19.5 12.0618 19.4931C12.2531 18.2978 12.4512 18.3184 12.5126 18.3184C12.5468 18.3252 12.5673 18.3115 12.5946 18.2909C12.6834 18.2085 12.7244 17.968 12.7312 17.81C12.6971 17.7688 12.6492 17.6864 12.5741 17.5283C12.4238 17.2055 12.4512 16.8414 12.4648 16.7177C12.4102 16.6559 12.3214 16.6009 12.2736 16.5941C12.2599 16.5941 12.2394 16.6147 12.2257 16.6421C12.2052 16.6834 12.2257 16.7452 12.2667 16.8414C12.335 17.0062 12.4307 17.2536 12.335 17.6245C12.2326 18.0298 11.8432 18.1535 11.6519 18.1604H11.6451C11.6177 18.1604 11.5836 18.1466 11.5699 18.1191C11.5699 18.0917 11.5699 18.0573 11.5836 18.0298ZM15.5662 18.9367C15.5867 18.9847 15.5593 19.0329 15.5115 19.0534C15.4978 19.0603 15.491 19.0603 15.4774 19.0603C15.4432 19.0603 15.4091 19.0397 15.3954 19.0054C15.2929 18.7306 15.1426 18.4077 15.0743 18.3596C14.9923 18.2978 14.8421 18.2978 14.7943 18.3046C14.7533 18.3046 14.7123 18.284 14.6986 18.2428L14.5893 17.9405C14.5756 17.8924 14.5961 17.8444 14.644 17.8237C14.6918 17.81 14.7464 17.8306 14.7601 17.8787L14.8489 18.1191C14.9377 18.1191 15.0812 18.1329 15.1836 18.2153C15.3202 18.3184 15.5047 18.7924 15.5662 18.9367ZM13.7286 14.0797C13.7286 14.0797 13.9472 13.8805 14.0633 13.7568C14.2273 13.5919 14.4869 13.6881 14.5005 13.6881C14.5073 13.6881 14.5142 13.695 14.5278 13.7018C14.5756 13.7431 14.7464 13.8736 14.7943 13.9629C14.8147 13.9972 14.8557 14.0865 14.5552 14.5468C14.5483 14.5606 14.5347 14.5674 14.521 14.5812L14.5073 14.588C14.5483 14.6224 14.5961 14.6636 14.6303 14.7186C14.7054 14.8354 14.7738 14.9659 14.8147 15.069L14.8899 14.904L14.8489 14.8628C14.8284 14.8422 14.8216 14.8216 14.8216 14.7941C14.8216 14.7667 14.8352 14.746 14.8557 14.7323C14.8694 14.7186 15.1563 14.485 15.3613 14.4094C15.655 14.3064 15.9077 14.3545 16.0239 14.3751C16.0512 14.3819 16.0648 14.3819 16.0785 14.3819C16.1058 14.3751 16.2835 14.327 16.4406 14.2789C16.4884 14.2652 16.5362 14.2926 16.5567 14.3407C16.5704 14.3888 16.543 14.4369 16.4952 14.4506C16.4406 14.4644 16.1605 14.5537 16.1058 14.5606C16.0785 14.5674 16.0443 14.5606 15.9965 14.5468C15.8872 14.5262 15.6755 14.485 15.4295 14.5743C15.3134 14.6155 15.1563 14.7254 15.0538 14.801L15.0675 14.8147C15.0948 14.8422 15.1017 14.8834 15.088 14.9109L14.9036 15.33L14.8967 15.3368C14.883 15.3506 14.8762 15.3644 14.8557 15.3712C14.8557 15.3712 14.8557 15.3781 14.8489 15.3781C14.8421 15.3781 14.8284 15.385 14.8216 15.385C14.8079 15.385 14.7943 15.385 14.7874 15.3781C14.7874 15.3781 14.7874 15.3712 14.7806 15.3712C14.7669 15.3644 14.7533 15.3506 14.7464 15.3368L14.7396 15.33C14.7396 15.33 14.644 15.0414 14.4937 14.8216C14.4185 14.7117 14.3024 14.6705 14.2956 14.6705C14.2614 14.6567 14.2409 14.6293 14.2341 14.588C14.2341 14.5537 14.2546 14.5193 14.2819 14.5056L14.4254 14.4369C14.5415 14.2652 14.6303 14.0797 14.6303 14.0316C14.6167 14.0178 14.521 13.9285 14.439 13.8667C14.398 13.853 14.2682 13.8255 14.2068 13.8942C14.1316 13.9698 14.0223 14.0728 13.9472 14.1484L14.118 14.2652C14.159 14.2926 14.1726 14.3476 14.1384 14.3888C14.1111 14.43 14.0497 14.4369 14.0087 14.4094L13.7491 14.2308C13.7286 14.2171 13.7149 14.1896 13.7081 14.1621C13.7012 14.1209 13.7081 14.1003 13.7286 14.0797ZM16.7616 15.5292C16.7753 15.6872 16.7821 16.0239 16.7821 16.0239C16.7821 16.0719 16.748 16.1132 16.7002 16.12L16.3381 16.1613C16.3381 16.1613 16.3313 16.1613 16.3244 16.1613C16.2903 16.1613 16.2561 16.1406 16.2425 16.1063L16.1058 15.7903C16.1058 15.7834 16.058 15.6804 15.9556 15.5979C15.9145 15.6666 15.8531 15.8246 15.9282 16.175C15.9556 16.2918 15.9965 16.4017 16.0375 16.5116C16.099 16.6696 16.1468 16.807 16.1332 16.9169C16.1263 16.9444 16.1263 16.9719 16.1195 16.9925C16.7889 16.7452 16.8778 16.807 16.9119 16.8276C17.0417 16.9169 17.0759 17.1368 17.0759 17.178C17.0759 17.1917 17.0759 17.1986 17.0759 17.2055L16.8436 18.1947C16.8368 18.2291 16.8163 18.2497 16.7821 18.2634L16.1878 18.4489C16.181 18.4489 16.1673 18.4558 16.1605 18.4558C16.14 18.4558 16.1195 18.4489 16.099 18.4352C16.0785 18.4145 16.0648 18.3871 16.0648 18.3527L16.1263 17.9131C16.1332 17.8787 16.1537 17.8512 16.1878 17.8375L16.4747 17.7344C16.5225 17.7138 16.5772 17.7413 16.5909 17.7894C16.6113 17.8375 16.584 17.8856 16.5362 17.9062L16.3039 17.9886L16.2698 18.2291L16.6796 18.0985L16.8983 17.178C16.8846 17.1024 16.8573 16.9925 16.8163 16.9719C16.7548 16.965 16.3517 17.0887 16.0239 17.2192C15.9897 17.2329 15.9487 17.2261 15.9282 17.1986C15.9009 17.1711 15.8941 17.1368 15.9077 17.1024C15.9077 17.1024 15.9419 17.02 15.9624 16.8895C15.9692 16.8276 15.9214 16.704 15.8736 16.5734C15.8326 16.4635 15.7848 16.3399 15.7574 16.2093C15.614 15.5773 15.8804 15.4124 15.9077 15.3987H15.9145C15.9282 15.3918 15.935 15.3918 15.9487 15.3918C15.9624 15.3918 15.9692 15.3918 15.9829 15.3987H15.9897C16.2015 15.5155 16.2766 15.7216 16.2766 15.7285L16.3928 15.9758L16.6045 15.9483C16.5977 15.8384 16.5908 15.646 16.584 15.543C16.5635 15.1926 16.5293 14.8422 16.3791 14.7323C16.3381 14.7048 16.3313 14.643 16.3654 14.6086C16.3996 14.5674 16.4542 14.5606 16.4952 14.5949C16.7002 14.746 16.7343 15.1101 16.7616 15.5292ZM16.9665 20.1389C16.9665 20.1801 16.9392 20.2145 16.8983 20.2213L15.8667 20.4824C15.8394 20.4893 15.8053 20.4824 15.7848 20.4618C15.7848 20.4618 15.6345 20.3381 15.5047 20.3931C15.4432 20.4206 15.4432 20.448 15.4295 20.5099C15.4091 20.6541 15.3476 20.7434 15.1085 20.7434C15.0948 20.7434 15.0812 20.7434 15.0675 20.7434L13.5851 20.6954C13.5373 20.6954 13.4963 20.6541 13.4963 20.5992C13.4963 20.5511 13.5373 20.5099 13.5851 20.5099L15.0675 20.558C15.2315 20.5648 15.2315 20.5442 15.2451 20.4824C15.2519 20.4137 15.2724 20.3038 15.4227 20.2282C15.6071 20.1389 15.7848 20.2351 15.8599 20.29L16.7821 20.0565V20.0084L16.1263 19.9465C16.0922 19.9465 16.0648 19.9191 16.0512 19.8916C16.0375 19.8572 16.0443 19.8229 16.0717 19.7954L16.2015 19.658C16.2356 19.6237 16.2903 19.6168 16.3313 19.6511C16.3654 19.6855 16.3722 19.7405 16.3381 19.7748L16.3313 19.7817L16.8914 19.8298C16.9392 19.8366 16.9734 19.871 16.9734 19.9191L16.9665 20.1389ZM11.0508 20.0015C11.0508 20.0084 11.0576 20.4824 11.3514 20.7434C11.6929 21.0457 12.1779 21.032 12.1847 21.032H13.1138C13.1275 21.032 13.6739 20.9839 14.0292 21.3342C14.1931 21.4923 14.2887 21.6983 14.3502 21.8838C14.4117 21.6915 14.5005 21.4785 14.6576 21.3342C15.0197 20.9908 15.573 21.032 15.5935 21.032H16.4815C16.4884 21.032 16.9734 21.0388 17.315 20.7434C17.6087 20.4893 17.6155 20.0084 17.6155 20.0015V13.1729H14.3844H14.2956H11.0644V20.0015H11.0508Z" fill="white" style="fill:white;fill-opacity:1;"/>
<path d="M17.7791 17.8992V18.7441V18.8128C17.7791 18.8128 17.8337 19.0601 18.0113 19.2318C18.2162 19.431 18.4552 19.4241 18.4552 19.4241C18.4552 19.4241 18.2299 19.115 18.2299 18.6823C18.2299 18.2496 18.3391 17.8992 18.4074 17.7275C18.223 17.7893 17.9089 17.8649 17.7791 17.8992Z" fill="white" style="fill:white;fill-opacity:1;"/>
<path d="M9.15163 22.0419V22.035H9.13797L9.12431 21.8496C9.12431 21.8359 9.10382 21.568 9.10382 21.3207C9.10382 21.0391 9.31557 20.8468 9.4522 20.7781L9.66399 20.6407C9.61614 20.6132 9.57517 20.5857 9.54785 20.5583C9.50004 20.5514 9.4522 20.5514 9.37707 20.5514C9.19947 20.5514 8.97402 20.5789 8.78276 20.6956C8.39337 20.9429 8.14747 21.2177 8.23626 21.8427C8.30459 22.3716 8.31142 22.5639 8.22943 22.7082C8.13378 22.8868 7.92203 22.9074 7.83321 22.9074C7.80589 22.9074 7.7854 22.9074 7.7854 22.9074C7.7854 22.9074 7.88105 23.5324 8.49585 23.5324C8.51634 23.5324 8.53 23.5324 8.55049 23.5324C9.41805 23.4706 9.45903 22.454 9.15163 22.0419Z" fill="white" style="fill:white;fill-opacity:1;"/>
<path d="M17.4926 12.9936C17.1715 12.8493 17.0895 12.7257 16.7616 12.341C16.7411 12.3204 16.7343 12.3067 16.7275 12.2929C16.3928 11.9151 16.2288 11.4137 16.1605 11.139C16.0648 11.2763 15.9419 11.4687 15.8736 11.6541C15.7096 12.08 15.6891 12.5402 15.6823 12.5471L15.6687 12.8424L15.5115 12.5883C15.4978 12.5677 15.2315 12.1281 15.1495 11.6404C15.1153 11.4343 15.1153 11.2077 15.129 11.0359C15.0265 11.1527 14.8899 11.3313 14.7806 11.558C14.5552 11.9976 14.4732 12.4234 14.4322 12.7188C14.4458 12.8424 14.4527 12.9386 14.4527 13.0004H17.4926V12.9936Z" fill="white" style="fill:white;fill-opacity:1;"/>
<path d="M16.256 29.0214C16.8299 28.7672 16.9938 28.1558 16.8982 27.6681C16.8026 27.1528 16.4747 26.672 15.9828 25.9369C15.8667 25.7582 15.7369 25.5659 15.5934 25.3598C15.2109 24.7759 14.9376 24.1713 14.8215 23.9034C14.7873 23.9515 14.7464 23.9927 14.7122 24.0339C14.8215 24.4049 15.1494 25.4628 15.5593 26.72C15.8872 27.723 15.8735 28.2039 15.5183 28.7741C15.4295 28.9115 15.3338 29.042 15.2382 29.1588C15.2997 29.1657 15.368 29.1657 15.45 29.1657C15.7574 29.1657 16.0375 29.1176 16.256 29.0214Z" fill="white" style="fill:white;fill-opacity:1;"/>
<path d="M12.43 29.0217C12.6486 29.1179 12.9287 29.166 13.2361 29.166C13.3112 29.166 13.3727 29.166 13.4342 29.1591C13.3386 29.0355 13.2361 28.9118 13.1541 28.7675C12.7989 28.1905 12.7852 27.7096 13.1132 26.7135C13.5162 25.47 13.8373 24.4189 13.9534 24.0411C13.9192 24.0067 13.8851 23.9655 13.8509 23.9243C13.728 24.1991 13.4615 24.7899 13.0858 25.3532C12.9492 25.5662 12.8194 25.7585 12.6964 25.9303C12.2046 26.6654 11.8767 27.1463 11.7811 27.6615C11.6854 28.1561 11.8494 28.7675 12.43 29.0217Z" fill="white" style="fill:white;fill-opacity:1;"/>
<path d="M9.46524 22.9485C9.47206 22.976 9.48572 22.9966 9.49255 23.0241C9.60182 23.5255 9.45158 23.7247 9.45158 23.7247C9.45158 23.7247 9.48572 23.7316 9.54719 23.7316C9.68378 23.7316 9.9433 23.7041 10.1687 23.5324C10.3531 23.395 10.3736 23.1271 10.3736 22.976C10.3599 22.8936 10.3326 22.6188 10.4418 22.3097C10.4555 22.2754 10.4692 22.241 10.4828 22.2067C10.4623 22.1449 10.3872 21.9182 10.3531 21.774C10.3531 21.7602 10.3531 21.7534 10.3531 21.7396C10.2848 21.7946 10.1414 21.8907 9.92281 21.9319C9.75207 21.9594 9.50621 21.9938 9.39011 22.0075C9.38328 22.0212 9.36962 22.035 9.36279 22.0418C9.50621 22.296 9.54036 22.6394 9.46524 22.9485Z" fill="white" style="fill:white;fill-opacity:1;"/>
<path d="M11.529 21.5879C11.003 21.6497 10.7503 22.0069 10.6205 22.3641C10.5043 22.68 10.5658 22.9548 10.5658 22.9548C10.5658 22.9548 10.6205 23.6485 11.2558 23.6691C11.2763 23.6691 11.2899 23.6691 11.3104 23.6691C11.8979 23.6691 12.0619 23.2708 12.0619 23.2708C12.0619 23.2708 11.9662 23.2914 11.8296 23.2914C11.6998 23.2914 11.529 23.2708 11.3856 23.1952C11.085 23.0441 10.9279 22.6045 11.1396 22.2267C11.2899 21.9588 11.5359 21.8352 11.8296 21.8146C11.8637 21.8146 11.8979 21.8077 11.9321 21.8077C12.4103 21.8077 12.663 22.055 12.663 22.055C12.663 22.0481 12.6562 22.0412 12.6562 22.0412C12.6015 21.9519 12.5537 21.8901 12.5264 21.8558C12.3898 21.7184 12.1438 21.5673 11.7408 21.5673C11.6725 21.5741 11.5973 21.581 11.529 21.5879Z" fill="white" style="fill:white;fill-opacity:1;"/>
<path d="M21.0311 13.7773C21.0516 13.7773 21.0721 13.7842 21.0721 13.7842C21.0721 13.7842 21.2907 13.8391 21.5025 13.8391C21.5571 13.8391 21.6049 13.8391 21.6527 13.8254C21.9601 13.7704 22.1036 13.4269 22.1036 13.4269C22.1036 13.4269 21.9601 13.1315 21.803 13.0559C21.7757 13.0422 21.7415 13.0422 21.6937 13.0422C21.4546 13.0422 21.0106 13.1796 21.0106 13.1796C21.0106 13.1796 20.9696 13.2002 20.915 13.2002C20.8672 13.2002 20.8057 13.1796 20.7852 13.0972C20.7442 12.9735 20.8603 12.9185 20.8603 12.9185C20.8603 12.9185 21.1199 12.8155 21.1541 12.8086C21.3795 12.7193 21.6732 12.6094 21.7894 12.5476C21.9806 12.4445 22.0148 11.998 22.0148 11.998C22.0148 11.998 21.8508 11.9087 21.7074 11.8881C21.6801 11.8881 21.6527 11.8812 21.6186 11.8812C21.4888 11.8812 21.3112 11.9156 21.1267 12.0873C20.8193 12.3758 20.7032 12.527 20.6144 12.527C20.5871 12.527 20.5598 12.5132 20.5392 12.4926C20.389 12.3621 20.5461 12.211 20.7715 11.9911C20.9969 11.7713 21.4478 11.4209 21.6527 11.0087C22.2061 9.87522 21.8781 9.40805 21.8781 9.40805C21.8781 9.40805 21.7279 9.61415 21.5571 9.84085C21.2565 10.2325 20.9969 10.4523 20.6895 10.7133C20.3275 11.0156 19.9381 11.4553 19.7946 11.7095C19.6444 11.9705 19.5897 12.2384 19.6444 12.5338C19.7195 12.9323 19.9996 12.9872 20.1909 13.3033C20.4846 13.7842 19.9654 14.2857 19.6717 14.4093C19.4463 14.5055 19.214 14.5467 19.0159 14.5467C18.8451 14.5467 18.6948 14.5124 18.5924 14.4643C18.2576 14.2994 18.1005 13.9834 18.1005 13.9834H17.8273V14.4986C17.8273 14.4986 17.9502 14.5673 17.9502 14.6635C17.9502 14.7803 17.8273 14.904 17.8273 14.904V15.3848C17.8273 15.3986 17.8341 15.4054 17.8409 15.4054C17.8956 15.4054 18.0595 14.7872 18.0595 14.7872C18.0595 14.7872 18.0937 14.6841 18.1893 14.6841C18.2098 14.6841 18.2303 14.691 18.2576 14.6979C18.4011 14.7666 18.3328 14.9177 18.3328 14.9177C18.3328 14.9177 18.1278 15.4398 18.1347 15.6184C18.1415 15.7352 18.3943 15.9069 18.3943 15.9069C18.3943 15.9069 18.5992 15.8245 18.7563 15.7695C18.9134 15.7146 18.8861 15.1238 18.8861 15.1238C18.8861 15.1238 18.8929 14.9383 19.0569 14.9383H19.0637C19.2413 14.9452 19.2072 15.1238 19.2072 15.1238C19.2072 15.1238 19.173 15.4879 19.2072 15.639C19.2345 15.7627 19.6034 15.8589 19.6034 15.8589C19.6034 15.8589 19.7605 15.6802 19.8083 15.6115C19.863 15.5428 19.6717 15.0276 19.6717 15.0276C19.6717 15.0276 19.6239 14.9108 19.7742 14.849C19.8015 14.8353 19.822 14.8353 19.8425 14.8353C19.9654 14.8353 19.9928 15.007 19.9928 15.007C19.9928 15.007 20.1089 15.4467 20.225 15.5497C20.2865 15.6047 20.4163 15.6184 20.5187 15.6184C20.6076 15.6184 20.6827 15.6115 20.6827 15.6115C20.6827 15.6115 20.8945 15.3436 20.8603 15.2062C20.8261 15.0688 20.5461 14.8559 20.4914 14.7872C20.43 14.7116 20.3821 14.6154 20.4914 14.533C20.5256 14.5124 20.5529 14.4986 20.5803 14.4986C20.669 14.4986 20.7374 14.5742 20.7374 14.5742C20.7374 14.5742 20.9355 14.8284 21.236 14.9589C21.2565 14.9658 21.2838 14.9727 21.3044 14.9727C21.482 14.9727 21.7005 14.7528 21.7005 14.7528C21.7005 14.7528 21.6801 14.3681 21.6049 14.2857C21.5366 14.2101 20.9764 14.0727 20.9764 14.0727C20.9764 14.0727 20.8603 13.9971 20.8876 13.8872C20.915 13.7979 20.9901 13.7773 21.0311 13.7773Z" fill="white" style="fill:white;fill-opacity:1;"/>
<path d="M7.94875 14.5943C7.94875 14.5943 8.01708 14.5188 8.10586 14.5188C8.13322 14.5188 8.16736 14.5256 8.19468 14.5531C8.30399 14.6356 8.25615 14.7317 8.19468 14.8073C8.14005 14.876 7.85996 15.089 7.82578 15.2264C7.79163 15.3638 8.00342 15.6317 8.00342 15.6317C8.00342 15.6317 8.07854 15.6386 8.16736 15.6386C8.26981 15.6386 8.3996 15.6248 8.4611 15.5699C8.57724 15.4668 8.69334 15.0272 8.69334 15.0272C8.69334 15.0272 8.72753 14.8554 8.85046 14.8554C8.87095 14.8554 8.89147 14.8623 8.91879 14.8692C9.06908 14.931 9.02127 15.0478 9.02127 15.0478C9.02127 15.0478 8.8368 15.563 8.88464 15.6317C8.93928 15.7004 9.08956 15.879 9.08956 15.879C9.08956 15.879 9.4516 15.776 9.48578 15.6592C9.52676 15.5012 9.48578 15.144 9.48578 15.144C9.48578 15.144 9.4516 14.9653 9.62924 14.9585H9.63607C9.80001 14.9585 9.80684 15.144 9.80684 15.144C9.80684 15.144 9.77953 15.7348 9.92981 15.7897C10.0869 15.8447 10.2918 15.9271 10.2918 15.9271C10.2918 15.9271 10.5446 15.7622 10.5514 15.6386C10.5583 15.46 10.3533 14.9379 10.3533 14.9379C10.3533 14.9379 10.285 14.7867 10.4285 14.718C10.4558 14.7043 10.4763 14.7043 10.4968 14.7043C10.5924 14.7043 10.6266 14.8073 10.6266 14.8073C10.6266 14.8073 10.7905 15.4256 10.8452 15.4256C10.852 15.4256 10.852 15.4188 10.8588 15.405V14.9241C10.8588 14.9241 10.7427 14.8004 10.7427 14.6837C10.7427 14.5875 10.8588 14.5188 10.8588 14.5188V14.0104H10.5788C10.5788 14.0104 10.4285 14.3264 10.0869 14.4913C9.98445 14.5394 9.83416 14.5737 9.66339 14.5737C9.46526 14.5737 9.23985 14.5325 9.0144 14.4363C8.72066 14.3058 8.19468 13.8112 8.49525 13.3303C8.68651 13.0143 8.97343 12.9593 9.04176 12.5609C9.09639 12.2655 9.04176 11.9976 8.89147 11.7365C8.74802 11.4755 8.35863 11.0427 7.99659 10.7404C7.68919 10.4862 7.4296 10.2595 7.12902 9.86791C6.95825 9.64807 6.80797 9.4351 6.80797 9.4351C6.80797 9.4351 6.48004 9.88164 7.03338 11.0151C7.2383 11.4274 7.68919 11.7777 7.9146 11.9976C8.14005 12.2174 8.29716 12.3685 8.14687 12.4991C8.11952 12.5265 8.0922 12.5334 8.07171 12.5334C7.97606 12.5334 7.86679 12.3823 7.55939 12.0937C7.37492 11.922 7.19732 11.8876 7.06752 11.8876C7.03338 11.8876 7.00606 11.8876 6.97874 11.8945C6.82845 11.9151 6.66451 12.0044 6.66451 12.0044C6.66451 12.0044 6.69866 12.451 6.88992 12.554C6.99923 12.6158 7.29297 12.7326 7.52521 12.8151C7.55939 12.8219 7.81895 12.925 7.81895 12.925C7.81895 12.925 7.93509 12.9799 7.89411 13.1036C7.86679 13.186 7.81212 13.2066 7.76431 13.2066C7.71651 13.2066 7.66866 13.186 7.66866 13.186C7.66866 13.186 7.22464 13.0486 6.9924 13.0486C6.95142 13.0486 6.91041 13.0555 6.88309 13.0624C6.72598 13.1379 6.58252 13.4333 6.58252 13.4333C6.58252 13.4333 6.72598 13.7768 7.03338 13.8318C7.08118 13.8387 7.13585 13.8455 7.18366 13.8455C7.39545 13.8455 7.61403 13.7906 7.61403 13.7906C7.61403 13.7906 7.62769 13.7837 7.65501 13.7837C7.69602 13.7837 7.76431 13.8043 7.79163 13.9074C7.81895 14.0241 7.70285 14.0928 7.70285 14.0928C7.70285 14.0928 7.14268 14.2302 7.07435 14.3058C6.99923 14.3882 6.97874 14.773 6.97874 14.773C6.97874 14.773 7.19732 14.9928 7.37492 14.9928C7.40228 14.9928 7.42277 14.986 7.44325 14.9791C7.75065 14.8417 7.94875 14.5943 7.94875 14.5943Z" fill="white" style="fill:white;fill-opacity:1;"/>
<path d="M14.227 12.9936C14.227 12.9249 14.2339 12.8356 14.2475 12.712C14.2134 12.4235 14.1246 11.9907 13.8991 11.5511C13.7898 11.3313 13.6532 11.1527 13.5439 11.0291C13.5507 11.2008 13.5576 11.4206 13.5234 11.6335C13.4414 12.1144 13.175 12.5608 13.1613 12.5814L13.0111 12.8356L12.9974 12.5402C12.9974 12.5334 12.9769 12.08 12.813 11.6473C12.7447 11.4687 12.6217 11.2695 12.526 11.1321C12.4578 11.4069 12.2938 11.9083 11.9591 12.2861C11.9454 12.2998 11.9386 12.3136 11.9249 12.3342C11.597 12.7188 11.515 12.8425 11.194 12.9867H14.227V12.9936Z" fill="white" style="fill:white;fill-opacity:1;"/>
<path d="M10.4627 13.8673C10.4627 13.8673 10.6744 13.8948 10.8656 13.8536V13.098C10.3876 13.1873 10.0256 12.8507 10.0256 12.8507C10.0256 12.8507 9.86171 13.1667 10.0803 13.5582C10.2032 13.7986 10.4627 13.8673 10.4627 13.8673Z" fill="white" style="fill:white;fill-opacity:1;"/>
<path d="M16.8571 21.1556L16.577 21.4372C16.6863 21.4097 16.8093 21.3891 16.9459 21.3891C17.0211 21.3891 17.0962 21.396 17.1713 21.4028C17.5539 21.4509 17.8613 21.6432 18.0731 21.9729C18.1004 21.8905 18.1277 21.8012 18.1413 21.7257C18.1619 21.6226 18.1004 21.4853 18.0799 21.4372L17.547 20.7228C17.5061 20.7778 17.4651 20.8258 17.4173 20.8671C17.2396 21.0319 17.0347 21.1143 16.8571 21.1556Z" fill="white" style="fill:white;fill-opacity:1;"/>
<path d="M17.7794 19.6097V19.9944C17.7794 20.0081 17.7794 20.2073 17.6974 20.434C17.7657 20.4683 17.8887 20.5233 17.957 20.5508C18.1346 20.6126 18.4215 20.6538 18.7562 20.5439C18.8724 20.5096 18.9475 20.4546 19.0021 20.4134C18.804 20.3859 18.4898 20.3172 18.2302 20.1112C18.0048 19.9326 17.8682 19.7609 17.7794 19.6097Z" fill="white" style="fill:white;fill-opacity:1;"/>
<path d="M9.29456 21.313C9.29456 21.5603 9.31508 21.835 9.31508 21.835C9.31508 21.835 9.67712 21.7938 9.90256 21.7526C10.1553 21.7045 10.2851 21.574 10.2851 21.574L10.975 20.6536C10.9135 20.6811 10.8453 20.7154 10.7974 20.7291C10.6813 20.7635 10.5379 20.8047 10.3534 20.8047C10.2031 20.8047 10.0392 20.7772 9.86838 20.7223L9.56098 20.9283C9.55415 20.9215 9.29456 21.0588 9.29456 21.313Z" fill="white" style="fill:white;fill-opacity:1;"/>
<path d="M19.391 21.313C19.391 21.0588 19.1314 20.9215 19.1314 20.9215L18.824 20.7154C18.6464 20.7772 18.4824 20.8047 18.3322 20.8047C18.1477 20.8047 18.0043 20.7635 17.9018 20.7291C17.854 20.7154 17.7857 20.6811 17.7242 20.6536L18.4073 21.574C18.4073 21.574 18.5371 21.7114 18.7898 21.7526C19.0153 21.7938 19.3705 21.835 19.3705 21.835C19.3705 21.835 19.391 21.5603 19.391 21.313Z" fill="white" style="fill:white;fill-opacity:1;"/>
<path d="M15.0258 23.6008C15.4152 24.1297 15.9002 24.2258 16.194 24.2258C15.9275 23.9854 15.4698 23.4634 15.586 22.749C15.7021 22.0553 16.0437 21.7118 16.0642 21.6981L16.556 21.2036C16.5082 21.2036 16.474 21.2036 16.4672 21.2036H15.5723C15.5723 21.2036 15.5381 21.2036 15.4835 21.2036C15.4835 21.4439 15.4835 22.0278 15.4152 22.6254C15.381 22.9551 15.2171 23.3054 15.0258 23.6008Z" fill="white" style="fill:white;fill-opacity:1;"/>
<path d="M18.3256 21.7396C18.3256 21.7534 18.3256 21.7602 18.3256 21.774C18.2914 21.9182 18.2163 22.1449 18.1958 22.2067C18.2095 22.241 18.2231 22.2685 18.2368 22.3097C18.346 22.6188 18.3187 22.8867 18.3051 22.9691C18.3051 23.1203 18.3256 23.3881 18.51 23.5255C18.7353 23.6972 19.0017 23.7247 19.1314 23.7247C19.1861 23.7247 19.2271 23.7178 19.2271 23.7178C19.2271 23.7178 19.0836 23.5186 19.1861 23.0172C19.1929 22.9966 19.2066 22.9691 19.2134 22.9485C19.1451 22.66 19.1724 22.3303 19.2953 22.0762L19.3227 22.0144C19.2407 22.0075 18.947 21.9732 18.749 21.9388C18.5373 21.8907 18.3939 21.7946 18.3256 21.7396Z" fill="white" style="fill:white;fill-opacity:1;"/>
<path d="M9.92317 20.5441C10.2578 20.654 10.5447 20.6128 10.729 20.5509C10.7837 20.5303 10.8861 20.4822 10.9544 20.4548C10.8725 20.2212 10.8656 20.0152 10.8656 20.0014V19.6718C10.7769 19.8091 10.6471 19.9602 10.449 20.1182C10.1895 20.3174 9.87536 20.393 9.67731 20.4204C9.73194 20.4616 9.80707 20.5097 9.92317 20.5441Z" fill="white" style="fill:white;fill-opacity:1;"/>
<path d="M14.7736 21.4576C14.473 21.7393 14.4252 22.3849 14.4252 22.3918C14.4252 22.4055 14.4116 22.4124 14.4116 22.4261C14.4047 22.433 14.4047 22.4468 14.3979 22.4468C14.3842 22.4605 14.3569 22.4742 14.3364 22.4742H14.3296C14.3159 22.4742 14.3091 22.4674 14.2954 22.4605C14.2886 22.4536 14.2749 22.4536 14.2681 22.4468C14.2613 22.4399 14.2613 22.4261 14.2545 22.4124C14.2476 22.3987 14.2408 22.3918 14.2408 22.3849C14.2408 22.3781 14.2408 21.7942 13.8924 21.4576C13.7353 21.3065 13.5303 21.2447 13.3664 21.2172C13.3596 21.4714 13.3527 22.0415 13.4347 22.6116C13.5713 23.587 14.3296 24.1502 14.3364 24.1502C14.3432 24.1502 15.1425 23.4084 15.2381 22.6116C15.3064 22.0346 15.3064 21.4714 15.3064 21.2241C15.1425 21.2516 14.9307 21.3134 14.7736 21.4576Z" fill="white" style="fill:white;fill-opacity:1;"/>
<path d="M16.0375 22.0492C16.0375 22.056 16.0306 22.0629 16.0306 22.0629C16.0306 22.0629 16.2834 21.8156 16.7616 21.8156C16.7957 21.8156 16.8299 21.8156 16.8641 21.8225C17.1578 21.8431 17.4037 21.9667 17.554 22.2346C17.7658 22.6124 17.6087 23.0451 17.3081 23.2031C17.1646 23.2787 16.9939 23.2993 16.8641 23.2993C16.7274 23.2993 16.6318 23.2787 16.6318 23.2787C16.6318 23.2787 16.7957 23.6771 17.3832 23.6771C17.4037 23.6771 17.4174 23.6771 17.4379 23.6771C18.0732 23.6496 18.1278 22.9627 18.1278 22.9627C18.1278 22.9627 18.1756 22.736 18.1005 22.4613C18.1005 22.4613 18.1005 22.4544 18.0937 22.4544C18.0937 22.4407 18.0868 22.4269 18.0868 22.4132C18.08 22.3995 18.08 22.3789 18.0732 22.3651C17.9434 22.0079 17.6906 21.6508 17.1646 21.5889C17.0895 21.5821 17.0212 21.5752 16.9597 21.5752C16.5635 21.5752 16.3176 21.7195 16.1809 21.8568C16.1399 21.8912 16.0921 21.953 16.0375 22.0492Z" fill="white" style="fill:white;fill-opacity:1;"/>
</svg>
