<svg width="30" height="30" viewBox="0 0 30 30" fill="none" xmlns="http://www.w3.org/2000/svg">
<path fill-rule="evenodd" clip-rule="evenodd" d="M20.6003 10.4999C20.1469 10.1024 19.4949 10.1115 19.1208 10.2269C19.3658 9.92612 19.9368 9.67932 20.1048 9.64942C20.2328 9.69742 20.6003 10.0749 20.6003 10.4999ZM22.0479 8.85392C21.7497 7.25892 18.0431 8.31592 16.1764 7.63842C16.1407 8.10342 16.7511 8.84842 17.335 9.12402C16.337 9.99032 15.441 11.7356 15.26 13.8678C15.0798 11.7356 14.1837 9.99032 13.1857 9.12412C13.7695 8.84852 14.3805 8.10352 14.3442 7.63862C12.4776 8.31612 8.77093 7.25922 8.47223 8.85422C8.40943 9.19192 8.57183 9.70622 8.74723 9.85422C8.77863 9.74722 8.94253 9.39722 9.45923 9.31882C12.0706 8.92422 14.2509 12.949 12.2828 14.5763C12.2528 14.6013 12.2698 14.6468 12.3103 14.6468H18.2109C18.2509 14.6468 18.2679 14.6012 18.2383 14.5764C16.2697 12.9492 18.45 8.92442 21.0615 9.31902C21.5785 9.39742 21.742 9.74732 21.7735 9.85432C21.9489 9.70632 22.1112 9.19162 22.0479 8.85392ZM22.6831 5.19342C22.6361 5.04272 24.1674 5.03892 24.1674 5.99742C24.1674 6.63962 23.2514 6.94382 23.2514 7.61042C23.2514 7.92082 23.5854 8.14842 23.6879 8.14842C23.4519 7.07842 24.4274 7.63842 24.6909 7.83842C24.1674 6.39942 25.3457 6.40842 25.2297 5.74862C25.149 5.28762 24.1247 5.42682 23.7541 5.19342C23.0963 4.77942 22.3181 3.16812 21.8053 4.77942C22.7613 5.66692 22.205 6.97342 20.9913 6.97342C20.9913 6.97342 20.9846 7.16492 20.9957 7.18012C22.4433 7.10932 22.9479 6.04532 22.6831 5.19342ZM5.79443 7.83842C6.05783 7.63842 7.03323 7.07842 6.79783 8.14842C6.89983 8.14842 7.23383 7.92082 7.23383 7.61042C7.23383 6.94382 6.31783 6.63962 6.31783 5.99742C6.31783 5.03892 7.84903 5.04272 7.80213 5.19342C7.53773 6.04542 8.04233 7.10942 9.48993 7.18012C9.50063 7.16492 9.49393 6.97332 9.49393 6.97332C8.28073 6.97332 7.72443 5.66692 8.67993 4.77932C8.16713 3.16812 7.38893 4.77932 6.73113 5.19332C6.36043 5.42682 5.33613 5.28752 5.25553 5.74862C5.14003 6.40862 6.31783 6.39942 5.79443 7.83842ZM9.90473 10.4999C10.3585 10.1024 11.0107 10.1115 11.3842 10.2269C11.1402 9.92612 10.5682 9.67932 10.4006 9.64942C10.2726 9.69742 9.90473 10.0749 9.90473 10.4999ZM15.9487 1.57792L15.2427 0.716919L14.5365 1.57792L15.2425 2.48392L15.9487 1.57792ZM19.9797 4.18122L19.4777 3.56942L18.9759 4.18122L19.4776 4.77922L19.9797 4.18122ZM24.0527 21.8674L23.4163 21.1938L22.7797 21.8673L23.4163 22.4583L24.0527 21.8674ZM11.5097 4.18122L11.0077 3.56942L10.506 4.18122L11.0078 4.77922L11.5097 4.18122ZM10.0714 7.18022H11.9444C13.5191 7.18022 14.2276 6.21362 14.4417 5.37542H16.044C16.2582 6.21362 16.9663 7.18012 18.5415 7.18012H20.4145C20.4145 7.18012 20.7421 6.73562 20.8243 6.51552C21.1201 5.72352 20.7421 5.35402 20.1906 5.35402L19.4776 6.00022L18.7648 5.35422C18.2133 5.35422 17.8353 5.72352 18.1311 6.51562C18.1689 6.61682 18.2593 6.76562 18.3449 6.89642C17.6803 6.80512 16.8319 6.35012 16.6459 5.37542C16.6459 5.37542 17.1369 4.59542 17.2603 4.27972C17.703 3.14442 17.1375 2.68042 16.3105 2.68042L15.2428 3.93542L14.1751 2.68042C13.3481 2.68042 12.7827 3.14442 13.2259 4.27972C13.3486 4.59542 13.8402 5.37552 13.8402 5.37552C13.6537 6.35012 12.8055 6.80512 12.1409 6.89652C12.2269 6.76552 12.3169 6.61682 12.3545 6.51552C12.6498 5.72352 12.2728 5.35412 11.7209 5.35412L11.0079 6.00032L10.2949 5.35432C9.74313 5.35432 9.36613 5.72362 9.66143 6.51572C9.74363 6.73572 10.0714 7.18022 10.0714 7.18022ZM29.4352 12.9858C29.0737 13.1688 26.9528 14.1623 24.236 13.7948C24.2642 13.6652 24.2881 13.5348 24.3076 13.4036C26.1158 13.1873 27.5856 12.8806 28.5223 12.3596C29.59 11.7653 30.0569 10.3466 29.518 9.29132C29.504 9.26472 29.4653 9.25992 29.446 9.28232C29.1506 9.62232 27.2937 11.6423 24.368 12.2703C24.3606 12.1187 24.3467 11.9675 24.3265 11.8171C25.7475 11.0113 27.1347 10.0828 27.7955 9.23382C28.7939 7.95022 28.7021 6.31282 27.7519 5.47802C27.747 5.47382 27.7413 5.47071 27.7352 5.4689C27.729 5.46709 27.7225 5.46662 27.7161 5.46752C27.7098 5.46842 27.7036 5.47067 27.6982 5.47412C27.6928 5.47757 27.6882 5.48214 27.6846 5.48752C27.384 5.98352 24.57 10.5315 21.4806 12.4951C21.4429 12.5192 21.4049 12.5428 21.3666 12.5659C21.278 12.6197 21.2683 12.7349 21.3436 12.8032C21.7 13.126 21.9213 13.5752 21.9213 14.074C21.9213 14.9413 21.2529 15.6625 20.3693 15.819C19.9203 15.906 19.2723 15.8807 18.6496 15.6748C18.6216 15.6658 18.5926 15.6843 18.5926 15.7124V18.4588C18.5926 18.503 18.6598 18.514 18.6756 18.4718C19.0542 17.469 20.1871 17.256 20.6826 17.256C20.8609 18.3276 21.1794 19.2152 21.5931 19.693C22.2669 20.4693 23.3671 20.4584 23.8441 19.9217C23.848 19.9173 23.8508 19.9121 23.8524 19.9065C23.854 19.9008 23.8542 19.8949 23.8532 19.8891C23.8522 19.8834 23.8499 19.8779 23.8464 19.8732C23.843 19.8684 23.8386 19.8645 23.8334 19.8617C23.5531 19.7007 21.9494 18.716 21.6284 17.1025C21.7544 17.0598 21.8776 17.0091 21.9972 16.9508C22.5149 17.8075 23.2684 18.5705 23.875 18.862C24.894 19.3507 25.8268 19.113 26.2405 18.3975C26.2555 18.3723 26.2371 18.3409 26.2067 18.3381C25.5764 18.2878 23.6421 17.7334 22.8185 16.3828C22.9138 16.2963 23.0048 16.2052 23.0911 16.1098C23.9531 16.766 25.1715 17.346 26.0439 17.4644C27.0647 17.6032 28.2213 17.2774 28.2493 16.0904C28.2498 16.0667 28.2285 16.0472 28.2033 16.0486C27.8403 16.0706 25.4378 16.1751 23.7258 15.1924C23.7853 15.0793 23.8408 14.9642 23.8921 14.8472C23.8921 14.8472 26.4789 15.4587 27.7046 15.2562C28.9226 15.0552 29.636 14.1472 29.4983 13.0175C29.4943 12.9895 29.4614 12.9725 29.4352 12.9858ZM6.59343 14.8468C6.64491 14.9638 6.70051 15.079 6.76013 15.1921C5.04863 16.1743 2.64713 16.0706 2.28253 16.0483C2.25693 16.0469 2.23553 16.0673 2.23613 16.0906C2.26463 17.2772 3.42083 17.6029 4.44163 17.4641C5.31363 17.3457 6.53263 16.7657 7.39433 16.1096C7.48083 16.2049 7.5718 16.296 7.66693 16.3826C6.84293 17.7331 4.90893 18.2876 4.27873 18.3379C4.24823 18.3409 4.23043 18.3722 4.24493 18.3974C4.65863 19.1129 5.59143 19.3506 6.61093 18.8619C7.21693 18.5704 7.97043 17.8074 8.48793 16.9507C8.60769 17.0088 8.73093 17.0595 8.85693 17.1024C8.53593 18.7159 6.93223 19.7004 6.65193 19.8617C6.64681 19.8645 6.64239 19.8685 6.63899 19.8732C6.63558 19.878 6.63329 19.8834 6.63226 19.8892C6.63123 19.8949 6.63151 19.9008 6.63306 19.9065C6.63461 19.9121 6.6374 19.9173 6.64123 19.9217C7.11823 20.4583 8.21883 20.4692 8.89263 19.6929C9.30633 19.2151 9.62443 18.3275 9.80263 17.2559C10.2986 17.2559 11.4311 17.4689 11.8096 18.4716C11.8259 18.5139 11.8931 18.5029 11.8931 18.4586V15.7123C11.8931 15.6843 11.8636 15.6657 11.8356 15.6747C11.2131 15.8807 10.5649 15.9057 10.1164 15.8187C9.23243 15.6624 8.56393 14.9412 8.56393 14.074C8.56393 13.5754 8.78593 13.1257 9.14153 12.803C9.21753 12.735 9.20723 12.6198 9.11933 12.566C9.0807 12.5429 9.04236 12.5194 9.00433 12.4953C5.91673 10.5328 3.10433 5.98792 2.80113 5.48872C2.79757 5.4832 2.79287 5.4785 2.78734 5.47495C2.78182 5.4714 2.7756 5.46907 2.7691 5.46812C2.7626 5.46718 2.75597 5.46763 2.74967 5.46946C2.74336 5.47129 2.73751 5.47444 2.73253 5.47872C1.78373 6.31402 1.69153 7.95072 2.69003 9.23402C3.35083 10.083 4.73803 11.0115 6.15853 11.8173C6.13851 11.9677 6.12483 12.1188 6.11753 12.2703C3.19423 11.6429 1.33873 9.62632 1.04053 9.28392C1.02053 9.26052 0.981026 9.26522 0.967526 9.29192C0.429526 10.3479 0.896526 11.7654 1.96313 12.3597C2.89993 12.8807 4.36983 13.1874 6.17793 13.4037C6.19746 13.5349 6.22131 13.6653 6.24943 13.7949C3.53543 14.1619 1.41563 13.1707 1.05123 12.9863C1.02423 12.9725 0.991426 12.9896 0.988026 13.0181C0.850726 14.1477 1.56363 15.0548 2.78163 15.2559C4.00693 15.4584 6.59343 14.8468 6.59343 14.8468ZM23.4164 23.3258L22.4738 22.5842C22.0976 22.8082 21.8212 23.1638 21.7138 23.5807C21.1468 23.66 19.6012 23.3167 19.7515 23.089C21.4455 20.7063 20.1498 19.2876 18.5925 19.3666V20.9666C18.5925 21.4806 18.144 21.8971 17.5915 21.8971H16.5161C15.7447 21.8971 15.2425 22.6725 15.2425 22.6725C15.2425 22.6725 14.7403 21.897 13.9689 21.897H12.8936C12.3406 21.897 11.8931 21.4805 11.8931 20.9666V19.3666C10.3358 19.2876 9.03913 20.7062 10.7336 23.0889C10.8826 23.3143 9.29383 23.6751 8.54863 23.5839C8.35223 23.3803 8.06903 23.2519 7.75193 23.2519C7.61709 23.252 7.48334 23.276 7.35693 23.3229C7.35693 23.3229 4.42853 20.5502 4.37493 20.5231L4.39893 20.4671C4.56593 20.1551 4.31063 19.8151 4.14923 19.8391C4.33673 19.6141 4.34543 18.6296 3.30523 18.4018C3.33573 18.5996 3.35123 19.0032 3.35123 19.0032C3.35123 19.0032 2.54843 18.5692 2.14523 18.9438C1.79103 19.3631 2.28253 20.1238 2.28253 20.1238C2.28253 20.1238 1.87173 20.1338 1.66923 20.1166C1.96693 21.1236 2.96553 21.0523 3.18153 20.8536C3.16753 21.0136 3.52853 21.2419 3.83453 21.0589L3.96893 20.9939C3.99263 21.0256 6.84473 23.7203 6.84473 23.7203C6.71373 23.9147 6.65143 24.1533 6.69443 24.4077C6.76213 24.8052 7.09313 25.1347 7.51613 25.2203C7.81483 25.2803 8.09563 25.2223 8.32083 25.0905L9.07583 25.7912C9.14283 25.8522 9.23383 25.8902 9.33523 25.883C9.51993 25.8706 9.65823 25.721 9.64423 25.5493C9.63823 25.4718 9.59863 25.4053 9.54403 25.3548C9.53203 25.3416 8.77503 24.6388 8.77503 24.6388C9.39953 24.2011 10.563 23.8926 11.5286 23.8926C11.6982 23.8926 11.778 23.749 11.7196 23.6083C11.2821 22.5563 12.2226 21.7941 13.1956 22.4145C13.62 22.685 14.0511 23.2179 14.3759 24.107C12.7796 24.4935 10.7752 25.5584 10.3697 26.7208C10.2135 27.1696 10.7293 27.7814 11.3557 27.9045C11.3612 27.9057 11.3669 27.9058 11.3724 27.9048C11.3779 27.9038 11.3832 27.9017 11.3879 27.8987C11.3926 27.8956 11.3967 27.8917 11.3999 27.8871C11.403 27.8824 11.4053 27.8772 11.4064 27.8717C11.7336 26.1364 13.5998 24.8433 14.5708 24.6237C14.6195 24.7544 14.6036 24.7121 14.6524 24.8423C13.5948 25.3425 12.5692 26.3973 12.2764 27.6515C12.1419 28.2258 12.7824 28.7435 13.3111 28.8852C13.3377 28.8922 13.3638 28.8738 13.3653 28.8482C13.4658 27.2622 14.1661 25.9152 14.7935 25.3025C14.8107 25.4224 14.8236 25.5428 14.8322 25.6635C14.8322 25.6635 14.1898 27.4533 14.1898 28.7592C14.1898 29.3668 15.0928 29.7909 15.2261 29.8502C15.3928 29.7909 16.2951 29.3668 16.2951 28.7592C16.2951 27.4532 15.6529 25.6634 15.6529 25.6634C15.6617 25.5427 15.6748 25.4222 15.6921 25.3024C16.3191 25.9154 17.0198 27.2617 17.1199 28.8477C17.1205 28.854 17.1225 28.86 17.1256 28.8654C17.1288 28.8708 17.1331 28.8754 17.1382 28.879C17.1434 28.8826 17.1492 28.885 17.1554 28.8861C17.1616 28.8871 17.1679 28.8868 17.1739 28.8852C17.7033 28.7435 18.3432 28.2258 18.2093 27.6515C17.9159 26.3975 16.8908 25.3425 15.8333 24.8423C15.8816 24.7121 15.8656 24.7543 15.9145 24.6236C16.886 24.8432 18.7515 26.1363 19.0788 27.8716C19.0812 27.8827 19.0879 27.8923 19.0974 27.8985C19.1069 27.9046 19.1185 27.9067 19.1295 27.9043C19.7555 27.7813 20.2721 27.1693 20.115 26.7206C19.7105 25.5582 17.7056 24.4933 16.109 24.1068C16.4344 23.2178 16.8656 22.6848 17.29 22.4143C18.2624 21.7939 19.203 22.556 18.7655 23.6081C18.7071 23.7488 18.7863 23.8924 18.9565 23.8924C20.0488 23.8924 21.3945 24.2869 21.927 24.8161C22.2673 25.3267 22.896 25.6533 23.6056 25.5834C24.4118 25.5044 25.0692 24.8988 25.16 24.15C25.2393 23.494 24.9 22.905 24.3592 22.584L23.4164 23.3258ZM16.4694 18.5466C16.8052 18.422 17.3316 18.5228 17.3137 19.0076C17.3094 19.1176 17.4635 19.1176 17.4747 19.0053C17.5752 18.2793 17.0847 18.0703 16.5713 18.1553C16.5075 17.9057 16.4553 17.6875 16.3959 17.4713C16.3485 17.2963 16.3311 16.9677 16.5336 16.9677C16.6428 16.9677 16.5989 17.2733 16.5886 17.405C16.5796 17.5205 16.6211 17.5904 16.7149 17.5937C16.7733 17.5961 16.8463 17.5215 16.8899 17.472C17.1837 17.1397 17.2519 16.6253 16.9077 16.3772C16.6197 16.1689 15.8985 16.3239 15.7003 16.6206C15.6703 16.5088 15.5273 16.3243 15.4587 16.244C15.392 16.1655 15.3747 16.1118 15.4669 16.043C15.5104 16.0096 15.6419 15.8788 15.6419 15.7438C15.6419 15.664 15.5799 15.5166 15.3833 15.5166C15.2281 15.5166 15.0556 15.624 15.0556 15.8636C15.0556 15.9169 15.0686 15.9739 15.1029 16.0353C15.0049 16.0191 14.7385 16.0257 14.6017 16.0595L16.493 21.2495C17.0344 20.9823 17.4313 20.5592 17.4313 20.1051C17.4313 19.7181 16.8613 19.8465 16.5845 20.1484C16.4955 19.6577 16.4163 19.2046 16.3297 18.753C16.3061 18.6284 16.3694 18.5841 16.4694 18.5466ZM13.795 15.0209L14.1924 16.1249C13.8522 16.2059 13.305 16.4539 13.305 16.7824C13.305 17.2198 14.079 17.5046 14.5264 17.4704C14.5042 17.5702 14.5298 17.6591 14.5994 17.7404C14.437 17.7404 14.1306 17.816 14.03 17.9244C13.7927 17.7034 13.4215 17.6229 13.245 17.7574C13.0677 17.893 13.0624 18.1226 13.2475 18.3822C13.3765 18.5619 13.4249 18.7392 13.2799 18.9474C13.8192 18.9474 13.6206 18.2462 13.8319 18.2462C13.8042 18.3822 13.8211 18.5395 13.8825 18.714C13.9231 18.83 13.9231 18.9124 13.8535 19.024C13.6795 19.3022 13.4089 19.941 13.4455 20.5188C13.2687 20.5178 13.1788 20.4746 13.2411 20.233C13.2643 20.1432 13.2088 20.079 13.1353 20.1898C13.0541 20.312 13.0149 20.5208 13.0149 20.61C13.0149 21.1244 13.6279 21.228 13.8617 21.1192C14.5384 21.7742 15.8677 21.5994 16.3127 21.3797L13.9724 14.9584C13.9246 14.8371 13.753 14.8949 13.795 15.0209ZM13.714 20.3104C13.6656 20.0461 14.0334 19.5736 14.5013 19.1176C14.4017 19.4148 14.4636 19.9268 14.6589 20.1032C14.3195 20.1032 13.9165 20.1669 13.714 20.3104Z" fill="#DAAB64" style="fill:#DAAB64;fill:color(display-p3 0.8549 0.6706 0.3922);fill-opacity:1;"/>
</svg>
