<svg width="92" height="47" viewBox="0 0 92 47" fill="none" xmlns="http://www.w3.org/2000/svg">
<path d="M21.7404 36.3356H19.718V42.3787H21.7404V36.3356Z" fill="white" style="fill:white;fill-opacity:1;"/>
<path d="M25.2221 36.3356H23.1997V42.3787H25.2221V36.3356Z" fill="white" style="fill:white;fill-opacity:1;"/>
<path d="M28.7084 36.3356H26.686V42.3787H28.7084V36.3356Z" fill="white" style="fill:white;fill-opacity:1;"/>
<path d="M32.2604 36.3356H30.238V42.3787H32.2604V36.3356Z" fill="white" style="fill:white;fill-opacity:1;"/>
<path d="M35.7411 36.3356H33.5813V42.3787H35.7411V36.3356Z" fill="white" style="fill:white;fill-opacity:1;"/>
<path d="M39.2285 36.3356H37.0686V42.3787H39.2285V36.3356Z" fill="white" style="fill:white;fill-opacity:1;"/>
<path d="M42.6422 36.3356H40.6199V42.3787H42.6422V36.3356Z" fill="white" style="fill:white;fill-opacity:1;"/>
<path d="M46.1283 36.3356H44.106V42.3787H46.1283V36.3356Z" fill="white" style="fill:white;fill-opacity:1;"/>
<path d="M49.61 36.3356H47.5876V42.3787H49.61V36.3356Z" fill="white" style="fill:white;fill-opacity:1;"/>
<path d="M53.1615 36.3356H51.1392V42.3787H53.1615V36.3356Z" fill="white" style="fill:white;fill-opacity:1;"/>
<path d="M56.6432 36.3356H54.4834V42.3787H56.6432V36.3356Z" fill="white" style="fill:white;fill-opacity:1;"/>
<path d="M60.1301 36.3356H57.9702V42.3787H60.1301V36.3356Z" fill="white" style="fill:white;fill-opacity:1;"/>
<path d="M63.5443 36.3356H61.522V42.3787H63.5443V36.3356Z" fill="white" style="fill:white;fill-opacity:1;"/>
<path d="M67.0299 36.3356H65.0076V42.3787H67.0299V36.3356Z" fill="white" style="fill:white;fill-opacity:1;"/>
<path d="M70.5116 36.3356H68.4893V42.3787H70.5116V36.3356Z" fill="white" style="fill:white;fill-opacity:1;"/>
<path d="M74.0661 36.3356H72.0437V42.3787H74.0661V36.3356Z" fill="white" style="fill:white;fill-opacity:1;"/>
<path d="M21.7404 43.0704H19.718V45.4418H21.7404V43.0704Z" fill="white" style="fill:white;fill-opacity:1;"/>
<path d="M25.2221 43.0704H23.1997V45.4418H25.2221V43.0704Z" fill="white" style="fill:white;fill-opacity:1;"/>
<path d="M28.7084 43.0704H26.686V45.4418H28.7084V43.0704Z" fill="white" style="fill:white;fill-opacity:1;"/>
<path d="M32.2604 43.0704H30.238V45.4418H32.2604V43.0704Z" fill="white" style="fill:white;fill-opacity:1;"/>
<path d="M35.7411 43.0704H33.5813V45.4418H35.7411V43.0704Z" fill="white" style="fill:white;fill-opacity:1;"/>
<path d="M39.2285 43.0704H37.0686V45.4418H39.2285V43.0704Z" fill="white" style="fill:white;fill-opacity:1;"/>
<path d="M42.6422 43.0704H40.6199V45.4418H42.6422V43.0704Z" fill="white" style="fill:white;fill-opacity:1;"/>
<path d="M46.1283 43.0704H44.106V45.4418H46.1283V43.0704Z" fill="white" style="fill:white;fill-opacity:1;"/>
<path d="M49.61 43.0704H47.5876V45.4418H49.61V43.0704Z" fill="white" style="fill:white;fill-opacity:1;"/>
<path d="M53.1615 43.0704H51.1392V45.4418H53.1615V43.0704Z" fill="white" style="fill:white;fill-opacity:1;"/>
<path d="M56.6432 43.0704H54.4834V45.4418H56.6432V43.0704Z" fill="white" style="fill:white;fill-opacity:1;"/>
<path d="M60.1301 43.0704H57.9702V45.4418H60.1301V43.0704Z" fill="white" style="fill:white;fill-opacity:1;"/>
<path d="M63.5443 43.0704H61.522V45.4418H63.5443V43.0704Z" fill="white" style="fill:white;fill-opacity:1;"/>
<path d="M67.0299 43.0704H65.0076V45.4418H67.0299V43.0704Z" fill="white" style="fill:white;fill-opacity:1;"/>
<path d="M70.5116 43.0704H68.4893V45.4418H70.5116V43.0704Z" fill="white" style="fill:white;fill-opacity:1;"/>
<path d="M74.0661 43.0704H72.0437V45.4418H74.0661V43.0704Z" fill="white" style="fill:white;fill-opacity:1;"/>
<path d="M26.4723 31.5933H24.6628V32.4357H26.4723V31.5933Z" fill="white" style="fill:white;fill-opacity:1;"/>
<path d="M29.3329 31.5933H27.3105V32.4357H29.3329V31.5933Z" fill="white" style="fill:white;fill-opacity:1;"/>
<path d="M32.1898 31.5933H30.1675V32.4357H32.1898V31.5933Z" fill="white" style="fill:white;fill-opacity:1;"/>
<path d="M34.8371 31.5933H33.0276V32.4357H34.8371V31.5933Z" fill="white" style="fill:white;fill-opacity:1;"/>
<path d="M48.913 31.5933H46.8906V32.4357H48.913V31.5933Z" fill="white" style="fill:white;fill-opacity:1;"/>
<path d="M46.058 31.5933H44.0356V32.4357H46.058V31.5933Z" fill="white" style="fill:white;fill-opacity:1;"/>
<path d="M43.1979 31.5933H41.3884V32.4357H43.1979V31.5933Z" fill="white" style="fill:white;fill-opacity:1;"/>
<path d="M37.6972 31.5933H35.6748V32.4357H37.6972V31.5933Z" fill="white" style="fill:white;fill-opacity:1;"/>
<path d="M40.5539 31.5933H38.5315V32.4357H40.5539V31.5933Z" fill="white" style="fill:white;fill-opacity:1;"/>
<path d="M65.6337 31.5933H63.6113V32.4357H65.6337V31.5933Z" fill="white" style="fill:white;fill-opacity:1;"/>
<path d="M62.7775 31.5933H60.7551V32.4357H62.7775V31.5933Z" fill="white" style="fill:white;fill-opacity:1;"/>
<path d="M59.9167 31.5933H58.1072V32.4357H59.9167V31.5933Z" fill="white" style="fill:white;fill-opacity:1;"/>
<path d="M57.2746 31.5933H55.2522V32.4357H57.2746V31.5933Z" fill="white" style="fill:white;fill-opacity:1;"/>
<path d="M54.4179 31.5933H52.3955V32.4357H54.4179V31.5933Z" fill="white" style="fill:white;fill-opacity:1;"/>
<path d="M51.6285 31.5933H49.748V32.4357H51.6285V31.5933Z" fill="white" style="fill:white;fill-opacity:1;"/>
<path d="M26.4723 28.6854H24.6628V30.3703H26.4723V28.6854Z" fill="white" style="fill:white;fill-opacity:1;"/>
<path d="M68.2809 31.5933H66.4714V32.4357H68.2809V31.5933Z" fill="white" style="fill:white;fill-opacity:1;"/>
<path d="M29.3329 28.6854H27.3105V30.3703H29.3329V28.6854Z" fill="white" style="fill:white;fill-opacity:1;"/>
<path d="M32.1898 28.6854H30.1675V30.3703H32.1898V28.6854Z" fill="white" style="fill:white;fill-opacity:1;"/>
<path d="M34.908 28.6854H33.0276V30.3703H34.908V28.6854Z" fill="white" style="fill:white;fill-opacity:1;"/>
<path d="M37.6972 28.6854H35.6748V30.3703H37.6972V28.6854Z" fill="white" style="fill:white;fill-opacity:1;"/>
<path d="M40.5539 28.6854H38.5315V30.3703H40.5539V28.6854Z" fill="white" style="fill:white;fill-opacity:1;"/>
<path d="M43.1979 28.6854H41.3884V30.3703H43.1979V28.6854Z" fill="white" style="fill:white;fill-opacity:1;"/>
<path d="M46.058 28.6854H44.0356V30.3703H46.058V28.6854Z" fill="white" style="fill:white;fill-opacity:1;"/>
<path d="M59.9167 28.6854H58.1072V30.3703H59.9167V28.6854Z" fill="white" style="fill:white;fill-opacity:1;"/>
<path d="M57.2746 28.6854H55.2522V30.3703H57.2746V28.6854Z" fill="white" style="fill:white;fill-opacity:1;"/>
<path d="M54.4179 28.6854H52.3955V30.3703H54.4179V28.6854Z" fill="white" style="fill:white;fill-opacity:1;"/>
<path d="M51.6285 28.6854H49.748V30.3703H51.6285V28.6854Z" fill="white" style="fill:white;fill-opacity:1;"/>
<path d="M48.913 28.6854H46.8906V30.3703H48.913V28.6854Z" fill="white" style="fill:white;fill-opacity:1;"/>
<path d="M68.2809 28.6854H66.4714V30.3703H68.2809V28.6854Z" fill="white" style="fill:white;fill-opacity:1;"/>
<path d="M65.6337 28.6854H63.6113V30.3703H65.6337V28.6854Z" fill="white" style="fill:white;fill-opacity:1;"/>
<path d="M62.7775 28.6854H60.7551V30.3703H62.7775V28.6854Z" fill="white" style="fill:white;fill-opacity:1;"/>
<path d="M26.4723 25.5516H24.6628V27.2365H26.4723V25.5516Z" fill="white" style="fill:white;fill-opacity:1;"/>
<path d="M29.3329 25.5516H27.3105V27.2365H29.3329V25.5516Z" fill="white" style="fill:white;fill-opacity:1;"/>
<path d="M32.1898 25.5516H30.1675V27.2365H32.1898V25.5516Z" fill="white" style="fill:white;fill-opacity:1;"/>
<path d="M34.908 25.5516H33.0276V27.2365H34.908V25.5516Z" fill="white" style="fill:white;fill-opacity:1;"/>
<path d="M37.6972 25.5516H35.6748V27.2365H37.6972V25.5516Z" fill="white" style="fill:white;fill-opacity:1;"/>
<path d="M40.5539 25.5516H38.5315V27.2365H40.5539V25.5516Z" fill="white" style="fill:white;fill-opacity:1;"/>
<path d="M43.1979 25.5516H41.3884V27.2365H43.1979V25.5516Z" fill="white" style="fill:white;fill-opacity:1;"/>
<path d="M46.058 25.5516H44.0356V27.2365H46.058V25.5516Z" fill="white" style="fill:white;fill-opacity:1;"/>
<path d="M59.9167 25.5516H58.1072V27.2365H59.9167V25.5516Z" fill="white" style="fill:white;fill-opacity:1;"/>
<path d="M57.2746 25.5516H55.2522V27.2365H57.2746V25.5516Z" fill="white" style="fill:white;fill-opacity:1;"/>
<path d="M54.4179 25.5516H52.3955V27.2365H54.4179V25.5516Z" fill="white" style="fill:white;fill-opacity:1;"/>
<path d="M51.6285 25.5516H49.748V27.2365H51.6285V25.5516Z" fill="white" style="fill:white;fill-opacity:1;"/>
<path d="M48.913 25.5516H46.8906V27.2365H48.913V25.5516Z" fill="white" style="fill:white;fill-opacity:1;"/>
<path d="M68.2809 25.5516H66.4714V27.2365H68.2809V25.5516Z" fill="white" style="fill:white;fill-opacity:1;"/>
<path d="M65.6337 25.5516H63.6113V27.2365H65.6337V25.5516Z" fill="white" style="fill:white;fill-opacity:1;"/>
<path d="M62.7775 25.5516H60.7551V27.2365H62.7775V25.5516Z" fill="white" style="fill:white;fill-opacity:1;"/>
<path d="M26.4723 22.5663H24.6628V24.2512H26.4723V22.5663Z" fill="white" style="fill:white;fill-opacity:1;"/>
<path d="M29.3329 22.5663H27.3105V24.2512H29.3329V22.5663Z" fill="white" style="fill:white;fill-opacity:1;"/>
<path d="M32.1898 22.5663H30.1675V24.2512H32.1898V22.5663Z" fill="white" style="fill:white;fill-opacity:1;"/>
<path d="M34.908 22.5663H33.0276V24.2512H34.908V22.5663Z" fill="white" style="fill:white;fill-opacity:1;"/>
<path d="M37.6972 22.5663H35.6748V24.2512H37.6972V22.5663Z" fill="white" style="fill:white;fill-opacity:1;"/>
<path d="M40.5539 22.5663H38.5315V24.2512H40.5539V22.5663Z" fill="white" style="fill:white;fill-opacity:1;"/>
<path d="M43.1979 22.5663H41.3884V24.2512H43.1979V22.5663Z" fill="white" style="fill:white;fill-opacity:1;"/>
<path d="M46.058 22.5663H44.0356V24.2512H46.058V22.5663Z" fill="white" style="fill:white;fill-opacity:1;"/>
<path d="M59.9167 22.5663H58.1072V24.2512H59.9167V22.5663Z" fill="white" style="fill:white;fill-opacity:1;"/>
<path d="M57.2746 22.5663H55.2522V24.2512H57.2746V22.5663Z" fill="white" style="fill:white;fill-opacity:1;"/>
<path d="M54.4179 22.5663H52.3955V24.2512H54.4179V22.5663Z" fill="white" style="fill:white;fill-opacity:1;"/>
<path d="M51.6285 22.5663H49.748V24.2512H51.6285V22.5663Z" fill="white" style="fill:white;fill-opacity:1;"/>
<path d="M48.913 22.5663H46.8906V24.2512H48.913V22.5663Z" fill="white" style="fill:white;fill-opacity:1;"/>
<path d="M68.2809 22.5663H66.4714V24.2512H68.2809V22.5663Z" fill="white" style="fill:white;fill-opacity:1;"/>
<path d="M65.6337 22.5663H63.6113V24.2512H65.6337V22.5663Z" fill="white" style="fill:white;fill-opacity:1;"/>
<path d="M62.7775 22.5663H60.7551V24.2512H62.7775V22.5663Z" fill="white" style="fill:white;fill-opacity:1;"/>
<path d="M26.4723 19.507H24.6628V21.1918H26.4723V19.507Z" fill="white" style="fill:white;fill-opacity:1;"/>
<path d="M29.3329 19.507H27.3105V21.1918H29.3329V19.507Z" fill="white" style="fill:white;fill-opacity:1;"/>
<path d="M32.1898 19.507H30.1675V21.1918H32.1898V19.507Z" fill="white" style="fill:white;fill-opacity:1;"/>
<path d="M34.908 19.507H33.0276V21.1918H34.908V19.507Z" fill="white" style="fill:white;fill-opacity:1;"/>
<path d="M37.6972 19.507H35.6748V21.1918H37.6972V19.507Z" fill="white" style="fill:white;fill-opacity:1;"/>
<path d="M40.5539 19.507H38.5315V21.1918H40.5539V19.507Z" fill="white" style="fill:white;fill-opacity:1;"/>
<path d="M43.1979 19.507H41.3884V21.1918H43.1979V19.507Z" fill="white" style="fill:white;fill-opacity:1;"/>
<path d="M46.058 19.507H44.0356V21.1918H46.058V19.507Z" fill="white" style="fill:white;fill-opacity:1;"/>
<path d="M59.9167 19.507H58.1072V21.1918H59.9167V19.507Z" fill="white" style="fill:white;fill-opacity:1;"/>
<path d="M57.2746 19.507H55.2522V21.1918H57.2746V19.507Z" fill="white" style="fill:white;fill-opacity:1;"/>
<path d="M54.4179 19.507H52.3955V21.1918H54.4179V19.507Z" fill="white" style="fill:white;fill-opacity:1;"/>
<path d="M51.6285 19.507H49.748V21.1918H51.6285V19.507Z" fill="white" style="fill:white;fill-opacity:1;"/>
<path d="M48.913 19.507H46.8906V21.1918H48.913V19.507Z" fill="white" style="fill:white;fill-opacity:1;"/>
<path d="M68.2809 19.507H66.4714V21.1918H68.2809V19.507Z" fill="white" style="fill:white;fill-opacity:1;"/>
<path d="M65.6337 19.507H63.6113V21.1918H65.6337V19.507Z" fill="white" style="fill:white;fill-opacity:1;"/>
<path d="M62.7775 19.507H60.7551V21.1918H62.7775V19.507Z" fill="white" style="fill:white;fill-opacity:1;"/>
<path d="M26.4723 16.3705H24.6628V18.0554H26.4723V16.3705Z" fill="white" style="fill:white;fill-opacity:1;"/>
<path d="M29.3329 16.3705H27.3105V18.0554H29.3329V16.3705Z" fill="white" style="fill:white;fill-opacity:1;"/>
<path d="M32.1898 16.3705H30.1675V18.0554H32.1898V16.3705Z" fill="white" style="fill:white;fill-opacity:1;"/>
<path d="M34.908 16.3705H33.0276V18.0554H34.908V16.3705Z" fill="white" style="fill:white;fill-opacity:1;"/>
<path d="M37.6972 16.3705H35.6748V18.0554H37.6972V16.3705Z" fill="white" style="fill:white;fill-opacity:1;"/>
<path d="M40.5539 16.3705H38.5315V18.0554H40.5539V16.3705Z" fill="white" style="fill:white;fill-opacity:1;"/>
<path d="M43.1979 16.3705H41.3884V18.0554H43.1979V16.3705Z" fill="white" style="fill:white;fill-opacity:1;"/>
<path d="M46.058 16.3705H44.0356V18.0554H46.058V16.3705Z" fill="white" style="fill:white;fill-opacity:1;"/>
<path d="M59.9167 16.3705H58.1072V18.0554H59.9167V16.3705Z" fill="white" style="fill:white;fill-opacity:1;"/>
<path d="M57.2746 16.3705H55.2522V18.0554H57.2746V16.3705Z" fill="white" style="fill:white;fill-opacity:1;"/>
<path d="M54.4179 16.3705H52.3955V18.0554H54.4179V16.3705Z" fill="white" style="fill:white;fill-opacity:1;"/>
<path d="M51.6285 16.3705H49.748V18.0554H51.6285V16.3705Z" fill="white" style="fill:white;fill-opacity:1;"/>
<path d="M48.913 16.3705H46.8906V18.0554H48.913V16.3705Z" fill="white" style="fill:white;fill-opacity:1;"/>
<path d="M68.2809 16.3705H66.4714V18.0554H68.2809V16.3705Z" fill="white" style="fill:white;fill-opacity:1;"/>
<path d="M65.6337 16.3705H63.6113V18.0554H65.6337V16.3705Z" fill="white" style="fill:white;fill-opacity:1;"/>
<path d="M62.7775 16.3705H60.7551V18.0554H62.7775V16.3705Z" fill="white" style="fill:white;fill-opacity:1;"/>
<path d="M18.3255 34.831H75.3199V45.2446H18.3255V34.831ZM5.78326 32.5852H15.4693V45.2446H14.1477V34.831H13.4514V45.2446H11.9169V33.9299H12.5422V33.2575H8.36001V34.0061H9.19823V45.3161H7.73467V34.9025H7.03837V45.3161H5.78326V32.5852V32.5852ZM78.176 32.5852H87.8621V45.2446H86.5405V34.831H85.7023V45.2446H84.3806V33.9299H85.2189V33.1813H81.0366V33.9299H81.7329V45.2398H80.4113V34.8263H79.5065V45.2398H78.1849V32.5852H78.176ZM69.7451 14.7573V12.4352H70.4414V15.3581H69.816V34.1587H68.2815V32.5852H66.4676V34.1587H65.6294V32.5852H63.607V34.1587H62.7688V32.5852H60.7509V34.1587H59.9126V32.5852H58.0987V34.1587H57.2605V32.5852H55.2381V34.1587H54.3999V32.5852H52.382V34.1587H51.5438V32.5852H49.7298V34.1587H48.8916V32.5852H46.8693V34.1587H46.031V32.5852H44.0131V34.1587H43.1749V32.5852H41.361V34.1587H40.5227V32.5852H38.5004V34.1587H37.6622V32.5852H35.6442V34.1587H34.806V32.5852H32.9965V34.1587H32.1583V32.5852H30.1359V34.1587H29.2977V32.5852H27.2754V34.1587H26.4371V32.5852H24.6276V34.1587H23.0931V15.3533H22.4678V12.4305H23.0931V14.7525H23.7894V12.4305H24.4857V14.7525H25.324V12.4305H25.8118V14.7525H26.65V12.4305H27.1379V14.7525H27.9761V12.4305H28.6724V14.7525H29.5106V12.4305H29.9985V14.7525H30.8367V12.4305H31.3245V14.7525H32.1627V12.4305H32.859V14.7525H33.6973V12.4305H34.1851V14.7525H35.0233V12.4305H35.5112V14.7525H36.3494V12.4305H37.0457V14.7525H37.8839V12.4305H38.3718V14.7525H39.21V12.4305H39.6978V14.7525H40.5361V12.4305H41.2324V14.7525H42.0706V12.4305H42.5584V14.7525H43.3966V12.4305H43.8845V14.7525H44.7227V12.4305H45.419V14.7525H46.2572V12.4305H46.7451V14.7525H47.5833V12.4305H48.0712V14.7525H48.9094V12.4305H49.5347V14.7525H50.3729V12.4305H50.8608V14.7525H51.699V12.4305H52.1868V14.7525H53.0251V12.4305H53.7214V14.7525H54.5596V12.4305H55.0474V14.7525H55.8857V12.4305H56.4445V14.7525H57.2827V12.4305H57.979V14.7525H58.8172V12.4305H59.305V14.7525H60.1433V12.4305H60.6311V14.7525H61.4693V12.4305H62.0947V14.7525H62.9329V12.4305H63.4207V14.7525H64.188V12.4305H64.7468V14.7525H65.585V12.4305H66.2813V14.7525H67.1195V12.4305H67.6074V14.7525H68.4456V12.4305H68.9335V14.7525H69.7451V14.7573ZM22.9911 10.7855H23.8293V11.7582H22.9911V10.7855ZM24.4547 10.7855H25.2929V11.7582H24.4547V10.7855ZM25.8473 10.7855H26.6855V11.7582H25.8473V10.7855ZM27.1734 10.7855H28.0116V11.7582H27.1734V10.7855ZM28.6369 10.7855H29.4751V11.7582H28.6369V10.7855ZM30.0295 10.7855H30.8677V11.7582H30.0295V10.7855ZM31.3556 10.7855H32.1938V11.7582H31.3556V10.7855ZM32.8147 10.7855H33.6529V11.7582H32.8147V10.7855ZM34.2117 10.7855H35.0499V11.7582H34.2117V10.7855ZM35.5334 10.7855H36.3716V11.7582H35.5334V10.7855ZM36.9969 10.7855H37.8351V11.7582H36.9969V10.7855ZM38.3895 10.7855H39.2277V11.7582H38.3895V10.7855ZM39.7156 10.7855H40.5538V11.7582H39.7156V10.7855ZM41.1791 10.7855H42.0174V11.7582H41.1791V10.7855ZM42.5008 10.7855H43.339V11.7582H42.5008V10.7855ZM43.8934 10.7855H44.7316V11.7582H43.8934V10.7855ZM45.3569 10.7855H46.1951V11.7582H45.3569V10.7855ZM46.683 10.7855H47.5212V11.7582H46.683V10.7855ZM48.0756 10.7855H48.9138V11.7582H48.0756V10.7855ZM49.5391 10.7855H50.3774V11.7582H49.5391V10.7855ZM50.8608 10.7855H51.699V11.7582H50.8608V10.7855ZM52.2578 10.7855H53.096V11.7582H52.2578V10.7855ZM53.7214 10.7855H54.5596V11.7582H53.7214V10.7855ZM55.043 10.7855H55.8812V11.7582H55.043V10.7855ZM56.4356 10.7855H57.2738V11.7582H56.4356V10.7855ZM57.8991 10.7855H58.7374V11.7582H57.8991V10.7855ZM59.2252 10.7855H60.0634V11.7582H59.2252V10.7855ZM60.6178 10.7855H61.456V11.7582H60.6178V10.7855ZM62.0814 10.7855H62.9196V11.7582H62.0814V10.7855ZM63.403 10.7855H64.2412V11.7582H63.403V10.7855ZM64.7956 10.7855H65.6338V11.7582H64.7956V10.7855ZM66.2592 10.7855H67.0974V11.7582H66.2592V10.7855V10.7855ZM67.5852 10.7855H68.4234V11.7582H67.5852V10.7855ZM68.9778 10.7855H69.816V11.7582H68.9778V10.7855ZM44.7316 8.46339H46.7539V9.36456H44.7316V8.46339ZM70.5123 9.88429H61.456V9.13569H59.2962V9.88429H47.5922V5.38796H46.0577V2.32207H49.5436V0H45.3614V5.54531H44.0397V10.0416H32.1938V9.29304H30.0339V10.0416H22.5077L21.8114 10.7902V15.5107H22.5077L22.4367 34.1635H18.117L16.0282 31.8414V31.0928H15.4028V31.6936H12.5467V31.0928H8.36444V31.6936H5.71674V31.1691H4.87852V45.4019H0V46.8228H91.9734V45.4019H88.7003V45.2493V31.0118H87.8621V31.6841H85.2144V30.9355H81.0322V31.6841H78.176V31.0118H77.5507V32.4327L75.3909 33.8583H70.5123V15.5059H71.2086V10.6376L70.5123 9.88429Z" fill="white" style="fill:white;fill-opacity:1;"/>
</svg>
