<svg width="102" height="106" viewBox="0 0 102 106" fill="none" xmlns="http://www.w3.org/2000/svg">
<path d="M31.5694 77.1518C33.5656 76.7862 35.5654 76.512 37.5689 76.2707C34.0432 68.0032 29.5333 60.1911 24.1367 53.0036C22.9229 51.3877 21.6724 49.8009 20.3708 48.2508C16.6636 43.827 17.0805 38.7853 18.8281 35.2974C18.9414 35.0707 19.0621 34.8477 19.1937 34.6357C19.3253 34.4236 19.4496 34.2116 19.5886 33.9995C22.2726 29.2711 24.5569 24.3268 26.4179 19.2181C27.025 17.5469 27.7966 15.9401 28.7214 14.4214C24.2538 14.5295 19.8902 15.7921 16.0552 18.0863C12.2201 20.3805 9.04423 23.6283 6.83632 27.5137C4.57456 31.3685 3.34944 35.7433 3.28025 40.2122C3.21105 44.681 4.30011 49.0916 6.44144 53.0146C7.29398 54.5787 8.29942 56.0544 9.44304 57.4201C12.9368 61.5877 16.0771 66.0391 18.8317 70.7281C19.0839 71.1559 19.3325 71.5873 19.5629 72.0187C21.7309 75.2543 25.8843 78.1536 31.5694 77.1518Z" fill="white" fill-opacity="0.3" stroke="white" style="fill:white;fill-opacity:0.3;stroke:white;stroke-opacity:1;" stroke-width="3"/>
<path d="M77.8619 53.002C72.4645 60.1889 67.9543 68.001 64.4295 76.269C63.6349 78.1263 62.8892 80.0055 62.1921 81.9066C60.2142 87.3322 55.6294 89.4783 51.7393 89.7196C51.4956 89.7342 51.2519 89.7415 51.0081 89.7415C50.7632 89.7415 50.5146 89.7415 50.2769 89.7196C44.8384 89.7548 39.4124 90.244 34.0552 91.182C32.5161 91.452 30.9564 91.5878 29.3937 91.5878H28.7393C31.0656 95.4002 34.3384 98.5461 38.2398 100.72C42.1413 102.893 46.5386 104.021 51.0046 103.993C55.4731 104.024 59.8736 102.898 63.7779 100.724C67.6821 98.55 70.9572 95.4026 73.2845 91.5878C74.2135 90.0673 74.9887 88.458 75.5988 86.7838C77.4611 81.6751 79.7467 76.7308 82.4319 72.0024C82.6769 71.5673 82.9255 71.1359 83.1631 70.7045C84.8998 67.213 85.3312 62.175 81.624 57.7475C80.3346 56.1998 79.0805 54.6179 77.8619 53.002Z" fill="white" fill-opacity="0.3" stroke="white" style="fill:white;fill-opacity:0.3;stroke:white;stroke-opacity:1;" stroke-width="3"/>
<path d="M95.1737 27.5013C92.9644 23.6179 89.7878 20.3723 85.9529 18.0801C82.1179 15.7878 77.7552 14.5269 73.2887 14.4199H72.6342C71.0715 14.4211 69.5118 14.5581 67.9727 14.8294C62.6153 15.7656 57.1893 16.2548 51.7508 16.2918H50.2627C46.369 16.5331 41.788 18.6756 39.8101 24.1048C39.1155 26.0084 38.3696 27.8876 37.5726 29.7424C42.0297 30.2821 46.5153 30.5544 51.005 30.5577C55.4959 30.5545 59.9826 30.2822 64.441 29.7424C66.4445 29.4974 68.4444 29.2086 70.4406 28.8576C76.1257 27.8595 80.2789 30.7551 82.4323 34.0054C82.5713 34.2138 82.7029 34.4258 82.8272 34.6378C82.9515 34.8499 83.0649 35.0693 83.1928 35.2923C85.9461 39.9833 89.0865 44.436 92.5814 48.6039C93.7245 49.9636 94.7301 51.4332 95.5832 52.9912C97.7196 49.0681 98.8046 44.6589 98.7328 40.1923C98.6611 35.7258 97.435 31.3538 95.1737 27.5013V27.5013Z" fill="white" fill-opacity="0.3" stroke="white" style="fill:white;fill-opacity:0.3;stroke:white;stroke-opacity:1;" stroke-width="3"/>
<path d="M37.5721 76.269C35.5686 76.5103 33.5689 76.7991 31.5727 77.1501C25.8875 78.1519 21.7341 75.2526 19.5807 72.0061C19.4418 71.794 19.3102 71.582 19.1859 71.3736C19.0616 71.1652 18.9482 70.9422 18.8203 70.7155C16.0657 66.0264 12.9254 61.575 9.43164 57.4075C8.28802 56.0417 7.28258 54.566 6.43004 53.002C4.28871 56.925 3.19966 61.3356 3.26885 65.8044C3.33805 70.2732 4.56317 74.648 6.82493 78.5029C9.03255 82.3885 12.2083 85.6365 16.0434 87.9307C19.8785 90.225 24.2423 91.4874 28.71 91.5952H29.3644C30.927 91.5951 32.4867 91.4593 34.0259 91.1893C39.383 90.2513 44.8092 89.7621 50.2478 89.7269H51.7357C55.6258 89.4856 60.2104 87.3395 62.1883 81.9139C62.883 80.0079 63.6288 78.1287 64.4258 76.2763C59.9677 75.7335 55.4809 75.46 50.9899 75.4574C46.5051 75.4583 42.0243 75.7293 37.5721 76.269V76.269Z" fill="white" stroke="white" style="fill:white;fill-opacity:1;stroke:white;stroke-opacity:1;" stroke-width="3"/>
<path d="M95.5675 53.0021C94.7144 51.4441 93.709 49.9745 92.5659 48.6148C89.0709 44.4469 85.9303 39.9942 83.1771 35.3032C82.9248 34.8791 82.6762 34.4476 82.4459 34.0162C80.2925 30.766 76.1393 27.8704 70.4541 28.8685C68.4579 29.2341 66.458 29.5083 64.4545 29.7533C67.9735 38.0132 72.4748 45.8191 77.8612 53.0021C79.0799 54.6156 80.3351 56.1999 81.6269 57.755C85.3341 62.1824 84.9173 67.2204 83.166 70.712C83.0564 70.9386 82.9357 71.158 82.8004 71.3737C82.6652 71.5894 82.5447 71.7978 82.4057 72.0099C79.7284 76.7449 77.4513 81.6954 75.5981 86.8095C74.9881 88.4837 74.2128 90.093 73.2838 91.6136C77.752 91.5058 82.1161 90.2433 85.9518 87.9491C89.7875 85.6549 92.9641 82.407 95.1726 78.5213C97.437 74.664 98.6636 70.286 98.7328 65.8137C98.802 61.3415 97.7115 56.9276 95.5675 53.0021V53.0021Z" fill="white" stroke="white" style="fill:white;fill-opacity:1;stroke:white;stroke-opacity:1;" stroke-width="3"/>
<path d="M24.1404 53.0021C29.537 45.8147 34.047 38.0026 37.5726 29.735C38.3672 27.8777 39.1131 25.9985 39.8102 24.0974C41.7881 18.6682 46.3691 16.5257 50.2627 16.2844C50.5114 16.2661 50.76 16.2588 50.994 16.2588C51.2279 16.2588 51.4875 16.2588 51.7252 16.2844C57.1636 16.2474 62.5897 15.7582 67.9471 14.822C69.4861 14.5507 71.0458 14.4137 72.6085 14.4125H73.263C70.9396 10.5978 67.6689 7.44902 63.7687 5.27214C59.8685 3.09526 55.4715 1.96434 51.005 1.98929C46.5341 1.96095 42.1319 3.09101 38.2274 5.26942C34.323 7.44783 31.0493 10.6003 28.7251 14.4198C27.7961 15.9404 27.0209 17.5497 26.4108 19.2239C24.5497 24.3325 22.2652 29.2768 19.5812 34.0053C19.3363 34.4403 19.0878 34.8718 18.8318 35.3032C17.0989 38.791 16.6674 43.8327 20.3746 48.2565C21.6761 49.7994 22.9266 51.3861 24.1404 53.0021Z" fill="white" stroke="white" style="fill:white;fill-opacity:1;stroke:white;stroke-opacity:1;" stroke-width="3"/>
</svg>
