<svg width="111" height="104" viewBox="0 0 111 104" fill="none" xmlns="http://www.w3.org/2000/svg">
<g filter="url(#filter0_d_2213_107)">
<path d="M80.1518 67.4306C79.7862 65.4344 79.512 63.4347 79.2707 61.4312C71.0032 64.9568 63.1911 69.4667 56.0036 74.8634C54.3877 76.0772 52.8009 77.3277 51.2508 78.6292C46.827 82.3364 41.7853 81.9196 38.2974 80.172C38.0707 80.0586 37.8477 79.938 37.6357 79.8064C37.4236 79.6747 37.2116 79.5504 36.9995 79.4115C32.2711 76.7275 27.3268 74.4432 22.2181 72.5821C20.5469 71.9751 18.9401 71.2034 17.4214 70.2787C17.5295 74.7463 18.7921 79.1098 21.0863 82.9449C23.3805 86.7799 26.6283 89.9558 30.5137 92.1637C34.3685 94.4255 38.7433 95.6506 43.2122 95.7198C47.681 95.789 52.0916 94.6999 56.0146 92.5586C57.5787 91.7061 59.0544 90.7006 60.4201 89.557C64.5877 86.0632 69.0391 82.9229 73.7281 80.1684C74.1559 79.9161 74.5873 79.6675 75.0187 79.4372C78.2543 77.2691 81.1536 73.1158 80.1518 67.4306Z" fill="url(#paint0_radial_2213_107)" style=""/>
</g>
<g filter="url(#filter1_d_2213_107)">
<path d="M56.002 21.1379C63.1889 26.5353 71.001 31.0455 79.269 34.5703C81.1263 35.3649 83.0055 36.1106 84.9066 36.8077C90.3322 38.7856 92.4783 43.3704 92.7196 47.2604C92.7342 47.5042 92.7415 47.7479 92.7415 47.9916C92.7415 48.2366 92.7415 48.4852 92.7196 48.7229C92.7548 54.1614 93.244 59.5874 94.182 64.9446C94.452 66.4837 94.5878 68.0434 94.5878 69.6061L94.5878 70.2605C98.4002 67.9342 101.546 64.6614 103.72 60.76C105.893 56.8585 107.021 52.4612 106.993 47.9952C107.024 43.5267 105.898 39.1262 103.724 35.2219C101.55 31.3176 98.4026 28.0426 94.5878 25.7153C93.0673 24.7863 91.458 24.0111 89.7838 23.401C84.6751 21.5387 79.7308 19.253 75.0024 16.5679C74.5673 16.3229 74.1359 16.0743 73.7045 15.8367C70.213 14.1 65.175 13.6686 60.7475 17.3758C59.1998 18.6652 57.6179 19.9192 56.002 21.1379Z" fill="url(#paint1_radial_2213_107)" style=""/>
</g>
<g filter="url(#filter2_d_2213_107)">
<path d="M30.5013 3.82638C26.6179 6.03566 23.3723 9.21224 21.0801 13.0472C18.7878 16.8821 17.5269 21.2449 17.4199 25.7114L17.4199 26.3659C17.4211 27.9286 17.5581 29.4883 17.8294 31.0273C18.7656 36.3847 19.2548 41.8108 19.2918 47.2492L19.2918 48.7374C19.5331 52.6311 21.6756 57.212 27.1048 59.1899C29.0084 59.8846 30.8876 60.6305 32.7424 61.4275C33.2821 56.9703 33.5544 52.4848 33.5577 47.9951C33.5545 43.5042 33.2822 39.0175 32.7424 34.5591C32.4974 32.5556 32.2086 30.5557 31.8576 28.5595C30.8595 22.8743 33.7551 18.7211 37.0054 16.5677C37.2138 16.4288 37.4258 16.2972 37.6378 16.1729C37.8499 16.0486 38.0693 15.9352 38.2923 15.8073C42.9833 13.054 47.436 9.91362 51.6039 6.41864C52.9636 5.27558 54.4332 4.26996 55.9912 3.41686C52.0681 1.28044 47.6589 0.195519 43.1923 0.267271C38.7258 0.339023 34.3538 1.56505 30.5013 3.82638V3.82638Z" fill="url(#paint2_radial_2213_107)" style=""/>
</g>
<g filter="url(#filter3_d_2213_107)">
<path d="M79.269 61.428C79.5103 63.4315 79.7991 65.4312 80.1501 67.4274C81.1519 73.1126 78.2526 77.266 75.0061 79.4194C74.794 79.5583 74.582 79.69 74.3736 79.8143C74.1652 79.9386 73.9422 80.0519 73.7155 80.1799C69.0264 82.9344 64.575 86.0747 60.4075 89.5685C59.0417 90.7121 57.566 91.7175 56.002 92.5701C59.925 94.7114 64.3356 95.8005 68.8044 95.7313C73.2732 95.6621 77.648 94.437 81.5029 92.1752C85.3885 89.9676 88.6365 86.7918 90.9307 82.9567C93.225 79.1216 94.4874 74.7578 94.5952 70.2902L94.5952 69.6357C94.5951 68.0731 94.4593 66.5134 94.1893 64.9743C93.2513 59.6171 92.7621 54.1909 92.7269 48.7523L92.7269 47.2644C92.4856 43.3744 90.3395 38.7897 84.9139 36.8118C83.0079 36.1172 81.1287 35.3713 79.2763 34.5743C78.7335 39.0324 78.46 43.5192 78.4574 48.0102C78.4583 52.495 78.7293 56.9758 79.269 61.428V61.428Z" fill="url(#paint3_linear_2213_107)" style=""/>
</g>
<g filter="url(#filter4_d_2213_107)">
<path d="M56.0021 3.43243C54.4441 4.28553 52.9745 5.29097 51.6148 6.43403C47.4469 9.92901 42.9942 13.0696 38.3032 15.8228C37.8791 16.0751 37.4476 16.3237 37.0162 16.554C33.766 18.7074 30.8704 22.8606 31.8685 28.5458C32.2341 30.542 32.5083 32.5419 32.7533 34.5454C41.0132 31.0265 48.8191 26.5252 56.0021 21.1387C57.6156 19.92 59.1999 18.6649 60.755 17.3731C65.1824 13.6658 70.2204 14.0826 73.712 15.8339C73.9386 15.9436 74.158 16.0642 74.3737 16.1995C74.5894 16.3348 74.7978 16.4553 75.0099 16.5942C79.7449 19.2715 84.6954 21.5487 89.8095 23.4018C91.4837 24.0119 93.093 24.7871 94.6136 25.7161C94.5058 21.248 93.2433 16.8838 90.9491 13.0481C88.6549 9.21244 85.407 6.03581 81.5213 3.82731C77.664 1.56292 73.286 0.336329 68.8137 0.267131C64.3415 0.197932 59.9276 1.28845 56.0021 3.43243V3.43243Z" fill="url(#paint4_linear_2213_107)" style=""/>
</g>
<g filter="url(#filter5_d_2213_107)">
<path d="M56.0021 74.8595C48.8147 69.4629 41.0026 64.953 32.735 61.4273C30.8777 60.6327 28.9985 59.8869 27.0974 59.1898C21.6682 57.2119 19.5257 52.6309 19.2844 48.7372C19.2661 48.4886 19.2588 48.24 19.2588 48.006C19.2588 47.772 19.2588 47.5124 19.2844 47.2748C19.2474 41.8363 18.7582 36.4103 17.822 31.0529C17.5507 29.5139 17.4137 27.9542 17.4125 26.3914L17.4125 25.737C13.5978 28.0604 10.449 31.3311 8.27214 35.2313C6.09527 39.1314 4.96434 43.5284 4.98929 47.9949C4.96095 52.4659 6.09101 56.868 8.26942 60.7725C10.4478 64.677 13.6003 67.9507 17.4198 70.2748C18.9404 71.2038 20.5497 71.9791 22.2239 72.5892C27.3325 74.4502 32.2768 76.7347 37.0053 79.4187C37.4403 79.6637 37.8718 79.9122 38.3032 80.1681C41.791 81.9011 46.8327 82.3326 51.2565 78.6254C52.7994 77.3238 54.3861 76.0733 56.0021 74.8595Z" fill="url(#paint5_linear_2213_107)" style=""/>
</g>
<defs>
<filter id="filter0_d_2213_107" x="13.4214" y="61.4312" width="70.9316" height="42.2917" filterUnits="userSpaceOnUse" color-interpolation-filters="sRGB">
<feFlood flood-opacity="0" result="BackgroundImageFix"/>
<feColorMatrix in="SourceAlpha" type="matrix" values="0 0 0 0 0 0 0 0 0 0 0 0 0 0 0 0 0 0 127 0" result="hardAlpha"/>
<feOffset dy="4"/>
<feGaussianBlur stdDeviation="2"/>
<feComposite in2="hardAlpha" operator="out"/>
<feColorMatrix type="matrix" values="0 0 0 0 0 0 0 0 0 0 0 0 0 0 0 0 0 0 0.25 0"/>
<feBlend mode="normal" in2="BackgroundImageFix" result="effect1_dropShadow_2213_107"/>
<feBlend mode="normal" in="SourceGraphic" in2="effect1_dropShadow_2213_107" result="shape"/>
</filter>
<filter id="filter1_d_2213_107" x="52.002" y="14.5432" width="58.9917" height="63.7173" filterUnits="userSpaceOnUse" color-interpolation-filters="sRGB">
<feFlood flood-opacity="0" result="BackgroundImageFix"/>
<feColorMatrix in="SourceAlpha" type="matrix" values="0 0 0 0 0 0 0 0 0 0 0 0 0 0 0 0 0 0 127 0" result="hardAlpha"/>
<feOffset dy="4"/>
<feGaussianBlur stdDeviation="2"/>
<feComposite in2="hardAlpha" operator="out"/>
<feColorMatrix type="matrix" values="0 0 0 0 0 0 0 0 0 0 0 0 0 0 0 0 0 0 0.25 0"/>
<feBlend mode="normal" in2="BackgroundImageFix" result="effect1_dropShadow_2213_107"/>
<feBlend mode="normal" in="SourceGraphic" in2="effect1_dropShadow_2213_107" result="shape"/>
</filter>
<filter id="filter2_d_2213_107" x="13.4199" y="0.263916" width="46.5713" height="69.1636" filterUnits="userSpaceOnUse" color-interpolation-filters="sRGB">
<feFlood flood-opacity="0" result="BackgroundImageFix"/>
<feColorMatrix in="SourceAlpha" type="matrix" values="0 0 0 0 0 0 0 0 0 0 0 0 0 0 0 0 0 0 127 0" result="hardAlpha"/>
<feOffset dy="4"/>
<feGaussianBlur stdDeviation="2"/>
<feComposite in2="hardAlpha" operator="out"/>
<feColorMatrix type="matrix" values="0 0 0 0 0 0 0 0 0 0 0 0 0 0 0 0 0 0 0.25 0"/>
<feBlend mode="normal" in2="BackgroundImageFix" result="effect1_dropShadow_2213_107"/>
<feBlend mode="normal" in="SourceGraphic" in2="effect1_dropShadow_2213_107" result="shape"/>
</filter>
<filter id="filter3_d_2213_107" x="52.002" y="34.5742" width="46.5933" height="69.1602" filterUnits="userSpaceOnUse" color-interpolation-filters="sRGB">
<feFlood flood-opacity="0" result="BackgroundImageFix"/>
<feColorMatrix in="SourceAlpha" type="matrix" values="0 0 0 0 0 0 0 0 0 0 0 0 0 0 0 0 0 0 127 0" result="hardAlpha"/>
<feOffset dy="4"/>
<feGaussianBlur stdDeviation="2"/>
<feComposite in2="hardAlpha" operator="out"/>
<feColorMatrix type="matrix" values="0 0 0 0 0 0 0 0 0 0 0 0 0 0 0 0 0 0 0.25 0"/>
<feBlend mode="normal" in2="BackgroundImageFix" result="effect1_dropShadow_2213_107"/>
<feBlend mode="normal" in="SourceGraphic" in2="effect1_dropShadow_2213_107" result="shape"/>
</filter>
<filter id="filter4_d_2213_107" x="27.6685" y="0.263916" width="70.9453" height="42.2815" filterUnits="userSpaceOnUse" color-interpolation-filters="sRGB">
<feFlood flood-opacity="0" result="BackgroundImageFix"/>
<feColorMatrix in="SourceAlpha" type="matrix" values="0 0 0 0 0 0 0 0 0 0 0 0 0 0 0 0 0 0 127 0" result="hardAlpha"/>
<feOffset dy="4"/>
<feGaussianBlur stdDeviation="2"/>
<feComposite in2="hardAlpha" operator="out"/>
<feColorMatrix type="matrix" values="0 0 0 0 0 0 0 0 0 0 0 0 0 0 0 0 0 0 0.25 0"/>
<feBlend mode="normal" in2="BackgroundImageFix" result="effect1_dropShadow_2213_107"/>
<feBlend mode="normal" in="SourceGraphic" in2="effect1_dropShadow_2213_107" result="shape"/>
</filter>
<filter id="filter5_d_2213_107" x="0.98877" y="25.7371" width="59.0132" height="63.7214" filterUnits="userSpaceOnUse" color-interpolation-filters="sRGB">
<feFlood flood-opacity="0" result="BackgroundImageFix"/>
<feColorMatrix in="SourceAlpha" type="matrix" values="0 0 0 0 0 0 0 0 0 0 0 0 0 0 0 0 0 0 127 0" result="hardAlpha"/>
<feOffset dy="4"/>
<feGaussianBlur stdDeviation="2"/>
<feComposite in2="hardAlpha" operator="out"/>
<feColorMatrix type="matrix" values="0 0 0 0 0 0 0 0 0 0 0 0 0 0 0 0 0 0 0.25 0"/>
<feBlend mode="normal" in2="BackgroundImageFix" result="effect1_dropShadow_2213_107"/>
<feBlend mode="normal" in="SourceGraphic" in2="effect1_dropShadow_2213_107" result="shape"/>
</filter>
<radialGradient id="paint0_radial_2213_107" cx="0" cy="0" r="1" gradientUnits="userSpaceOnUse" gradientTransform="translate(20.5825 86.9017) rotate(-22.4334) scale(49.348 46.4731)">
<stop stop-color="#00CAF2" style="stop-color:#00CAF2;stop-color:color(display-p3 0.0000 0.7922 0.9490);stop-opacity:1;"/>
<stop offset="0.13" stop-color="#00C1F3" style="stop-color:#00C1F3;stop-color:color(display-p3 0.0000 0.7569 0.9529);stop-opacity:1;"/>
<stop offset="0.35" stop-color="#00A9F5" style="stop-color:#00A9F5;stop-color:color(display-p3 0.0000 0.6627 0.9608);stop-opacity:1;"/>
<stop offset="0.63" stop-color="#0181F8" style="stop-color:#0181F8;stop-color:color(display-p3 0.0039 0.5059 0.9725);stop-opacity:1;"/>
<stop offset="0.95" stop-color="#024BFC" style="stop-color:#024BFC;stop-color:color(display-p3 0.0078 0.2941 0.9882);stop-opacity:1;"/>
<stop offset="1" stop-color="#0241FD" style="stop-color:#0241FD;stop-color:color(display-p3 0.0078 0.2549 0.9922);stop-opacity:1;"/>
</radialGradient>
<radialGradient id="paint1_radial_2213_107" cx="0" cy="0" r="1" gradientUnits="userSpaceOnUse" gradientTransform="translate(98.117 66.2677) rotate(-95.5227) scale(52.5127 49.3399)">
<stop stop-color="#00CAF2" style="stop-color:#00CAF2;stop-color:color(display-p3 0.0000 0.7922 0.9490);stop-opacity:1;"/>
<stop offset="0.13" stop-color="#00C1F3" style="stop-color:#00C1F3;stop-color:color(display-p3 0.0000 0.7569 0.9529);stop-opacity:1;"/>
<stop offset="0.35" stop-color="#00A9F5" style="stop-color:#00A9F5;stop-color:color(display-p3 0.0000 0.6627 0.9608);stop-opacity:1;"/>
<stop offset="0.63" stop-color="#0181F8" style="stop-color:#0181F8;stop-color:color(display-p3 0.0039 0.5059 0.9725);stop-opacity:1;"/>
<stop offset="0.95" stop-color="#024BFC" style="stop-color:#024BFC;stop-color:color(display-p3 0.0078 0.2941 0.9882);stop-opacity:1;"/>
<stop offset="1" stop-color="#0241FD" style="stop-color:#0241FD;stop-color:color(display-p3 0.0078 0.2549 0.9922);stop-opacity:1;"/>
</radialGradient>
<radialGradient id="paint2_radial_2213_107" cx="0" cy="0" r="1" gradientUnits="userSpaceOnUse" gradientTransform="translate(34.6724 -1.00532) rotate(89.2432) scale(59.1502 38.4829)">
<stop stop-color="#00CAF2" style="stop-color:#00CAF2;stop-color:color(display-p3 0.0000 0.7922 0.9490);stop-opacity:1;"/>
<stop offset="0.13" stop-color="#00C1F3" style="stop-color:#00C1F3;stop-color:color(display-p3 0.0000 0.7569 0.9529);stop-opacity:1;"/>
<stop offset="0.35" stop-color="#00A9F5" style="stop-color:#00A9F5;stop-color:color(display-p3 0.0000 0.6627 0.9608);stop-opacity:1;"/>
<stop offset="0.63" stop-color="#0181F8" style="stop-color:#0181F8;stop-color:color(display-p3 0.0039 0.5059 0.9725);stop-opacity:1;"/>
<stop offset="0.95" stop-color="#024BFC" style="stop-color:#024BFC;stop-color:color(display-p3 0.0078 0.2941 0.9882);stop-opacity:1;"/>
<stop offset="1" stop-color="#0241FD" style="stop-color:#0241FD;stop-color:color(display-p3 0.0078 0.2549 0.9922);stop-opacity:1;"/>
</radialGradient>
<linearGradient id="paint3_linear_2213_107" x1="56.002" y1="34.9799" x2="85.2841" y2="30.7575" gradientUnits="userSpaceOnUse">
<stop stop-color="#32CD1D" style="stop-color:#32CD1D;stop-color:color(display-p3 0.1968 0.8042 0.1139);stop-opacity:1;"/>
<stop offset="1" stop-color="#0C9E47" style="stop-color:#0C9E47;stop-color:color(display-p3 0.0467 0.6202 0.2796);stop-opacity:1;"/>
</linearGradient>
<linearGradient id="paint4_linear_2213_107" x1="31.6685" y1="0.491383" x2="73.1224" y2="-16.9021" gradientUnits="userSpaceOnUse">
<stop stop-color="#32CD1D" style="stop-color:#32CD1D;stop-color:color(display-p3 0.1968 0.8042 0.1139);stop-opacity:1;"/>
<stop offset="1" stop-color="#0C9E47" style="stop-color:#0C9E47;stop-color:color(display-p3 0.0467 0.6202 0.2796);stop-opacity:1;"/>
</linearGradient>
<linearGradient id="paint5_linear_2213_107" x1="4.98877" y1="26.1065" x2="42.8426" y2="18.1872" gradientUnits="userSpaceOnUse">
<stop stop-color="#32CD1D" style="stop-color:#32CD1D;stop-color:color(display-p3 0.1968 0.8042 0.1139);stop-opacity:1;"/>
<stop offset="1" stop-color="#0C9E47" style="stop-color:#0C9E47;stop-color:color(display-p3 0.0467 0.6202 0.2796);stop-opacity:1;"/>
</linearGradient>
</defs>
</svg>
