<svg width="81" height="98" viewBox="0 0 81 98" fill="none" xmlns="http://www.w3.org/2000/svg">
<path d="M0.768066 0.943848V70.4062L40.5077 35.0092L79.9193 70.4062V0.943848H0.768066ZM74.9205 59.3857L40.5077 28.3312L5.78619 59.3857V50.3723L40.527 19.646L75.2679 50.3723V59.3857H74.9205ZM74.9205 8.29732V43.3663L41.5114 13.2961L40.5077 12.2925L39.5041 13.2961L6.1143 43.3663V5.96197H74.9205V8.29732Z" fill="white" style="fill:white;fill-opacity:1;"/>
<path d="M32.1702 52.3796H38.8481V59.0576H32.1702V52.3796Z" fill="white" style="fill:white;fill-opacity:1;"/>
<path d="M42.8625 52.3796H49.5405V59.0576H42.8625V52.3796Z" fill="white" style="fill:white;fill-opacity:1;"/>
<path d="M32.1702 62.7253H38.8481V69.4032H32.1702V62.7253Z" fill="white" style="fill:white;fill-opacity:1;"/>
<path d="M42.8625 62.7253H49.5405V69.4032H42.8625V62.7253Z" fill="white" style="fill:white;fill-opacity:1;"/>
<path d="M65.9662 97.8811V94.9977H59.6927C63.6825 92.092 65.8462 89.8083 65.8462 87.178C65.8462 84.108 63.2382 82.2641 59.9637 82.2641C57.72 82.2153 55.5652 83.1305 54.0413 84.7788L55.9162 86.9426C56.9781 85.7918 58.4753 85.1476 60.0393 85.1698C61.3099 85.1698 62.5318 85.8407 62.5318 87.178C62.5318 89.0707 60.6879 90.6613 54.3878 95.322V97.8811H65.9662V97.8811ZM78.3576 97.8811V94.6955H80.3436V91.8121H78.3576V82.4952H73.8347L67.7211 92.1142V94.7H75.0742V97.8856H78.3576V97.8811ZM75.0742 91.8165H70.9201L75.0742 85.4009V91.8165Z" fill="white" style="fill:white;fill-opacity:1;"/>
<path d="M10.4071 82.4952H6.29287L0.34375 97.8812H4.08028L5.04885 95.2732H11.6466L12.593 97.8812H16.3295L10.4071 82.4952ZM5.94632 92.3897L8.34552 85.7697L10.7447 92.3897H5.94632Z" fill="white" style="fill:white;fill-opacity:1;"/>
<path d="M21.3901 97.8812L28.7299 87.5691V97.8812H32.0044V82.4952H28.6366L21.5057 92.443V82.4952H18.2312V97.8812H21.3901Z" fill="white" style="fill:white;fill-opacity:1;"/>
<path d="M42.0986 97.8723C44.7866 97.9345 47.2836 96.4683 48.5365 94.0869L45.7241 92.7274C45.0265 94.0869 43.6315 94.9488 42.1031 94.9666C39.4551 94.9888 37.2958 92.8607 37.2736 90.2126C37.2736 90.1149 37.2736 90.0172 37.278 89.9194C37.1358 87.2759 39.1663 85.0188 41.8054 84.8811C41.9031 84.8767 42.0009 84.8722 42.0986 84.8722C43.6226 84.8989 45.0132 85.7564 45.7196 87.1115L48.532 85.7253C47.2791 83.3483 44.7822 81.8865 42.0942 81.9665C37.7801 81.7621 34.1191 85.0899 33.9103 89.404C33.9014 89.5773 33.9014 89.7506 33.9014 89.9239C33.8258 94.2424 37.2647 97.8057 41.5832 97.8812C41.7565 97.8856 41.9298 97.8812 42.0986 97.8723Z" fill="white" style="fill:white;fill-opacity:1;"/>
</svg>
