<?xml version="1.0" encoding="UTF-8"?>
<svg id="OBJECTS" xmlns="http://www.w3.org/2000/svg" version="1.1" xmlns:xlink="http://www.w3.org/1999/xlink" viewBox="0 0 366.1 162.31">
  <!-- Generator: Adobe Illustrator 29.7.1, SVG Export Plug-In . SVG Version: 2.1.1 Build 8)  -->
  <defs>
    <style>
      .st0 {
        fill: url(#linear-gradient2);
      }

      .st1 {
        fill: url(#linear-gradient1);
      }

      .st2 {
        fill: url(#linear-gradient4);
      }

      .st3 {
        fill: url(#linear-gradient3);
      }

      .st4 {
        fill: url(#linear-gradient);
      }
    </style>
    <linearGradient id="linear-gradient" x1="0" y1="81.16" x2="366.1" y2="81.16" gradientUnits="userSpaceOnUse">
      <stop offset="0" stop-color="#ffde3e"/>
      <stop offset=".25" stop-color="#ff793e"/>
      <stop offset=".5" stop-color="#ff31fa"/>
      <stop offset=".75" stop-color="#8733ff"/>
      <stop offset="1" stop-color="#221dff"/>
    </linearGradient>
    <linearGradient id="linear-gradient1" x1="156.92" y1="45.03" x2="319" y2="45.03" gradientUnits="userSpaceOnUse">
      <stop offset=".21" stop-color="#ff31fa"/>
      <stop offset=".59" stop-color="#8733ff"/>
      <stop offset=".73" stop-color="#5827ba"/>
      <stop offset=".85" stop-color="#361e88"/>
      <stop offset=".95" stop-color="#211969"/>
      <stop offset="1" stop-color="#1a175e"/>
    </linearGradient>
    <linearGradient id="linear-gradient2" x1="16.58" y1="123.11" x2="184.52" y2="123.11" gradientUnits="userSpaceOnUse">
      <stop offset=".14" stop-color="#ff31fa" stop-opacity="0"/>
      <stop offset=".43" stop-color="#8733ff"/>
      <stop offset=".55" stop-color="#5827ba"/>
      <stop offset=".64" stop-color="#361e88"/>
      <stop offset=".72" stop-color="#211969"/>
      <stop offset=".76" stop-color="#1a175e"/>
    </linearGradient>
    <linearGradient id="linear-gradient3" x1="150.68" y1="138.27" x2="43.71" y2="45.04" gradientUnits="userSpaceOnUse">
      <stop offset="0" stop-color="#221dff"/>
      <stop offset=".32" stop-color="#8733ff"/>
      <stop offset=".82" stop-color="#ff31fa"/>
      <stop offset=".97" stop-color="#ff793e"/>
      <stop offset="1" stop-color="#ffde3e"/>
    </linearGradient>
    <linearGradient id="linear-gradient4" x1="305.71" y1="169.55" x2="71.79" y2=".99" gradientUnits="userSpaceOnUse">
      <stop offset="0" stop-color="#1d254f"/>
      <stop offset=".05" stop-color="#282557"/>
      <stop offset=".14" stop-color="#47276f"/>
      <stop offset=".25" stop-color="#792995"/>
      <stop offset=".38" stop-color="#be2dc8"/>
      <stop offset=".5" stop-color="#ff31fa"/>
      <stop offset="1" stop-color="#ffde3e"/>
    </linearGradient>
  </defs>
  <path class="st4" d="M282.02,162.31c-45.71,0-75.35-29.62-104.01-58.27l-22.87-22.87h0c-26.23-25.99-44.76-41.71-71.08-41.71-12.51,0-23.97,4.42-32.26,12.44-7.97,7.71-12.36,18.1-12.36,29.26s4.39,21.55,12.36,29.26c8.29,8.02,19.74,12.44,32.26,12.44,11.35,0,21.58-2.85,32.3-9.1l-9.36-9.36h-20.58c-10.41,0-18.88-8.47-18.88-18.88v-20.58h45.04c6.94,0,13.47,2.7,18.38,7.61l32.31,32.31c3.15,3.15,4.87,7.51,4.73,11.97-.15,4.44-2.15,8.67-5.49,11.59-34.13,29.87-58.81,33.9-78.44,33.9C36.93,162.31,0,126.67,0,81.16S36.93,0,84.07,0s75.35,29.62,104.01,58.27l23.4,23.4c25.95,25.68,44.41,41.18,70.55,41.18,12.51,0,23.97-4.42,32.26-12.44,7.97-7.71,12.36-18.1,12.36-29.26s-4.39-21.55-12.36-29.26c-8.29-8.02-19.74-12.44-32.26-12.44-17.29,0-31.91,6.49-50.49,22.4-3.38,2.89-7.69,4.48-12.13,4.48-4.97,0-9.64-1.93-13.15-5.44l-15.37-15.37,5.4-5.03C222.42,16.19,247,0,282.02,0c47.14,0,84.07,35.65,84.07,81.16s-36.93,81.16-84.07,81.16Z"/>
  <path class="st4" d="M282.02,162.31c-45.71,0-75.35-29.62-104.01-58.27l-22.87-22.87h0c-26.23-25.99-44.76-41.71-71.08-41.71-12.51,0-23.97,4.42-32.26,12.44-7.97,7.71-12.36,18.1-12.36,29.26s4.39,21.55,12.36,29.26c8.29,8.02,19.74,12.44,32.26,12.44,11.35,0,21.58-2.85,32.3-9.1l-9.36-9.36h-20.58c-10.41,0-18.88-8.47-18.88-18.88v-20.58h45.04c6.94,0,13.47,2.7,18.38,7.61l32.31,32.31c3.15,3.15,4.87,7.51,4.73,11.97-.15,4.44-2.15,8.67-5.49,11.59-34.13,29.87-58.81,33.9-78.44,33.9C36.93,162.31,0,126.67,0,81.16S36.93,0,84.07,0s75.35,29.62,104.01,58.27l23.4,23.4c25.95,25.68,44.41,41.18,70.55,41.18,12.51,0,23.97-4.42,32.26-12.44,7.97-7.71,12.36-18.1,12.36-29.26s-4.39-21.55-12.36-29.26c-8.29-8.02-19.74-12.44-32.26-12.44-17.29,0-31.91,6.49-50.49,22.4-3.38,2.89-7.69,4.48-12.13,4.48-4.97,0-9.64-1.93-13.15-5.44l-15.37-15.37,5.4-5.03C222.42,16.19,247,0,282.02,0c47.14,0,84.07,35.65,84.07,81.16s-36.93,81.16-84.07,81.16Z"/>
  <path class="st1" d="M219.41,66.34c4.44,0,8.75-1.59,12.13-4.48,18.58-15.91,33.21-22.4,50.49-22.4,12.51,0,23.97,4.42,32.26,12.44,7.95,7.7,12.33,18.06,12.36,29.18.12,1.66.06,3.16-.22,4.4,10.71-46.99-31.9-101.03-92.43-73.37,0,0,0,0,0,0-.8.43-1.59.87-2.39,1.32-.03.01-.05.03-.08.04-.77.44-1.54.89-2.3,1.34-.05.03-.1.06-.15.09-.75.45-1.49.9-2.23,1.37-.07.04-.14.09-.21.13-.72.45-1.44.92-2.16,1.39-.09.06-.18.12-.27.18-.7.46-1.4.93-2.09,1.4-.11.07-.22.15-.32.22-.68.46-1.35.94-2.03,1.42-.13.09-.26.18-.38.27-.65.47-1.31.94-1.96,1.43-.15.11-.29.22-.44.33-.63.47-1.27.95-1.9,1.43-.17.13-.34.26-.5.39-.61.47-1.22.94-1.83,1.42-.2.15-.39.31-.59.47-.58.46-1.17.93-1.75,1.4-.22.18-.44.36-.66.55-.56.46-1.11.91-1.67,1.38-.26.21-.51.43-.77.65-.52.44-1.05.88-1.57,1.33-.3.26-.6.52-.9.78-.48.42-.96.83-1.44,1.25-.36.32-.73.65-1.09.97-.42.37-.84.74-1.26,1.12-.45.4-.9.81-1.35,1.22-.34.31-.68.61-1.02.92-.79.72-1.59,1.46-2.38,2.2l-5.4,5.03,15.37,15.37c3.51,3.51,8.18,5.44,13.15,5.44Z"/>
  <path class="st0" d="M153.85,95.43c-8.7,3.09-27.92,9.94-41.15,14.66l3.66,3.66c-10.72,6.26-20.94,9.1-32.3,9.1-12.51,0-23.97-4.42-32.26-12.44-7.31-7.08-11.6-16.41-12.26-26.51H.07c1.45,44.19,37.81,78.41,84,78.41,19.63,0,44.3-4.03,78.44-33.9,3.34-2.92,5.34-7.15,5.49-11.59.15-4.46-1.57-8.82-4.73-11.97l-9.42-9.42Z"/>
  <path class="st3" d="M163.27,104.85l-32.31-32.31c-4.91-4.91-11.44-7.61-18.38-7.61h-45.04l39.46,39.46,9.36,9.36c16.1,16.1,17.67,36.25.08,43.31,8.59-3.01,18.01-7.69,28.4-14.84h0c5.59-3.84,11.47-8.4,17.66-13.81,3.34-2.92,5.34-7.15,5.49-11.59.15-4.46-1.57-8.82-4.73-11.97Z"/>
  <path class="st2" d="M327.85,149.55c-24.1,13.06-50.13-1.63-70.81-22.31-20.73-20.73-45.57-45.57-45.57-45.57l-23.4-23.4C159.42,29.62,129.79,0,84.07,0c-17.04,0-32.73,4.68-45.84,12.77,32.02-18.57,58.69,10.18,77.32,28.8,18.7,18.7,39.59,39.59,39.59,39.59,0,0,0,.01.01.02l22.86,22.86c28.66,28.65,58.29,58.27,104.01,58.27,17.04,0,32.72-4.67,45.83-12.77Z"/>
</svg>