<svg width="201" height="74" viewBox="0 0 201 74" fill="none" xmlns="http://www.w3.org/2000/svg">
<path d="M24.4616 0C7.85146 8.54279 -0.600262 27.7178 5.4162 45.3829C12.0559 64.8777 33.776 75.0741 53.8972 68.2211C56.6789 67.2737 60.8315 65.1501 63.2413 63.6926C62.3569 64.416 59.8919 66.0004 58.94 66.6441C52.7511 70.8296 45.4597 73.0859 37.9884 73.1276C30.517 73.1694 23.2004 70.9945 16.965 66.8783C10.7296 62.762 5.85472 56.8889 2.95698 50.0022C0.0592766 43.1154 -0.731415 35.524 0.685272 28.188C2.10198 20.852 5.66237 14.1008 10.9159 8.78816C14.7611 4.89985 19.3877 1.91119 24.4616 0Z" fill="white" style="fill:white;fill-opacity:1;"/>
<path d="M35.1624 2.79684C40.826 1.27837 46.7908 1.59928 52.3023 3.71983C56.4286 5.75023 60.1923 8.92862 63.3686 12.4837C52.6154 2.79684 35.8908 2.73891 25.0438 13.9377C13.6363 25.7153 12.761 44.7797 22.8459 57.2306C19.9057 54.4143 17.4995 50.9861 15.7888 47.1322C13.2682 41.4537 12.3691 35.1086 13.2045 28.8996C14.0399 22.6907 16.5723 16.8972 20.4808 12.2512C24.3893 7.6054 29.4986 4.31537 35.1624 2.79684Z" fill="white" style="fill:white;fill-opacity:1;"/>
<path d="M41.1087 12.7817C31.6863 15.5152 24.9579 24.8412 25.3766 35.5951C25.8183 46.9339 32.3836 55.1766 41.501 57.0924C39.3575 57.1309 37.1445 56.2436 35.0635 55.6236C31.4159 53.8444 30.2696 52.6758 27.5157 49.3002C24.762 45.9246 23.0414 41.7802 22.5709 37.3916C22.1004 33.0028 22.9011 28.5661 24.8725 24.6425C26.844 20.7189 29.8977 17.4847 33.6476 15.3489C35.9745 14.0236 38.5047 13.1584 41.1087 12.7817Z" fill="white" style="fill:white;fill-opacity:1;"/>
<path d="M41.822 47.5539C41.5521 47.5539 41.3333 47.3351 41.3333 47.0652V26.0601C41.3333 25.7902 41.5521 25.5714 41.822 25.5714L44.2706 25.5714C44.5405 25.5714 44.7593 25.7902 44.7593 26.0601V47.0652C44.7593 47.3351 44.5405 47.5539 44.2706 47.5539H41.822Z" fill="white" style="fill:white;fill-opacity:1;"/>
<path d="M54.6736 47.5539C54.4037 47.5539 54.1849 47.3351 54.1849 47.0652V26.0601C54.1849 25.7902 54.4037 25.5714 54.6736 25.5714H56.7334C56.882 25.5714 57.0226 25.6391 57.1153 25.7552L70.8562 42.9682C71.0688 43.2345 70.8792 43.6284 70.5385 43.6284C70.314 43.6284 70.132 43.4464 70.132 43.2219V26.0601C70.132 25.7902 70.3508 25.5714 70.6207 25.5714H72.9507C73.2206 25.5714 73.4394 25.7902 73.4394 26.0601V47.0652C73.4394 47.3351 73.2206 47.5539 72.9507 47.5539H70.891C70.7423 47.5539 70.6018 47.4862 70.509 47.3701L56.7681 30.1571C56.5555 29.8908 56.7451 29.4969 57.0858 29.4969C57.3104 29.4969 57.4924 29.6789 57.4924 29.9034V47.0652C57.4924 47.3351 57.2736 47.5539 57.0037 47.5539H54.6736Z" fill="white" style="fill:white;fill-opacity:1;"/>
<path d="M87.2213 47.5539C86.9514 47.5539 86.7326 47.3351 86.7326 47.0652V28.7922C86.7326 28.5223 86.5138 28.3035 86.2439 28.3035H80.2372C79.9673 28.3035 79.7485 28.0847 79.7485 27.8148V26.0601C79.7485 25.7902 79.9673 25.5714 80.2372 25.5714H96.1089C96.3788 25.5714 96.5976 25.7902 96.5976 26.0601V27.8148C96.5976 28.0847 96.3788 28.3035 96.1089 28.3035H90.1022C89.8323 28.3035 89.6135 28.5223 89.6135 28.7922V47.0652C89.6135 47.3351 89.3947 47.5539 89.1248 47.5539H87.2213Z" fill="white" style="fill:white;fill-opacity:1;"/>
<path d="M106.78 35.544C106.78 35.2741 106.999 35.0553 107.269 35.0553H116.768C117.038 35.0553 117.256 35.2741 117.256 35.544V37.2359C117.256 37.5058 117.038 37.7246 116.768 37.7246H107.269C106.999 37.7246 106.78 37.5058 106.78 37.2359V35.544ZM107.042 44.3331C107.042 44.603 107.261 44.8218 107.531 44.8218H118.426C118.696 44.8218 118.915 45.0406 118.915 45.3105V47.0652C118.915 47.3351 118.696 47.5539 118.426 47.5539H104.621C104.351 47.5539 104.132 47.3351 104.132 47.0652V26.0601C104.132 25.7902 104.351 25.5714 104.621 25.5714H118.019C118.289 25.5714 118.508 25.7902 118.508 26.0601V27.8148C118.508 28.0847 118.289 28.3035 118.019 28.3035H107.531C107.261 28.3035 107.042 28.5223 107.042 28.7922V44.3331Z" fill="white" style="fill:white;fill-opacity:1;"/>
<path d="M137.159 47.8051C135.588 47.8051 134.143 47.5329 132.823 46.9886C131.504 46.4234 130.36 45.6383 129.39 44.6334C128.42 43.6075 127.663 42.4142 127.12 41.0533C126.577 39.6925 126.305 38.1956 126.305 36.5626C126.305 34.9297 126.577 33.4328 127.12 32.0719C127.663 30.7111 128.42 29.5283 129.39 28.5233C130.379 27.4975 131.533 26.7124 132.853 26.1681C134.172 25.6028 135.627 25.3202 137.218 25.3202C138.828 25.3202 140.302 25.6028 141.641 26.1681C142.849 26.6781 143.891 27.4182 144.767 28.3884C144.931 28.5699 144.922 28.8456 144.755 29.025L143.596 30.2765C143.404 30.4835 143.078 30.4843 142.873 30.2905C142.14 29.5989 141.351 29.0831 140.506 28.7432C139.536 28.3245 138.479 28.1151 137.334 28.1151C136.17 28.1151 135.084 28.3245 134.075 28.7432C133.085 29.1619 132.222 29.7481 131.485 30.5018C130.767 31.2554 130.204 32.1557 129.797 33.2025C129.409 34.2283 129.215 35.3484 129.215 36.5626C129.215 37.756 129.409 38.876 129.797 39.9228C130.204 40.9487 130.767 41.8489 131.485 42.6235C132.222 43.3772 133.085 43.9634 134.075 44.3821C135.064 44.8008 136.141 45.0102 137.305 45.0102C138.391 45.0102 139.429 44.8322 140.419 44.4763C141.262 44.1612 142.051 43.6778 142.786 43.0261C143.015 42.8237 143.373 42.8543 143.547 43.1048L144.871 45.0102C143.862 45.9314 142.679 46.6327 141.321 47.1142C139.982 47.5748 138.595 47.8051 137.159 47.8051ZM142.495 44.663C142.255 44.628 142.077 44.4221 142.077 44.1795V36.9257C142.077 36.6558 142.296 36.437 142.566 36.437H144.382C144.652 36.437 144.871 36.6558 144.871 36.9257V45.0102L142.495 44.663Z" fill="white" style="fill:white;fill-opacity:1;"/>
<path d="M155.296 47.5539C155.026 47.5539 154.808 47.3351 154.808 47.0652V26.0601C154.808 25.7902 155.026 25.5714 155.296 25.5714H162.752C164.537 25.5714 166.06 25.875 167.321 26.4821C168.582 27.0892 169.552 27.9685 170.231 29.12C170.91 30.2715 171.249 31.6428 171.249 33.2339C171.249 34.825 170.91 36.1963 170.231 37.3477C169.552 38.4783 168.582 39.3471 167.321 39.9542C166.06 40.5614 164.537 40.8649 162.752 40.8649H157.316C156.967 40.8649 156.783 40.4511 157.018 40.1927C157.265 39.9201 157.718 40.0949 157.718 40.4628V47.0652C157.718 47.3351 157.499 47.5539 157.229 47.5539H155.296ZM168.692 47.5539C168.526 47.5539 168.372 47.4701 168.282 47.3313L163.737 40.3322C163.526 40.0071 163.759 39.5774 164.147 39.5774H166.097C166.261 39.5774 166.415 39.6602 166.505 39.7978L171.101 46.7969C171.315 47.1219 171.082 47.5539 170.693 47.5539H168.692ZM157.718 38.6095C157.718 38.9945 157.238 39.1709 156.989 38.8777C156.76 38.609 156.951 38.1956 157.304 38.1956H162.665C164.527 38.1956 165.934 37.7664 166.884 36.9081C167.854 36.0288 168.339 34.804 168.339 33.2339C168.339 31.6637 167.854 30.4494 166.884 29.5911C165.934 28.7327 164.527 28.3035 162.665 28.3035H157.3C156.946 28.3035 156.753 27.8905 156.979 27.6185C157.23 27.3187 157.718 27.4955 157.718 27.886V38.6095Z" fill="white" style="fill:white;fill-opacity:1;"/>
<path d="M189.512 47.8051C187.96 47.8051 186.514 47.5225 185.176 46.9572C183.856 46.3919 182.712 45.6069 181.742 44.6019C180.772 43.5761 180.015 42.3828 179.472 41.0219C178.929 39.6611 178.657 38.1747 178.657 36.5626C178.657 34.9506 178.929 33.4642 179.472 32.1033C180.015 30.7425 180.772 29.5597 181.742 28.5547C182.712 27.5289 183.856 26.7333 185.176 26.1681C186.495 25.6028 187.94 25.3202 189.512 25.3202C191.064 25.3202 192.49 25.6028 193.789 26.1681C195.109 26.7124 196.253 27.4975 197.223 28.5233C198.213 29.5283 198.969 30.7111 199.493 32.0719C200.036 33.4328 200.308 34.9297 200.308 36.5626C200.308 38.1956 200.036 39.6925 199.493 41.0533C198.969 42.4142 198.213 43.6075 197.223 44.6334C196.253 45.6383 195.109 46.4234 193.789 46.9886C192.49 47.5329 191.064 47.8051 189.512 47.8051ZM189.512 45.0102C190.637 45.0102 191.675 44.8008 192.625 44.3821C193.595 43.9634 194.43 43.3772 195.128 42.6235C195.846 41.8489 196.399 40.9487 196.787 39.9228C197.194 38.897 197.398 37.7769 197.398 36.5626C197.398 35.3484 197.194 34.2283 196.787 33.2025C196.399 32.1766 195.846 31.2869 195.128 30.5332C194.43 29.7585 193.595 29.1619 192.625 28.7432C191.675 28.3245 190.637 28.1151 189.512 28.1151C188.367 28.1151 187.31 28.3245 186.34 28.7432C185.389 29.1619 184.555 29.7585 183.837 30.5332C183.119 31.2869 182.557 32.1766 182.149 33.2025C181.761 34.2283 181.567 35.3484 181.567 36.5626C181.567 37.7769 181.761 38.897 182.149 39.9228C182.557 40.9487 183.119 41.8489 183.837 42.6235C184.555 43.3772 185.389 43.9634 186.34 44.3821C187.31 44.8008 188.367 45.0102 189.512 45.0102Z" fill="white" style="fill:white;fill-opacity:1;"/>
<path d="M70.2812 57.708H75.6622V58.5735H73.4514V62.9102H72.4919V58.5735H70.2812V57.708Z" fill="white" style="fill:white;fill-opacity:1;"/>
<path d="M82.0858 57.708H86.7424V58.5735H83.0454V59.8246H86.3755V60.6807H83.0454V62.0354H86.8835V62.9102H82.0858V57.708Z" fill="white" style="fill:white;fill-opacity:1;"/>
<path d="M98.7051 58.8933L97.9619 59.3261C97.5292 58.7365 96.9114 58.4418 96.1087 58.4418C95.5254 58.4418 95.0582 58.6111 94.707 58.9498C94.362 59.2884 94.1896 59.7431 94.1896 60.3138C94.1896 60.8657 94.3652 61.3173 94.7164 61.6685C95.0739 62.0134 95.5379 62.1859 96.1087 62.1859C96.8926 62.1859 97.5103 61.888 97.9619 61.2922L98.7145 61.7343C98.1438 62.6061 97.2814 63.0419 96.1275 63.0419C95.2871 63.0419 94.5941 62.7942 94.0485 62.2988C93.5091 61.8033 93.2394 61.1417 93.2394 60.3138C93.2394 59.486 93.5122 58.8243 94.0579 58.3289C94.6035 57.8334 95.2934 57.5857 96.1275 57.5857C97.294 57.5857 98.1532 58.0216 98.7051 58.8933Z" fill="white" style="fill:white;fill-opacity:1;"/>
<path d="M105.207 57.708H106.167V59.787H109.506V57.708H110.456V62.9102H109.506V60.6431H106.167V62.9102H105.207V57.708Z" fill="white" style="fill:white;fill-opacity:1;"/>
<path d="M117.108 57.708H118.067L121.52 61.5744V57.708H122.47V62.9102H121.501L118.049 59.025V62.9102H117.108V57.708Z" fill="white" style="fill:white;fill-opacity:1;"/>
<path d="M130.502 58.9309C130.138 59.2696 129.956 59.7306 129.956 60.3138C129.956 60.8971 130.138 61.3612 130.502 61.7061C130.872 62.0448 131.339 62.2141 131.903 62.2141C132.468 62.2141 132.935 62.0448 133.305 61.7061C133.675 61.3612 133.86 60.8971 133.86 60.3138C133.86 59.7306 133.675 59.2696 133.305 58.9309C132.935 58.586 132.468 58.4135 131.903 58.4135C131.339 58.4135 130.872 58.586 130.502 58.9309ZM133.973 58.3477C134.531 58.8494 134.81 59.5048 134.81 60.3138C134.81 61.1229 134.531 61.7814 133.973 62.2894C133.415 62.7911 132.725 63.0419 131.903 63.0419C131.082 63.0419 130.392 62.7911 129.834 62.2894C129.276 61.7814 128.997 61.1229 128.997 60.3138C128.997 59.5048 129.276 58.8494 129.834 58.3477C130.392 57.8397 131.082 57.5857 131.903 57.5857C132.725 57.5857 133.415 57.8397 133.973 58.3477Z" fill="white" style="fill:white;fill-opacity:1;"/>
<path d="M141.35 57.708H142.31V62.0448H146.054V62.9102H141.35V57.708Z" fill="white" style="fill:white;fill-opacity:1;"/>
<path d="M153.669 58.9309C153.305 59.2696 153.124 59.7306 153.124 60.3138C153.124 60.8971 153.305 61.3612 153.669 61.7061C154.039 62.0448 154.506 62.2141 155.071 62.2141C155.635 62.2141 156.102 62.0448 156.473 61.7061C156.843 61.3612 157.028 60.8971 157.028 60.3138C157.028 59.7306 156.843 59.2696 156.473 58.9309C156.102 58.586 155.635 58.4135 155.071 58.4135C154.506 58.4135 154.039 58.586 153.669 58.9309ZM157.14 58.3477C157.699 58.8494 157.978 59.5048 157.978 60.3138C157.978 61.1229 157.699 61.7814 157.14 62.2894C156.582 62.7911 155.892 63.0419 155.071 63.0419C154.249 63.0419 153.559 62.7911 153.001 62.2894C152.443 61.7814 152.164 61.1229 152.164 60.3138C152.164 59.5048 152.443 58.8494 153.001 58.3477C153.559 57.8397 154.249 57.5857 155.071 57.5857C155.892 57.5857 156.582 57.8397 157.14 58.3477Z" fill="white" style="fill:white;fill-opacity:1;"/>
<path d="M167.678 59.9563H169.974V62.9102H169.362L169.221 62.4305C168.694 62.8381 168.051 63.0419 167.293 63.0419C166.446 63.0419 165.75 62.7942 165.204 62.2988C164.665 61.8033 164.395 61.1417 164.395 60.3138C164.395 59.486 164.668 58.8243 165.214 58.3289C165.759 57.8334 166.452 57.5857 167.293 57.5857C168.421 57.5857 169.274 58.0028 169.851 58.8369L169.099 59.2696C168.879 58.9874 168.625 58.7836 168.337 58.6581C168.055 58.5264 167.697 58.4606 167.264 58.4606C166.681 58.4606 166.214 58.6268 165.863 58.9592C165.518 59.2916 165.345 59.7431 165.345 60.3138C165.345 60.872 165.521 61.3204 165.872 61.6591C166.23 61.9977 166.694 62.1671 167.264 62.1671C168.023 62.1671 168.619 61.9632 169.052 61.5556V60.7936L167.678 60.7372V59.9563Z" fill="white" style="fill:white;fill-opacity:1;"/>
<path d="M176.648 57.708H177.607V62.9102H176.648V57.708Z" fill="white" style="fill:white;fill-opacity:1;"/>
<path d="M184.249 57.708H188.905V58.5735H185.208V59.8246H188.539V60.6807H185.208V62.0354H189.047V62.9102H184.249V57.708Z" fill="white" style="fill:white;fill-opacity:1;"/>
<path d="M200.492 58.3007L200.031 59.0062C199.441 58.6236 198.748 58.4324 197.952 58.4324C196.986 58.4324 196.503 58.6644 196.503 59.1285C196.503 59.3104 196.572 59.4421 196.71 59.5236C196.848 59.5989 197.052 59.6522 197.322 59.6835L198.94 59.8717C200.094 60.0159 200.671 60.5208 200.671 61.3863C200.671 61.9382 200.432 62.3521 199.956 62.628C199.485 62.904 198.842 63.0419 198.027 63.0419C197.005 63.0419 196.127 62.7785 195.393 62.2517L195.845 61.5086C196.534 61.9726 197.309 62.2047 198.168 62.2047C198.651 62.2047 199.034 62.1388 199.316 62.0071C199.604 61.8692 199.749 61.6685 199.749 61.4051C199.749 61.0351 199.479 60.8218 198.94 60.7654L197.227 60.5772C196.682 60.5145 196.268 60.3703 195.986 60.1445C195.703 59.9187 195.562 59.5832 195.562 59.1379C195.562 58.6299 195.785 58.2442 196.23 57.9808C196.682 57.7174 197.256 57.5857 197.952 57.5857C198.968 57.5857 199.814 57.824 200.492 58.3007Z" fill="white" style="fill:white;fill-opacity:1;"/>
</svg>
