<svg width="138" height="136" viewBox="0 0 138 136" fill="none" xmlns="http://www.w3.org/2000/svg">
<path d="M136.731 3.41732C130.657 1.37253 124.152 0.964437 117.87 2.23409C111.589 3.50376 105.752 6.40636 100.949 10.6495L95.5255 7.97363C95.5255 7.97363 88.456 4.53832 85.0207 11.5897L79.7955 22.2572C79.7955 22.2572 76.3421 29.3086 83.4116 32.7621L88.8356 35.42C88.436 41.8207 89.7293 48.2139 92.586 53.9558C95.4428 59.6975 99.7617 64.5855 105.108 68.1275C105.108 68.1275 106.754 68.9592 108.345 65.7229L118.253 45.4184C120.598 46.5765 123.306 46.7556 125.783 45.9163C128.26 45.077 130.302 43.2883 131.461 40.9433C132.619 38.5986 132.798 35.8896 131.958 33.4127C131.119 30.9358 129.33 28.8938 126.985 27.7357L136.839 7.4312C138.413 4.19478 136.731 3.41732 136.731 3.41732Z" fill="#0CE7E7" style="fill:#0CE7E7;fill:color(display-p3 0.0479 0.9054 0.9054);fill-opacity:1;"/>
<path d="M82.8508 123.201H69.6881C69.5534 120.182 68.2609 117.331 66.0791 115.24C63.8973 113.149 60.994 111.979 57.9721 111.973C56.6138 111.977 55.267 112.222 53.9943 112.696L19.0084 69.9174C19.6148 68.7435 19.9755 67.4583 20.0688 66.1401C20.1621 64.8221 19.9858 63.4988 19.5508 62.2512L66.741 18.858C67.9917 19.4194 69.3475 19.7091 70.7188 19.7078C72.8083 19.712 74.8452 19.0519 76.535 17.8228C78.2249 16.5936 79.4804 14.8591 80.1198 12.8698C80.7594 10.8805 80.7501 8.73936 80.0929 6.7557C79.4361 4.77207 78.1653 3.04867 76.4647 1.8344C74.7641 0.620153 72.7216 -0.0220422 70.6321 0.000577676C68.5427 0.0232258 66.5145 0.709474 64.8405 1.96026C63.1667 3.21104 61.9338 4.96158 61.3199 6.95897C60.7059 8.95638 60.7429 11.0972 61.4252 13.0722L14.2351 56.4655C12.9792 55.9219 11.626 55.6389 10.2574 55.6339C8.93148 55.5768 7.60776 55.7889 6.36592 56.2571C5.12412 56.7253 3.98988 57.44 3.03154 58.3581C2.0732 59.2762 1.31057 60.3787 0.789577 61.5995C0.268583 62.82 0 64.1334 0 65.4606C0 66.7876 0.268583 68.101 0.789577 69.3218C1.31057 70.5423 2.0732 71.6448 3.03154 72.5629C3.98988 73.4812 5.12412 74.1957 6.36592 74.6639C7.60776 75.1321 8.93148 75.3442 10.2574 75.2874C11.1557 75.2877 12.0497 75.166 12.9153 74.9257L47.9191 117.686C46.931 119.333 46.3543 121.193 46.2377 123.11H33.0931C33.0931 123.11 23.9263 123.201 23.9263 132.386V135.007C23.9263 135.007 23.9263 135.206 23.9263 135.55H91.9815C91.9815 135.369 91.9815 135.188 91.9815 135.007V132.386C91.9815 132.386 92.0176 123.201 82.8508 123.201Z" fill="white" style="fill:white;fill-opacity:1;"/>
</svg>
