<svg width="163" height="146" viewBox="0 0 163 146" fill="none" xmlns="http://www.w3.org/2000/svg">
<path fill-rule="evenodd" clip-rule="evenodd" d="M142.628 84.4029C134.092 77.9114 123.186 77.1598 116.182 86.1525C109.178 95.1449 113.796 106.926 122.472 111.611C135.178 118.472 153.522 121.488 157.919 114.778C162.315 108.069 151.302 91.0006 142.628 84.4029Z" fill="url(#paint0_linear_98_3731)" style=""/>
<path fill-rule="evenodd" clip-rule="evenodd" d="M142.628 84.4029C134.092 77.9114 123.186 77.1598 116.182 86.1525C109.178 95.1449 113.796 106.926 122.472 111.611C135.178 118.472 153.522 121.488 157.919 114.778C162.315 108.069 151.302 91.0006 142.628 84.4029Z" fill="url(#paint1_radial_98_3731)" style=""/>
<path fill-rule="evenodd" clip-rule="evenodd" d="M33.7209 97.1353L33.7209 52.4161C33.7209 27.973 53.5656 8.12836 78.0087 8.12836C102.452 8.12836 122.297 27.973 122.297 52.4161L122.297 99.2489C122.297 141.639 33.7209 130.724 33.7209 97.1353Z" fill="url(#paint2_radial_98_3731)" style=""/>
<path fill-rule="evenodd" clip-rule="evenodd" d="M126.034 50.6418L126.034 95.9219C126.034 122.424 104.517 143.941 78.0149 143.941C51.5123 143.941 29.9958 122.424 29.9958 95.9219L29.9958 48.3502C29.9958 44.9752 31.4512 43.0661 34.8981 44.12C39.4838 45.5224 41.4137 47.0214 44.5265 52.8969C47.4052 58.331 57.6685 77.9709 60.0906 81.8744C64.9228 89.6613 72.5944 99.0553 93.5634 99.0553C109.309 99.0553 122.635 86.3709 122.635 72.8003L122.635 45.5224C122.635 43.6156 126.034 46.1455 126.034 50.6418Z" fill="url(#paint3_linear_98_3731)" style=""/>
<path fill-rule="evenodd" clip-rule="evenodd" d="M78.0166 141.378C93.5578 141.378 99.8743 138.682 111.555 130.274C102.898 138.728 91.0611 143.941 78.0166 143.941C65.2971 143.941 53.7261 138.985 45.1309 130.9C53.3691 135.691 61.2717 141.378 78.0166 141.378Z" fill="white" fill-opacity="0.05" style="fill:white;fill-opacity:0.05;"/>
<path fill-rule="evenodd" clip-rule="evenodd" d="M85.3254 115.49C85.1902 116.889 84.9926 122.732 84.9265 123.843C84.8602 124.953 85.6545 125.813 86.5749 126.463C87.4956 127.113 91.1485 129.252 92.4475 129.762C93.7465 130.273 95.1371 130.168 96.2532 129.762C97.3694 129.357 101.723 126.521 102.53 125.76C103.338 124.999 104.104 123.557 104.343 122.165C104.594 120.702 104.873 117.445 104.901 116.558C104.951 114.983 104.814 114.469 103.85 113.499C102.656 112.298 99.6856 110.277 98.3803 109.505C97.1188 108.758 95.1158 108.653 93.4577 109.538C92.1728 110.223 88.2184 112.296 87.0995 113.012C85.9808 113.727 85.4206 114.507 85.3254 115.49Z" fill="url(#paint4_radial_98_3731)" style=""/>
<path fill-rule="evenodd" clip-rule="evenodd" d="M87.7209 115.86C87.6403 116.693 87.5226 120.174 87.4833 120.835C87.4438 121.497 87.9169 122.009 88.4653 122.396C89.0137 122.783 91.1898 124.058 91.9636 124.362C92.7375 124.666 93.5659 124.603 94.2308 124.362C94.8957 124.12 97.4891 122.431 97.9701 121.978C98.4513 121.524 98.9076 120.665 99.05 119.836C99.1997 118.964 99.3656 117.024 99.3823 116.496C99.4122 115.558 99.3304 115.251 98.7563 114.674C98.0449 113.958 96.2755 112.754 95.4979 112.294C94.7464 111.849 93.5532 111.787 92.5654 112.314C91.8 112.722 89.4443 113.957 88.7778 114.383C88.1113 114.809 87.7776 115.274 87.7209 115.86Z" fill="white" style="fill:white;fill-opacity:1;"/>
<path fill-rule="evenodd" clip-rule="evenodd" d="M85.3279 115.49C85.1926 116.889 84.9951 122.732 84.929 123.843C85.153 121.331 85.4291 116.627 85.5419 115.552C85.6736 114.297 86.5697 113.669 87.2372 113.242C88.8184 112.23 92.2885 110.448 93.5312 109.785C94.7971 109.109 96.8932 108.903 98.2328 109.744C99.7863 110.718 102.168 112.262 103.66 113.64C104.64 114.545 104.769 115.026 104.903 116.558C104.954 114.983 104.816 114.469 103.852 113.499C102.658 112.298 99.6881 110.277 98.3828 109.505C97.1213 108.758 95.1182 108.653 93.4602 109.538C92.1753 110.223 88.2209 112.296 87.102 113.012C85.9832 113.727 85.423 114.507 85.3279 115.49Z" fill="#0042C3" style="fill:#0042C3;fill:color(display-p3 0.0000 0.2588 0.7647);fill-opacity:1;"/>
<path fill-rule="evenodd" clip-rule="evenodd" d="M104.901 116.559C104.9 117.803 104.829 119.327 104.53 122.163C104.42 123.207 103.813 125.14 102.633 126.036C100.759 127.46 98.3353 129.173 96.3894 130.002C94.7745 130.69 93.1898 130.391 92.3671 130.005C90.1228 128.953 87.8195 127.505 86.3516 126.602C84.8166 125.658 84.8433 124.783 84.9267 123.844C84.8604 124.954 85.6547 125.814 86.5752 126.464C87.4958 127.114 91.1488 129.253 92.4477 129.763C93.7467 130.274 95.1373 130.169 96.2535 129.763C97.3696 129.358 101.723 126.522 102.531 125.761C103.338 125 104.104 123.558 104.343 122.166C104.595 120.703 104.873 117.446 104.901 116.559Z" fill="#98B5FF" style="fill:#98B5FF;fill:color(display-p3 0.5961 0.7098 1.0000);fill-opacity:1;"/>
<path fill-rule="evenodd" clip-rule="evenodd" d="M29.9958 51.5009L29.9958 48.3484C29.9958 44.9735 31.4514 43.0642 34.8983 44.1185C39.4838 45.5206 41.4138 47.0197 44.5267 52.8953C47.4054 58.3293 57.6685 77.9691 60.0906 81.8726C64.9228 89.6596 72.5942 99.0536 93.5634 99.0536C109.309 99.0536 122.634 86.369 122.634 72.7985L122.634 45.5206C122.634 43.6141 126.034 46.1438 126.034 50.64L126.034 72.5423C126.034 87.819 114.351 102.49 94.051 102.49C70.886 102.49 61.6425 93.3695 56.0149 82.6067C51.4725 73.9191 42.394 56.8354 40.0738 52.574C37.3343 47.5422 34.2148 47.5424 32.1386 47.0157C30.1205 46.5041 29.9958 49.6327 29.9958 51.5009Z" fill="url(#paint5_linear_98_3731)" style=""/>
<path d="M72.7222 72.7386C81.0257 72.7386 87.757 64.4739 87.757 54.2789C87.757 44.0839 81.0257 35.8192 72.7222 35.8192C64.4188 35.8192 57.6875 44.0839 57.6875 54.2789C57.6875 64.4739 64.4188 72.7386 72.7222 72.7386Z" fill="url(#paint6_radial_98_3731)" style=""/>
<path d="M105.458 63.1347C113.343 63.1347 119.735 59.2866 119.735 54.5398C119.735 49.793 113.343 45.9449 105.458 45.9449C97.5729 45.9449 91.1807 49.793 91.1807 54.5398C91.1807 59.2866 97.5729 63.1347 105.458 63.1347Z" fill="url(#paint7_radial_98_3731)" style=""/>
<path d="M72.7185 66.0744C77.1705 66.0744 80.7796 60.7927 80.7796 54.2773C80.7796 47.762 77.1705 42.4802 72.7185 42.4802C68.2665 42.4802 64.6575 47.762 64.6575 54.2773C64.6575 60.7927 68.2665 66.0744 72.7185 66.0744Z" fill="white" style="fill:white;fill-opacity:1;"/>
<path fill-rule="evenodd" clip-rule="evenodd" d="M78.4489 79.0293C80.3069 79.1004 82.1942 79.1757 84.0692 79.2127C85.979 79.2505 87.8698 79.281 89.689 79.2542C91.2521 79.2313 92.7608 79.1659 94.1809 79.0932C96.7989 78.959 99.1099 78.7662 100.913 78.6281C101.489 78.605 101.938 78.1187 101.915 77.5428C101.892 76.9669 101.406 76.5179 100.83 76.5411C99.0293 76.5474 96.7215 76.5084 94.1119 76.5144C92.6953 76.5178 91.1914 76.524 89.6344 76.5644C87.8226 76.6113 85.9417 76.7045 84.0406 76.7869C82.1747 76.8677 80.2966 76.9706 78.4467 77.0458C77.8993 77.0465 77.4554 77.4914 77.4561 78.0388C77.4567 78.5861 77.9017 79.0299 78.4489 79.0293Z" fill="white" style="fill:white;fill-opacity:1;"/>
<path d="M106.061 57.9778C110.095 57.9778 113.366 56.2462 113.366 54.1101C113.366 51.9741 110.095 50.2424 106.061 50.2424C102.026 50.2424 98.7549 51.9741 98.7549 54.1101C98.7549 56.2462 102.026 57.9778 106.061 57.9778Z" fill="white" style="fill:white;fill-opacity:1;"/>
<path d="M32.3585 73.7613C25.5196 77.9818 26.2136 91.5111 33.9086 103.98C41.6035 116.449 53.3855 123.135 60.2243 118.915C67.0632 114.694 66.3692 101.165 58.6743 88.696C50.9793 76.2273 39.1973 69.5408 32.3585 73.7613Z" fill="url(#paint8_radial_98_3731)" style=""/>
<path fill-rule="evenodd" clip-rule="evenodd" d="M19.0386 84.9365C27.574 78.445 38.4807 77.6934 45.4846 86.686C52.4885 95.6784 47.87 107.46 39.1938 112.145C26.4886 119.005 8.14379 122.022 3.74752 115.312C-0.648977 108.602 10.3638 91.5342 19.0386 84.9365Z" fill="url(#paint9_linear_98_3731)" style=""/>
<path fill-rule="evenodd" clip-rule="evenodd" d="M19.0386 84.9365C27.574 78.445 38.4807 77.6934 45.4846 86.686C52.4885 95.6784 47.87 107.46 39.1938 112.145C26.4886 119.005 8.14379 122.022 3.74752 115.312C-0.648977 108.602 10.3638 91.5342 19.0386 84.9365Z" fill="url(#paint10_radial_98_3731)" style=""/>
<defs>
<linearGradient id="paint0_linear_98_3731" x1="140.462" y1="87.9383" x2="124.953" y2="112.712" gradientUnits="userSpaceOnUse">
<stop stop-color="#ACC5FD" style="stop-color:#ACC5FD;stop-color:color(display-p3 0.6745 0.7725 0.9922);stop-opacity:1;"/>
<stop offset="1" stop-color="#3966B8" style="stop-color:#3966B8;stop-color:color(display-p3 0.2235 0.4000 0.7216);stop-opacity:1;"/>
</linearGradient>
<radialGradient id="paint1_radial_98_3731" cx="0" cy="0" r="1" gradientUnits="userSpaceOnUse" gradientTransform="translate(133.216 83.3587) rotate(97.4498) scale(25.5323 25.5323)">
<stop stop-color="#E2E9FA" style="stop-color:#E2E9FA;stop-color:color(display-p3 0.8863 0.9137 0.9804);stop-opacity:1;"/>
<stop offset="0.33" stop-color="#D6E3FF" stop-opacity="0.67" style="stop-color:#D6E3FF;stop-color:color(display-p3 0.8392 0.8902 1.0000);stop-opacity:0.67;"/>
<stop offset="1" stop-color="#8BA9E8" stop-opacity="0" style="stop-color:none;stop-opacity:0;"/>
</radialGradient>
<radialGradient id="paint2_radial_98_3731" cx="0" cy="0" r="1" gradientUnits="userSpaceOnUse" gradientTransform="translate(65.8147 34.0782) rotate(54.7804) scale(71.5218)">
<stop stop-color="#0060D3" style="stop-color:#0060D3;stop-color:color(display-p3 0.0000 0.3765 0.8275);stop-opacity:1;"/>
<stop offset="0.27" stop-color="#004BB4" style="stop-color:#004BB4;stop-color:color(display-p3 0.0000 0.2941 0.7059);stop-opacity:1;"/>
<stop offset="1" stop-color="#002176" style="stop-color:#002176;stop-color:color(display-p3 0.0000 0.1294 0.4627);stop-opacity:1;"/>
</radialGradient>
<linearGradient id="paint3_linear_98_3731" x1="79.7197" y1="145.409" x2="76.8209" y2="61.1952" gradientUnits="userSpaceOnUse">
<stop stop-color="#2667C5" style="stop-color:#2667C5;stop-color:color(display-p3 0.1490 0.4039 0.7725);stop-opacity:1;"/>
<stop offset="1" stop-color="#C2D2F6" style="stop-color:#C2D2F6;stop-color:color(display-p3 0.7608 0.8235 0.9647);stop-opacity:1;"/>
</linearGradient>
<radialGradient id="paint4_radial_98_3731" cx="0" cy="0" r="1" gradientUnits="userSpaceOnUse" gradientTransform="translate(93.5001 118.461) rotate(42.285) scale(9.49717)">
<stop stop-color="white" style="stop-color:white;stop-opacity:1;"/>
<stop offset="1" stop-color="#0040BF" style="stop-color:#0040BF;stop-color:color(display-p3 0.0000 0.2510 0.7490);stop-opacity:1;"/>
</radialGradient>
<linearGradient id="paint5_linear_98_3731" x1="29.9958" y1="81.6321" x2="124.595" y2="83.9336" gradientUnits="userSpaceOnUse">
<stop stop-color="#E6EEFF" style="stop-color:#E6EEFF;stop-color:color(display-p3 0.9020 0.9333 1.0000);stop-opacity:1;"/>
<stop offset="0.2" stop-color="#C2D2F6" style="stop-color:#C2D2F6;stop-color:color(display-p3 0.7608 0.8235 0.9647);stop-opacity:1;"/>
<stop offset="0.5" stop-color="#FCFCFE" style="stop-color:#FCFCFE;stop-color:color(display-p3 0.9882 0.9882 0.9961);stop-opacity:1;"/>
<stop offset="0.8" stop-color="white" style="stop-color:white;stop-opacity:1;"/>
<stop offset="1" stop-color="#E1E9FE" style="stop-color:#E1E9FE;stop-color:color(display-p3 0.8824 0.9137 0.9961);stop-opacity:1;"/>
</linearGradient>
<radialGradient id="paint6_radial_98_3731" cx="0" cy="0" r="1" gradientUnits="userSpaceOnUse" gradientTransform="translate(73.14 53.9927) rotate(91.3981) scale(17.1232 13.1285)">
<stop stop-color="#0038FF" style="stop-color:#0038FF;stop-color:color(display-p3 0.0000 0.2200 1.0000);stop-opacity:1;"/>
<stop offset="0.54" stop-color="#000AFF" stop-opacity="0.21" style="stop-color:#000AFF;stop-color:color(display-p3 0.0000 0.0400 1.0000);stop-opacity:0.21;"/>
<stop offset="1" stop-color="#0038FF" stop-opacity="0" style="stop-color:none;stop-opacity:0;"/>
</radialGradient>
<radialGradient id="paint7_radial_98_3731" cx="0" cy="0" r="1" gradientUnits="userSpaceOnUse" gradientTransform="translate(105.855 54.4065) rotate(92.9823) scale(7.6253 11.8989)">
<stop stop-color="#013D9F" stop-opacity="0.69" style="stop-color:#013D9F;stop-color:color(display-p3 0.0039 0.2392 0.6235);stop-opacity:0.69;"/>
<stop offset="0.54" stop-color="#0038FF" stop-opacity="0.22" style="stop-color:#0038FF;stop-color:color(display-p3 0.0000 0.2200 1.0000);stop-opacity:0.22;"/>
<stop offset="1" stop-color="#013796" stop-opacity="0" style="stop-color:none;stop-opacity:0;"/>
</radialGradient>
<radialGradient id="paint8_radial_98_3731" cx="0" cy="0" r="1" gradientUnits="userSpaceOnUse" gradientTransform="translate(45.2826 96.6303) rotate(-119.618) scale(25.8119 14.1594)">
<stop stop-color="#1D59AD" style="stop-color:#1D59AD;stop-color:color(display-p3 0.1137 0.3490 0.6784);stop-opacity:1;"/>
<stop offset="1" stop-color="#397AD8" stop-opacity="0" style="stop-color:none;stop-opacity:0;"/>
</radialGradient>
<linearGradient id="paint9_linear_98_3731" x1="21.2041" y1="88.4719" x2="36.7137" y2="113.246" gradientUnits="userSpaceOnUse">
<stop stop-color="#ACC5FD" style="stop-color:#ACC5FD;stop-color:color(display-p3 0.6745 0.7725 0.9922);stop-opacity:1;"/>
<stop offset="1" stop-color="#3966B8" style="stop-color:#3966B8;stop-color:color(display-p3 0.2235 0.4000 0.7216);stop-opacity:1;"/>
</linearGradient>
<radialGradient id="paint10_radial_98_3731" cx="0" cy="0" r="1" gradientUnits="userSpaceOnUse" gradientTransform="translate(26.8038 85.3009) rotate(82.5502) scale(25.5323 25.5323)">
<stop stop-color="#E2E9FA" style="stop-color:#E2E9FA;stop-color:color(display-p3 0.8863 0.9137 0.9804);stop-opacity:1;"/>
<stop offset="0.33" stop-color="#D6E3FF" stop-opacity="0.67" style="stop-color:#D6E3FF;stop-color:color(display-p3 0.8392 0.8902 1.0000);stop-opacity:0.67;"/>
<stop offset="1" stop-color="#8BA9E8" stop-opacity="0" style="stop-color:none;stop-opacity:0;"/>
</radialGradient>
</defs>
</svg>
