<svg width="163" height="146" viewBox="0 0 163 146" fill="none" xmlns="http://www.w3.org/2000/svg">
<path fill-rule="evenodd" clip-rule="evenodd" d="M35.0528 94.1803L35.0528 49.5034C35.0528 25.0835 54.9759 5.2577 79.5156 5.2577C104.055 5.2577 123.979 25.0835 123.979 49.5034L123.979 96.2918C123.979 138.642 35.0528 127.737 35.0528 94.1803Z" fill="url(#paint0_radial_92_3666)" style=""/>
<path fill-rule="evenodd" clip-rule="evenodd" d="M127.731 47.7302L127.731 92.9674C127.731 119.445 106.129 140.941 79.5222 140.941C52.915 140.941 31.3135 119.445 31.3135 92.9674L31.3135 45.4407C31.3135 42.069 32.7746 40.1617 36.2351 41.2146C40.8389 42.6156 42.7764 44.1133 45.9016 49.9831C48.7916 55.4121 59.0955 75.0333 61.5271 78.9331C66.3785 86.7127 74.0803 96.0978 95.1322 96.0978C110.94 96.0978 124.318 83.4254 124.318 69.8677L124.318 42.6156C124.318 40.7107 127.731 43.2382 127.731 47.7302Z" fill="url(#paint1_linear_92_3666)" style=""/>
<path fill-rule="evenodd" clip-rule="evenodd" d="M79.5242 138.381C95.1268 138.381 101.468 135.687 113.196 127.287C104.504 135.733 92.6203 140.941 79.5242 140.941C66.7544 140.941 55.1378 135.99 46.5085 127.913C54.7794 132.699 62.7132 138.381 79.5242 138.381Z" fill="white" fill-opacity="0.05" style="fill:white;fill-opacity:0.05;"/>
<path fill-rule="evenodd" clip-rule="evenodd" d="M86.8614 112.518C86.7256 113.915 86.5273 119.753 86.4609 120.862C86.3943 121.972 87.1918 122.831 88.1159 123.48C89.0402 124.129 92.7075 126.266 94.0116 126.776C95.3157 127.286 96.7119 127.181 97.8324 126.776C98.953 126.371 103.324 123.539 104.134 122.778C104.945 122.017 105.714 120.577 105.954 119.187C106.206 117.724 106.486 114.47 106.514 113.585C106.565 112.011 106.427 111.497 105.459 110.529C104.26 109.329 101.278 107.31 99.9679 106.538C98.7014 105.792 96.6905 105.687 95.0258 106.571C93.7359 107.256 89.7659 109.327 88.6425 110.042C87.5194 110.756 86.957 111.535 86.8614 112.518Z" fill="url(#paint2_radial_92_3666)" style=""/>
<path fill-rule="evenodd" clip-rule="evenodd" d="M89.2663 112.887C89.1854 113.719 89.0672 117.197 89.0277 117.858C88.988 118.519 89.4631 119.03 90.0136 119.417C90.5642 119.804 92.7489 121.077 93.5258 121.381C94.3027 121.685 95.1343 121.622 95.8019 121.381C96.4694 121.14 99.0731 119.452 99.556 118.999C100.039 118.546 100.497 117.688 100.64 116.86C100.79 115.988 100.957 114.05 100.974 113.522C101.004 112.585 100.922 112.279 100.345 111.702C99.631 110.987 97.8547 109.784 97.074 109.325C96.3196 108.88 95.1216 108.818 94.13 109.344C93.3615 109.752 90.9965 110.986 90.3273 111.412C89.6582 111.837 89.3232 112.302 89.2663 112.887Z" fill="white" style="fill:white;fill-opacity:1;"/>
<path fill-rule="evenodd" clip-rule="evenodd" d="M86.8641 112.518C86.7283 113.915 86.53 119.753 86.4636 120.862C86.6886 118.353 86.9658 113.654 87.079 112.579C87.2112 111.326 88.1108 110.699 88.781 110.272C90.3684 109.261 93.8522 107.48 95.0998 106.818C96.3708 106.143 98.4752 105.937 99.82 106.777C101.38 107.751 103.771 109.293 105.269 110.67C106.253 111.574 106.382 112.054 106.517 113.585C106.567 112.011 106.429 111.497 105.462 110.529C104.263 109.329 101.281 107.31 99.9706 106.538C98.7041 105.792 96.6932 105.687 95.0285 106.571C93.7386 107.256 89.7686 109.327 88.6452 110.042C87.5221 110.756 86.9597 111.535 86.8641 112.518Z" fill="#0042C3" style="fill:#0042C3;fill:color(display-p3 0.0000 0.2588 0.7647);fill-opacity:1;"/>
<path fill-rule="evenodd" clip-rule="evenodd" d="M106.514 113.584C106.513 114.828 106.442 116.35 106.142 119.183C106.032 120.226 105.422 122.157 104.238 123.053C102.356 124.476 99.9226 126.187 97.969 127.015C96.3477 127.702 94.7567 127.403 93.9308 127.018C91.6777 125.967 89.3653 124.52 87.8915 123.618C86.3504 122.675 86.3773 121.801 86.461 120.862C86.3944 121.972 87.1919 122.831 88.116 123.48C89.0403 124.129 92.7076 126.266 94.0117 126.776C95.3159 127.286 96.712 127.181 97.8325 126.776C98.9531 126.371 103.324 123.539 104.134 122.778C104.945 122.017 105.714 120.577 105.954 119.187C106.207 117.724 106.486 114.47 106.514 113.584Z" fill="#98B5FF" style="fill:#98B5FF;fill:color(display-p3 0.5961 0.7098 1.0000);fill-opacity:1;"/>
<path fill-rule="evenodd" clip-rule="evenodd" d="M31.3135 48.5902L31.3135 45.4407C31.3135 42.069 32.7748 40.1615 36.2353 41.2147C40.8389 42.6155 42.7765 44.1132 45.9017 49.9833C48.7918 55.4122 59.0955 75.0333 61.5272 78.933C66.3784 86.7127 74.0802 96.0978 95.1322 96.0978C110.94 96.0978 124.318 83.4253 124.318 69.8676L124.318 42.6155C124.318 40.7108 127.731 43.2382 127.731 47.7301L127.731 69.6117C127.731 84.8738 116.002 99.5313 95.6217 99.5313C72.3652 99.5313 63.0852 90.4191 57.4353 79.6664C52.875 70.9871 43.7606 53.9196 41.4312 49.6622C38.6809 44.6352 35.5491 44.6354 33.4647 44.1093C31.4387 43.5981 31.3135 46.7237 31.3135 48.5902Z" fill="url(#paint3_linear_92_3666)" style=""/>
<path fill-rule="evenodd" clip-rule="evenodd" d="M78.0805 69.2523C81.1262 70.7791 83.9184 71.9122 86.577 72.5953C88.7275 73.1481 90.7865 73.412 92.7808 73.3935C93.6354 73.3856 94.4797 73.3193 95.3118 73.1928C96.5599 73.0034 97.7847 72.6945 98.9911 72.259C101.684 71.2872 104.285 69.7361 106.961 67.6195C107.324 67.3638 107.41 66.8627 107.153 66.5011C106.896 66.1398 106.393 66.0539 106.029 66.3096C103.343 67.9843 100.777 69.1029 98.2094 69.7794C97.3018 70.0185 96.3959 70.1923 95.4822 70.3227C94.5724 70.4524 93.6561 70.5252 92.7226 70.5543C90.5116 70.6224 88.2124 70.3932 85.7237 69.8293C83.5598 69.339 81.2596 68.6529 78.7796 67.6928C78.3471 67.501 77.8393 67.6944 77.6466 68.1248C77.4536 68.555 77.648 69.0603 78.0805 69.2523Z" fill="white" style="fill:white;fill-opacity:1;"/>
<path fill-rule="evenodd" clip-rule="evenodd" d="M69.256 54.548C71.0376 53.4301 72.9768 52.6281 74.851 52.0942C75.4791 51.9153 76.0968 51.7908 76.6987 51.6858C77.2976 51.5816 77.8781 51.5252 78.4403 51.5142C79.5408 51.4929 80.575 51.603 81.469 52.235C82.0582 52.6518 82.6397 53.1543 83.1141 53.9027C83.3962 54.4977 84.1108 54.7529 84.7088 54.4722C85.3069 54.1914 85.5634 53.4803 85.2813 52.885C84.4706 50.5272 82.9771 49.1283 81.2106 48.3239C80.3851 47.9481 79.474 47.7587 78.52 47.7076C77.684 47.6627 76.8074 47.7523 75.9267 47.961C75.1492 48.1453 74.3635 48.4141 73.5919 48.7792C71.5757 49.7331 69.6337 51.1712 67.9077 52.8475C67.4361 53.218 67.3554 53.8994 67.7274 54.3687C68.0994 54.8379 68.7844 54.9183 69.256 54.548Z" fill="white" style="fill:white;fill-opacity:1;"/>
<path fill-rule="evenodd" clip-rule="evenodd" d="M113.991 52.4933C112.982 50.2957 111.377 48.9169 109.608 48.1196C108.723 47.7212 107.777 47.5377 106.841 47.4866C106.331 47.4587 105.82 47.4873 105.324 47.574C104.568 47.706 103.835 47.9301 103.17 48.2767C101.442 49.1761 100.054 50.5558 99.4194 52.3099C99.1161 52.8949 99.3472 53.6147 99.9347 53.9163C100.522 54.2181 101.246 53.9884 101.549 53.4037C102.118 52.5996 103.008 52.1392 103.954 51.7681C104.486 51.5597 105.056 51.4712 105.638 51.3918C106.01 51.3412 106.387 51.3152 106.768 51.3075C107.707 51.289 108.668 51.3691 109.589 51.7887C110.488 52.1982 111.386 52.7267 112.142 53.636C112.459 54.1439 113.131 54.3001 113.641 53.9847C114.151 53.6693 114.308 53.001 113.991 52.4933Z" fill="white" style="fill:white;fill-opacity:1;"/>
<path fill-rule="evenodd" clip-rule="evenodd" d="M67.8451 44.2875C69.5349 44.3966 71.1729 44.3676 72.7747 44.1737C73.8816 44.0397 74.9643 43.832 76.0185 43.548C76.552 43.4045 77.0765 43.2352 77.5906 43.0457C78.1081 42.8551 78.614 42.6432 79.111 42.4132C80.6127 41.7182 82.0223 40.8963 83.3864 40.0189C83.7078 39.8421 83.8248 39.4389 83.6471 39.1188C83.4694 38.7987 83.0642 38.6823 82.7426 38.8591C81.8872 39.2476 81.0161 39.5937 80.1285 39.9348C79.2609 40.2683 78.381 40.572 77.4859 40.8612C77.0169 41.0129 76.5439 41.1562 76.07 41.3052C75.3676 41.526 74.6607 41.7431 73.9423 41.9447C71.9942 42.4915 69.983 42.9354 67.8393 43.0841C67.5056 43.0858 67.2359 43.3565 67.2376 43.6885C67.2392 44.0208 67.5112 44.2889 67.8451 44.2875Z" fill="white" style="fill:white;fill-opacity:1;"/>
<path fill-rule="evenodd" clip-rule="evenodd" d="M113.172 41.1041C111.622 40.7107 110.144 40.2414 108.715 39.7717C107.874 39.4951 107.059 39.2101 106.264 38.9357C105.71 38.7446 105.167 38.5561 104.634 38.3791C103.784 38.0962 102.964 37.8332 102.184 37.5628C100.842 37.0968 99.6226 36.6552 98.5641 36.1784C98.2415 36.0035 97.837 36.1222 97.6612 36.4432C97.4854 36.7643 97.6047 37.167 97.9274 37.3417C99.1223 38.103 100.528 38.9031 102.147 39.6487C102.62 39.8665 103.111 40.0763 103.621 40.2723C104.109 40.4592 104.613 40.6353 105.133 40.794C106.12 41.0954 107.156 41.3541 108.23 41.5768C109.744 41.8904 111.323 42.1121 112.957 42.2882C113.285 42.3475 113.6 42.1299 113.659 41.8033C113.719 41.4764 113.5 41.1633 113.172 41.1041Z" fill="white" style="fill:white;fill-opacity:1;"/>
<path d="M48.0985 108.892C44.4524 116.054 52.1354 127.22 65.2589 133.833C78.3825 140.445 91.9769 140 95.623 132.838C99.2691 125.675 91.5861 114.509 78.4626 107.896C65.3391 101.284 51.7446 101.73 48.0985 108.892Z" fill="url(#paint4_radial_92_3666)" style=""/>
<path fill-rule="evenodd" clip-rule="evenodd" d="M125.477 97.22C132.261 105.639 133.304 116.592 124.395 123.871C115.485 131.15 103.455 126.808 98.493 118.2C91.2272 105.595 87.701 87.2177 94.3705 82.6214C101.04 78.0249 118.581 88.6632 125.477 97.22Z" fill="url(#paint5_linear_92_3666)" style=""/>
<path fill-rule="evenodd" clip-rule="evenodd" d="M125.477 97.22C132.261 105.639 133.304 116.592 124.395 123.871C115.485 131.15 103.455 126.808 98.493 118.2C91.2272 105.595 87.701 87.2177 94.3705 82.6214C101.04 78.0249 118.581 88.6632 125.477 97.22Z" fill="url(#paint6_radial_92_3666)" style=""/>
<path fill-rule="evenodd" clip-rule="evenodd" d="M64.5948 97.7177C57.7905 106.121 56.7217 117.072 65.614 124.371C74.5061 131.671 86.5469 127.357 91.5289 118.761C98.8244 106.173 102.394 87.8035 95.7352 83.1917C89.0767 78.5797 71.5103 89.177 64.5948 97.7177Z" fill="url(#paint7_linear_92_3666)" style=""/>
<path fill-rule="evenodd" clip-rule="evenodd" d="M64.5948 97.7177C57.7905 106.121 56.7217 117.072 65.614 124.371C74.5061 131.671 86.5469 127.357 91.5289 118.761C98.8244 106.173 102.394 87.8035 95.7352 83.1917C89.0767 78.5797 71.5103 89.177 64.5948 97.7177Z" fill="url(#paint8_radial_92_3666)" style=""/>
<defs>
<radialGradient id="paint0_radial_92_3666" cx="0" cy="0" r="1" gradientUnits="userSpaceOnUse" gradientTransform="translate(67.2734 31.1829) rotate(54.6482) scale(71.5708 71.6873)">
<stop stop-color="#0060D3" style="stop-color:#0060D3;stop-color:color(display-p3 0.0000 0.3765 0.8275);stop-opacity:1;"/>
<stop offset="0.27" stop-color="#004BB4" style="stop-color:#004BB4;stop-color:color(display-p3 0.0000 0.2941 0.7059);stop-opacity:1;"/>
<stop offset="1" stop-color="#002176" style="stop-color:#002176;stop-color:color(display-p3 0.0000 0.1294 0.4627);stop-opacity:1;"/>
</radialGradient>
<linearGradient id="paint1_linear_92_3666" x1="81.2338" y1="142.408" x2="78.3519" y2="58.2726" gradientUnits="userSpaceOnUse">
<stop stop-color="#2667C5" style="stop-color:#2667C5;stop-color:color(display-p3 0.1490 0.4039 0.7725);stop-opacity:1;"/>
<stop offset="1" stop-color="#C2D2F6" style="stop-color:#C2D2F6;stop-color:color(display-p3 0.7608 0.8235 0.9647);stop-opacity:1;"/>
</linearGradient>
<radialGradient id="paint2_radial_92_3666" cx="0" cy="0" r="1" gradientUnits="userSpaceOnUse" gradientTransform="translate(95.0684 115.486) rotate(42.1455) scale(9.51366 9.50914)">
<stop stop-color="#D7E2FF" style="stop-color:#D7E2FF;stop-color:color(display-p3 0.8431 0.8863 1.0000);stop-opacity:1;"/>
<stop offset="1" stop-color="#0040BF" style="stop-color:#0040BF;stop-color:color(display-p3 0.0000 0.2510 0.7490);stop-opacity:1;"/>
</radialGradient>
<linearGradient id="paint3_linear_92_3666" x1="31.3135" y1="78.6928" x2="126.286" y2="81.0147" gradientUnits="userSpaceOnUse">
<stop stop-color="#E6EEFF" style="stop-color:#E6EEFF;stop-color:color(display-p3 0.9020 0.9333 1.0000);stop-opacity:1;"/>
<stop offset="0.2" stop-color="#C2D2F6" style="stop-color:#C2D2F6;stop-color:color(display-p3 0.7608 0.8235 0.9647);stop-opacity:1;"/>
<stop offset="0.5" stop-color="#FCFCFE" style="stop-color:#FCFCFE;stop-color:color(display-p3 0.9882 0.9882 0.9961);stop-opacity:1;"/>
<stop offset="0.8" stop-color="white" style="stop-color:white;stop-opacity:1;"/>
<stop offset="1" stop-color="#E1E9FE" style="stop-color:#E1E9FE;stop-color:color(display-p3 0.8824 0.9137 0.9961);stop-opacity:1;"/>
</linearGradient>
<radialGradient id="paint4_radial_92_3666" cx="0" cy="0" r="1" gradientUnits="userSpaceOnUse" gradientTransform="translate(71.1499 121.64) rotate(-151.202) scale(25.8842 14.1622)">
<stop stop-color="#1D59AD" style="stop-color:#1D59AD;stop-color:color(display-p3 0.1137 0.3490 0.6784);stop-opacity:1;"/>
<stop offset="1" stop-color="#397AD8" stop-opacity="0" style="stop-color:none;stop-opacity:0;"/>
</radialGradient>
<linearGradient id="paint5_linear_92_3666" x1="121.959" y1="99.49" x2="101.976" y2="122.741" gradientUnits="userSpaceOnUse">
<stop stop-color="#ACC5FD" style="stop-color:#ACC5FD;stop-color:color(display-p3 0.6745 0.7725 0.9922);stop-opacity:1;"/>
<stop offset="1" stop-color="#3966B8" style="stop-color:#3966B8;stop-color:color(display-p3 0.2235 0.4000 0.7216);stop-opacity:1;"/>
</linearGradient>
<radialGradient id="paint6_radial_92_3666" cx="0" cy="0" r="1" gradientUnits="userSpaceOnUse" gradientTransform="translate(118.268 90.6103) rotate(135.08) scale(26.0805 26.0804)">
<stop stop-color="#B7CDFF" style="stop-color:#B7CDFF;stop-color:color(display-p3 0.7176 0.8039 1.0000);stop-opacity:1;"/>
<stop offset="0.33" stop-color="#AAC5FF" stop-opacity="0.67" style="stop-color:#AAC5FF;stop-color:color(display-p3 0.6667 0.7725 1.0000);stop-opacity:0.67;"/>
<stop offset="1" stop-color="#8BA9E8" stop-opacity="0" style="stop-color:none;stop-opacity:0;"/>
</radialGradient>
<linearGradient id="paint7_linear_92_3666" x1="68.1074" y1="99.9959" x2="87.0995" y2="118.734" gradientUnits="userSpaceOnUse">
<stop stop-color="#ACC5FD" style="stop-color:#ACC5FD;stop-color:color(display-p3 0.6745 0.7725 0.9922);stop-opacity:1;"/>
<stop offset="1" stop-color="#3966B8" style="stop-color:#3966B8;stop-color:color(display-p3 0.2235 0.4000 0.7216);stop-opacity:1;"/>
</linearGradient>
<radialGradient id="paint8_radial_92_3666" cx="0" cy="0" r="1" gradientUnits="userSpaceOnUse" gradientTransform="translate(71.0954 92.151) rotate(47.1403) scale(25.9869 25.9967)">
<stop stop-color="#CCDCFF" style="stop-color:#CCDCFF;stop-color:color(display-p3 0.8000 0.8627 1.0000);stop-opacity:1;"/>
<stop offset="0.33" stop-color="#B9CFFF" stop-opacity="0.67" style="stop-color:#B9CFFF;stop-color:color(display-p3 0.7255 0.8118 1.0000);stop-opacity:0.67;"/>
<stop offset="1" stop-color="#8BA9E8" stop-opacity="0" style="stop-color:none;stop-opacity:0;"/>
</radialGradient>
</defs>
</svg>
