<svg width="417" height="415" viewBox="0 0 417 415" fill="none" xmlns="http://www.w3.org/2000/svg">
<path d="M0.0923157 412.95L1.82088 308.442H24.3742L37.6264 375.118L51.5782 308.442H73.473L75.2015 412.95H59.5212L58.0808 342.434L44.4171 412.95H31.3295L17.2954 342.066L15.9784 412.95H0.0923157Z" fill="white" style="fill:white;fill-opacity:1;"/>
<path d="M89.7296 412.95V338.307H109.361V350.278C114.011 341.657 119.156 337.368 124.712 337.368C125.617 337.368 126.564 337.531 127.552 337.817V355.916C126.111 355.426 124.547 355.14 122.901 355.14C120.061 355.262 117.592 355.998 115.452 357.305C113.312 358.612 111.254 360.737 109.32 363.597V412.95H89.7296Z" fill="white" style="fill:white;fill-opacity:1;"/>
<path d="M126.811 403.594V403.512C126.811 398.324 131.05 394.156 136.236 394.156C141.462 394.156 145.66 398.365 145.66 403.512V403.594C145.66 408.783 141.421 412.95 136.236 412.95C131.009 412.95 126.811 408.783 126.811 403.594Z" fill="white" style="fill:white;fill-opacity:1;"/>
<path d="M168.214 412.95V308.442H194.883C198.793 308.442 202.25 308.687 205.336 309.137C208.423 309.586 211.386 310.444 214.226 311.629C217.066 312.814 219.453 314.407 221.305 316.409C223.157 318.411 224.638 320.985 225.667 324.212C226.696 327.317 227.19 330.912 227.19 334.998C227.19 335.161 227.19 335.325 227.19 335.488C227.025 348.072 221.881 355.14 211.757 356.774C224.021 358.653 230.236 367.151 230.359 382.227C230.359 382.472 230.359 382.717 230.359 382.921C230.359 392.767 227.766 400.203 222.622 405.228C217.313 410.376 209.658 412.909 199.657 412.909L168.214 412.95ZM189.615 350.645H194.759C200.068 350.645 203.649 349.502 205.624 347.173C207.559 344.844 208.546 341.085 208.546 335.897C208.546 331.076 207.271 327.685 204.76 325.806C202.25 323.926 198.257 322.987 192.866 322.987H189.615V350.645ZM189.615 398.037H195.459C200.85 398.037 204.554 396.771 206.653 394.238C208.752 391.705 209.781 387.66 209.781 382.022C209.781 375.935 208.629 371.563 206.365 368.989C204.102 366.375 200.233 365.067 194.759 365.067H189.574L189.615 398.037Z" fill="white" style="fill:white;fill-opacity:1;"/>
<path d="M265.341 414.216C257.234 414.216 250.978 412.051 246.657 407.679C242.335 403.349 240.195 397.098 240.195 388.927V362.33C240.195 354.241 242.335 347.99 246.657 343.659C250.978 339.329 257.192 337.122 265.341 337.122C273.49 337.122 279.787 339.288 284.149 343.659C288.512 347.99 290.734 354.241 290.734 362.33V388.927C290.734 397.016 288.553 403.267 284.149 407.639C279.787 412.051 273.531 414.216 265.341 414.216ZM265.424 400.857C267.769 400.857 269.333 399.958 270.115 398.16C270.938 396.363 271.309 393.748 271.309 390.316V361.023C271.309 357.55 270.897 354.895 270.115 353.097C269.292 351.299 267.728 350.4 265.424 350.4C263.119 350.4 261.596 351.299 260.814 353.138C260.032 354.976 259.621 357.591 259.621 360.982V390.275C259.621 393.666 260.032 396.281 260.814 398.078C261.596 399.958 263.119 400.857 265.424 400.857Z" fill="white" style="fill:white;fill-opacity:1;"/>
<path d="M302.752 412.95V338.307H322.383V345.661C328.433 339.941 334.524 337.082 340.656 337.082C345.019 337.082 348.311 338.675 350.493 341.821C352.674 345.008 353.785 349.011 353.785 353.832V412.868H334.113V357.387C334.113 355.344 333.783 353.791 333.166 352.77C332.549 351.749 331.355 351.299 329.627 351.34C327.61 351.34 325.182 352.321 322.383 354.322V412.991L302.752 412.95Z" fill="white" style="fill:white;fill-opacity:1;"/>
<path d="M383.458 414.216C371.523 414.216 365.555 405.882 365.555 389.254V362.861C365.555 357.877 366.132 353.505 367.284 349.747C368.436 345.988 370.371 342.965 373.087 340.636C375.803 338.307 379.219 337.122 383.335 337.122C388.273 337.122 392.965 339.043 397.369 342.924V308.442H417V412.95H397.369V407.516C392.924 411.969 388.273 414.175 383.458 414.216ZM391.278 401.102C393.006 401.102 395.064 400.489 397.369 399.222V351.871C395.27 350.605 393.212 349.992 391.278 349.992C389.179 349.992 387.615 350.891 386.668 352.688C385.722 354.486 385.228 356.774 385.228 359.593V390.602C385.228 397.629 387.244 401.102 391.278 401.102Z" fill="white" style="fill:white;fill-opacity:1;"/>
<path d="M207.36 233.181C200.856 233.506 201.036 237.266 200.856 242.833L200.711 253.425L200.675 255.341C200.964 255.378 201.289 255.414 201.615 255.45C205.951 255.956 210.359 256.245 214.731 256.209C215.634 256.209 216.501 256.209 217.405 256.173V254.257L217.549 241.243C217.658 236.941 213.972 232.819 207.36 233.181ZM136.936 68.8396C94.0817 111.714 94.0817 181.232 136.936 224.107C149.582 236.76 164.542 245.689 180.477 250.823C181.344 211.31 178.525 208.49 160.892 190.704L159.158 188.932C158.074 187.848 156.99 186.727 155.797 185.534C143.368 172.881 137.55 160.337 137.911 147.214C137.948 146.094 138.02 144.937 138.164 143.708C139.321 133.586 144.018 124.946 147.993 118.583C154.316 108.425 166.276 96.6034 184.56 82.36C186.764 80.6247 191.353 77.0458 195.869 79.3233C197.062 79.9379 199.808 81.8539 199.663 86.445C199.591 89.3371 198.29 93.4944 196.664 98.7363L195.942 101.122C192.039 113.703 187.523 130.332 186.944 133.043L186.836 133.441C186.547 134.706 186.222 136.225 186.149 137.996C185.933 145.805 192.328 151.697 205.156 155.457C232.183 163.41 238.109 148.407 239.013 145.335C239.952 142.153 241.903 134.272 243.818 126.608L244.396 124.259C246.022 117.824 247.648 111.172 248.913 106.509C250.503 100.688 253.357 97.6156 257.441 97.3987C261.56 97.1456 264.848 99.9654 267.233 105.822C267.486 106.509 273.953 122.668 275.254 129.609C275.29 129.898 275.399 130.368 275.507 130.874L275.543 131.055C276.483 135.682 278.579 146.238 278.253 157.734C278 166.664 276.374 174.436 273.448 181.052C270.521 187.667 266.221 193.09 260.62 197.283C256.971 199.995 253.683 202.272 251.009 204.08C238.362 212.72 233.159 216.299 230.738 237.555C230.16 242.363 229.762 248.147 229.546 255.197C252.454 252.052 274.568 241.713 292.201 224.071C335.055 181.196 360.963 0.0446777 360.963 0.0446777C360.963 0.0446777 179.79 25.9648 136.936 68.8396ZM259.861 134.128C259.103 132.646 255.851 137.454 253.502 143.563C250.973 150.179 247.432 159.47 238.254 162.217C244.541 158.602 248.371 152.999 250.033 147.178C251.045 143.744 252.96 135.863 254.983 127.512C256.682 120.607 258.416 113.486 259.753 108.389C259.825 108.063 259.898 107.774 259.97 107.485C258.85 105.099 257.983 104.593 257.802 104.629C257.621 104.629 256.718 105.316 255.887 108.425C254.514 113.486 252.635 120.969 250.828 128.199C248.769 136.369 246.853 144.069 245.878 147.431C242.409 159.144 229.112 170.134 203.024 162.47C196.52 160.554 191.714 158.168 188.137 155.565C179.609 151.046 176.249 140.49 177.477 132.971C178.851 124.584 186.439 99.7123 185.138 98.8809C184.09 98.194 175.237 103.4 174.695 103.689L192.003 88.3971C192.184 87.5657 192.292 86.8427 192.292 86.3004V86.0112C191.822 86.1558 190.811 86.6619 188.896 88.1802C171.552 101.701 159.808 113.233 154.063 122.523C150.016 128.994 145.355 137.671 145.102 147.504C144.777 158.53 149.944 169.339 160.892 180.545C162.699 182.389 164.361 184.052 165.951 185.643C184.415 204.224 188.534 208.345 187.667 251.003C187.667 251.654 187.667 252.269 187.631 252.955C188.281 253.136 188.896 253.281 189.546 253.425C190.233 253.57 190.883 253.715 191.569 253.859C191.895 253.931 192.22 254.004 192.545 254.04C192.617 254.04 192.653 254.076 192.726 254.076L192.762 252.124C192.762 250.136 192.834 247.352 192.834 246.123C192.87 240.917 193.81 237.266 195.436 234.772C198.471 230.18 203.349 229.457 205.083 229.096C199.772 231.229 194.352 232.422 194.713 245.834L194.749 252.485V254.438C195.074 254.474 195.4 254.546 195.725 254.582C195.725 254.582 195.725 253.823 195.725 252.63C195.725 248.87 195.869 240.809 196.52 238.314C197.568 234.302 200.892 230.253 206.782 230.18C217.224 230.072 220.512 235.314 220.404 241.243L220.259 254.04V254.112V256.028C220.512 256.028 220.765 256.028 221.018 255.992C221.163 255.992 221.271 255.992 221.416 255.956C221.632 255.956 221.849 255.956 222.066 255.92C222.066 255.522 222.066 255.124 222.102 254.691V254.004V253.931L222.247 241.423C222.247 240.845 222.355 238.242 221.452 236.326C219.464 231.988 215.923 229.132 208.371 228.807C209.708 228.048 216.682 227.831 218.995 222.083C220.368 218.721 221.307 212.828 219.211 208.092C218.742 207.008 216.646 204.947 215.273 204.55C221.127 203.429 226.691 203.176 237.676 196.958C249.202 190.451 256.862 182.425 261.018 172.412C267.305 157.626 261.668 137.671 259.861 134.128ZM191.244 205.345C190.449 207.152 191.208 215.648 191.353 217.275C191.027 215.648 189.149 206.466 184.776 200.175C180.115 193.487 168.155 182.389 167.432 181.702C179.971 189.655 184.813 200.175 201.325 203.646C198.688 204.08 192.256 203.031 191.244 205.345ZM245.264 189.981C235.471 197.789 223.222 202.561 210.72 202.344C204.541 202.236 198.326 200.971 192.726 198.295C187.667 195.91 183.367 192.62 179.429 188.607C184.198 192.15 189.257 195.223 194.894 197.066C206.673 200.826 219.248 199.995 230.702 195.476C241.181 191.355 249.961 184.522 257.549 176.135C254.152 181.413 250.105 186.113 245.264 189.981Z" fill="url(#paint0_linear_263_15843)" style=""/>
<defs>
<linearGradient id="paint0_linear_263_15843" x1="206" y1="240" x2="315.397" y2="126.847" gradientUnits="userSpaceOnUse">
<stop offset="0.5899" stop-color="#C40062" style="stop-color:#C40062;stop-color:color(display-p3 0.7686 0.0000 0.3843);stop-opacity:1;"/>
<stop offset="0.59" stop-color="#14C7DC" style="stop-color:#14C7DC;stop-color:color(display-p3 0.0791 0.7800 0.8625);stop-opacity:1;"/>
</linearGradient>
</defs>
</svg>
