<svg width="90" height="90" viewBox="0 0 90 90" fill="none" xmlns="http://www.w3.org/2000/svg">
<rect x="3.78948" y="3.78948" width="81.4738" height="81.4738" rx="40.7369" stroke="url(#paint0_linear_2273_2154)" style="" stroke-width="7.57896"/>
<path fill-rule="evenodd" clip-rule="evenodd" d="M66.2916 35.9554L66.3163 39.0101C66.3049 39.7525 66.1321 40.4359 65.7521 41.0737C65.6518 41.261 65.5058 41.4616 65.3598 41.6621L65.3332 45.1013C65.3487 45.3607 65.2729 45.6466 65.1848 45.8832C64.8872 46.6555 64.2177 47.113 63.438 47.1271L61.5344 47.1493C60.5019 47.1309 59.6389 46.2189 59.656 45.1053L59.6354 43.0524L57.8677 43.0512C56.9126 41.7249 55.6059 40.7239 54.0848 40.2401C53.3416 40.0215 52.5737 39.9339 51.7665 39.9196L50.4851 39.9195L50.3614 39.5722L48.9715 35.8262C48.3719 34.2087 47.3423 32.8329 46.0263 31.9L55.0575 31.9165L58.5983 31.8618C59.1247 31.8536 59.48 31.2788 59.2844 30.7517L58.5047 28.6504C58.3856 28.368 58.2208 28.0989 58.0683 27.879C57.5406 27.1341 56.7086 26.741 55.8833 26.7683L48.3481 26.7813C47.1786 26.8026 46.1347 27.5265 45.6944 28.7096L44.9324 30.7929C44.8772 30.9436 44.867 31.0979 44.8927 31.2416C44.6296 31.1197 44.3585 31.0138 44.0802 30.9254C43.3371 30.7068 42.5691 30.6192 41.7619 30.6048L40.8592 30.6048L40.9601 30.3417L42.1261 27.154C42.2354 26.8057 42.4026 26.4934 42.5697 26.1811C42.9041 25.5566 43.3085 25.0174 43.7832 24.5635C44.0205 24.3365 44.2578 24.1096 44.553 23.9187C45.0978 23.5501 45.6548 23.2308 46.2942 23.046C46.9214 22.812 47.5853 22.7257 48.2736 22.7379L55.7631 22.7381C56.4514 22.7504 57.1063 22.8251 57.74 23.0115C59.6534 23.62 61.1689 25.1881 61.9112 27.1908L63.0965 30.3853L63.7442 32.2042C64.4481 32.476 65.0639 32.9843 65.4758 33.6571C66.0704 34.2772 66.2785 35.1145 66.2916 35.9554ZM61.5726 34.8907C60.4487 34.8987 59.7906 35.7456 59.7981 36.9576C59.8055 38.1697 60.4776 38.9553 61.6014 38.9472C62.6584 39.0641 63.6398 38.1213 63.6398 36.9876C63.6398 35.8539 62.9615 34.9644 61.9167 34.8968C61.865 34.8853 61.8048 34.8895 61.7447 34.8937C61.6845 34.8979 61.6244 34.9021 61.5726 34.8907Z" fill="url(#paint1_linear_2273_2154)" style=""/>
<path fill-rule="evenodd" clip-rule="evenodd" d="M47.6957 39.9195L46.8016 37.5098C46.0592 35.5071 44.5438 33.9389 42.6304 33.3304C41.9967 33.144 41.3417 33.0693 40.6534 33.0571L33.1639 33.0569C32.4756 33.0446 31.8117 33.1309 31.1846 33.3649C30.5452 33.5497 29.9881 33.869 29.4434 34.2376C29.1481 34.4285 28.9108 34.6555 28.6735 34.8824C28.1989 35.3363 27.7944 35.8755 27.4601 36.5001C27.2929 36.8123 27.1257 37.1246 27.0165 37.4729L25.8504 40.6606L25.1671 42.4418C24.814 42.5966 24.4731 42.8007 24.1901 43.0409C23.262 43.837 22.7181 44.9972 22.7378 46.2585L22.7625 49.3132C22.7968 50.0424 22.9804 50.7812 23.3344 51.418C23.429 51.6018 23.5816 51.8217 23.7219 51.9923L23.7409 55.4183C23.7564 55.6777 23.7842 55.9865 23.891 56.2195C24.1659 56.932 24.8396 57.4764 25.6193 57.4622L27.5229 57.4401C28.5554 57.4584 29.4011 56.5278 29.4181 55.4142L29.3976 53.3613L31.07 53.3624C31.2184 53.0939 31.3922 52.8396 31.5893 52.6027C31.833 52.2429 32.1256 51.9147 32.461 51.6269C32.7465 51.3846 33.0823 51.1736 33.4343 51.0038L34.1181 49.2212L35.4855 45.4832C35.6136 45.0747 35.8096 44.7086 36.0056 44.3424C36.243 43.8991 36.5104 43.4924 36.808 43.1224C37.0339 42.801 37.2798 42.5039 37.5457 42.2311L30.5196 42.2182C29.9907 42.2173 29.6286 41.6424 29.8227 41.1118L30.5847 39.0286C31.0251 37.8455 32.0689 37.1215 33.2385 37.1003L40.7736 37.0873C41.599 37.0599 42.4309 37.453 42.9586 38.198C43.1112 38.4178 43.2759 38.687 43.395 38.9693L43.7475 39.9194L47.6957 39.9195ZM27.5733 45.2307C26.5742 45.1499 25.6781 46.1489 25.6781 47.2191C25.6781 48.2894 26.3625 49.2232 27.3616 49.304C27.3844 49.2974 27.4217 49.2998 27.459 49.3023C27.4964 49.3047 27.5337 49.3071 27.5565 49.3005C28.6804 49.2925 29.4262 48.4686 29.4187 47.2565C29.4113 46.0445 28.6972 45.2227 27.5733 45.2307Z" fill="url(#paint2_linear_2273_2154)" style=""/>
<path d="M61.4142 55.1219L61.4389 58.1767C61.4276 58.919 61.2547 59.6025 60.8747 60.2402C60.7744 60.4276 60.6284 60.6281 60.4825 60.8287L60.4558 64.2678C60.4713 64.5273 60.3955 64.8132 60.3074 65.0498C60.0098 65.8221 59.3403 66.2795 58.5606 66.2936L56.657 66.3158C55.6245 66.2974 54.7615 65.3854 54.7786 64.2719L54.758 62.2189L39.6299 62.2089L39.6504 64.2618C39.6334 65.3754 38.7877 66.306 37.7552 66.2877L35.8516 66.3098C35.0719 66.324 34.3982 65.7796 34.1233 65.0671C34.0164 64.8341 33.9887 64.5253 33.9732 64.2659L33.9541 60.8399C33.8139 60.6693 33.6613 60.4494 33.5667 60.2656C33.2127 59.6288 33.0291 58.89 32.9948 58.1608L32.9701 55.1061C32.9504 53.8448 33.4943 52.6846 34.4224 51.8885C34.7054 51.6483 35.0463 51.4442 35.3994 51.2894L36.0827 49.5082L37.2487 46.3205C37.358 45.9722 37.5252 45.6599 37.6923 45.3477C38.0267 44.7231 38.4312 44.1839 38.9058 43.73C39.1431 43.5031 39.3804 43.2761 39.6756 43.0852C40.2204 42.7166 40.7774 42.3973 41.4168 42.2125C42.044 41.9785 42.7079 41.8922 43.3962 41.9045L50.8857 41.9047C51.574 41.9169 52.2289 41.9916 52.8627 42.178C54.7761 42.7865 56.2915 44.3547 57.0339 46.3574L58.2191 49.5519L58.8669 51.3708C59.5707 51.6425 60.1865 52.1508 60.5984 52.8237C61.1931 53.4437 61.4011 54.2811 61.4142 55.1219ZM37.8056 54.0783C36.8065 53.9975 35.9103 54.9965 35.9103 56.0667C35.9103 57.137 36.5948 58.0708 37.5939 58.1516C37.6395 58.1384 37.7431 58.1613 37.7888 58.1481C38.9126 58.1401 39.6584 57.3162 39.651 56.1041C39.6436 54.8921 38.9294 54.0703 37.8056 54.0783ZM53.721 51.0283C54.2473 51.0202 54.6026 50.4454 54.407 49.9183L53.6273 47.8169C53.5082 47.5346 53.3434 47.2655 53.1909 47.0456C52.6632 46.3006 51.8312 45.9075 51.0059 45.9349L43.4708 45.9479C42.3012 45.9691 41.2573 46.6931 40.817 47.8762L40.055 49.9594C39.8609 50.49 40.223 51.0649 40.7519 51.0658L50.1801 51.0831L53.721 51.0283ZM56.6952 54.0572C55.5713 54.0652 54.9132 54.9121 54.9207 56.1242C54.9281 57.3362 55.6002 58.1218 56.7241 58.1138C57.7811 58.2307 58.7624 57.2879 58.7624 56.1542C58.7624 55.0204 58.0841 54.131 57.0394 54.0633C56.9358 54.0405 56.7988 54.0801 56.6952 54.0572Z" fill="url(#paint3_linear_2273_2154)" style=""/>
<defs>
<linearGradient id="paint0_linear_2273_2154" x1="44.5264" y1="0" x2="44.5264" y2="89.0527" gradientUnits="userSpaceOnUse">
<stop stop-color="#1171D8" style="stop-color:#1171D8;stop-color:color(display-p3 0.0667 0.4431 0.8471);stop-opacity:1;"/>
<stop offset="1" stop-color="#0F4483" style="stop-color:#0F4483;stop-color:color(display-p3 0.0588 0.2667 0.5137);stop-opacity:1;"/>
</linearGradient>
<linearGradient id="paint1_linear_2273_2154" x1="44.5268" y1="22.7368" x2="44.5268" y2="66.3158" gradientUnits="userSpaceOnUse">
<stop stop-color="#1171D8" style="stop-color:#1171D8;stop-color:color(display-p3 0.0667 0.4431 0.8471);stop-opacity:1;"/>
<stop offset="1" stop-color="#0F4483" style="stop-color:#0F4483;stop-color:color(display-p3 0.0588 0.2667 0.5137);stop-opacity:1;"/>
</linearGradient>
<linearGradient id="paint2_linear_2273_2154" x1="44.5268" y1="22.7368" x2="44.5268" y2="66.3158" gradientUnits="userSpaceOnUse">
<stop stop-color="#1171D8" style="stop-color:#1171D8;stop-color:color(display-p3 0.0667 0.4431 0.8471);stop-opacity:1;"/>
<stop offset="1" stop-color="#0F4483" style="stop-color:#0F4483;stop-color:color(display-p3 0.0588 0.2667 0.5137);stop-opacity:1;"/>
</linearGradient>
<linearGradient id="paint3_linear_2273_2154" x1="44.5268" y1="22.7368" x2="44.5268" y2="66.3158" gradientUnits="userSpaceOnUse">
<stop stop-color="#1171D8" style="stop-color:#1171D8;stop-color:color(display-p3 0.0667 0.4431 0.8471);stop-opacity:1;"/>
<stop offset="1" stop-color="#0F4483" style="stop-color:#0F4483;stop-color:color(display-p3 0.0588 0.2667 0.5137);stop-opacity:1;"/>
</linearGradient>
</defs>
</svg>
