<svg width="43" height="45" viewBox="0 0 43 45" fill="none" xmlns="http://www.w3.org/2000/svg">
<g clip-path="url(#clip0_32_59820)">
<path d="M16.8678 34.2465L22.3523 28.762L16.8678 23.2775L11.3833 28.762L16.8678 34.2465Z" fill="white" style="fill:white;fill-opacity:1;"/>
<path d="M16.9043 10.7484L21.0532 6.59949L16.9043 2.4506L12.7555 6.59949L16.9043 10.7484Z" fill="white" style="fill:white;fill-opacity:1;"/>
<path d="M5.84045 34.2094L11.325 28.7249L5.84045 23.2404L0.355949 28.7249L5.84045 34.2094Z" fill="white" style="fill:white;fill-opacity:1;"/>
<path d="M5.84045 12.084L11.325 6.59949L5.84045 1.11499L0.355948 6.59949L5.84045 12.084Z" fill="white" style="fill:white;fill-opacity:1;"/>
<path d="M16.8677 43.7013L20.686 39.883L16.8677 36.0647L13.0495 39.883L16.8677 43.7013Z" fill="white" style="fill:white;fill-opacity:1;"/>
<path d="M16.8679 21.8673L21.0161 17.7191L16.8679 13.5709L12.7197 17.7191L16.8679 21.8673Z" fill="white" style="fill:white;fill-opacity:1;"/>
<path d="M5.8429 43.5225L9.57715 39.7883L5.8429 36.054L2.10865 39.7883L5.8429 43.5225Z" fill="white" style="fill:white;fill-opacity:1;"/>
<path d="M5.84045 23.1472L11.325 17.6627L5.84045 12.1782L0.355947 17.6627L5.84045 23.1472Z" fill="white" style="fill:white;fill-opacity:1;"/>
<path d="M27.8896 30.1848L29.2727 28.8017L27.8896 27.4186L26.5064 28.8017L27.8896 30.1848Z" fill="white" style="fill:white;fill-opacity:1;"/>
<path d="M27.8897 9.44235L30.6558 6.67633L27.8897 3.91032L25.1237 6.67633L27.8897 9.44235Z" fill="white" style="fill:white;fill-opacity:1;"/>
<path d="M38.9828 30.1848L40.366 28.8017L38.9828 27.4186L37.5997 28.8017L38.9828 30.1848Z" fill="white" style="fill:white;fill-opacity:1;"/>
<path d="M33.4513 35.6876L34.8345 34.3044L33.4513 32.9213L32.0682 34.3044L33.4513 35.6876Z" fill="white" style="fill:white;fill-opacity:1;"/>
<path d="M23.7709 35.6876L25.1541 34.3044L23.7709 32.9213L22.3878 34.3044L23.7709 35.6876Z" fill="white" style="fill:white;fill-opacity:1;"/>
<path d="M38.9827 9.41264L41.719 6.67633L38.9827 3.94003L36.2464 6.67633L38.9827 9.41264Z" fill="white" style="fill:white;fill-opacity:1;"/>
<path d="M27.8896 41.2192L29.2727 39.8361L27.8896 38.453L26.5064 39.8361L27.8896 41.2192Z" fill="white" style="fill:white;fill-opacity:1;"/>
<path d="M27.8901 20.5053L30.6858 17.7095L27.8901 14.9138L25.0943 17.7095L27.8901 20.5053Z" fill="white" style="fill:white;fill-opacity:1;"/>
<path d="M38.9828 41.2192L40.366 39.8361L38.9828 38.453L37.5997 39.8361L38.9828 41.2192Z" fill="white" style="fill:white;fill-opacity:1;"/>
<path d="M38.983 20.4755L41.749 17.7095L38.983 14.9435L36.217 17.7095L38.983 20.4755Z" fill="white" style="fill:white;fill-opacity:1;"/>
<path d="M33.4513 14.9439L36.2173 12.1779L33.4513 9.4119L30.6853 12.1779L33.4513 14.9439Z" fill="white" style="fill:white;fill-opacity:1;"/>
<path d="M33.4513 26.0072L36.2173 23.2411L33.4513 20.4751L30.6853 23.2411L33.4513 26.0072Z" fill="white" style="fill:white;fill-opacity:1;"/>
<path d="M23.7708 26.0072L26.5369 23.2411L23.7709 20.4751L21.0048 23.2412L23.7708 26.0072Z" fill="white" style="fill:white;fill-opacity:1;"/>
<path d="M22.388 14.9439L25.1541 12.1779L22.388 9.4119L19.622 12.1779L22.388 14.9439Z" fill="white" style="fill:white;fill-opacity:1;"/>
</g>
<defs>
<clipPath id="clip0_32_59820">
<rect width="41.7947" height="44.2532" fill="white" style="fill:white;fill-opacity:1;" transform="translate(0.356445 0.281555)"/>
</clipPath>
</defs>
</svg>
