<svg width="61" height="61" viewBox="0 0 61 61" fill="none" xmlns="http://www.w3.org/2000/svg">
<g clip-path="url(#clip0_2248_47)">
<path d="M18.8242 35.4361L26.5805 35.4361V27.6799L18.8242 27.6799L18.8242 35.4361Z" fill="white" style="fill:white;fill-opacity:1;"/>
<path d="M35.4657 18.8462L41.3331 18.8462L41.3331 12.9788L35.4658 12.9789L35.4657 18.8462Z" fill="white" style="fill:white;fill-opacity:1;"/>
<path d="M11.053 27.6122L18.8093 27.6122L18.8092 19.8559L11.053 19.8559L11.053 27.6122Z" fill="white" style="fill:white;fill-opacity:1;"/>
<path d="M26.6979 11.9674L34.4542 11.9674L34.4542 4.21114L26.6979 4.21114L26.6979 11.9674Z" fill="white" style="fill:white;fill-opacity:1;"/>
<path d="M12.1386 42.1217L17.5385 42.1217L17.5384 36.7218L12.1386 36.7219L12.1386 42.1217Z" fill="white" style="fill:white;fill-opacity:1;"/>
<path d="M27.5777 26.6827L33.4441 26.6827L33.4441 20.8163L27.5777 20.8163V26.6827Z" fill="white" style="fill:white;fill-opacity:1;"/>
<path d="M4.46918 34.1996L9.75017 34.1997L9.75021 28.9186L4.46914 28.9186L4.46918 34.1996Z" fill="white" style="fill:white;fill-opacity:1;"/>
<path d="M18.8751 19.7901L26.6313 19.7902L26.6313 12.0339L18.8751 12.0339L18.8751 19.7901Z" fill="white" style="fill:white;fill-opacity:1;"/>
<path d="M29.4897 40.3577H31.4457L31.4457 38.4017L29.4897 38.4016L29.4897 40.3577Z" fill="white" style="fill:white;fill-opacity:1;"/>
<path d="M44.157 25.6906L48.0688 25.6906L48.0688 21.7789L44.1571 21.7789L44.157 25.6906Z" fill="white" style="fill:white;fill-opacity:1;"/>
<path d="M37.3339 48.2018L39.29 48.2019L39.2899 46.2458H37.3339L37.3339 48.2018Z" fill="white" style="fill:white;fill-opacity:1;"/>
<path d="M29.5315 48.1814L31.4877 48.1814L31.4876 46.2253L29.5316 46.2253L29.5315 48.1814Z" fill="white" style="fill:white;fill-opacity:1;"/>
<path d="M22.6864 41.3362L24.6426 41.3362L24.6425 39.3801L22.6865 39.3801L22.6864 41.3362Z" fill="white" style="fill:white;fill-opacity:1;"/>
<path d="M52.022 33.5136L55.8917 33.5136L55.8917 29.6438L52.022 29.6438L52.022 33.5136Z" fill="white" style="fill:white;fill-opacity:1;"/>
<path d="M21.6872 48.1601L23.6432 48.1601L23.6432 46.2041L21.6872 46.2041L21.6872 48.1601Z" fill="white" style="fill:white;fill-opacity:1;"/>
<path d="M36.3347 33.5137L40.2885 33.5137V29.5599L36.3347 29.5599V33.5137Z" fill="white" style="fill:white;fill-opacity:1;"/>
<path d="M29.5314 56.0043L31.4875 56.0044L31.4874 54.0483H29.5314L29.5314 56.0043Z" fill="white" style="fill:white;fill-opacity:1;"/>
<path d="M44.1996 41.3363L48.1113 41.3363L48.1113 37.4246L44.1996 37.4246L44.1996 41.3363Z" fill="white" style="fill:white;fill-opacity:1;"/>
<path d="M44.1995 33.5133L48.1112 33.5133L48.1112 29.6016L44.1995 29.6016L44.1995 33.5133Z" fill="white" style="fill:white;fill-opacity:1;"/>
<path d="M36.3765 41.3364L40.2883 41.3363L40.2883 37.4246H36.3766L36.3765 41.3364Z" fill="white" style="fill:white;fill-opacity:1;"/>
<path d="M29.5313 34.4912H33.4432L33.4432 30.5795H29.5313L29.5313 34.4912Z" fill="white" style="fill:white;fill-opacity:1;"/>
<path d="M36.3767 25.6905L40.2885 25.6906L40.2884 21.7789L36.3767 21.7788L36.3767 25.6905Z" fill="white" style="fill:white;fill-opacity:1;"/>
</g>
<defs>
<clipPath id="clip0_2248_47">
<rect width="42" height="43" fill="white" style="fill:white;fill-opacity:1;" transform="translate(30.4056) rotate(45)"/>
</clipPath>
</defs>
</svg>
