<svg width="62" height="44" viewBox="0 0 62 44" fill="none" xmlns="http://www.w3.org/2000/svg">
<g clip-path="url(#clip0_159_97)">
<path fill-rule="evenodd" clip-rule="evenodd" d="M21.9427 4.63159H8.72924C7.19723 4.63159 6.62273 5.17139 6.33547 6.69267L2.75447 27.5818C2.62574 28.3328 3.18942 29.0209 3.93329 29.0209H17.8256C25.294 29.0209 30.7039 25.3895 32.0445 17.636C33.3371 9.83334 29.4113 4.63159 21.9427 4.63159ZM13.4688 20.4331H18.1606C20.4107 20.4331 21.9906 19.01 22.3736 16.8509C22.7566 14.6916 21.7034 13.2194 19.4054 13.2194H14.7136L13.4688 20.4331Z" fill="white" style="fill:white;fill-opacity:1;"/>
<path d="M1.64319 34.0152C1.80545 33.078 2.6002 32.3951 3.52873 32.3951H10.0159C10.7606 32.3951 11.3245 33.0848 11.1944 33.8364L10.5025 37.8322C10.3403 38.7692 9.54555 39.452 8.617 39.452H2.12983C1.38513 39.452 0.821232 38.7624 0.951364 38.0108L1.64319 34.0152Z" fill="white" style="fill:white;fill-opacity:1;"/>
<path d="M37.358 6.2515C37.5203 5.31438 38.315 4.63159 39.2436 4.63159H60.4524C61.197 4.63159 61.7609 5.32122 61.6308 6.0728L60.939 10.0685C60.7768 11.0056 59.982 11.6884 59.0534 11.6884H37.8446C37.1 11.6884 36.5361 10.9988 36.6662 10.2472L37.358 6.2515Z" fill="white" style="fill:white;fill-opacity:1;"/>
<path fill-rule="evenodd" clip-rule="evenodd" d="M51.0985 15.0626H37.885C36.353 15.0626 35.7784 15.6024 35.4912 17.1237L31.9102 38.0128C31.7815 38.7637 32.3451 39.4519 33.089 39.4519H46.9812C54.4497 39.4519 59.8597 35.8205 61.2002 28.0669C62.4928 20.2643 58.567 15.0626 51.0985 15.0626ZM42.6007 30.8642H47.2925C49.5426 30.8642 51.1225 29.441 51.5055 27.2818C51.8885 25.1225 50.8353 23.6504 48.5373 23.6504H43.8455L42.6007 30.8642Z" fill="white" style="fill:white;fill-opacity:1;"/>
</g>
<defs>
<clipPath id="clip0_159_97">
<rect width="61" height="44" fill="white" style="fill:white;fill-opacity:1;" transform="translate(0.932617)"/>
</clipPath>
</defs>
</svg>
