<svg width="72" height="83" viewBox="0 0 72 83" fill="none" xmlns="http://www.w3.org/2000/svg">
<path d="M5.07007 30.1466V14.8811H44.1366V30.1466H33.6313V56.4097H15.2471V30.1466H5.07007Z" fill="#00E8FF" style="fill:#00E8FF;fill:color(display-p3 0.0000 0.9098 1.0000);fill-opacity:1;"/>
<path d="M27.5007 30.1466V14.8811H66.5672V30.1466H56.062V56.4097H37.6777V30.1466H27.5007Z" fill="#0074FF" style="fill:#0074FF;fill:color(display-p3 0.0000 0.4549 1.0000);fill-opacity:1;"/>
<path d="M16.2854 30.1466V14.8811H55.3519V30.1466H44.8466V56.4097H26.4624V30.1466H16.2854Z" fill="#00B3FF" style="fill:#00B3FF;fill:color(display-p3 0.0000 0.7020 1.0000);fill-opacity:1;"/>
<path d="M5.07007 73.5472V71.1258H14.6907V73.5472H11.3613V82.195H8.39946V73.5472H5.07007Z" fill="black" style="fill:black;fill-opacity:1;"/>
<path d="M16.2783 82.195V71.1258H24.2558V73.5472H19.2834V75.4497H23.8451V77.8711H19.2834V79.7736H24.2342V82.195H16.2783Z" fill="black" style="fill:black;fill-opacity:1;"/>
<path d="M32.1698 74.5849C32.1409 74.2246 32.0058 73.9436 31.7644 73.7418C31.5266 73.54 31.1645 73.4391 30.678 73.4391C30.3682 73.4391 30.1141 73.4769 29.9159 73.5526C29.7214 73.6247 29.5772 73.7238 29.4836 73.8499C29.3899 73.976 29.3412 74.1201 29.3376 74.2823C29.3304 74.4156 29.3538 74.5363 29.4079 74.6444C29.4655 74.7489 29.5556 74.8444 29.6781 74.9308C29.8006 75.0137 29.9574 75.0894 30.1484 75.1578C30.3393 75.2263 30.5663 75.2876 30.8294 75.3416L31.7374 75.5362C32.3499 75.6659 32.8742 75.8371 33.3102 76.0496C33.7462 76.2622 34.1029 76.5127 34.3804 76.8009C34.6578 77.0856 34.8614 77.4063 34.9911 77.763C35.1244 78.1197 35.1929 78.5088 35.1965 78.9304C35.1929 79.6583 35.0109 80.2744 34.6506 80.7789C34.2903 81.2833 33.775 81.6671 33.1048 81.9301C32.4382 82.1932 31.6365 82.3247 30.6997 82.3247C29.7376 82.3247 28.898 82.1823 28.181 81.8977C27.4676 81.613 26.9127 81.1752 26.5163 80.5843C26.1235 79.9898 25.9254 79.2295 25.9218 78.3035H28.7755C28.7935 78.6422 28.8782 78.9268 29.0296 79.1574C29.1809 79.388 29.3935 79.5628 29.6673 79.6817C29.9448 79.8006 30.2745 79.8601 30.6564 79.8601C30.9771 79.8601 31.2455 79.8204 31.4617 79.7412C31.6779 79.6619 31.8419 79.552 31.9536 79.4115C32.0653 79.2709 32.1229 79.1106 32.1265 78.9304C32.1229 78.7611 32.0671 78.6133 31.959 78.4872C31.8545 78.3575 31.6815 78.2422 31.4401 78.1413C31.1987 78.0368 30.8726 77.9395 30.4618 77.8495L29.3592 77.6116C28.3792 77.3991 27.6063 77.0441 27.0406 76.5469C26.4785 76.046 26.1992 75.3632 26.2028 74.4985C26.1992 73.7958 26.3866 73.1815 26.7649 72.6554C27.1469 72.1257 27.6747 71.7132 28.3485 71.4177C29.026 71.1222 29.8024 70.9745 30.678 70.9745C31.5716 70.9745 32.3445 71.124 32.9967 71.4231C33.6489 71.7222 34.1515 72.1437 34.5047 72.6878C34.8614 73.2283 35.0415 73.8607 35.0452 74.5849H32.1698Z" fill="black" style="fill:black;fill-opacity:1;"/>
<path d="M42.7632 74.5849C42.7343 74.2246 42.5992 73.9436 42.3578 73.7418C42.12 73.54 41.7579 73.4391 41.2714 73.4391C40.9616 73.4391 40.7075 73.4769 40.5093 73.5526C40.3148 73.6247 40.1706 73.7238 40.077 73.8499C39.9833 73.976 39.9346 74.1201 39.931 74.2823C39.9238 74.4156 39.9472 74.5363 40.0013 74.6444C40.0589 74.7489 40.149 74.8444 40.2715 74.9308C40.394 75.0137 40.5508 75.0894 40.7418 75.1578C40.9327 75.2263 41.1597 75.2876 41.4228 75.3416L42.3308 75.5362C42.9433 75.6659 43.4676 75.8371 43.9036 76.0496C44.3396 76.2622 44.6963 76.5127 44.9738 76.8009C45.2512 77.0856 45.4548 77.4063 45.5845 77.763C45.7178 78.1197 45.7863 78.5088 45.7899 78.9304C45.7863 79.6583 45.6043 80.2744 45.244 80.7789C44.8837 81.2833 44.3684 81.6671 43.6982 81.9301C43.0316 82.1932 42.2299 82.3247 41.2931 82.3247C40.331 82.3247 39.4914 82.1823 38.7744 81.8977C38.0609 81.613 37.5061 81.1752 37.1097 80.5843C36.7169 79.9898 36.5188 79.2295 36.5152 78.3035H39.3689C39.3869 78.6422 39.4716 78.9268 39.623 79.1574C39.7743 79.388 39.9869 79.5628 40.2607 79.6817C40.5382 79.8006 40.8679 79.8601 41.2498 79.8601C41.5705 79.8601 41.8389 79.8204 42.0551 79.7412C42.2713 79.6619 42.4353 79.552 42.547 79.4115C42.6587 79.2709 42.7163 79.1106 42.7199 78.9304C42.7163 78.7611 42.6605 78.6133 42.5524 78.4872C42.4479 78.3575 42.2749 78.2422 42.0335 78.1413C41.7921 78.0368 41.466 77.9395 41.0552 77.8495L39.9526 77.6116C38.9726 77.3991 38.1997 77.0441 37.634 76.5469C37.0719 76.046 36.7926 75.3632 36.7962 74.4985C36.7926 73.7958 36.98 73.1815 37.3583 72.6554C37.7403 72.1257 38.2681 71.7132 38.9419 71.4177C39.6193 71.1222 40.3958 70.9745 41.2714 70.9745C42.165 70.9745 42.9379 71.124 43.5901 71.4231C44.2423 71.7222 44.7449 72.1437 45.0981 72.6878C45.4548 73.2283 45.6349 73.8607 45.6386 74.5849H42.7632Z" fill="black" style="fill:black;fill-opacity:1;"/>
<path d="M47.3896 82.195V71.1258H55.3672V73.5472H50.3947V75.4497H54.9564V77.8711H50.3947V79.7736H55.3455V82.195H47.3896Z" fill="black" style="fill:black;fill-opacity:1;"/>
<path d="M57.3142 82.195V71.1258H62.092C62.9136 71.1258 63.6324 71.2754 64.2486 71.5744C64.8647 71.8735 65.344 72.3041 65.6863 72.8662C66.0286 73.4283 66.1997 74.1021 66.1997 74.8876C66.1997 75.6803 66.0232 76.3487 65.6701 76.8928C65.3205 77.4369 64.8287 77.8477 64.1945 78.1251C63.564 78.4026 62.8271 78.5413 61.984 78.5413H59.1302V76.2064H61.3786C61.7317 76.2064 62.0326 76.1631 62.2812 76.0767C62.5334 75.9866 62.7262 75.8443 62.8595 75.6497C62.9965 75.4551 63.0649 75.2011 63.0649 74.8876C63.0649 74.5705 62.9965 74.3129 62.8595 74.1147C62.7262 73.9129 62.5334 73.7652 62.2812 73.6715C62.0326 73.5742 61.7317 73.5256 61.3786 73.5256H60.3193V82.195H57.3142ZM63.8 77.1144L66.5673 82.195H63.3027L60.6003 77.1144H63.8Z" fill="black" style="fill:black;fill-opacity:1;"/>
</svg>
