<svg width="184" height="184" viewBox="0 0 184 184" fill="none" xmlns="http://www.w3.org/2000/svg">
<g clip-path="url(#clip0_158_92)">
<path d="M184 0H0V184H184V0Z" fill="#50BCB6" style="fill:#50BCB6;fill:color(display-p3 0.3137 0.7373 0.7137);fill-opacity:1;"/>
<path d="M184 184V98.8391L127.682 51.0253H62.9786L60.3025 73.2076L91.9405 100.028V132.975H72.6128L132.499 184H184Z" fill="url(#paint0_linear_158_92)" style=""/>
<path d="M127.682 73.2076H123.698C123.4 71.7803 122.687 70.2341 121.795 68.331C120.903 66.428 119.892 64.6439 118.821 62.9193C117.632 61.1352 116.442 59.6484 115.015 58.2211C113.588 56.9128 112.339 56.1397 111.03 55.9018C109.841 55.7234 108.354 55.6045 106.511 55.6045C104.667 55.6045 103.002 55.4855 101.515 55.4855H98.1255V121.081C98.1255 122.389 98.4229 123.46 98.8986 124.59C99.3744 125.72 100.385 126.493 101.694 127.087C102.407 127.385 103.894 127.682 106.094 128.158C108.295 128.634 109.96 128.871 111.268 128.931V133.034H72.5534V128.931C73.6239 128.812 75.2296 128.752 77.43 128.455C79.6304 128.277 81.236 127.979 82.0092 127.563C83.3175 127.087 84.2096 126.374 84.8043 125.363C85.399 124.352 85.6963 123.162 85.6963 121.557V55.4855H82.3065C81.1171 55.4855 79.6304 55.4855 77.7868 55.6045C76.0027 55.7234 74.2781 55.7829 72.6724 56.0207C71.364 56.1992 70.0557 56.9128 68.6879 58.3401C67.2606 59.7673 66.0712 61.2541 64.8818 63.0382C63.6924 64.7628 62.6814 66.6064 61.7894 68.5094C60.8973 70.4125 60.3026 72.0776 59.8863 73.3265H55.9019V51.0253H127.385V73.2076H127.682Z" fill="white" style="fill:white;fill-opacity:1;"/>
</g>
<defs>
<linearGradient id="paint0_linear_158_92" x1="231.406" y1="235.119" x2="103.726" y2="87.5117" gradientUnits="userSpaceOnUse">
<stop offset="0.2945" stop-color="#50BCB6" stop-opacity="0" style="stop-color:none;stop-opacity:0;"/>
<stop offset="0.5125" stop-color="#50BCB6" stop-opacity="0.756" style="stop-color:#50BCB6;stop-color:color(display-p3 0.3137 0.7373 0.7137);stop-opacity:0.756;"/>
<stop offset="0.8885" stop-color="#01999A" style="stop-color:#01999A;stop-color:color(display-p3 0.0039 0.6000 0.6039);stop-opacity:1;"/>
</linearGradient>
<clipPath id="clip0_158_92">
<rect width="184" height="184" fill="white" style="fill:white;fill-opacity:1;"/>
</clipPath>
</defs>
</svg>
