<svg width="27" height="24" viewBox="0 0 27 24" fill="none" xmlns="http://www.w3.org/2000/svg">
<path d="M24.7901 0.276805C24.4691 0.30016 24.154 0.375473 23.8571 0.499805H23.8531C23.5681 0.612805 22.2131 1.1828 20.1531 2.0468L12.7711 5.1558C7.47409 7.3858 2.26709 9.5818 2.26709 9.5818L2.32909 9.55781C2.32909 9.55781 1.97009 9.67581 1.59509 9.93281C1.36342 10.0802 1.16406 10.2731 1.00909 10.4998C0.825089 10.7698 0.677089 11.1828 0.732089 11.6098C0.822089 12.3318 1.29009 12.7648 1.62609 13.0038C1.96609 13.2458 2.29009 13.3588 2.29009 13.3588H2.29809L7.18109 15.0038C7.40009 15.7068 8.66909 19.8788 8.97409 20.8398C9.15409 21.4138 9.32909 21.7728 9.54809 22.0468C9.65409 22.1868 9.77809 22.3038 9.92709 22.3978C10.0045 22.4429 10.0871 22.4784 10.1731 22.5038L10.1231 22.4918C10.1381 22.4958 10.1501 22.5078 10.1611 22.5118C10.2011 22.5228 10.2281 22.5268 10.2791 22.5348C11.0521 22.7688 11.6731 22.2888 11.6731 22.2888L11.7081 22.2608L14.5911 19.6358L19.4231 23.3428L19.5331 23.3898C20.5401 23.8318 21.5601 23.5858 22.0991 23.1518C22.6421 22.7148 22.8531 22.1558 22.8531 22.1558L22.8881 22.0658L26.6221 2.9368C26.7281 2.4648 26.7551 2.0228 26.6381 1.5938C26.5174 1.15963 26.2389 0.786212 25.8571 0.546804C25.5365 0.35192 25.1648 0.257853 24.7901 0.276805ZM24.6891 2.3268C24.6851 2.3898 24.6971 2.3828 24.6691 2.5038V2.5148L20.9701 21.4448C20.9541 21.4718 20.9271 21.5308 20.8531 21.5898C20.7751 21.6518 20.7131 21.6908 20.3881 21.5618L14.4781 17.0308L10.9081 20.2848L11.6581 15.4948L21.3141 6.4948C21.7121 6.1248 21.5791 6.0468 21.5791 6.0468C21.6071 5.5928 20.9781 5.91381 20.9781 5.91381L8.80209 13.4568L8.79809 13.4368L2.96209 11.4718V11.4678L2.94709 11.4648C2.95732 11.4614 2.96734 11.4574 2.97709 11.4528L3.00909 11.4368L3.04009 11.4258C3.04009 11.4258 8.25109 9.2298 13.5481 6.9998C16.2001 5.8828 18.8721 4.7578 20.9271 3.8898C22.1458 3.37681 23.3658 2.86681 24.5871 2.3598C24.6691 2.3278 24.6301 2.3268 24.6891 2.3268Z" fill="white" style="fill:white;fill-opacity:1;"/>
</svg>
