<svg width="15" height="15" viewBox="0 0 15 15" fill="none" xmlns="http://www.w3.org/2000/svg">
<path d="M0.429 6.43C0.57 5.23 0.956 4.36 1.633 3.43H2.143C1.41836 4.27757 0.963259 5.32217 0.836 6.43H0.429ZM3.982 1.716H3.215C4.17227 1.04805 5.27327 0.614705 6.429 0.451V0.859C5.56819 0.994242 4.73909 1.28462 3.982 1.716ZM13.736 6.43C13.582 5.213 13.29 4.339 12.562 3.43H13.072C13.749 4.36 14.002 5.23 14.143 6.43H13.736ZM10.59 1.716H11.358C10.4013 1.04243 9.30031 0.602024 8.143 0.43V0.837C8.979 0.94 9.883 1.326 10.59 1.716ZM3.216 12.859C4.17249 13.5321 5.27313 13.9721 6.43 14.144V13.737C5.56782 13.5952 4.73863 13.2977 3.983 12.859H3.216ZM1.634 11.144H2.144C1.41204 10.2806 0.950213 9.22094 0.816 8.097H0.404C0.546 9.297 0.957 10.214 1.634 11.144ZM10.591 12.859C9.884 13.249 8.98 13.629 8.144 13.737V14.144C9.284 14.011 10.459 13.48 11.359 12.859H10.591ZM12.43 11.144H12.94C13.6114 10.2748 14.0282 9.2362 14.144 8.144H13.737C13.6097 9.25183 13.1546 10.2964 12.43 11.144ZM2.573 2.144H3.43V3.001H2.573V2.144ZM11.144 2.144H12.001V3.001H11.144V2.144ZM2.573 11.573H3.43V12.43H2.573V11.573ZM0 6.857H0.857V7.715H0V6.857ZM13.715 6.857H14.572V7.715H13.715V6.857ZM6.858 14.572V13.715H7.715V14.572H6.858ZM6.858 0.857V0H7.715V0.857H6.858ZM11.143 11.572H12V12.429H11.143V11.572Z" fill="white" fill-opacity="0.4" style="fill:white;fill-opacity:0.4;"/>
<path d="M8.572 4.99006L7.766 4.71606L6 9.58406L6.806 9.85906L8.572 4.99006Z" fill="#62F300" style="fill:#62F300;fill:color(display-p3 0.3843 0.9529 0.0000);fill-opacity:1;"/>
<path d="M3 7.28706L5.045 5.57306L5.572 6.30106L4.35 7.28706L5.572 8.27307L5.045 9.00106L3 7.28706Z" fill="#62F300" style="fill:#62F300;fill:color(display-p3 0.3843 0.9529 0.0000);fill-opacity:1;"/>
<path d="M11.571 7.28706L9.528 5.57306L9 6.30106L10.222 7.28706L8.999 8.27307L9.526 9.00106L11.571 7.28706Z" fill="#62F300" style="fill:#62F300;fill:color(display-p3 0.3843 0.9529 0.0000);fill-opacity:1;"/>
</svg>
