<svg width="215" height="118" viewBox="0 0 215 118" fill="none" xmlns="http://www.w3.org/2000/svg">
<path d="M114.699 100.203C126.137 111.445 138.302 117.066 155.007 117.066C171.713 117.066 185.784 111.445 197.222 100.203C208.811 88.8132 214.605 74.9828 214.605 58.7116C214.605 42.4405 208.811 28.61 197.222 17.2202C185.784 5.97836 171.713 0.357422 155.007 0.357422C138.302 0.357422 126.137 5.97836 114.699 17.2202C103.111 28.61 97.3168 42.4405 97.3168 58.7116C97.3168 74.9828 103.111 88.8132 114.699 100.203ZM190.224 58.7116C190.224 68.7702 186.838 77.1276 180.065 83.784C173.293 90.4404 164.94 93.7685 155.007 93.7685C145.075 93.7685 138.629 90.4404 131.856 83.784C125.084 77.1276 121.698 68.7702 121.698 58.7116C121.698 48.6531 125.084 40.2957 131.856 33.6393C138.629 26.9829 145.075 23.6547 155.007 23.6547C164.94 23.6547 173.293 26.9829 180.065 33.6393C186.838 40.2957 190.224 48.6531 190.224 58.7116Z" fill="#155DFC" style="fill:#155DFC;fill:color(display-p3 0.0824 0.3647 0.9882);fill-opacity:1;"/>
<path d="M155.672 117.066C144.794 117.066 135.698 115.194 125.714 108.953C121.784 106.653 118.171 103.209 115.104 100.215C120.195 93.1259 124.741 85.4456 126.963 77.1232C133.516 88.9812 152.196 98.5293 169.575 98.5294C185.751 98.5294 200.956 90.9414 211.218 79.9317C208.425 87.1157 203.546 94.287 197.829 100.023C186.503 111.385 172.51 117.066 155.672 117.066Z" fill="url(#paint0_linear_2236_782)" style=""/>
<path d="M44.1729 18.2793C61.4745 18.2793 76.9382 26.2079 87.1777 38.6543C87.0384 39.179 86.9051 39.706 86.7773 40.2354C84.2728 35.1222 80.5201 31.1264 75.5195 28.248C70.5145 25.1342 64.6995 23.5772 58.0752 23.5771C48.3594 23.5771 40.1889 26.9134 33.5645 33.5859C27.0872 40.4069 23.8486 48.7114 23.8486 58.498C23.8488 68.2843 27.0874 76.5884 33.5645 83.4092C40.1889 90.0816 48.3595 93.418 58.0752 93.418C64.5523 93.4179 70.3673 91.9353 75.5195 88.9697C80.4769 86.0569 84.2743 82.1697 86.9131 77.3105C89.0727 85.9596 92.784 93.9918 98.0205 101.317C94.9048 104.304 91.3791 106.935 87.4434 109.21C78.6108 114.4 68.8949 116.994 58.2959 116.994C41.6612 116.994 27.7495 111.36 16.5615 100.091C5.52086 88.6733 0.000160863 74.8088 0 58.498C0 49.9726 1.45475 42.1695 4.36426 35.0898C14.4917 24.7143 28.5863 18.2794 44.1729 18.2793Z" fill="url(#paint1_linear_2236_782)" style=""/>
<path d="M95.2729 97.1826C96.1365 98.5845 97.0519 99.9632 98.02 101.317C95.2277 103.994 92.1055 106.383 88.6547 108.488C91.2748 105.014 93.5034 101.223 95.2729 97.1826ZM58.2953 0C69.0417 2.85476e-05 78.8319 2.59531 87.6645 7.78516C91.5471 10.0665 95.0034 12.692 98.0327 15.6611C92.9982 22.6997 89.3712 30.3902 87.1772 38.6543C76.9377 26.2079 61.4749 18.2793 44.1733 18.2793C28.5863 18.2793 14.4923 24.7149 4.36469 35.0908C7.12289 28.379 11.1878 22.3166 16.561 16.9043C27.7489 5.63496 41.6607 9.33275e-05 58.2953 0Z" fill="#155DFC" style="fill:#155DFC;fill:color(display-p3 0.0824 0.3647 0.9882);fill-opacity:1;"/>
<defs>
<linearGradient id="paint0_linear_2236_782" x1="161.845" y1="117.066" x2="124.704" y2="89.6806" gradientUnits="userSpaceOnUse">
<stop stop-color="#1D3895" style="stop-color:#1D3895;stop-color:color(display-p3 0.1141 0.2188 0.5843);stop-opacity:1;"/>
<stop offset="1" stop-color="#315EFB" style="stop-color:#315EFB;stop-color:color(display-p3 0.1922 0.3686 0.9843);stop-opacity:1;"/>
</linearGradient>
<linearGradient id="paint1_linear_2236_782" x1="49.0103" y1="18.2793" x2="49.0103" y2="116.994" gradientUnits="userSpaceOnUse">
<stop stop-color="#1D3895" style="stop-color:#1D3895;stop-color:color(display-p3 0.1141 0.2188 0.5843);stop-opacity:1;"/>
<stop offset="1" stop-color="#315EFB" style="stop-color:#315EFB;stop-color:color(display-p3 0.1922 0.3686 0.9843);stop-opacity:1;"/>
</linearGradient>
</defs>
</svg>
