<svg width="195" height="41" viewBox="0 0 195 41" fill="none" xmlns="http://www.w3.org/2000/svg">
<path d="M155.365 10.9009C158.093 10.9009 160.579 11.5474 162.822 12.8404C163.807 13.4088 164.685 14.0629 165.454 14.8026C164.095 16.6676 163.14 18.7163 162.596 20.9251C161.96 19.6512 161.008 18.6556 159.738 17.9385C158.467 17.1627 156.991 16.7749 155.309 16.7749C152.842 16.7749 150.767 17.606 149.085 19.2685C147.441 20.9679 146.619 23.0368 146.619 25.475C146.619 27.9132 147.441 29.982 149.085 31.6814C150.767 33.3438 152.842 34.175 155.309 34.175C156.953 34.175 158.43 33.8056 159.738 33.0667C160.997 32.341 161.961 31.3727 162.631 30.1621C163.179 32.317 164.121 34.318 165.451 36.1431C164.66 36.8872 163.765 37.5428 162.766 38.1095C160.523 39.4025 158.056 40.049 155.365 40.049C151.141 40.049 147.609 38.6451 144.768 35.8375C141.965 32.9929 140.563 29.5387 140.563 25.475C140.563 21.3374 141.965 17.8831 144.768 15.1124C147.609 12.3047 151.141 10.9009 155.365 10.9009Z" fill="white" style="fill:white;fill-opacity:1;"/>
<path d="M190.282 35.8374C187.44 38.6451 184.417 40.049 180.265 40.049C176.114 40.049 172.617 38.6451 169.774 35.8374C166.894 32.9928 165.454 29.5387 165.454 25.4749C165.454 21.4112 166.894 17.957 169.774 15.1124C172.617 12.3047 176.114 10.9009 180.265 10.9009C184.417 10.9009 187.44 12.3047 190.282 15.1124C193.162 17.957 194.602 21.4112 194.602 25.4749C194.602 29.5387 193.162 32.9928 190.282 35.8374ZM171.513 25.4749C171.513 27.987 172.355 30.0743 174.038 31.7368C175.721 33.3992 177.797 34.2304 180.265 34.2304C182.734 34.2304 184.336 33.3992 186.019 31.7368C187.702 30.0743 188.543 27.987 188.543 25.4749C188.543 22.9628 187.702 20.8755 186.019 19.2131C184.336 17.5506 182.734 16.7194 180.265 16.7194C177.797 16.7194 175.721 17.5506 174.038 19.2131C172.355 20.8755 171.513 22.9628 171.513 25.4749Z" fill="white" style="fill:white;fill-opacity:1;"/>
<path d="M0 26.3822L0 0.980431H4.75379V26.1594C4.75379 28.9451 5.57408 31.1365 7.21464 32.7336C8.89249 34.3307 11.689 35.1293 14.7091 35.1293C17.7293 35.1293 20.5624 34.3307 22.203 32.7336C23.8808 31.1365 24.7197 28.9451 24.7197 26.1594V0.980431H29.3623V26.3822C29.3623 30.6165 28.0014 33.9779 25.2796 36.4664C22.5577 38.955 19.0343 40.1992 14.7091 40.1992C10.3467 40.1992 6.80461 38.955 4.08276 36.4664C1.36092 33.9779 0 30.6165 0 26.3822Z" fill="white" style="fill:white;fill-opacity:1;"/>
<path d="M48.097 10.8938C51.3781 10.8938 54.0067 11.9338 55.9829 14.0138C57.959 16.0566 58.9471 18.8423 58.9471 22.3709V39.9615H54.0813V22.6494C54.0813 20.4209 53.4661 18.6752 52.2357 17.4123C51.0052 16.1495 49.3088 15.5181 47.1462 15.5181C44.6481 15.5181 42.6719 16.2981 41.2178 17.8581C39.7637 19.3809 39.0366 21.6652 39.0366 24.7108V39.9615H34.1708V10.8938H39.0366V15.6295C40.9754 12.4724 43.9956 10.8938 48.097 10.8938Z" fill="white" style="fill:white;fill-opacity:1;"/>
<path d="M66.1616 6.54817C65.2294 6.54817 64.4464 6.23246 63.8126 5.60104C63.1787 4.96962 62.8618 4.2082 62.8618 3.31678C62.8618 2.42536 63.1787 1.66394 63.8126 1.03252C64.4464 0.363954 65.2294 0.0296724 66.1616 0.0296724C67.0564 0.0296724 67.8208 0.363954 68.4546 1.03252C69.0885 1.66394 69.4054 2.42536 69.4054 3.31678C69.4054 4.2082 69.0885 4.96962 68.4546 5.60104C67.8208 6.23246 67.0564 6.54817 66.1616 6.54817ZM68.5665 39.9615H63.7007V10.8938H68.5665V39.9615Z" fill="white" style="fill:white;fill-opacity:1;"/>
<path d="M97.9518 16.4095V0H102.818V39.9615H97.9518V34.6836C95.5655 38.3607 92.042 40.1992 87.3814 40.1992C83.4291 40.1992 80.092 38.7878 77.3702 35.965C74.6111 33.105 73.2315 29.6322 73.2315 25.5465C73.2315 21.498 74.6111 18.0438 77.3702 15.1838C80.1293 12.3238 83.4664 10.8938 87.3814 10.8938C92.042 10.8938 95.5655 12.7324 97.9518 16.4095ZM87.9966 35.5193C90.8303 35.5193 93.1979 34.5722 95.0995 32.6779C97.001 30.7093 97.9518 28.3322 97.9518 25.5465C97.9518 22.7237 97.001 20.3652 95.0995 18.4709C93.1979 16.5395 90.8303 15.5738 87.9966 15.5738C85.2002 15.5738 82.8512 16.5395 80.9496 18.4709C79.048 20.3652 78.0973 22.7237 78.0973 25.5465C78.0973 28.3322 79.048 30.7093 80.9496 32.6779C82.8512 34.5722 85.2002 35.5193 87.9966 35.5193Z" fill="white" style="fill:white;fill-opacity:1;"/>
<path d="M135.791 27.7751H112.357C112.842 30.2265 113.979 32.1579 115.768 33.5693C117.558 34.9436 119.795 35.6307 122.48 35.6307C126.171 35.6307 128.856 34.275 130.533 31.5636L134.672 33.9036C131.913 38.1007 127.812 40.1992 122.368 40.1992C117.968 40.1992 114.352 38.825 111.518 36.0764C108.759 33.2536 107.379 29.7436 107.379 25.5465C107.379 21.3123 108.74 17.8209 111.462 15.0724C114.184 12.2867 117.707 10.8938 122.032 10.8938C126.134 10.8938 129.471 12.3424 132.044 15.2395C134.654 18.0623 135.959 21.5166 135.959 25.6023C135.959 26.308 135.903 27.0322 135.791 27.7751ZM122.032 15.4624C119.46 15.4624 117.297 16.1866 115.545 17.6352C113.83 19.0838 112.767 21.0523 112.357 23.5408H131.037C130.627 20.978 129.601 18.9909 127.961 17.5795C126.32 16.1681 124.344 15.4624 122.032 15.4624Z" fill="white" style="fill:white;fill-opacity:1;"/>
</svg>
