<svg width="512" height="512" viewBox="0 0 512 512" fill="none" xmlns="http://www.w3.org/2000/svg">
<path fill-rule="evenodd" clip-rule="evenodd" d="M232.526 0.604857C183.16 5.44086 137.534 23.6379 97.53 54.4449C78.049 69.4469 52.75 97.6409 38.13 120.64C31.816 130.573 19.525 155.743 15.122 167.755C10.199 181.187 4.952 201.713 2.37 217.64C-0.79 237.134 -0.79 274.146 2.37 293.64C4.952 309.567 10.199 330.093 15.122 343.525C19.525 355.537 31.816 380.707 38.13 390.64C58.543 422.753 88.417 452.627 120.53 473.04C130.463 479.354 155.633 491.645 167.645 496.048C190.939 504.585 219.184 510.155 244.53 511.211C258.399 511.788 259.223 511.713 263.472 509.477C265.915 508.192 269.288 505.413 270.968 503.302C273.69 499.882 274.023 498.731 274.026 492.733C274.031 485.087 271.821 480.748 265.831 476.644C262.858 474.607 260.388 474.177 245.241 473.059C218.895 471.115 200.492 467.391 180.666 459.991C149.713 448.438 125.884 433.041 102.007 409.163C59.795 366.952 38.157 314.925 38.157 255.64C38.157 196.355 59.795 144.328 102.007 102.117C144.218 59.9049 196.245 38.2669 255.53 38.2669C314.815 38.2669 366.842 59.9049 409.053 102.117C443.368 136.432 463.389 175.965 471.1 224.64C473.17 237.706 474.372 309.236 472.702 319.964C470.502 334.092 462.485 344.924 449.771 350.947C443.588 353.875 442.202 354.14 433.03 354.14C423.933 354.14 422.443 353.862 416.527 351.058C408.197 347.11 401.06 339.973 397.112 331.643L394.03 325.14L393.375 283.64C392.65 237.708 391.984 231.247 386.139 213.402C370.066 164.338 328.068 128.167 277.774 120.074C265.549 118.106 245.511 118.106 233.286 120.074C175.817 129.321 129.211 175.927 119.964 233.396C117.996 245.621 117.996 265.659 119.964 277.884C129.192 335.232 175.809 381.958 232.974 391.156C276.419 398.147 320.866 384.028 351.74 353.429L360.529 344.718L362.67 348.929C368.964 361.307 379.336 372.967 390.443 380.152C404.184 389.041 416.884 392.75 433.53 392.734C471.581 392.698 503.051 366.272 510.203 328.35C511.477 321.598 511.651 312.835 511.258 275.202C510.732 224.937 509.998 217.445 502.981 190.755C498.252 172.77 493.836 161.039 485.056 143.14C471.838 116.195 458.094 97.0949 436.085 75.0849C414.075 53.0759 394.975 39.3319 368.03 26.1139C343.39 14.0269 320.671 6.81586 294.03 2.62486C279.331 0.312857 246.509 -0.765143 232.526 0.604857ZM282.03 160.042C315.463 169.733 341.106 195.345 351.211 229.14C353.687 237.421 353.902 239.538 353.902 255.64C353.902 271.742 353.687 273.859 351.211 282.14C341.115 315.904 315.794 341.225 282.03 351.321C273.749 353.797 271.632 354.012 255.53 354.012C239.428 354.012 237.311 353.797 229.03 351.321C195.266 341.225 169.945 315.904 159.849 282.14C157.373 273.859 157.158 271.742 157.158 255.64C157.158 239.538 157.373 237.421 159.849 229.14C169.492 196.89 193.857 171.375 224.348 161.593C237.721 157.303 242.275 156.703 258.53 157.089C270.501 157.373 274.6 157.888 282.03 160.042Z" fill="white"/>
</svg>
