<svg width="48" height="48" viewBox="0 0 48 48" fill="none" xmlns="http://www.w3.org/2000/svg">
<g clip-path="url(#clip0_2224_50)">
<path d="M24 35.9947C30.6274 35.9947 36 30.6221 36 23.9947C36 17.3673 30.6274 11.9947 24 11.9947C17.3726 11.9947 12 17.3673 12 23.9947C12 30.6221 17.3726 35.9947 24 35.9947Z" fill="white" style="fill:white;fill-opacity:1;"/>
<path d="M24 12H44.7812C42.6754 8.35138 39.6461 5.3215 35.9978 3.215C32.3496 1.10851 28.2111 -0.000337739 23.9984 -4.38106e-05C19.7857 0.000250118 15.6473 1.10968 11.9994 3.21668C8.35147 5.32368 5.32258 8.35399 3.21729 12.0029L13.6079 30L13.6172 29.9976C12.5602 28.1749 12.0024 26.1057 12 23.9987C11.9977 21.8916 12.5508 19.8212 13.6037 17.9961C14.6566 16.171 16.172 14.6557 17.9973 13.603C19.8225 12.5503 21.893 11.9974 24 12Z" fill="url(#paint0_linear_2224_50)" style=""/>
<path d="M24 33.5C29.2467 33.5 33.5 29.2467 33.5 24C33.5 18.7533 29.2467 14.5 24 14.5C18.7533 14.5 14.5 18.7533 14.5 24C14.5 29.2467 18.7533 33.5 24 33.5Z" fill="#1A73E8" style="fill:#1A73E8;fill:color(display-p3 0.1020 0.4510 0.9098);fill-opacity:1;"/>
<path d="M34.3912 30.0029L24.0006 48C28.2133 48.0006 32.3519 46.892 36.0003 44.7858C39.6486 42.6796 42.6781 39.6499 44.7842 36.0015C46.8903 32.353 47.9987 28.2144 47.9979 24.0017C47.9972 19.789 46.8873 15.6508 44.7799 12.0031H23.9988L23.9963 12.0124C26.1034 12.0083 28.1742 12.5598 30.0002 13.6113C31.8261 14.6627 33.3426 16.177 34.3967 18.0014C35.4509 19.8258 36.0054 21.8958 36.0044 24.0029C36.0035 26.1099 35.447 28.1795 34.3912 30.0029Z" fill="url(#paint1_linear_2224_50)" style=""/>
<path d="M13.6086 30.0031L3.21803 12.006C1.11115 15.654 0.001866 19.7924 0.001709 24.0051C0.00155201 28.2178 1.11053 32.3563 3.21713 36.0045C5.32374 39.6526 8.35371 42.6818 12.0024 44.7875C15.6511 46.8932 19.7898 48.0012 24.0025 48L34.3931 30.0029L34.3864 29.9961C33.3364 31.8229 31.8233 33.3405 29.9998 34.3961C28.1762 35.4517 26.1066 36.0078 23.9996 36.0085C21.8925 36.0092 19.8225 35.4545 17.9982 34.4001C16.174 33.3458 14.6599 31.8291 13.6086 30.0031Z" fill="url(#paint2_linear_2224_50)" style=""/>
</g>
<defs>
<linearGradient id="paint0_linear_2224_50" x1="3.21729" y1="15" x2="44.7812" y2="15" gradientUnits="userSpaceOnUse">
<stop stop-color="#D93025" style="stop-color:#D93025;stop-color:color(display-p3 0.8510 0.1882 0.1451);stop-opacity:1;"/>
<stop offset="1" stop-color="#EA4335" style="stop-color:#EA4335;stop-color:color(display-p3 0.9176 0.2627 0.2078);stop-opacity:1;"/>
</linearGradient>
<linearGradient id="paint1_linear_2224_50" x1="20.7218" y1="47.6791" x2="41.5038" y2="11.6837" gradientUnits="userSpaceOnUse">
<stop stop-color="#FCC934" style="stop-color:#FCC934;stop-color:color(display-p3 0.9882 0.7882 0.2039);stop-opacity:1;"/>
<stop offset="1" stop-color="#FBBC04" style="stop-color:#FBBC04;stop-color:color(display-p3 0.9843 0.7373 0.0157);stop-opacity:1;"/>
</linearGradient>
<linearGradient id="paint2_linear_2224_50" x1="26.5981" y1="46.5015" x2="5.81613" y2="10.506" gradientUnits="userSpaceOnUse">
<stop stop-color="#1E8E3E" style="stop-color:#1E8E3E;stop-color:color(display-p3 0.1176 0.5569 0.2431);stop-opacity:1;"/>
<stop offset="1" stop-color="#34A853" style="stop-color:#34A853;stop-color:color(display-p3 0.2039 0.6588 0.3255);stop-opacity:1;"/>
</linearGradient>
<clipPath id="clip0_2224_50">
<rect width="48" height="48" fill="white" style="fill:white;fill-opacity:1;"/>
</clipPath>
</defs>
</svg>
