<?xml version="1.0" encoding="utf-8"?>
<!-- Generator: Adobe Illustrator 24.0.0, SVG Export Plug-In . SVG Version: 6.00 Build 0)  -->
<svg version="1.1" id="Слой_1" xmlns="http://www.w3.org/2000/svg" xmlns:xlink="http://www.w3.org/1999/xlink" x="0px" y="0px"
	 viewBox="0 0 147.2 147.4" style="enable-background:new 0 0 147.2 147.4;" xml:space="preserve">
<style type="text/css">
	.st0{fill:#231300;}
</style>
<g>
	<path class="st0" d="M86.8,2.9c0.1-0.3,0.2-0.6,0.3-0.8c0.1-0.2,0.3-0.4,0.5-0.5c0.2-0.1,0.4-0.2,0.7-0.2s0.6,0,0.9,0.1
		c0.6,0.1,1,0.3,1.3,0.6c0.3,0.3,0.4,0.6,0.4,1l-0.9-0.2c0-0.2-0.1-0.3-0.2-0.5c-0.1-0.1-0.4-0.2-0.7-0.3c-0.4-0.1-0.7-0.1-0.9,0
		c-0.2,0.1-0.3,0.3-0.4,0.7l-0.1,0.5c-0.1,0.4,0,0.6,0.1,0.8c0.2,0.2,0.4,0.3,0.8,0.4c0.3,0.1,0.6,0.1,0.7,0s0.3-0.2,0.4-0.3
		l0.9,0.2c-0.1,0.4-0.4,0.6-0.8,0.7s-0.8,0.1-1.4,0c-0.3-0.1-0.6-0.2-0.9-0.3S87.1,4.6,87,4.4s-0.2-0.4-0.3-0.6
		C86.7,3.6,86.7,3.3,86.8,2.9z"/>
	<path class="st0" d="M95.9,3.4l0.9,0.3l-0.7,2c-0.1,0.3-0.1,0.5,0,0.7c0.1,0.2,0.3,0.3,0.7,0.4C96.9,6.9,97,7,97.2,7s0.3,0,0.4,0
		c0.1,0,0.2-0.1,0.3-0.2c0.1-0.1,0.2-0.2,0.2-0.3l0.7-2l0.9,0.3l-1.2,3.3l-0.9-0.3l0.2-0.6c-0.2,0.2-0.4,0.3-0.7,0.3
		c-0.3,0-0.6,0-0.9-0.1c-0.2-0.1-0.4-0.2-0.6-0.3c-0.2-0.1-0.3-0.2-0.4-0.4c-0.1-0.1-0.1-0.3-0.1-0.5s0-0.4,0.1-0.7L95.9,3.4z"/>
	<path class="st0" d="M104.1,9.3c-0.1,0.2,0,0.4,0.1,0.6c0.1,0.2,0.3,0.3,0.6,0.4c0.3,0.2,0.6,0.2,0.7,0.2s0.3-0.1,0.4-0.2
		c0.1-0.1,0.1-0.2,0-0.3c0-0.1-0.1-0.2-0.2-0.3c-0.1-0.1-0.2-0.2-0.4-0.3s-0.3-0.2-0.5-0.3s-0.3-0.2-0.4-0.3
		c-0.1-0.1-0.3-0.2-0.3-0.4c-0.1-0.1-0.1-0.3-0.2-0.4s0-0.3,0.1-0.5c0.2-0.3,0.4-0.5,0.8-0.5c0.4,0,0.8,0.1,1.4,0.4
		c0.5,0.3,0.9,0.5,1.1,0.8s0.2,0.6,0.1,1L106.5,9c0.1-0.2,0-0.4-0.1-0.5s-0.3-0.3-0.6-0.4c-0.3-0.1-0.5-0.2-0.7-0.2
		c-0.2,0-0.3,0.1-0.4,0.2c-0.1,0.1,0,0.3,0.1,0.4c0.1,0.1,0.2,0.2,0.4,0.4c0.2,0.1,0.4,0.2,0.6,0.4c0.2,0.1,0.4,0.3,0.6,0.4
		c0.2,0.2,0.3,0.3,0.4,0.5c0.1,0.2,0,0.4-0.1,0.6c-0.2,0.4-0.5,0.5-0.8,0.5s-0.8-0.1-1.4-0.4c-0.6-0.3-1-0.6-1.2-0.9
		c-0.2-0.3-0.2-0.7-0.1-1.1L104.1,9.3z"/>
	<path class="st0" d="M111.9,10.9l0.4,0.3l0.6-0.9l0.8,0.5l-0.6,0.9l1.1,0.7l-0.4,0.6l-1.1-0.7l-0.9,1.4c-0.1,0.1-0.1,0.3-0.1,0.4
		c0,0.1,0.1,0.2,0.3,0.3l0.6,0.4l-0.4,0.6l-0.9-0.6c-0.3-0.2-0.5-0.4-0.6-0.7c-0.1-0.2,0-0.5,0.2-0.8l1-1.5l-0.4-0.3L111.9,10.9z"/>
	<path class="st0" d="M116.9,16.5c0.2-0.3,0.4-0.4,0.6-0.6c0.2-0.1,0.4-0.2,0.7-0.2c0.2,0,0.4,0,0.7,0.1s0.5,0.2,0.7,0.4
		c0.3,0.2,0.5,0.5,0.6,0.7c0.1,0.2,0.2,0.5,0.1,0.7l1.4-1.6l0.7,0.6l-3.2,3.9l-0.7-0.6l0.4-0.5c-0.5,0.2-1,0-1.6-0.4
		c-0.2-0.2-0.4-0.4-0.6-0.6c-0.1-0.2-0.2-0.4-0.3-0.6s0-0.4,0.1-0.7C116.6,17,116.7,16.7,116.9,16.5z M119.7,18.4
		c0.2-0.3,0.3-0.5,0.2-0.8c-0.1-0.2-0.3-0.5-0.6-0.7c-0.3-0.3-0.6-0.4-0.8-0.4s-0.5,0.1-0.7,0.4l-0.3,0.4c-0.2,0.3-0.3,0.5-0.2,0.8
		c0.1,0.2,0.3,0.5,0.6,0.7c0.3,0.3,0.6,0.4,0.8,0.4c0.3,0,0.5-0.1,0.7-0.4L119.7,18.4z"/>
	<path class="st0" d="M123.8,22.6c0.5-0.4,0.9-0.6,1.4-0.6s0.9,0.3,1.4,0.8c0.2,0.2,0.4,0.5,0.5,0.7s0.2,0.5,0.2,0.7
		c0,0.2,0,0.4-0.1,0.7c-0.1,0.2-0.3,0.4-0.5,0.6l-0.1,0.1l-2.2-2.3l-0.1,0.1c-0.3,0.2-0.4,0.5-0.4,0.7c0,0.2,0.1,0.5,0.4,0.8
		c0.2,0.2,0.4,0.4,0.6,0.5c0.2,0.1,0.4,0.1,0.5,0l0.6,0.7c-0.4,0.2-0.7,0.3-1.1,0.1c-0.4-0.1-0.7-0.4-1.1-0.8
		c-0.2-0.2-0.4-0.5-0.5-0.7c-0.1-0.2-0.2-0.5-0.2-0.7c0-0.2,0-0.5,0.1-0.7C123.4,23,123.6,22.8,123.8,22.6z M126.1,23.2
		c-0.2-0.2-0.5-0.4-0.7-0.4c-0.2-0.1-0.5,0-0.7,0.2l1.5,1.6c0.2-0.2,0.3-0.4,0.3-0.7C126.5,23.7,126.4,23.5,126.1,23.2z"/>
	<path class="st0" d="M133.5,31.4l-3.8,0.8l-0.6-0.9l1.8-3.4l0.6,0.8l-1.5,2.7l3-0.6L133.5,31.4z"/>
	<path class="st0" d="M136.9,41.4c0.3-0.1,0.6-0.2,0.9-0.1c0.3,0.1,0.6,0.3,0.9,0.7c0.1-0.3,0.2-0.5,0.3-0.7s0.3-0.3,0.5-0.4
		c0.3-0.1,0.6-0.1,0.9,0c0.3,0.2,0.6,0.5,0.8,1.1c0.1,0.3,0.2,0.5,0.3,0.8c0,0.2,0,0.4,0,0.6c0,0.2-0.1,0.3-0.2,0.4
		c-0.1,0.1-0.2,0.2-0.4,0.3c-0.3,0.1-0.5,0.1-0.8,0c-0.3-0.1-0.6-0.4-1-0.8l-0.4,1.6c0.3,0,0.6,0,1-0.1l0.3,0.8
		c-0.3,0.1-0.6,0.2-0.8,0.2c-0.3,0-0.5,0-0.7-0.1l0,0c0,0.2-0.1,0.3,0,0.4s0.1,0.3,0.1,0.4l0.1,0.2l-0.6,0.3l-0.1-0.3
		c-0.1-0.2-0.2-0.4-0.2-0.6c0-0.2,0-0.4,0-0.6l0-0.1c-0.3-0.2-0.5-0.4-0.7-0.6c-0.2-0.3-0.4-0.6-0.5-0.9c-0.2-0.4-0.3-0.7-0.3-1
		c0-0.3-0.1-0.5,0-0.7c0-0.2,0.1-0.4,0.2-0.5S136.7,41.5,136.9,41.4z M137.1,43.8c0.1,0.2,0.2,0.4,0.3,0.6c0.1,0.2,0.3,0.3,0.4,0.4
		l0.5-2.1c-0.2-0.2-0.4-0.4-0.6-0.5s-0.3-0.1-0.5,0l-0.1,0c-0.2,0.1-0.3,0.3-0.3,0.5S137,43.4,137.1,43.8z M139.7,41.8
		c-0.1,0.1-0.2,0.2-0.3,0.3s-0.1,0.4-0.2,0.6c0.2,0.3,0.5,0.5,0.7,0.6c0.2,0.1,0.4,0.1,0.5,0l0.1,0c0.2-0.1,0.2-0.2,0.2-0.4
		c0-0.2,0-0.4-0.1-0.6c-0.1-0.2-0.2-0.4-0.4-0.5C140,41.7,139.9,41.7,139.7,41.8L139.7,41.8z"/>
	<path class="st0" d="M142.7,56.2c0.3-0.1,0.6-0.1,0.9,0c0.2,0,0.5,0.1,0.6,0.3c0.2,0.1,0.3,0.3,0.4,0.5c0.1,0.2,0.2,0.5,0.3,0.8
		c0.1,0.3,0.1,0.6,0,0.9s-0.2,0.5-0.4,0.7l2.1-0.4l0.2,0.9l-5,1l-0.2-0.9l0.6-0.1c-0.5-0.2-0.8-0.6-1-1.3c-0.1-0.3-0.1-0.6-0.1-0.8
		s0.1-0.5,0.2-0.7c0.1-0.2,0.3-0.4,0.5-0.5C142.1,56.4,142.4,56.3,142.7,56.2z M143.6,59.4c0.3-0.1,0.6-0.2,0.7-0.5
		c0.1-0.2,0.1-0.5,0-0.9c-0.1-0.4-0.2-0.7-0.4-0.8s-0.5-0.2-0.8-0.1l-0.4,0.1c-0.3,0.1-0.6,0.2-0.7,0.5c-0.1,0.2-0.1,0.5,0,0.9
		c0.1,0.4,0.2,0.7,0.4,0.8c0.2,0.2,0.5,0.2,0.8,0.2L143.6,59.4z"/>
	<path class="st0" d="M144.3,65.3c0.7-0.1,1.1,0.1,1.5,0.4c0.3,0.3,0.5,0.8,0.5,1.5c0,0.3,0,0.6,0,0.9c0,0.3-0.1,0.5-0.3,0.7
		c-0.1,0.2-0.3,0.3-0.5,0.4c-0.2,0.1-0.5,0.2-0.8,0.2l-0.2,0l-0.2-3.2l-0.1,0c-0.3,0-0.6,0.1-0.7,0.3c-0.1,0.2-0.2,0.5-0.2,0.9
		c0,0.3,0.1,0.6,0.2,0.7c0.1,0.2,0.2,0.3,0.4,0.3l0.1,0.9c-0.4-0.1-0.7-0.3-0.9-0.6c-0.2-0.3-0.3-0.8-0.4-1.3c0-0.3,0-0.6,0-0.9
		s0.1-0.5,0.3-0.7c0.1-0.2,0.3-0.3,0.5-0.4C143.7,65.4,143.9,65.3,144.3,65.3z M145.6,67.2c0-0.3-0.1-0.6-0.2-0.8s-0.4-0.3-0.7-0.3
		l0.2,2.2c0.3,0,0.5-0.2,0.6-0.3S145.7,67.6,145.6,67.2z"/>
	<path class="st0" d="M143.9,74.9c-0.2,0-0.4,0.1-0.5,0.3c-0.1,0.2-0.1,0.4-0.2,0.8c0,0.3,0,0.6,0.1,0.8c0.1,0.2,0.2,0.3,0.4,0.3
		c0.1,0,0.2,0,0.3-0.1c0.1-0.1,0.1-0.2,0.1-0.3s0.1-0.3,0.1-0.5c0-0.2,0-0.4,0.1-0.5s0.1-0.4,0.1-0.5c0-0.2,0.1-0.3,0.2-0.5
		c0.1-0.1,0.2-0.2,0.3-0.3c0.1-0.1,0.3-0.1,0.5-0.1c0.4,0,0.6,0.2,0.8,0.5c0.2,0.3,0.2,0.8,0.2,1.4c0,0.6-0.1,1-0.3,1.4
		c-0.2,0.3-0.5,0.5-0.9,0.5l0-0.9c0.2,0,0.3-0.1,0.4-0.3c0.1-0.2,0.1-0.4,0.1-0.7c0-0.3,0-0.5-0.1-0.7c-0.1-0.2-0.2-0.3-0.3-0.3
		c-0.1,0-0.3,0.1-0.3,0.2c-0.1,0.1-0.1,0.3-0.2,0.5c0,0.2-0.1,0.5-0.1,0.7c0,0.3-0.1,0.5-0.2,0.7s-0.2,0.4-0.3,0.5
		c-0.1,0.1-0.3,0.2-0.6,0.2c-0.4,0-0.7-0.2-0.8-0.5c-0.2-0.3-0.2-0.8-0.2-1.4c0-0.6,0.1-1.1,0.3-1.4c0.2-0.3,0.5-0.5,0.9-0.5
		L143.9,74.9z"/>
	<path class="st0" d="M145.6,83.9l-3.5-0.5l0.1-0.9l3.5,0.5L145.6,83.9z M146.8,83.1c0.1,0,0.3,0.1,0.3,0.2c0.1,0.1,0.1,0.2,0.1,0.4
		c-0.1,0.4-0.2,0.5-0.5,0.5c-0.3,0-0.4-0.3-0.4-0.6c0-0.2,0.1-0.3,0.2-0.4S146.6,83,146.8,83.1z"/>
	<path class="st0" d="M143,88.5c0.3,0.1,0.6,0.2,0.8,0.3c0.2,0.1,0.4,0.3,0.5,0.5c0.1,0.2,0.2,0.4,0.2,0.7c0,0.2,0,0.5-0.1,0.8
		c-0.1,0.3-0.2,0.6-0.4,0.8c-0.2,0.2-0.4,0.4-0.6,0.4l0.5,0.1l-0.2,0.9l-3.1-0.8c-0.6-0.2-1-0.4-1.2-0.8c-0.2-0.4-0.2-0.9,0-1.6
		c0.2-0.6,0.4-1.1,0.6-1.3c0.3-0.3,0.6-0.4,1-0.4l-0.2,0.9c-0.2,0-0.4,0.1-0.5,0.3s-0.2,0.4-0.3,0.7c-0.1,0.2-0.1,0.4-0.1,0.5
		c0,0.2,0,0.3,0.1,0.4c0.1,0.1,0.2,0.2,0.3,0.3s0.3,0.1,0.5,0.2l0.3,0.1c-0.2-0.2-0.3-0.4-0.3-0.7c0-0.3,0-0.6,0.1-0.9
		c0.1-0.3,0.2-0.5,0.3-0.8s0.3-0.4,0.5-0.5c0.2-0.1,0.4-0.2,0.6-0.2C142.4,88.4,142.6,88.4,143,88.5z M142.3,91.8
		c0.3,0.1,0.6,0.1,0.8-0.1c0.2-0.2,0.3-0.4,0.4-0.8c0.1-0.4,0.1-0.7,0-0.9c-0.1-0.2-0.3-0.4-0.7-0.5l-0.4-0.1
		c-0.3-0.1-0.6,0-0.8,0.1c-0.2,0.2-0.3,0.4-0.4,0.8c-0.1,0.4-0.1,0.7,0,0.9c0.1,0.2,0.3,0.4,0.6,0.5L142.3,91.8z"/>
	<path class="st0" d="M139.5,100.5c0.3,0.1,0.5,0.1,0.7,0c0.2-0.1,0.3-0.3,0.4-0.6c0.1-0.3,0.2-0.6,0.1-0.8c0-0.2-0.2-0.4-0.5-0.5
		l-2-0.8l0.3-0.9l3.3,1.3l-0.3,0.8l-0.6-0.2c0.2,0.2,0.3,0.4,0.3,0.7s-0.1,0.6-0.2,0.9c-0.2,0.5-0.4,0.8-0.7,1
		c-0.3,0.2-0.7,0.2-1.1,0l-2.1-0.8l0.3-0.9L139.5,100.5z"/>
	<path class="st0" d="M134.7,115.5l-3.4-5.5l0.5-0.8l3.4,5.5L134.7,115.5z"/>
	<path class="st0" d="M125.8,123.6l-0.5-0.5c0.1,0.2,0.1,0.4,0.1,0.7c0,0.2-0.2,0.5-0.4,0.7l-0.4,0.4l-0.6-0.5l0.5-0.5
		c0.3-0.3,0.4-0.5,0.4-0.7c0-0.2-0.1-0.4-0.3-0.7l-1.3-1.3l0.7-0.7l2.5,2.5L125.8,123.6z"/>
	<path class="st0" d="M120,126.7c0.4,0.5,0.6,1,0.5,1.4c-0.1,0.4-0.4,0.9-0.9,1.3c-0.3,0.2-0.5,0.4-0.7,0.5
		c-0.2,0.1-0.5,0.2-0.7,0.2c-0.2,0-0.4-0.1-0.6-0.2c-0.2-0.1-0.4-0.3-0.6-0.5l-0.1-0.2l2.5-2l-0.1-0.1c-0.2-0.3-0.5-0.4-0.7-0.4
		c-0.2,0-0.5,0.1-0.8,0.3c-0.2,0.2-0.4,0.4-0.5,0.6c-0.1,0.2-0.1,0.4,0,0.5l-0.7,0.6c-0.2-0.4-0.2-0.7,0-1.1
		c0.1-0.4,0.4-0.7,0.9-1.1c0.3-0.2,0.5-0.4,0.7-0.5c0.2-0.1,0.5-0.2,0.7-0.2c0.2,0,0.4,0.1,0.7,0.2
		C119.6,126.3,119.8,126.5,120,126.7z M119.2,129c0.3-0.2,0.4-0.4,0.5-0.6s0-0.5-0.2-0.7l-1.7,1.4c0.2,0.2,0.4,0.3,0.6,0.3
		C118.7,129.3,118.9,129.2,119.2,129z"/>
	<path class="st0" d="M111.9,132c-0.1-0.2-0.3-0.2-0.5-0.2c-0.2,0-0.4,0.1-0.7,0.3c-0.3,0.2-0.5,0.4-0.6,0.5s-0.1,0.3,0,0.4
		c0.1,0.1,0.1,0.2,0.2,0.2c0.1,0,0.2,0,0.4-0.1s0.3-0.1,0.4-0.2s0.3-0.2,0.5-0.3c0.2-0.1,0.3-0.2,0.5-0.2c0.2-0.1,0.3-0.1,0.5-0.1
		c0.2,0,0.3,0,0.4,0.1s0.3,0.2,0.4,0.4c0.2,0.3,0.2,0.6,0,0.9c-0.2,0.3-0.5,0.6-1,1c-0.5,0.3-0.9,0.5-1.3,0.5s-0.7-0.1-0.9-0.4
		l0.8-0.5c0.1,0.2,0.3,0.2,0.5,0.2s0.4-0.1,0.6-0.3c0.3-0.2,0.4-0.3,0.5-0.5c0.1-0.1,0.1-0.3,0-0.4c-0.1-0.1-0.2-0.2-0.3-0.1
		c-0.2,0-0.3,0.1-0.5,0.2s-0.4,0.2-0.6,0.3c-0.2,0.1-0.4,0.2-0.7,0.3s-0.4,0.1-0.6,0c-0.2,0-0.4-0.2-0.5-0.4c-0.2-0.3-0.2-0.7,0-1
		s0.6-0.7,1.1-1c0.5-0.3,1-0.5,1.4-0.5c0.4,0,0.7,0.1,1,0.5L111.9,132z"/>
	<path class="st0" d="M105.7,136.4c0.3,0.6,0.3,1.1,0.1,1.5c-0.2,0.4-0.6,0.8-1.2,1c-0.3,0.1-0.6,0.2-0.8,0.3s-0.5,0-0.7,0
		c-0.2-0.1-0.4-0.2-0.6-0.3c-0.2-0.2-0.3-0.4-0.5-0.7l-0.1-0.2l2.9-1.4l-0.1-0.1c-0.1-0.3-0.3-0.5-0.6-0.6s-0.5,0-0.9,0.1
		c-0.3,0.1-0.5,0.3-0.6,0.4c-0.1,0.2-0.2,0.3-0.1,0.5l-0.8,0.4c-0.1-0.4,0-0.8,0.2-1.1c0.2-0.3,0.6-0.6,1.1-0.8
		c0.3-0.1,0.6-0.2,0.8-0.3c0.3,0,0.5,0,0.7,0s0.4,0.2,0.6,0.3S105.5,136.1,105.7,136.4z M104.3,138.3c0.3-0.1,0.5-0.3,0.6-0.5
		s0.1-0.4,0-0.7l-2,1c0.1,0.3,0.3,0.4,0.5,0.4C103.7,138.6,104,138.5,104.3,138.3z"/>
	<path class="st0" d="M97.3,139.1c0.1,0.3,0.1,0.6-0.1,0.8s-0.5,0.5-1,0.7l-1.4,0.5l0,0.1c0.1,0.3,0.2,0.4,0.4,0.5
		c0.2,0.1,0.4,0,0.8-0.1c0.3-0.1,0.5-0.2,0.6-0.3s0.2-0.3,0.2-0.5l0.9-0.3c0.1,0.4,0,0.7-0.3,1c-0.2,0.3-0.6,0.5-1.2,0.7
		c-0.6,0.2-1.1,0.2-1.5,0.1c-0.4-0.1-0.6-0.4-0.8-0.9l-0.7-2.1l0.8-0.3l0.2,0.6c0.1-0.3,0.2-0.5,0.4-0.7s0.5-0.4,0.9-0.5
		c0.5-0.2,0.9-0.2,1.1-0.1S97.2,138.8,97.3,139.1z M95.6,139.2c-0.2,0.1-0.3,0.1-0.5,0.2c-0.1,0.1-0.3,0.2-0.3,0.3
		c-0.1,0.1-0.1,0.2-0.2,0.4c0,0.1,0,0.3,0,0.4l0,0.1l1.2-0.5c0.3-0.1,0.4-0.2,0.5-0.3c0.1-0.1,0.1-0.2,0.1-0.4l0-0.1
		c-0.1-0.2-0.1-0.2-0.3-0.3C96,139.1,95.8,139.1,95.6,139.2z"/>
	<path class="st0" d="M88.4,144.2l-0.1-0.7c0,0.2-0.2,0.4-0.3,0.6c-0.2,0.2-0.4,0.3-0.7,0.3l-0.6,0.1l-0.2-0.8l0.7-0.1
		c0.4-0.1,0.6-0.2,0.7-0.4c0.1-0.2,0.2-0.4,0.1-0.7l-0.4-1.8l0.9-0.2l0.7,3.4L88.4,144.2z"/>
	<path class="st0" d="M81.8,143.5c0,0.3,0,0.6-0.1,0.9c-0.1,0.2-0.2,0.4-0.3,0.6c-0.2,0.2-0.4,0.3-0.6,0.4c-0.3,0.1-0.6,0.2-0.9,0.2
		c-0.6,0.1-1,0-1.4-0.2s-0.6-0.4-0.7-0.8l0.9-0.1c0.1,0.2,0.2,0.3,0.3,0.4c0.2,0.1,0.4,0.1,0.7,0.1c0.4,0,0.7-0.1,0.8-0.3
		c0.2-0.2,0.2-0.4,0.2-0.8l0-0.5c0-0.4-0.1-0.6-0.4-0.7c-0.2-0.1-0.5-0.2-0.8-0.1c-0.3,0-0.6,0.1-0.7,0.2s-0.2,0.2-0.3,0.4l-0.9,0.1
		c0-0.4,0.2-0.7,0.5-0.9c0.3-0.2,0.8-0.4,1.4-0.4c0.3,0,0.6,0,0.9,0c0.3,0,0.5,0.1,0.7,0.3s0.3,0.3,0.4,0.5
		C81.7,142.9,81.8,143.2,81.8,143.5z"/>
	<path class="st0" d="M69.9,144.3c0,0.3,0.1,0.5,0.2,0.7c0.2,0.1,0.4,0.2,0.7,0.2c0.3,0,0.6,0,0.8-0.2c0.2-0.1,0.3-0.3,0.3-0.6
		l0.1-2.1l0.9,0l-0.2,5.1l-0.9,0l0.1-2.2c-0.1,0.2-0.3,0.4-0.6,0.5c-0.3,0.1-0.6,0.1-0.9,0.1c-0.5,0-0.9-0.1-1.1-0.4
		c-0.3-0.2-0.4-0.6-0.4-1.1l0.1-2.2l0.9,0L69.9,144.3z"/>
	<path class="st0" d="M58.6,142c-0.1,0.3-0.2,0.5-0.5,0.7s-0.6,0.3-1.1,0.3c0.2,0.2,0.3,0.4,0.4,0.6c0.1,0.2,0.1,0.4,0,0.6
		c-0.1,0.3-0.3,0.6-0.6,0.7c-0.3,0.1-0.8,0.1-1.4,0c-0.3-0.1-0.6-0.2-0.8-0.3c-0.2-0.1-0.4-0.2-0.5-0.4c-0.1-0.1-0.2-0.3-0.2-0.4
		c0-0.2,0-0.3,0-0.5c0.1-0.3,0.2-0.5,0.5-0.6s0.7-0.2,1.2-0.3l-1-1.3c-0.2,0.2-0.4,0.5-0.5,0.9l-0.8-0.2c0.1-0.3,0.2-0.5,0.4-0.8
		c0.1-0.2,0.3-0.4,0.5-0.5l0,0c-0.1-0.1-0.2-0.2-0.3-0.3s-0.2-0.1-0.4-0.2l-0.2,0l0.2-0.6l0.3,0.1c0.2,0.1,0.4,0.1,0.6,0.2
		c0.2,0.1,0.3,0.2,0.4,0.4l0.1,0.1c0.3-0.1,0.6-0.2,0.9-0.2s0.7,0,1,0.1c0.4,0.1,0.7,0.2,1,0.4c0.3,0.1,0.4,0.3,0.6,0.4
		c0.1,0.2,0.2,0.3,0.3,0.5S58.7,141.8,58.6,142z M56.6,144c0-0.1,0-0.3-0.1-0.4c-0.1-0.2-0.2-0.3-0.4-0.5c-0.4,0-0.7,0.1-0.9,0.2
		s-0.3,0.2-0.4,0.4l0,0.1c0,0.2,0,0.3,0.1,0.4c0.1,0.1,0.3,0.2,0.6,0.3c0.3,0.1,0.5,0.1,0.7,0C56.4,144.3,56.5,144.2,56.6,144
		L56.6,144z M56.6,140.8c-0.2-0.1-0.5-0.1-0.7-0.1c-0.2,0-0.4,0-0.6,0.1l1.3,1.7c0.3,0,0.5-0.1,0.7-0.1c0.2-0.1,0.3-0.2,0.3-0.4
		l0-0.1c0.1-0.2,0-0.4-0.2-0.6C57.3,141,57,140.9,56.6,140.8z"/>
	<path class="st0" d="M43.4,137.4c-0.1,0.3-0.3,0.5-0.5,0.7c-0.2,0.2-0.4,0.3-0.6,0.3c-0.2,0.1-0.4,0.1-0.7,0s-0.5-0.1-0.8-0.3
		c-0.3-0.2-0.6-0.3-0.7-0.5s-0.3-0.4-0.3-0.7l-1,1.9l-0.8-0.4l2.3-4.6l0.8,0.4l-0.3,0.5c0.5-0.3,1-0.3,1.6,0.1
		c0.3,0.1,0.5,0.3,0.7,0.4c0.2,0.2,0.3,0.3,0.4,0.6c0.1,0.2,0.1,0.4,0.1,0.7S43.6,137.1,43.4,137.4z M40.3,136.1
		c-0.2,0.3-0.2,0.6-0.1,0.8c0.1,0.2,0.4,0.4,0.7,0.6c0.4,0.2,0.7,0.3,0.9,0.2s0.5-0.2,0.6-0.5l0.2-0.4c0.2-0.3,0.2-0.6,0.1-0.8
		c-0.1-0.2-0.4-0.4-0.7-0.6c-0.4-0.2-0.7-0.2-0.9-0.2c-0.3,0-0.5,0.2-0.6,0.5L40.3,136.1z"/>
	<path class="st0" d="M35.3,133c-0.4,0.5-0.8,0.8-1.2,0.9c-0.5,0-1-0.1-1.5-0.5c-0.3-0.2-0.5-0.4-0.7-0.6c-0.2-0.2-0.3-0.4-0.4-0.6
		c-0.1-0.2-0.1-0.4,0-0.7c0-0.2,0.2-0.5,0.3-0.7l0.1-0.2l2.6,1.8l0.1-0.1c0.2-0.3,0.3-0.6,0.2-0.8c-0.1-0.2-0.3-0.5-0.6-0.7
		c-0.3-0.2-0.5-0.3-0.7-0.3c-0.2,0-0.4,0-0.5,0.1l-0.8-0.5c0.3-0.3,0.7-0.4,1-0.4c0.4,0,0.8,0.2,1.3,0.5c0.3,0.2,0.5,0.4,0.7,0.6
		c0.2,0.2,0.3,0.4,0.4,0.6s0.1,0.4,0,0.7C35.7,132.4,35.5,132.7,35.3,133z M33,132.8c0.3,0.2,0.5,0.3,0.8,0.3s0.4-0.1,0.6-0.3
		l-1.9-1.3c-0.2,0.3-0.2,0.5-0.1,0.7C32.5,132.4,32.7,132.6,33,132.8z"/>
	<path class="st0" d="M24,126.4l3.5-1.6l0.8,0.7l-1.1,3.7l-0.7-0.6l0.9-3l-2.8,1.3L24,126.4z"/>
	<path class="st0" d="M22,122c-0.5,0.4-1,0.6-1.4,0.6c-0.5-0.1-0.9-0.3-1.3-0.8c-0.2-0.2-0.4-0.5-0.5-0.7c-0.1-0.2-0.2-0.5-0.2-0.7
		s0-0.4,0.1-0.7c0.1-0.2,0.3-0.4,0.5-0.6l0.1-0.1l2.1,2.4l0.1-0.1c0.3-0.2,0.4-0.5,0.4-0.7c0-0.2-0.1-0.5-0.4-0.8
		c-0.2-0.2-0.4-0.4-0.6-0.5c-0.2-0.1-0.4-0.1-0.5,0l-0.6-0.7c0.4-0.2,0.7-0.2,1.1-0.1s0.7,0.4,1.1,0.8c0.2,0.2,0.4,0.5,0.5,0.7
		c0.1,0.2,0.2,0.5,0.2,0.7c0,0.2,0,0.5-0.2,0.7C22.4,121.5,22.2,121.7,22,122z M19.7,121.3c0.2,0.2,0.4,0.4,0.7,0.5
		c0.2,0.1,0.5,0,0.7-0.2l-1.5-1.7c-0.2,0.2-0.3,0.4-0.3,0.6C19.3,120.8,19.4,121,19.7,121.3z"/>
	<path class="st0" d="M13,116.3l4.1-3l0.5,0.8l-4.1,3L13,116.3z"/>
	<path class="st0" d="M12.9,110.3c-0.3,0.2-0.6,0.3-0.8,0.3c-0.3,0-0.5,0-0.7-0.1s-0.4-0.2-0.6-0.4c-0.2-0.2-0.4-0.5-0.5-0.8
		s-0.3-0.6-0.4-0.8c-0.1-0.3-0.1-0.5-0.1-0.7c0-0.2,0.1-0.4,0.3-0.6c0.2-0.2,0.4-0.4,0.7-0.6c0.3-0.2,0.6-0.3,0.8-0.3s0.5,0,0.7,0.1
		s0.4,0.2,0.6,0.4c0.2,0.2,0.4,0.5,0.5,0.8c0.2,0.3,0.3,0.6,0.4,0.8c0.1,0.3,0.1,0.5,0.1,0.7c0,0.2-0.1,0.4-0.3,0.6
		C13.5,109.9,13.2,110.1,12.9,110.3z M11.1,107.5c-0.3,0.2-0.5,0.4-0.5,0.6c0,0.3,0.1,0.5,0.3,0.9c0.2,0.3,0.4,0.6,0.6,0.7
		c0.2,0.1,0.5,0.1,0.8-0.1l0.4-0.2c0.3-0.2,0.5-0.4,0.5-0.6c0-0.3-0.1-0.6-0.3-0.9s-0.4-0.6-0.6-0.7s-0.5-0.1-0.8,0.1L11.1,107.5z"
		/>
	<path class="st0" d="M6.7,102l0.5-0.2c-0.3,0-0.5-0.2-0.7-0.4c-0.2-0.2-0.4-0.5-0.5-0.8c-0.1-0.3-0.2-0.5-0.2-0.8s0-0.5,0.1-0.7
		s0.2-0.4,0.4-0.6c0.2-0.2,0.4-0.3,0.7-0.4S7.5,98,7.8,98s0.5,0,0.7,0.1c0.2,0.1,0.4,0.2,0.5,0.4c0.2,0.2,0.3,0.4,0.4,0.7
		c0.1,0.3,0.2,0.6,0.2,0.9c0,0.3-0.1,0.5-0.2,0.7l1.8-0.7l0.4,0.9L7,102.9L6.7,102z M7.1,99.2c-0.3,0.1-0.5,0.3-0.6,0.6
		s0,0.6,0.1,0.9c0.2,0.4,0.3,0.6,0.5,0.7c0.2,0.1,0.5,0.1,0.8,0l0.5-0.2c0.3-0.1,0.5-0.3,0.6-0.6c0.1-0.2,0-0.6-0.1-0.9
		c-0.2-0.4-0.3-0.6-0.5-0.8s-0.5-0.1-0.8,0L7.1,99.2z"/>
	<path class="st0" d="M3.2,88.6c-0.1,0.1-0.2,0.1-0.2,0.2C3,88.9,3,89,3,89.1c0,0.1,0,0.2,0.1,0.4c0,0.1,0.1,0.2,0.1,0.3
		c0.1,0.1,0.1,0.2,0.2,0.2s0.2,0.1,0.3,0.1c0.1,0,0.2,0,0.4,0l2.1-0.5l0.2,0.9l-2.1,0.5c-0.2,0-0.3,0.1-0.4,0.2
		c-0.1,0.1-0.2,0.1-0.2,0.2c0,0.1-0.1,0.2-0.1,0.3s0,0.2,0.1,0.4c0.1,0.3,0.2,0.5,0.3,0.6c0.2,0.1,0.4,0.2,0.7,0.1l2.1-0.5L7,93.1
		L3.6,94l-0.2-0.9L4,93c-0.3,0-0.5-0.2-0.6-0.4c-0.2-0.2-0.3-0.4-0.4-0.7c-0.1-0.3-0.1-0.6,0-0.8s0.2-0.4,0.4-0.6
		c-0.3,0-0.5-0.2-0.7-0.4c-0.2-0.2-0.3-0.5-0.4-0.8c-0.1-0.5-0.1-0.8,0.1-1.1c0.1-0.3,0.5-0.5,0.9-0.6L5.5,87l0.2,0.9l-2.1,0.5
		C3.4,88.5,3.3,88.5,3.2,88.6z"/>
	<path class="st0" d="M3,82.6c-0.6,0.1-1.1-0.1-1.5-0.4c-0.3-0.3-0.5-0.8-0.6-1.5c0-0.3,0-0.6,0-0.9s0.1-0.5,0.2-0.7
		c0.1-0.2,0.3-0.3,0.5-0.5c0.2-0.1,0.5-0.2,0.8-0.2l0.2,0L3,81.7l0.1,0c0.3,0,0.6-0.2,0.7-0.4C4,81.1,4,80.8,4,80.5
		c0-0.3-0.1-0.6-0.2-0.7c-0.1-0.2-0.3-0.3-0.5-0.3l-0.1-0.9c0.4,0.1,0.7,0.2,1,0.6c0.2,0.3,0.4,0.8,0.4,1.3c0,0.3,0,0.6,0,0.9
		c0,0.3-0.1,0.5-0.3,0.7S4,82.3,3.8,82.4C3.6,82.5,3.3,82.6,3,82.6z M1.5,80.7c0,0.3,0.1,0.6,0.3,0.8s0.4,0.3,0.7,0.3l-0.2-2.2
		c-0.3,0-0.5,0.2-0.6,0.4S1.5,80.4,1.5,80.7z"/>
	<path class="st0" d="M2,70.7c-0.3,0-0.5,0.1-0.7,0.2s-0.2,0.4-0.2,0.7c0,0.3,0.1,0.6,0.2,0.8c0.1,0.2,0.3,0.3,0.6,0.3l2.1,0l0,0.9
		l-3.5-0.1l0-0.9l0.6,0c-0.2-0.1-0.4-0.3-0.5-0.6s-0.2-0.6-0.2-0.9c0-0.5,0.1-0.9,0.3-1.2c0.2-0.3,0.6-0.4,1.1-0.4l2.2,0l0,0.9
		L2,70.7z"/>
	<path class="st0" d="M1,64.8l0.1-0.5L0,64.2l0.1-0.9l1.1,0.1l0.2-1.2L2,62.2l-0.2,1.2l1.7,0.2c0.2,0,0.3,0,0.4-0.1s0.1-0.2,0.2-0.4
		l0.1-0.7l0.7,0.1l-0.1,1.1c0,0.4-0.2,0.6-0.3,0.8c-0.2,0.1-0.5,0.2-0.8,0.1l-1.8-0.2l-0.1,0.5L1,64.8z"/>
	<path class="st0" d="M3.2,47.8l4.7,4.4l-0.3,0.9l-4.7-4.4L3.2,47.8z"/>
	<path class="st0" d="M9.2,38.4l0.5-0.8l1.9,1.1c0.3,0.2,0.5,0.2,0.7,0.1s0.4-0.3,0.5-0.6c0.1-0.1,0.1-0.3,0.2-0.4
		c0-0.1,0.1-0.3,0.1-0.4c0-0.1,0-0.2-0.1-0.3c-0.1-0.1-0.2-0.2-0.3-0.3l-1.8-1l0.5-0.8l3,1.7l-0.5,0.8l-0.5-0.3
		c0.1,0.2,0.2,0.5,0.2,0.8c0,0.3-0.1,0.6-0.3,0.9c-0.1,0.2-0.3,0.4-0.4,0.5c-0.1,0.1-0.3,0.2-0.4,0.3c-0.2,0.1-0.3,0.1-0.5,0.1
		c-0.2,0-0.4-0.1-0.6-0.2L9.2,38.4z"/>
	<path class="st0" d="M16.9,30.6l0.3,1.7L16.6,33l-0.5-2.3l-2.3,0.2l0.6-0.9l1.6-0.2l-0.3-1.6l0.6-0.8l0.4,2.3l2.4-0.2l-0.6,0.9
		L16.9,30.6z"/>
	<path class="st0" d="M25.2,16l1.9,6.2l-0.7,0.6l-1.9-6.2L25.2,16z"/>
	<path class="st0" d="M35,10.9l0.8-0.5l1.1,1.8c0.2,0.3,0.3,0.4,0.5,0.4c0.2,0,0.4-0.1,0.7-0.2c0.1-0.1,0.3-0.2,0.4-0.3
		s0.2-0.2,0.2-0.3s0.1-0.2,0.1-0.3c0-0.1,0-0.2-0.1-0.4l-1.1-1.8l0.8-0.5l1.8,3l-0.8,0.5l-0.3-0.5c0,0.3-0.1,0.5-0.2,0.7
		c-0.2,0.2-0.4,0.4-0.7,0.6c-0.2,0.1-0.4,0.2-0.6,0.3c-0.2,0.1-0.4,0.1-0.5,0c-0.2,0-0.3-0.1-0.5-0.2s-0.3-0.3-0.4-0.5L35,10.9z"/>
	<path class="st0" d="M42.6,5.6c-0.1-0.1-0.1-0.3,0-0.4c0.1-0.1,0.2-0.2,0.3-0.3c0.3-0.2,0.6-0.1,0.7,0.2c0.1,0.3,0,0.5-0.3,0.7
		c-0.2,0.1-0.3,0.1-0.4,0.1S42.7,5.7,42.6,5.6z M44,6.2l1.4,3.2l-0.8,0.4l-1.4-3.2L44,6.2z"/>
	<path class="st0" d="M57.4,0l-1.2,6.3l-0.9,0.2l1.2-6.3L57.4,0z"/>
</g>
</svg>
