<svg width="213" height="96" viewBox="0 0 213 96" fill="none" xmlns="http://www.w3.org/2000/svg">
<g clip-path="url(#clip0_95_3730)">
<path fill-rule="evenodd" clip-rule="evenodd" d="M23.3216 58.8447H7.74201C7.53428 58.8447 7.43042 58.9486 7.43042 59.1563V80.76C7.43042 80.9677 7.53428 81.0715 7.74201 81.0715H13.0391C13.2468 81.0715 13.3506 80.9677 13.3506 80.76V64.0379H21.5558C21.6598 64.0379 21.7636 63.934 21.8675 63.8302C22.4906 62.3761 23.1139 60.8181 23.737 59.2602V58.9486C23.5293 58.9486 23.4254 58.8447 23.3216 58.8447ZM67.1521 75.8784C67.1521 75.7745 67.0481 75.6707 66.9444 75.6707H66.6327C65.3864 76.0861 62.9975 76.6055 61.2319 76.6055C57.5966 76.6055 55.8309 75.6707 55.8309 69.9581C55.8309 65.492 56.3503 63.3109 61.2319 63.3109C62.5821 63.3109 63.9323 63.5186 65.4902 64.0379C65.5941 64.0379 65.8019 64.0379 65.8019 63.8302C66.425 62.6877 67.1521 61.3375 67.9829 59.5718V59.2602C67.9829 59.1563 67.8791 59.0524 67.7752 59.0524C65.6979 58.4293 63.1013 58.1177 60.8163 58.1177C53.1305 58.1177 49.7029 61.649 49.7029 69.8543C49.7029 78.1634 53.1305 81.7986 60.8163 81.7986C62.6859 81.7986 66.5289 81.3832 68.3984 80.6561C68.6062 80.5522 68.6062 80.4484 68.6062 80.3445C68.8139 80.2407 67.1521 75.8784 67.1521 75.8784ZM35.4736 58.2215C27.8916 58.2215 24.8795 61.4413 24.8795 69.9581C24.8795 78.5788 27.7877 81.7986 35.4736 81.7986C43.1596 81.7986 46.1716 78.4749 46.1716 69.9581C46.1716 61.5452 43.1596 58.2215 35.4736 58.2215ZM35.4736 76.8132C31.9422 76.8132 30.9036 75.8784 30.9036 70.062C30.9036 63.8302 32.0461 63.3109 35.4736 63.3109C38.9011 63.3109 40.1475 63.8302 40.1475 70.062C40.1475 75.8784 39.005 76.8132 35.4736 76.8132Z" fill="white" style="fill:white;fill-opacity:1;"/>
<path fill-rule="evenodd" clip-rule="evenodd" d="M181.921 58.8448H166.342C166.135 58.8448 166.031 58.9487 166.031 59.1564V80.76C166.031 80.9679 166.135 81.0716 166.342 81.0716H171.639C171.846 81.0716 171.95 80.9679 171.95 80.76V64.038H180.156C180.26 64.038 180.467 63.9342 180.467 63.8303C181.09 62.3762 181.714 60.8182 182.337 59.2603V58.9487C182.025 58.9487 182.025 58.8448 181.921 58.8448ZM162.188 58.9487H156.787C156.683 58.9487 156.474 59.0526 156.474 59.1564C155.644 62.4801 153.983 68.0887 151.593 73.905L146.192 59.0526C146.192 58.9487 145.985 58.8448 145.88 58.8448H140.479C140.376 58.8448 140.272 58.9487 140.168 58.9487C140.065 59.0526 140.065 59.1564 140.168 59.2603L148.27 81.2794C147.439 82.9412 146.608 84.2914 145.985 85.7455C145.465 86.6803 144.946 87.7189 144.323 88.7576C144.219 88.8614 144.323 88.9653 144.323 89.0691C144.426 89.173 144.53 89.2769 144.635 89.2769H150.45C150.554 89.2769 150.659 89.173 150.763 89.0691C151.697 87.1997 153.047 84.4991 154.19 81.7987C157.617 73.6973 160.421 66.2192 162.395 59.2603C162.395 59.1564 162.395 59.0526 162.291 58.9487H162.188ZM112.021 75.8785C112.021 75.7746 111.917 75.6708 111.813 75.6708H111.502C110.255 76.0862 107.867 76.6055 106.101 76.6055C102.466 76.6055 100.7 75.6708 100.7 69.9582C100.7 65.4921 101.219 63.311 106.101 63.311C107.451 63.311 108.801 63.5187 110.359 64.038C110.567 64.038 110.671 64.038 110.671 63.8303C111.294 62.6878 112.021 61.3376 112.852 59.5719V59.2603C112.852 59.1564 112.748 59.0526 112.644 59.0526C110.463 58.3255 107.867 58.0139 105.685 58.0139C98.1034 58.0139 94.676 61.5453 94.676 69.7505C94.676 78.0596 98.1035 81.6948 105.789 81.6948C107.659 81.6948 111.502 81.2794 113.371 80.5523C113.579 80.4485 113.579 80.3446 113.579 80.2408C113.579 80.1369 112.021 75.8785 112.021 75.8785ZM92.8064 58.9487H87.4054C87.1977 58.9487 87.0938 59.0526 87.0938 59.1564C86.2629 62.4801 84.6011 68.0887 82.2123 73.905L76.9153 58.9487C76.9153 58.8448 76.7074 58.741 76.6036 58.741H71.2027C71.0989 58.741 70.995 58.8448 70.8912 58.8448C70.7873 58.9487 70.7873 59.0526 70.8912 59.1564L79.0963 81.1756C78.2655 82.8373 77.4345 84.2914 76.8114 85.6416C76.292 86.5764 75.7728 87.6151 75.1495 88.6537C75.0457 88.7576 75.1495 88.8614 75.1495 88.9653C75.2534 89.0691 75.3572 89.173 75.4612 89.173H81.2775C81.3813 89.173 81.4853 89.0691 81.589 88.9653C82.5238 87.0958 83.874 84.3953 85.0165 81.6948C88.4441 73.5935 91.2483 66.1153 93.2218 59.1564C93.2218 59.0526 93.2218 58.9487 93.1179 58.8448C93.0141 58.9487 92.9102 58.9487 92.8064 58.9487ZM204.46 58.8448H199.163C198.955 58.8448 198.852 58.9487 198.852 59.1564V75.8785C197.709 76.19 196.566 76.294 195.216 76.294C191.685 76.294 190.958 75.2552 190.958 70.5814V59.1564C190.958 58.9487 190.854 58.8448 190.646 58.8448H185.348C185.141 58.8448 185.037 58.9487 185.037 59.1564V71.2046C185.037 78.6827 187.531 81.6948 194.073 81.6948C197.709 81.6948 201.967 80.76 204.356 79.8254C204.46 79.8254 204.564 79.6175 204.564 79.5137V59.1564C204.771 58.9487 204.667 58.8448 204.46 58.8448ZM136.221 58.8448H120.122C119.915 58.8448 119.811 58.9487 119.811 59.1564C119.396 66.4269 118.045 74.3205 116.072 80.6562V80.8639C116.176 80.9679 116.28 80.9679 116.383 80.9679H121.992C122.096 80.9679 122.304 80.8639 122.304 80.76C123.862 75.8785 125.108 69.3351 125.523 63.9342H130.82V80.76C130.82 80.9679 130.924 81.0716 131.132 81.0716H136.429C136.637 81.0716 136.741 80.9679 136.741 80.76V59.1564C136.533 58.9487 136.429 58.8448 136.221 58.8448Z" fill="white" style="fill:white;fill-opacity:1;"/>
</g>
<defs>
<clipPath id="clip0_95_3730">
<rect width="198.136" height="31.4917" fill="white" style="fill:white;fill-opacity:1;" transform="translate(7.43066 58.0139)"/>
</clipPath>
</defs>
</svg>
