<?xml version="1.0" encoding="utf-8"?>
<!-- Generator: Adobe Illustrator 23.0.0, SVG Export Plug-In . SVG Version: 6.00 Build 0)  -->
<svg version="1.1" id="Слой_1" xmlns="http://www.w3.org/2000/svg" xmlns:xlink="http://www.w3.org/1999/xlink" x="0px" y="0px"
	 viewBox="0 0 25.04 23.65" style="enable-background:new 0 0 25.04 23.65;" xml:space="preserve">
<style type="text/css">
	.st0{fill:none;}
</style>
<rect class="st0" width="25.04" height="23.65"/>
<g>
	<path d="M19.31,11.94c-0.78-0.43-1.39-0.78-1.91-1.13l-2.95-1.47c-0.78-0.43-2.17-1.04-3.3-1.91c-0.87-0.61-2.52-1.91-3.12-4.77
		c0,0-2.52,5.46,3.12,9.11c0.69,0.43,1.3,0.78,1.82,1.04l3.3,1.65c0.78,0.43,1.99,1.04,3.04,1.73c0.87,0.61,2.52,1.91,3.12,4.77
		C22.43,21.13,24.95,15.67,19.31,11.94z"/>
	<path d="M24.52,0.23L24.52,0.23H14.46l0,0l0,0l0,0l0,0c1.56,0.52,3.21,1.04,4.25,1.99C19.83,3.35,20.27,5,20.35,6.3l0,0
		c0,0.09,0.09,0.17,0.17,0.17c0.09,0,0.17-0.09,0.17-0.17c0,0,0.26-2.43,0.43-3.3c0.35-1.56,1.73-1.82,2.08-1.91
		c0.26-0.09,1.04-0.09,1.3-0.09c0.09,0,0.17,0,0.17,0c0.17,0,0.35-0.17,0.35-0.43C24.95,0.41,24.78,0.23,24.52,0.23z"/>
	<path d="M5.96,23.65L5.96,23.65h10.06l0,0l0,0l0,0l0,0c-1.56-0.52-3.21-1.04-4.25-1.99c-1.13-1.13-1.56-2.78-1.65-4.08l0,0
		c0-0.09-0.09-0.17-0.17-0.17c-0.09,0-0.17,0.09-0.17,0.17c0,0-0.26,2.43-0.43,3.3c-0.35,1.56-1.73,1.82-2.08,1.91
		c-0.26,0.09-1.04,0.09-1.3,0.09c-0.09,0-0.17,0-0.17,0c-0.17,0-0.35,0.17-0.35,0.43C5.52,23.48,5.7,23.65,5.96,23.65z"/>
</g>
</svg>
