<?xml version="1.0" encoding="utf-8"?>
<!-- Generator: Adobe Illustrator 25.1.0, SVG Export Plug-In . SVG Version: 6.00 Build 0)  -->
<svg version="1.1" id="Слой_1" xmlns="http://www.w3.org/2000/svg" xmlns:xlink="http://www.w3.org/1999/xlink" x="0px" y="0px"
	 viewBox="0 0 911.3 927.5" style="enable-background:new 0 0 911.3 927.5;" xml:space="preserve">
<g>
	<path d="M1900.9-15.3l-1.3-11.3l2.5-0.3l3.1,26.5l-2.5,0.3l-0.4-3.7c-1.4,3-3.8,4.7-7.2,5.1c-2.7,0.3-5.1-0.4-7.3-2.1
		c-2.1-1.7-3.3-3.9-3.7-6.7c-0.3-2.8,0.3-5.2,2-7.4c1.7-2.1,3.9-3.4,6.6-3.7C1896.1-19,1898.8-17.9,1900.9-15.3z M1889.4-2.8
		c1.6,1.3,3.5,1.8,5.6,1.5c2.1-0.2,3.8-1.2,5.1-2.8c1.3-1.7,1.8-3.5,1.5-5.6c-0.2-2.1-1.2-3.8-2.8-5.1c-1.6-1.3-3.5-1.8-5.6-1.6
		c-2.1,0.2-3.8,1.2-5,2.8c-1.3,1.6-1.8,3.5-1.6,5.6C1886.9-5.8,1887.8-4.1,1889.4-2.8z"/>
	<path d="M2002.3-19.1c2.8,0.3,5,1.6,6.5,3.7c1.5,2.2,2.2,4.6,1.9,7.3c0,0.1-0.1,0.5-0.2,1.2l-16.7-1.8c0,1.9,0.7,3.5,1.9,4.8
		c1.2,1.3,2.9,2,4.9,2.3c2.9,0.3,5-0.5,6.5-2.6l2.1,1.5c-1,1.3-2.2,2.2-3.8,2.8c-1.5,0.6-3.2,0.8-5,0.6c-3-0.3-5.3-1.5-7-3.6
		c-1.7-2.1-2.3-4.5-2-7.4c0.3-2.9,1.5-5.1,3.5-6.8C1996.9-18.7,1999.4-19.4,2002.3-19.1z M2002-16.7c-2-0.2-3.7,0.2-5.1,1.2
		c-1.5,1-2.4,2.5-2.9,4.3l14.2,1.5c-0.1-2.1-0.7-3.7-1.8-4.9C2005.2-15.8,2003.7-16.5,2002-16.7z"/>
	<path d="M2099.3,19.4L2110.9,6l2.5,0.9l-13.5,15.6l-2.9-1l-1.3-20.6l2.5,0.9L2099.3,19.4z"/>
	<path d="M2273.7,122.7l0,5.2l-2.6-0.6l0-4.1c-2.8,0.1-5.5-0.9-7.8-3.1c-1.9-1.8-3-3.7-3.3-5.8c-0.2-2.1,0.4-4,2-5.7
		c1.2-1.3,2.5-2.1,4.1-2.5c1.6-0.4,3.2-0.3,5,0.3c0-2,0.7-3.7,2-5.1c1.5-1.6,3.3-2.4,5.3-2.3c2,0.1,3.8,0.8,5.3,2.2
		c1.3,1.2,2.1,2.6,2.4,4.2c0.4,1.7,0.3,3.3-0.4,4.9l-2.5-0.6c0.6-1.2,0.7-2.4,0.5-3.5c-0.2-1.2-0.8-2.2-1.8-3.1
		c-1-0.9-2.2-1.4-3.5-1.5c-1.3,0-2.4,0.4-3.3,1.4c-0.6,0.6-1,1.3-1.2,2.1c-0.2,0.8-0.3,1.8-0.2,3.1l0.1,11.8
		c1.5-0.6,3.1-1.5,4.5-2.7l0.8,2.6C2277.2,121.3,2275.4,122.2,2273.7,122.7z M2264.9,118.1c1.9,1.7,3.9,2.5,6.1,2.4l-0.1-11.5
		c-1.4-0.6-2.7-0.8-3.9-0.5c-1.2,0.3-2.2,0.9-3.1,1.8c-1.1,1.1-1.5,2.4-1.3,3.8C2262.8,115.5,2263.6,116.9,2264.9,118.1z"/>
	<path d="M2394.1,281.1l10.5-4.4l1,2.3l-24.6,10.4l-1-2.3l3.4-1.5c-3.3-0.5-5.5-2.3-6.9-5.5c-1.1-2.5-1.1-5-0.1-7.6
		c1-2.5,2.8-4.3,5.4-5.4c2.6-1.1,5.1-1.1,7.7-0.1c2.5,1,4.3,2.8,5.4,5.3C2396.2,275.5,2396,278.4,2394.1,281.1z M2378.7,273.6
		c-0.8,1.9-0.7,3.8,0.1,5.8c0.8,1.9,2.2,3.3,4.1,4.1c1.9,0.8,3.9,0.7,5.8-0.1c1.9-0.8,3.3-2.2,4.1-4.1c0.8-1.9,0.8-3.8-0.1-5.8
		c-0.8-1.9-2.2-3.3-4.1-4c-1.9-0.8-3.8-0.7-5.8,0.1C2380.9,270.3,2379.6,271.7,2378.7,273.6z"/>
	<path d="M2426.1,377.4c0.5,2.8-0.1,5.2-1.8,7.3c-1.7,2.1-3.8,3.4-6.5,3.8c-0.1,0-0.5,0.1-1.2,0.1l-2.9-16.5
		c-1.8,0.6-3.2,1.6-4.1,3.2c-0.9,1.5-1.1,3.3-0.8,5.4c0.5,2.9,1.9,4.7,4.3,5.5l-0.9,2.4c-1.5-0.6-2.8-1.5-3.8-2.8s-1.7-2.9-2-4.7
		c-0.5-3,0-5.5,1.5-7.7s3.7-3.5,6.6-4c2.8-0.5,5.3,0,7.5,1.5C2424.2,372.3,2425.6,374.5,2426.1,377.4z M2423.7,377.8
		c-0.3-2-1.2-3.5-2.6-4.6c-1.4-1.1-3-1.6-5-1.5l2.5,14c1.9-0.6,3.4-1.7,4.2-3.1C2423.7,381.1,2424,379.5,2423.7,377.8z"/>
	<path d="M2427.7,477.2c-1.5-0.1-2.6,1.2-3.4,3.8c-0.2,0.7-0.4,1.2-0.4,1.4c-0.1,0.2-0.2,0.7-0.5,1.3c-0.2,0.7-0.4,1.1-0.6,1.4
		s-0.4,0.6-0.8,1.1s-0.7,0.8-1,1c-0.3,0.2-0.7,0.4-1.2,0.5c-0.5,0.2-1,0.2-1.6,0.2c-1.6-0.1-2.9-0.8-3.9-2.1c-1-1.3-1.4-3-1.3-5
		c0.1-1.8,0.5-3.3,1.4-4.6c0.9-1.3,2-2.1,3.3-2.6l1.2,2.2c-1,0.3-1.8,0.9-2.4,1.8c-0.6,0.9-0.9,2-1,3.3c-0.1,1.3,0.2,2.4,0.6,3.2
		c0.5,0.8,1.2,1.3,2.2,1.3c1.5,0.1,2.6-1.2,3.4-3.8c0.2-0.7,0.4-1.2,0.4-1.4c0.1-0.2,0.2-0.7,0.5-1.3c0.2-0.7,0.5-1.1,0.6-1.4
		s0.4-0.6,0.8-1.1s0.7-0.8,1-1c0.3-0.2,0.7-0.4,1.2-0.5c0.5-0.2,1-0.2,1.6-0.2c1.5,0.1,2.8,0.7,3.8,2c1,1.3,1.5,2.9,1.4,4.8
		c-0.1,1.5-0.5,2.9-1.2,4c-0.7,1.2-1.7,2-3,2.5l-1.1-2.2c1.8-0.6,2.8-2.1,2.8-4.5c0.1-1.1-0.2-2.1-0.7-2.9
		C2429.4,477.7,2428.7,477.3,2427.7,477.2z"/>
	<path d="M2400.1,574.4l0.6-2.5l18.5,4.6l-0.6,2.5L2400.1,574.4z M2424.2,581c-0.5-0.1-0.9-0.4-1.1-0.8s-0.3-0.9-0.2-1.4
		c0.1-0.5,0.4-0.9,0.8-1.1s0.9-0.3,1.4-0.2c0.5,0.1,0.9,0.4,1.1,0.8s0.3,0.9,0.2,1.4c-0.1,0.5-0.4,0.9-0.8,1.1
		C2425.2,581,2424.7,581.1,2424.2,581z"/>
	<path d="M2378.3,677.3l3.4,1.6l-1.1,2.3l-16.5-8c-2.5-1.2-4-3-4.6-5.4c-0.6-2.4-0.3-4.8,0.8-7.1c1.9-4,4.7-6,8.1-6.1l0.2,2.5
		c-2.6,0-4.6,1.6-6.1,4.6c-1,2-1.2,3.8-0.7,5.4s1.6,2.9,3.4,3.8l2.7,1.3c-1.8-2.8-1.9-5.7-0.4-8.8c1.2-2.5,3.1-4.1,5.7-5
		c2.6-0.9,5.1-0.7,7.6,0.5c2.5,1.2,4.2,3.1,5.1,5.7c0.9,2.6,0.8,5.1-0.4,7.5C2383.9,675.2,2381.6,676.9,2378.3,677.3z M2373.8,660.8
		c-1.9,0.7-3.4,2-4.3,3.9c-0.9,1.9-1.1,3.8-0.4,5.8c0.7,2,2,3.4,3.9,4.3c1.9,0.9,3.8,1,5.8,0.4c2-0.7,3.4-1.9,4.3-3.8
		c0.9-1.9,1-3.8,0.3-5.8c-0.7-1.9-2-3.4-3.9-4.3C2377.7,660.3,2375.8,660.2,2373.8,660.8z"/>
	<path d="M2326.8,764.8c-1.4,1.8-3.1,2.8-5.1,2.9c-1.9,0.2-3.9-0.5-5.7-2l-9.1-7.3l1.6-2l9.1,7.3c1.3,1.1,2.6,1.5,3.9,1.4
		s2.5-0.8,3.5-2.1c1.2-1.5,1.7-3,1.4-4.7c-0.2-1.6-1.3-3.2-3.1-4.6l-7.8-6.3l1.6-2l14.9,11.9l-1.6,2l-2.3-1.9
		C2329.1,760.1,2328.6,762.5,2326.8,764.8z"/>
	<path d="M2155.9,881.5l3,16.2l-2.3,1.2l-3.4-19.7l2.4-1.3l11.4,11.5l-2.6-15.9l2.4-1.3l13.9,14.3l-2.3,1.2l-11.4-12l2.7,16.4
		l-2.3,1.1L2155.9,881.5z"/>
	<path d="M2065.2,931.6c-2.8,0.7-5.2,0.3-7.3-1.3c-2.2-1.5-3.6-3.6-4.2-6.2c0-0.1-0.1-0.5-0.2-1.2l16.3-4c-0.7-1.8-1.9-3.1-3.5-3.9
		c-1.6-0.8-3.4-0.9-5.4-0.4c-2.8,0.7-4.6,2.2-5.2,4.6l-2.5-0.7c0.5-1.5,1.4-2.8,2.6-4c1.2-1.1,2.7-1.9,4.5-2.3
		c2.9-0.7,5.5-0.4,7.8,1s3.8,3.5,4.5,6.3c0.7,2.8,0.4,5.3-1,7.6C2070.2,929.4,2068.1,930.9,2065.2,931.6z M2064.7,929.3
		c1.9-0.5,3.4-1.4,4.4-2.9c1-1.5,1.4-3.1,1.2-5l-13.8,3.4c0.8,1.9,1.9,3.2,3.4,4C2061.4,929.5,2063,929.7,2064.7,929.3z"/>
	<path d="M1957.2,945.5c-2.7,0-5-0.9-7-2.8c-2-1.9-3-4.3-3-7c-0.1-2.8,0.9-5.2,2.8-7.2c1.9-2,4.2-3,6.9-3c3.4-0.1,6,1.3,7.8,4.1
		l-0.1-3.7l2.5,0l0.5,26.7l-2.5,0l-0.2-11.4C1963.2,944,1960.6,945.4,1957.2,945.5z M1962.5,930c-1.5-1.4-3.3-2.1-5.4-2.1
		c-2.1,0-3.9,0.8-5.3,2.3c-1.4,1.5-2.1,3.3-2.1,5.4c0,2.1,0.8,3.9,2.3,5.3c1.5,1.5,3.3,2.2,5.4,2.1c2.1,0,3.9-0.8,5.3-2.3
		c1.4-1.5,2.1-3.3,2.1-5.4C1964.7,933.3,1964,931.5,1962.5,930z"/>
	<path d="M1753.7,899.6l-4.5,10.4l-2.3-1l10.6-24.5l2.3,1l-1.5,3.4c2.7-1.9,5.6-2.1,8.7-0.8c2.5,1.1,4.3,2.9,5.3,5.4
		c1,2.5,0.9,5.1-0.2,7.7s-2.9,4.4-5.4,5.4c-2.5,1-5.1,1-7.6-0.1C1756,905.2,1754.2,902.9,1753.7,899.6z M1769.9,894.4
		c-0.8-1.9-2.1-3.3-4-4.1c-1.9-0.8-3.9-0.9-5.8-0.1c-1.9,0.8-3.3,2.2-4.1,4.1c-0.8,1.9-0.9,3.9-0.1,5.8c0.8,1.9,2.1,3.3,4,4.2
		c1.9,0.8,3.9,0.9,5.8,0.1c1.9-0.8,3.3-2.1,4.1-4C1770.6,898.3,1770.6,896.4,1769.9,894.4z"/>
	<path d="M1663.9,852.1c-2.3-1.7-3.5-3.8-3.7-6.5c-0.2-2.6,0.4-5,2-7.3c0.1-0.1,0.3-0.4,0.8-0.9l13.5,9.9c0.9-1.7,1.2-3.4,0.7-5.1
		c-0.4-1.7-1.5-3.2-3.1-4.4c-2.3-1.7-4.6-2-6.9-1l-1-2.3c1.5-0.6,3.1-0.8,4.7-0.6s3.2,0.9,4.7,2c2.4,1.8,3.8,4,4.2,6.6
		c0.4,2.6-0.3,5.1-2,7.5c-1.7,2.3-3.8,3.7-6.5,4.1C1668.8,854.5,1666.3,853.9,1663.9,852.1z M1665.4,850.2c1.6,1.2,3.3,1.7,5.1,1.5
		c1.8-0.2,3.3-0.9,4.6-2.3l-11.5-8.4c-1,1.8-1.3,3.5-0.9,5.2C1663.1,847.8,1664,849.2,1665.4,850.2z"/>
	<path d="M1599.2,770.2l-16.8,5.9l-1.8-2l19.5-6.7l2,2.3l-9.2,18.5l-1.8-2L1599.2,770.2z"/>
	<path d="M1525.9,695.1c-1.4-2.5-1.6-5-0.7-7.4c0.9-2.5,2.5-4.4,4.9-5.7c0.1-0.1,0.5-0.2,1.1-0.5l8.1,14.7c1.6-1.2,2.5-2.6,2.8-4.3
		c0.3-1.8,0-3.5-1-5.3c-1.4-2.5-3.3-3.8-5.8-3.8l0.1-2.6c1.6,0.1,3.1,0.6,4.5,1.5c1.4,0.9,2.5,2.2,3.4,3.8c1.5,2.6,1.8,5.2,1.1,7.8
		c-0.7,2.6-2.4,4.5-4.9,5.9c-2.5,1.4-5.1,1.7-7.6,1C1529.3,699.3,1527.3,697.7,1525.9,695.1z M1528,693.9c1,1.7,2.3,2.9,3.9,3.5
		c1.7,0.6,3.4,0.5,5.2-0.2l-6.9-12.5c-1.7,1.2-2.6,2.7-3,4.3C1526.9,690.9,1527.2,692.5,1528,693.9z"/>
	<path d="M1505.3,596.3l0.7,2.4l-26.6,8.1l-0.7-2.4L1505.3,596.3z"/>
	<path d="M1484.3,496c2.1,1.8,3.2,4.1,3.5,6.8c0.3,2.8-0.5,5.3-2.2,7.4c-1.8,2.1-4,3.3-6.9,3.5c-2.8,0.3-5.3-0.5-7.3-2.3
		c-2.1-1.8-3.3-4-3.5-6.9c-0.2-2.8,0.5-5.2,2.3-7.3c1.7-2.1,4-3.3,6.8-3.5C1479.7,493.5,1482.2,494.2,1484.3,496z M1483.6,508.5
		c1.3-1.6,1.9-3.4,1.7-5.5c-0.2-2.1-1.1-3.8-2.6-5.1c-1.6-1.3-3.5-1.9-5.6-1.7c-2.1,0.2-3.8,1.1-5.1,2.6c-1.3,1.6-1.9,3.4-1.7,5.5
		c0.2,2.1,1.1,3.8,2.7,5.1c1.6,1.3,3.4,1.9,5.5,1.7C1480.5,511,1482.2,510.1,1483.6,508.5z"/>
	<path d="M1470.5,395c0.4-2.7,1.6-4.9,3.8-6.5c2.2-1.6,4.6-2.3,7.4-1.9s5,1.7,6.6,3.8c1.7,2.1,2.3,4.6,1.9,7.3
		c-0.5,3.4-2.2,5.7-5.2,7.1l11.3,1.5l-0.3,2.5l-26.5-3.6l0.3-2.5l3.7,0.5C1471.1,401.1,1470.1,398.4,1470.5,395z M1485,402.6
		c1.6-1.2,2.6-2.9,2.9-5s-0.2-4-1.4-5.6c-1.3-1.6-3-2.6-5-2.9c-2.1-0.3-4,0.2-5.6,1.4c-1.7,1.2-2.6,2.9-2.9,5s0.2,4,1.5,5.6
		c1.2,1.6,2.9,2.6,5,2.9C1481.5,404.3,1483.3,403.8,1485,402.6z"/>
	<path d="M1501.4,279.5c0.8-2,2.1-3.4,3.8-4.1c1.8-0.7,3.7-0.6,5.9,0.2l11.1,4.3l-0.9,2.4l-11.1-4.3c-1.5-0.6-2.9-0.7-4-0.2
		c-1.2,0.5-2,1.3-2.5,2.7c-0.6,1.5-0.6,3,0.1,4.2c0.7,1.3,2,2.3,4,3.1l9.8,3.8l-0.9,2.4l-11.1-4.3c-1.5-0.6-2.9-0.7-4-0.3
		s-2,1.3-2.5,2.6c-0.6,1.5-0.5,2.9,0.1,4.3c0.7,1.4,2,2.4,3.9,3.2l9.8,3.8l-0.9,2.4l-17.8-6.9l0.9-2.4l2.6,1
		c-1.5-2.1-1.8-4.3-0.9-6.6c1-2.6,2.8-4,5.3-4.1C1500.8,284.4,1500.4,282.1,1501.4,279.5z"/>
	<path d="M1552.1,186.2c1.6-2.3,3.8-3.6,6.4-3.9c2.6-0.3,5.1,0.3,7.3,1.9c0.1,0.1,0.4,0.3,0.9,0.7l-9.5,13.8
		c1.7,0.9,3.4,1.1,5.2,0.6c1.7-0.5,3.2-1.6,4.3-3.3c1.7-2.4,1.9-4.7,0.8-6.9l2.3-1.1c0.7,1.5,0.9,3,0.7,4.7
		c-0.2,1.6-0.8,3.2-1.9,4.7c-1.7,2.5-3.9,3.9-6.5,4.4s-5.1-0.1-7.5-1.8c-2.4-1.6-3.8-3.8-4.3-6.4
		C1549.9,191.1,1550.5,188.6,1552.1,186.2z M1554.1,187.5c-1.1,1.6-1.6,3.3-1.4,5.1c0.2,1.8,1,3.3,2.4,4.6l8.1-11.7
		c-1.8-0.9-3.6-1.2-5.2-0.8C1556.4,185.2,1555.1,186.1,1554.1,187.5z"/>
	<path d="M1622.9,105.1c1.7-1.6,3.5-2.3,5.5-2.1c1.9,0.1,3.7,1.1,5.3,2.8l7.9,8.6l-1.8,1.7l-7.9-8.6c-1.2-1.3-2.4-1.9-3.7-2
		s-2.6,0.4-3.8,1.6c-1.4,1.3-2.1,2.8-2.1,4.4s0.8,3.3,2.4,5l6.8,7.4l-1.8,1.7l-12.9-14l1.8-1.7l2,2.2
		C1620,109.4,1620.8,107.1,1622.9,105.1z"/>
	<path d="M1709.4,42.4l1.2,2.1l-4.7,2.8l5.9,10c0.5,0.9,1.1,1.4,1.7,1.6c0.6,0.2,1.2,0.1,1.9-0.3c0.7-0.4,1.6-0.9,2.6-1.6l1.1,1.9
		c-2.1,1.7-4,2.6-5.5,2.6c-1.5,0-2.9-1-4-2.9l-5.9-10l-3.4,2l-1.2-2.1l3.4-2l-2.3-3.9l1.8-1.9l2.7,4.6L1709.4,42.4z"/>
</g>
<g>
	<path d="M392.3,18.4c-0.8-7.1,4-8.8,9.2-9.4c2.7-0.3,4.5,0.2,5.5,0.6c0-0.3-1-9.1-1-9.1l4.5-0.5l2.8,24.3l-4.5,0.5l-0.9-8.1
		c0,1-0.1,2-0.3,2.9c-0.9,4.2-2.4,6.1-5.9,6.5C397,26.6,393.1,25.2,392.3,18.4z M396.9,17.9c0.5,4.6,1.9,8,5.3,7.6
		c6-0.7,5.3-11,4.9-15.2c-0.9-0.3-3-1-5-0.7C398.4,9.9,396.2,11.2,396.9,17.9z"/>
	<path d="M492.7,16c0.6-5.5,5.5-8,10.5-7.5c6.7,0.7,6.9,5.4,6.4,10.7l-12.3-1.3c-0.1,3.1,0.5,6.6,4.2,6.9c2.9,0.3,5.6-0.3,7.8-1.9
		l0.2,0.3c-0.6,0.4-3.2,2.6-8.1,2.1C495.5,24.8,492.2,20.8,492.7,16z M497.3,17.4l11.7,1.2c0.5-4.8-0.1-9-5.9-9.6
		C498.6,8.5,497.6,14,497.3,17.4z"/>
	<path d="M593.8,28l0.9,16.3l9.7-12.9l0.5,0.2l-10.2,13.5l-4.5-1.5l-0.9-17.1L593.8,28z"/>
	<path d="M747.1,126c2.6-2.8,5.1-2.3,8.3-0.2c0.2-2.4,1.1-4.7,2.4-6.2c2-2.2,5-2.6,8.9,0.9c4,3.7,3.6,6.8,1.5,9.9l-4.3-2.1
		c3-3.2,4.6-5.4,2.2-7.6c-2.3-2.1-3.7-1.8-4.9-0.4c-2.3,2.5-2,6.2-1.4,13.8l0.3,2.9c1.6-0.8,3.1-2.1,4.1-3.1l0.4,0.4
		c-1.2,1.1-2.8,2.4-4.5,3.3l0.7,8.6l-4.9-4.5l-0.2-2.4c-1.9,0.2-3.9-0.7-6-2.7C746.5,133.6,743.4,130,747.1,126z M750.1,136.1
		c1.7,1.6,3.4,2.6,5.7,2.6c-0.4-4.8-0.7-9-0.4-12.3c-1.1-0.4-2.6,0.6-4.6,2.8C747.9,132.2,748.7,134.8,750.1,136.1z"/>
	<path d="M863.9,278.5c6.5-2.8,9.6,1.4,11.7,6.2c1,2.5,1,4.4,1,5.4c0.3-0.1,8.4-3.6,8.4-3.6l1.8,4.2l-22.5,9.5l-1.8-4.2l7.5-3.2
		c-0.9,0.2-1.9,0.5-2.9,0.5c-4.2,0.3-6.5-0.6-7.9-3.9C857.4,285.3,857.6,281.2,863.9,278.5z M865.8,282.8c-4.3,1.8-7.1,4-5.8,7.2
		c2.3,5.5,12,2,16,0.4c0-1,0.1-3.2-0.7-5C873.8,282,872,280.1,865.8,282.8z"/>
	<path d="M894.4,374.2c5.4-1,9.2,3.1,10.1,8c1.2,6.6-3.3,8.1-8.5,9.1l-2.2-12.1c-3.1,0.7-6.2,2.3-5.5,6c0.5,2.9,1.8,5.3,4,7
		l-0.3,0.3c-0.5-0.5-3.3-2.3-4.2-7.2C886.7,379.3,889.6,375,894.4,374.2z M894.3,379l2.1,11.6c4.7-0.9,8.6-2.6,7.6-8.4
		C903.2,377.8,897.6,378.3,894.3,379z"/>
	<path d="M900.7,475c-3.9-0.1-5.7,0.6-5.8,4.1c-0.2,4.6,0.8,5.8,3.3,5.9c1.8,0.1,2.3-1.6,3.5-6.9c1-4.8,2.6-6.3,5.5-6.2
		c3,0.1,4.4,2.9,4.3,6.8c-0.2,6.1-3.1,7.7-7.2,7.5l-0.1-3.1c-0.8,2.5-2.3,3.9-4.8,3.8c-3.9-0.1-5.1-2.9-4.9-7.9
		c0.2-5.3,1.5-8.3,5.8-8.1L900.7,475z M908.2,473.5c-1.6-0.1-2.1,1-3.1,5c-0.3,1.5-0.8,3.9-0.9,3.9c4,0.1,6.4,0.2,6.6-3.7
		C910.9,475.9,910.2,473.6,908.2,473.5z"/>
	<path d="M898.7,568.7l-1.1,4.4l-15.5-3.8l1.1-4.4L898.7,568.7z M904.5,569.7c1.4,0.3,2.2,1.8,1.9,3.2s-1.7,2.3-3.1,1.9
		c-1.4-0.3-2.3-1.8-1.9-3.2S903.1,569.4,904.5,569.7z"/>
	<path d="M867.6,658.7c-1.6,3.2-3.9,4-8.1,3.5c-1-0.1-1.9-0.4-2.9-0.7l7.3,3.5l-2,4.1l-11.5-5.5c-6.4-3.1-6.9-8-4.5-13.1
		c2.5-5.1,5.6-6.5,8.9-6.3l-0.1,4.4c2-1.7,5.1-2.8,9-0.9C868.7,649.9,869.6,654.5,867.6,658.7z M846.6,650.7
		c-1.8,3.7-0.6,5.6,3.7,7.7c0-1,0.2-2.9,1.3-5.3c0.8-1.7,1.8-3.2,3-4.3C852.2,647.8,848,647.7,846.6,650.7z M852.1,653.3
		c-1.1,2.4-1.3,4.4-1.3,5.3c2.9,1.3,5.3,2.3,8.5,2.9c4.5,0.8,6.6-0.6,7.8-3.2c1.5-3.1-0.5-4.3-5.3-6.6
		C855.7,648.8,853.4,650.5,852.1,653.3z"/>
	<path d="M818.1,739l-2.8,3.6l-7.3-5.8c2.7,3,6.2,8,3.2,11.8c-3.2,4-6.9,3.8-11.7,0l-5.8-4.6l2.8-3.6l8.9,7c2.7,2.2,4.1,2.2,5.3,0.7
		c4-5-4.3-12.7-7.9-15.6l2.8-3.6L818.1,739z"/>
	<path d="M672.5,864.3l-4.3,2.1l-12.1-11l2.2,15.9l-4.2,2.1l-12.1-11l2.2,15.9l-0.5,0.3l-2.3-16.7l4.3-2.1l12.1,11l-2.2-15.9
		l4.3-2.1L672.5,864.3z"/>
	<path d="M566,897.3c1.3,5.4-2.6,9.3-7.5,10.5c-6.5,1.5-8.3-2.9-9.5-8l12-2.8c-0.9-3-2.6-6-6.2-5.2c-2.8,0.7-5.2,2.1-6.8,4.3
		l-0.3-0.3c0.4-0.6,2.1-3.5,7-4.6C560.5,889.9,564.8,892.6,566,897.3z M561.1,897.5l-11.5,2.7c1.1,4.7,3,8.5,8.7,7.2
		C562.8,906.3,562,900.7,561.1,897.5z"/>
	<path d="M469.8,927.4l-4.5,0.1c0,0-0.1-8.8-0.1-9.1c-0.9,0.5-2.7,1.3-5.4,1.3c-5.2,0.1-10.3-1-10.4-8.2c-0.1-6.8,3.6-8.8,8.2-8.8
		c3.6-0.1,5.3,1.7,6.7,5.7c0.3,0.9,0.5,1.9,0.7,2.9l-0.1-8.2l4.5-0.1L469.8,927.4z M463.7,908.5c-1.1-3.9-3.3-5.4-5.4-5.3
		c-3.5,0.1-4.4,3.6-4.3,8.2c0.1,6.8,2.5,7.6,6.5,7.6c2.2,0,3.8-1,4.6-1.5C464.9,914.4,464.6,911.7,463.7,908.5z"/>
	<path d="M283.2,877.5c-2.9,6.5-8,5.6-12.8,3.5c-2.5-1.1-3.8-2.5-4.4-3.3c-0.1,0.3-3.7,8.3-3.7,8.3l-4.2-1.8l9.9-22.4l4.2,1.8
		l-3.3,7.5c0.5-0.8,1.1-1.7,1.7-2.4c2.9-3.1,5.2-4.1,8.4-2.6C283.3,868.1,286,871.3,283.2,877.5z M279,875.7
		c1.9-4.3,2.4-7.8-0.7-9.2c-5.5-2.4-10.1,6.8-11.9,10.7c0.6,0.7,2.1,2.4,3.9,3.2C273.6,881.8,276.2,881.8,279,875.7z"/>
	<path d="M195.5,828.7c-3.3,4.5-8.8,4.1-12.9,1.1c-5.4-4-3.2-8.2,0-12.4l9.9,7.3c1.7-2.6,2.9-5.9-0.1-8.1c-2.3-1.7-4.9-2.6-7.7-2.4
		l0-0.4c0.7,0,4-0.6,8,2.3C197.6,819.7,198.4,824.8,195.5,828.7z M192.2,825.1l-9.5-7c-2.9,3.9-4.5,7.8,0.2,11.3
		C186.6,832.1,190.3,827.9,192.2,825.1z"/>
	<path d="M114.5,767l7.5-14.5l-14.9,6.2l-0.4-0.4l15.6-6.5l3.2,3.6l-7.9,15.2L114.5,767z"/>
	<path d="M67.5,689c-4.8,2.7-9.7,0.1-12.2-4.3c-3.3-5.9,0.5-8.8,5.1-11.4l6,10.8c2.6-1.7,5.1-4.2,3.3-7.4c-1.4-2.5-3.4-4.4-6-5.3
		l0.2-0.4c0.7,0.3,3.9,1.1,6.3,5.4C73.1,681.7,71.7,686.6,67.5,689z M66,684.3L60.2,674c-4.2,2.3-7.3,5.2-4.5,10.4
		C58,688.4,63.1,686.1,66,684.3z"/>
	<path d="M11.4,600.5l22.7-7.2l1.4,4.3l-22.7,7.2L11.4,600.5z"/>
	<path d="M0.1,508c-0.5-5.2,1.9-10.3,7.5-10.9c5.6-0.5,8.9,4,9.4,9.2c0.5,5.2-1.9,10.3-7.5,10.9C4,517.8,0.6,513.2,0.1,508z
		 M9.1,512.6c5.4-0.5,7.8-1.9,7.4-6.2c-0.4-4.2-3-5.2-8.4-4.6c-5.5,0.5-7.8,2.2-7.4,6.2C1,511.9,3.6,513.1,9.1,512.6z"/>
	<path d="M0.7,415.8l0.6-4.5l8.1,1c-0.9-0.3-1.9-0.6-2.7-1c-3.8-1.8-5.4-3.8-5-7.3c0.6-4.6,2.9-8.1,9.7-7.2c7,0.9,7.6,6,7,11.2
		c-0.3,2.7-1.3,4.3-1.9,5.2c0.3,0,9,1.1,9,1.1l-0.6,4.5L0.7,415.8z M15.8,413.1c0.5-0.8,1.6-2.4,1.8-4.4c0.5-3.9-0.2-6.4-6.9-7.2
		c-4.6-0.6-8.2-0.1-8.6,3.4c-0.3,2.1,1.1,4.6,4.8,6C10,412.1,12.6,412.6,15.8,413.1z"/>
	<path d="M23.9,311.4l7.8,3c-0.7-0.4-0.8-0.5-1.6-1.1c-2.7-2-5.5-5.1-4.1-8.7c2.1-5.4,5.7-5.6,10.9-3.7c-0.1-0.1-0.7-0.4-1.6-1.1
		c-2.7-2-5.5-5-4.1-8.7c2.1-5.4,6.3-5.4,11.2-3.6l6.9,2.6l-1.6,4.3l-10.6-4c-3.3-1.2-4.6-0.9-5.3,0.9c-1,2.7,0.3,5.4,3.9,8.1
		c2.5,1.9,5.5,3.1,8.4,4.2l-1.6,4.3l-10.6-4c-3.3-1.2-4.6-0.9-5.3,0.9c-2.4,6.2,7.9,10.7,12.3,12.4l-1.6,4.2l-14.9-5.7L23.9,311.4z"
		/>
	<path d="M79.9,216.6c-4.6-3.1-4.4-8.6-1.5-12.8c3.8-5.5,8.1-3.5,12.4-0.5l-7,10.2c2.7,1.6,6,2.7,8.1-0.4c1.6-2.4,2.4-5,2.1-7.8
		l0.4,0c0.1,0.7,0.7,4-2.1,8.1C88.9,218.4,83.9,219.3,79.9,216.6z M83.4,213.2l6.7-9.7c-4-2.7-7.9-4.2-11.3,0.6
		C76.2,207.8,80.5,211.4,83.4,213.2z"/>
	<path d="M136.5,135.6l3.3-3.1l6.4,6.8c-2.2-3.4-5-8.8-1.4-12.2c3.7-3.5,7.4-2.8,11.6,1.7l5,5.4l-3.3,3.1l-7.7-8.3
		c-2.4-2.5-3.7-2.8-5.1-1.5c-4.7,4.4,2.4,13.2,5.5,16.6l-3.3,3.1L136.5,135.6z"/>
	<path d="M215.2,74.8l-0.3-0.5l2.4-1.4l-3.2-5.5l3.9-2.3l3.2,5.5l6.4-3.8l0.3,0.5l-6.4,3.8l5.5,9.3c1.8,3,3.7,3.2,5.3,2.2
		c2.4-1.5,3.1-4.4,1.9-8.8l0.5-0.2c0.9,3.3,1.2,7.4-2.2,9.4c-4.6,2.7-8,2.3-12.1-4.6l-3-5L215.2,74.8z"/>
</g>
</svg>
