<svg xmlns="http://www.w3.org/2000/svg" width="550" height="205" viewBox="0 0 550 205" fill="none">
<g clip-path="url(#clip0_36_14647)">
<path d="M145.932 204.999C130.971 204.999 119.292 199.884 111.286 189.785C105.118 182.047 101.969 172.997 101.969 162.898C101.969 160.143 102.231 157.127 102.625 154.241C104.856 140.207 111.943 127.616 122.572 118.566C133.465 109.516 145.932 104.926 160.105 104.926C169.554 104.926 177.822 107.024 184.515 111.09C189.37 114.107 193.57 117.91 196.719 122.632C196.982 122.894 197.113 123.288 197.376 123.813C197.901 124.993 198.163 126.173 198.163 127.354C198.163 131.944 194.488 135.617 189.895 135.617C187.402 135.617 185.04 134.436 183.465 132.469C183.202 132.207 183.071 131.944 182.809 131.682C177.297 124.206 169.423 120.534 158.793 120.534C148.557 120.534 139.895 123.681 132.415 130.108C124.935 136.535 120.473 144.667 118.635 154.635C118.242 157.127 117.979 159.619 117.979 161.848C117.979 168.8 119.948 174.571 123.885 179.555C129.134 186.113 136.877 189.392 147.376 189.392C156.168 189.392 163.517 187.424 169.423 183.489C174.803 179.948 178.74 175.227 181.496 169.193L182.021 168.013L154.2 160.668C152.231 159.75 151.969 157.914 152.231 156.602C152.494 155.29 153.544 153.717 155.775 153.717L191.208 153.323C195.932 153.454 199.869 157.389 199.869 162.111C199.869 162.635 199.869 163.16 199.738 163.816L199.607 164.34C196.851 175.751 190.945 185.326 182.021 192.671C172.179 200.802 160.105 204.999 145.932 204.999C145.932 204.999 146.063 204.999 145.932 204.999Z" fill="#1A2030"/>
<path d="M490.551 204.213C490.157 204.213 489.632 204.213 489.239 204.213L458.399 203.688C454.331 203.032 451.312 199.491 451.312 195.425C451.312 194.769 451.444 194.113 451.575 193.458L474.409 113.189C474.541 112.533 474.672 111.877 474.934 111.353C476.247 107.943 479.396 105.713 483.071 105.713H483.202H483.464L494.619 105.975L513.648 106.893C518.635 107.024 523.097 108.467 526.378 109.648L526.64 109.779C529.921 111.09 533.727 112.795 537.008 115.943L537.27 116.206C538.189 117.124 538.976 117.911 539.764 118.698L540.157 119.091C540.42 119.353 540.682 119.616 540.945 119.878C546.982 127.485 550.131 136.404 550.131 146.503C550.131 149.257 549.869 152.143 549.475 155.159C547.375 168.931 540.289 181.522 529.79 190.441C523.753 195.556 516.929 199.36 509.58 201.458L509.055 201.589C508.53 201.721 508.136 201.852 507.611 201.983L506.824 202.245C501.444 203.557 496.063 204.213 490.551 204.213ZM468.766 188.211L493.307 188.605C493.569 188.605 493.832 188.605 494.094 188.605C498.819 188.605 503.412 187.818 507.611 186.113L507.743 185.982C508.136 185.85 508.53 185.719 508.924 185.457C509.186 185.326 509.317 185.195 509.58 185.195C509.711 185.063 509.842 185.063 509.974 184.932C513.779 183.227 517.06 181.26 519.947 178.768C527.428 172.341 531.89 164.472 533.727 154.504C534.121 152.012 534.383 149.651 534.383 147.421C534.383 140.601 532.415 134.83 528.478 129.977C528.215 129.715 527.953 129.452 527.821 129.321C527.69 129.19 527.559 129.059 527.428 128.928C523.228 125.387 517.848 123.682 510.892 123.55L487.533 122.632L468.766 188.211Z" fill="#1A2030"/>
<path d="M247.244 25.1822C247.113 25.3134 247.113 25.3134 247.113 25.4446C247.244 25.3134 247.375 25.0511 247.507 24.9199C247.375 25.0511 247.244 25.1822 247.244 25.1822Z" fill="#080C16"/>
<path d="M278.74 64.5293C278.609 64.6605 278.477 64.7916 278.346 64.9228C278.477 64.7916 278.609 64.6605 278.74 64.5293Z" fill="#1A2030"/>
<path d="M247.117 32.7944L246.981 32.6582C246.981 32.7944 247.117 32.7944 247.117 32.7944Z" fill="#1A2030"/>
<path d="M248.032 24.2637C247.769 24.3948 247.638 24.6571 247.507 24.9195C247.638 24.7883 247.9 24.526 248.032 24.2637Z" fill="#1A2030"/>
<path d="M256.824 204.999C243.045 204.999 231.89 199.884 223.754 189.785C217.454 182.047 214.305 172.997 214.305 163.029C214.305 160.012 214.567 156.733 215.223 153.585C217.717 139.552 224.41 127.747 235.171 118.697C245.932 109.647 258.793 104.926 273.36 104.926C287.271 104.926 298.425 110.041 306.562 120.271C312.861 128.141 316.011 137.322 316.011 147.421C316.011 150.438 315.748 153.454 315.223 156.602C312.73 170.636 305.906 182.44 295.145 191.359C284.383 200.409 271.523 204.999 256.824 204.999C256.824 204.999 256.956 204.999 256.824 204.999ZM270.866 120.534C261.024 120.534 252.625 123.813 245.013 130.37C237.402 136.928 232.94 145.06 231.103 155.028C230.709 157.52 230.446 159.881 230.446 162.111C230.446 168.931 232.415 174.702 236.352 179.686C241.601 186.244 248.95 189.523 258.793 189.523C268.635 189.523 277.166 186.375 284.908 179.817C292.651 173.259 297.244 165.258 298.95 155.29C299.344 152.93 299.607 150.569 299.607 148.339C299.607 141.388 297.638 135.617 293.439 130.502C288.189 123.813 280.84 120.534 270.866 120.534Z" fill="#1A2030"/>
<path d="M388.845 204.999C375.066 204.999 363.911 199.884 355.774 189.785C349.475 182.047 346.325 172.997 346.325 163.029C346.325 160.012 346.588 156.733 347.244 153.585C349.738 139.552 356.43 127.747 367.192 118.697C377.953 109.647 390.814 104.926 405.381 104.926C419.291 104.926 430.446 110.041 438.583 120.271C444.882 128.141 448.031 137.322 448.031 147.421C448.031 150.438 447.769 153.454 447.244 156.602C444.751 170.636 437.926 182.44 427.165 191.359C416.404 200.409 403.543 204.999 388.845 204.999ZM402.887 120.534C393.045 120.534 384.646 123.813 377.034 130.37C369.423 136.928 364.961 145.06 363.123 155.028C362.73 157.52 362.467 159.881 362.467 162.111C362.467 168.931 364.436 174.702 368.373 179.686C373.622 186.244 380.971 189.523 390.814 189.523C400.656 189.523 409.186 186.375 416.929 179.817C424.672 173.259 429.265 165.258 430.971 155.29C431.365 152.93 431.627 150.569 431.627 148.339C431.627 141.388 429.659 135.617 425.459 130.502C420.21 123.813 412.73 120.534 402.887 120.534Z" fill="#1A2030"/>
<path d="M34.9081 67.0216C33.0709 65.71 31.4961 64.6607 30.0525 64.005C28.6089 63.3492 26.6404 62.5622 24.2782 61.6441H24.147C20.4724 60.3325 17.5853 59.021 16.0105 57.7094C14.6982 56.6601 14.042 55.4797 14.042 53.7746L14.1732 52.4631C14.6982 50.3645 15.6168 48.9218 17.4541 47.7414C19.2913 46.5609 21.2598 46.0363 23.8845 46.0363C25.853 46.0363 27.4278 46.4298 28.8714 46.9544C29.9213 47.3479 30.8399 48.0037 31.6273 48.7906C31.7585 48.9218 31.8898 49.0529 32.021 49.1841C32.8084 49.9711 33.8583 50.3645 35.0394 50.3645C37.5328 50.3645 39.6326 48.3972 39.6326 45.774C39.6326 44.987 39.3701 44.3313 39.1076 43.6755C38.9764 43.4132 38.8451 43.282 38.7139 43.0197C38.5827 42.8885 38.5827 42.7574 38.4514 42.7574L38.3202 42.6262C38.189 42.495 38.0577 42.495 38.0577 42.3639C37.4016 41.7081 36.6142 41.0523 35.8268 40.5277C32.8084 38.4291 29.1339 37.3799 24.6719 37.3799C20.0787 37.3799 15.8793 38.5603 12.2047 41.0523C8.53018 43.4132 6.29921 46.9544 5.51181 51.5449C5.51181 51.5449 4.85564 54.5616 5.90551 58.4963C6.16798 59.5456 6.82415 60.9883 7.61155 62.0376C8.13648 62.9557 9.05512 63.7426 9.84252 64.2673C10.6299 64.9231 11.5486 65.5789 12.7297 66.1035C13.7795 66.7593 14.9606 67.2839 16.0105 67.6774C17.0604 68.0709 18.1102 68.4643 19.4226 68.8578C23.2283 70.1694 26.2467 71.481 27.9528 72.6614C29.3963 73.7107 29.9213 74.7599 29.9213 76.465L29.6588 78.3012C29.1339 80.2686 28.084 81.7113 26.2467 82.8917C24.2782 84.0721 21.7848 84.7279 18.6352 84.7279C15.6168 84.7279 12.9921 84.0721 11.0236 82.8917L10.7612 82.7606C10.6299 82.6294 10.4987 82.6294 10.3675 82.4982C9.58005 81.8424 8.79265 81.1867 8.26772 80.3997C7.48032 79.3504 6.16798 78.5635 4.59318 78.5635C2.09974 78.5635 0.131234 80.5309 0 83.0229V83.154C0 83.941 0.262467 84.5968 0.524934 85.2526C0.656168 85.646 0.918635 85.9083 1.04987 86.1707C2.09974 87.4822 3.28084 88.6627 4.72441 89.7119C8.13648 92.0728 12.4672 93.2532 17.8478 93.2532C23.2283 93.2532 27.9528 91.9416 31.6273 89.4496C35.4331 86.9576 37.7953 83.2852 38.5827 78.6947C38.8451 77.5142 38.9764 76.3338 38.9764 75.2845C38.9764 73.973 38.8451 72.7925 38.4514 71.6121C38.0577 70.0382 36.7454 68.3332 34.9081 67.0216Z" fill="#1A2030"/>
<path d="M88.4514 43.5443L83.0708 74.1041C82.4147 77.3831 81.1023 79.8751 78.7401 81.9736C76.3779 83.941 73.3596 84.9903 69.4225 84.9903C65.6168 84.9903 62.8609 83.941 61.2861 81.9736C60.105 80.5309 59.58 78.8258 59.58 76.5961C59.58 75.8092 59.7113 75.0222 59.8425 74.1041L65.3543 43.0197C65.4855 42.3639 65.4855 41.7081 65.4855 41.7081C65.4855 41.1835 65.4855 40.6588 65.2231 40.1342C64.5669 38.5603 62.9921 37.3799 61.1548 37.3799C59.1863 37.3799 57.4803 38.6915 56.9554 40.5277L56.6929 41.8393L56.1679 44.3313L50.7874 74.6288C50.5249 75.8092 50.5249 77.1208 50.5249 78.3012C50.5249 82.2359 51.8372 85.646 54.4619 88.2692C57.874 91.8105 62.7296 93.5155 68.8976 93.5155H69.0288C74.9344 93.5155 79.9212 91.8105 83.9895 88.6627C88.189 85.3837 90.8136 80.662 91.7323 74.6288L97.3753 43.0197C97.5065 42.3639 97.5065 41.7081 97.5065 41.7081C97.5065 41.1835 97.5065 40.6588 97.2441 40.1342C96.5879 38.5603 95.0131 37.3799 93.1758 37.3799C91.2073 37.3799 89.5013 38.6915 88.9764 40.5277L88.7139 41.8393L88.189 44.3313" fill="#1A2030"/>
<path d="M143.701 43.676C140.814 40.2659 136.745 38.4297 131.365 38.4297H117.323C114.304 38.4297 111.811 40.5282 111.286 43.5449L103.543 87.4828V87.6139C103.412 88.1386 103.412 88.6632 103.412 88.7944C103.412 89.319 103.412 89.8436 103.675 90.3683C104.068 91.4175 104.856 92.2045 105.774 92.7291C106.43 92.9914 107.087 93.2537 107.743 93.2537C109.711 93.2537 111.417 91.9422 111.942 90.1059L112.205 88.7944L112.336 87.8763V87.7451L112.467 87.0893L112.598 86.4335L114.304 76.5967C114.567 75.2851 115.748 74.2358 117.06 74.2358H124.934C130.84 74.2358 135.827 72.5308 139.764 69.383C143.701 66.104 146.063 61.907 146.85 56.7918C146.982 55.7425 147.113 54.6933 147.113 53.5129C147.113 49.5781 146.063 46.2992 143.701 43.676ZM138.058 55.8737C137.533 58.8903 136.221 61.12 134.121 62.9562C131.89 64.7925 129.396 65.7106 125.984 65.7106H118.11C117.192 65.7106 116.535 64.9236 116.667 64.0055L119.423 48.1354C119.554 47.4796 120.21 46.955 120.866 46.955H130.184C133.202 46.955 135.302 47.7419 136.745 49.447C137.795 50.7585 138.32 52.2013 138.32 54.0375C138.32 54.431 138.189 55.0868 138.058 55.8737Z" fill="#1A2030"/>
<path d="M195.407 41.971C195.275 41.0528 194.751 40.2659 193.963 39.6101C193.176 38.9543 192.257 38.5608 191.338 38.4297H166.798C163.779 38.4297 161.286 40.5282 160.761 43.4137V43.5449L153.281 86.5647C152.756 90.4994 156.037 92.5979 159.449 92.5979H179.921C180.052 92.5979 180.184 92.5979 180.184 92.5979C180.709 92.5979 184.121 92.5979 184.252 92.5979C184.777 92.4668 185.302 92.3356 185.695 92.0733C187.139 91.1552 188.058 89.4502 187.664 87.6139C187.533 86.6958 187.008 85.7777 186.352 85.2531C185.695 84.5973 184.777 84.2038 183.858 84.2038H183.071H180.184H164.173C163.254 84.2038 162.598 83.4169 162.729 82.4988L164.829 70.6946C164.96 70.0388 165.617 69.5141 166.273 69.5141H181.627C181.758 69.5141 182.021 69.5141 182.152 69.5141C182.677 69.5141 186.089 69.383 186.089 69.383C186.614 69.2518 187.139 69.1207 187.533 68.8583C188.976 67.9402 189.764 66.3663 189.501 64.5301C189.37 63.612 188.845 62.8251 188.058 62.1693C187.401 61.5135 186.483 61.12 185.564 60.9889H168.373C167.454 60.9889 166.798 60.2019 166.929 59.2838L168.897 48.1354C169.029 47.4796 169.685 46.955 170.341 46.955H187.533C187.664 46.955 187.795 46.955 187.926 46.955C188.451 46.955 191.863 46.8238 191.863 46.8238C192.388 46.6926 192.913 46.5615 193.307 46.2992C194.882 45.5122 195.669 43.8072 195.407 41.971Z" fill="#1A2030"/>
<path d="M239.107 43.5449C236.352 40.2659 232.152 38.4297 227.69 38.4297H211.68C208.661 38.4297 206.168 40.5282 205.643 43.5449L198.031 86.9582V87.2205C197.9 87.7451 197.9 88.1386 197.9 88.2697C197.9 88.7944 197.9 89.319 198.163 89.8436C198.556 90.8929 199.344 91.6799 200.262 92.2045C200.656 92.4668 201.181 92.598 201.706 92.598C201.968 92.598 202.1 92.7291 202.362 92.7291C204.331 92.7291 206.168 91.4175 206.562 89.5813L206.955 87.7451L207.218 85.9089L209.317 74.2358C209.449 73.58 210.105 73.0554 210.761 73.0554H219.816C220.472 73.0554 220.997 73.4489 221.26 73.9735L226.509 87.0893L227.821 90.4994C228.609 91.9422 230.184 92.8603 231.758 92.7291C231.89 92.7291 232.152 92.7291 232.283 92.598C232.94 92.4668 233.596 92.2045 234.121 91.811C234.908 91.1552 235.433 90.2371 235.695 89.1878C235.827 88.6632 235.827 88.1386 235.695 87.7451C235.695 87.7451 235.564 87.3516 235.433 86.9582C235.433 86.827 235.302 86.6958 235.302 86.6958L235.17 86.5647L229.134 72.0061L230.052 71.6127C233.202 70.4322 235.958 68.596 238.058 66.3663C240.42 63.7432 241.995 60.4642 242.651 56.923C242.782 55.8737 242.913 54.8244 242.913 53.7752C242.913 49.8404 241.732 46.4303 239.107 43.5449ZM233.858 55.8737C233.464 57.9722 232.546 59.8084 230.971 61.5135L230.446 62.0381L229.79 62.6939C227.821 64.2678 225.984 64.9236 223.622 65.0548H212.598C211.68 65.0548 211.023 64.2678 211.155 63.3497L213.779 48.1354C213.911 47.4796 214.567 46.955 215.223 46.955H226.509C229.134 46.955 230.971 47.7419 232.415 49.5781C233.464 50.8897 233.989 52.4636 233.989 54.1687C234.121 54.5621 233.989 55.2179 233.858 55.8737Z" fill="#1A2030"/>
<path d="M357.48 25.9696L356.562 25.5762C356.955 25.7073 357.218 25.8385 357.48 25.9696Z" fill="#1A2030"/>
<path d="M304.399 8.00064C303.743 7.08253 302.955 6.29559 302.037 5.50864C298.231 2.09853 293.244 0 287.732 0C283.664 0 279.858 1.18042 276.577 3.14779C276.184 3.41011 275.921 3.67242 275.527 3.80358C266.997 9.31222 253.48 18.3621 247.706 24.2642C247.443 24.5266 247.312 24.6577 247.181 24.92C247.05 25.0512 246.918 25.3135 246.787 25.4447C246.131 26.4939 245.737 27.6743 245.737 29.1171C245.737 30.4287 246.131 31.6091 246.787 32.6583L246.918 32.7895C250.593 37.9047 264.372 56.9226 269.228 63.7428C270.278 65.3167 272.115 66.366 274.215 66.366C275.79 66.366 277.102 65.7102 278.152 64.7921C278.283 64.6609 278.414 64.5297 278.546 64.3986C282.351 60.7262 287.076 54.8241 293.375 49.7089C302.561 42.1017 302.43 42.8887 312.666 36.9866C313.06 36.7242 313.323 36.5931 313.716 36.1996C313.848 36.0685 313.848 36.0685 314.11 35.8061C315.291 34.7569 315.685 32.9207 315.685 32.9207C316.866 26.8874 311.617 16.0013 304.399 8.00064Z" fill="url(#paint0_linear_36_14647)"/>
<path d="M357.679 30.0351C357.679 30.0351 357.548 29.9039 357.417 29.9039C356.498 29.5104 355.055 28.7235 354.267 28.33C354.136 28.1989 354.005 28.1989 353.873 28.0677C351.511 26.7561 349.28 25.3134 347.049 23.8707C346.656 23.6083 346.393 23.4772 345.999 23.2149C345.606 22.9526 345.212 22.6902 344.687 22.4279C344.687 22.4279 336.813 17.5751 334.582 19.2801L334.451 19.4113L334.32 19.5424C333.007 20.854 332.089 23.7395 332.089 27.1496C332.089 27.5431 332.089 28.0677 332.089 28.4612C332.22 31.0843 333.007 33.5764 334.057 34.8879C335.238 36.8553 337.076 38.4292 339.307 39.4785C339.963 39.7408 340.75 40.0031 341.406 40.2654H341.537C341.669 40.2654 341.931 40.3966 342.062 40.3966C342.194 40.3966 342.325 40.5277 342.587 40.5277C344.293 40.79 345.737 40.79 347.312 40.3966C349.018 40.0031 350.461 39.2161 351.905 38.298C354.267 36.7241 356.236 34.4945 357.679 32.0025C357.679 31.8713 357.81 31.7401 357.81 31.7401C357.81 31.609 357.81 31.4778 357.942 31.3467C358.335 30.6909 358.073 30.2974 357.679 30.0351Z" fill="#1A2030"/>
<path d="M351.312 7.60689C349.869 7.34458 348.556 7.34458 347.244 7.60689C344.488 8.26268 342.651 9.44311 341.076 11.017C340.551 11.5416 340.026 11.4105 339.632 11.2793L328.215 8.39384C327.428 8.26268 327.165 9.04963 327.821 9.44311C329.527 10.3612 346.194 18.6242 346.194 18.6242C346.588 18.8865 346.981 19.1488 347.375 19.5423C347.638 19.8046 348.031 19.9358 348.294 20.1981C350.394 21.772 352.624 23.2147 354.987 24.5263C355.118 24.6574 355.249 24.6574 355.38 24.7886C356.168 25.1821 357.349 25.8379 358.268 26.3625C358.661 26.6248 359.186 26.756 359.58 27.0183L359.842 27.1494C359.974 27.1494 360.105 27.2806 360.236 27.2806C360.761 27.2806 361.155 27.0183 361.417 26.6248C361.417 26.6248 361.548 26.4937 361.548 26.3625C361.68 26.1002 361.811 25.7067 361.942 25.3132C362.205 24.264 362.467 23.2147 362.467 23.2147C363.779 15.8699 358.792 8.91847 351.312 7.60689Z" fill="#1A2030"/>
<path d="M358.793 26.6255L358.661 26.4944C358.53 26.4944 358.53 26.3632 358.399 26.3632C358.136 26.232 357.743 26.1009 357.48 25.9697L358.793 26.6255Z" fill="white"/>
<path d="M350.917 85.646C343.332 82.819 309.565 88.8971 305.708 82.9863C302.236 77.7179 317.103 58.1478 336.003 56.0919C350.531 54.5499 379.974 73.1818 379.974 73.1818C379.974 73.1818 356.446 47.4826 328.032 45.1697C303.861 43.2423 275.189 81.0201 264.904 96.5681C269.275 95.6686 273.775 95.2831 278.404 95.2831C293.575 95.2831 305.918 100.937 314.918 112.116C321.86 120.725 325.332 130.877 325.332 142.056C325.332 145.268 325.075 148.737 324.432 152.207C323.532 156.961 320.832 164.157 319.16 168.397V168.526C319.16 168.526 319.16 168.654 319.032 168.654C319.032 168.654 319.16 168.526 319.289 168.14C323.403 162.358 329.832 153.877 333.689 148.609C338.832 141.799 342.56 137.687 339.089 131.262C338.317 129.72 337.032 127.793 336.646 127.279C336.646 127.279 345.903 112.502 349.374 107.362C353.746 100.551 359.917 89.1153 350.917 85.646ZM336.517 127.279C335.103 125.223 317.107 102.203 313.764 98.6051C313.379 98.2196 313.636 97.7056 314.021 97.5771L341.66 97.8531C342.56 97.5961 343.46 98.367 343.203 99.2665L336.517 127.279Z" fill="#1A2030"/>
</g>
<defs>
<linearGradient id="paint0_linear_36_14647" x1="245.718" y1="33.212" x2="315.761" y2="33.212" gradientUnits="userSpaceOnUse">
<stop stop-color="#FFB800"/>
<stop offset="0.833333" stop-color="#FFD200"/>
</linearGradient>
<clipPath id="clip0_36_14647">
<rect width="550" height="205" fill="white"/>
</clipPath>
</defs>
</svg>