<svg width="14" height="14" viewBox="0 0 14 14" fill="none" xmlns="http://www.w3.org/2000/svg">
<path d="M0 2.5C0 1.83696 0.263392 1.20107 0.732233 0.732233C1.20107 0.263392 1.83696 0 2.5 0H7.5C8.16304 0 8.79893 0.263392 9.26777 0.732233C9.73661 1.20107 10 1.83696 10 2.5C10 2.63261 9.94732 2.75979 9.85355 2.85355C9.75979 2.94732 9.63261 3 9.5 3C9.36739 3 9.24021 2.94732 9.14645 2.85355C9.05268 2.75979 9 2.63261 9 2.5C9 2.10218 8.84196 1.72064 8.56066 1.43934C8.27936 1.15804 7.89782 1 7.5 1H2.5C2.10218 1 1.72064 1.15804 1.43934 1.43934C1.15804 1.72064 1 2.10218 1 2.5V7.5C1 7.89782 1.15804 8.27936 1.43934 8.56066C1.72064 8.84196 2.10218 9 2.5 9H7.014C7.07583 8.45058 7.33778 7.94316 7.74988 7.57456C8.16198 7.20597 8.69537 7.00201 9.24826 7.00161C9.80115 7.00121 10.3348 7.20439 10.7475 7.57239C11.1601 7.94038 11.4228 8.44743 11.4854 8.99676C11.548 9.54609 11.4062 10.0992 11.087 10.5507C10.7678 11.0021 10.2935 11.3202 9.75472 11.4442C9.21592 11.5683 8.65032 11.4896 8.16583 11.2232C7.68135 10.9569 7.3119 10.5214 7.128 10H2.5C1.83696 10 1.20107 9.73661 0.732233 9.26777C0.263392 8.79893 0 8.16304 0 7.5V2.5ZM8 9.25C8 9.58152 8.1317 9.89946 8.36612 10.1339C8.60054 10.3683 8.91848 10.5 9.25 10.5C9.58152 10.5 9.89946 10.3683 10.1339 10.1339C10.3683 9.89946 10.5 9.58152 10.5 9.25C10.5 8.91848 10.3683 8.60054 10.1339 8.36612C9.89946 8.1317 9.58152 8 9.25 8C8.91848 8 8.60054 8.1317 8.36612 8.36612C8.1317 8.60054 8 8.91848 8 9.25ZM4.5 11C4.36739 11 4.24021 11.0527 4.14645 11.1464C4.05268 11.2402 4 11.3674 4 11.5C4 12.163 4.26339 12.7989 4.73223 13.2678C5.20107 13.7366 5.83696 14 6.5 14H11.5C12.163 14 12.7989 13.7366 13.2678 13.2678C13.7366 12.7989 14 12.163 14 11.5V6.5C14 5.83696 13.7366 5.20107 13.2678 4.73223C12.7989 4.26339 12.163 4 11.5 4H6.872C6.6881 3.47859 6.31865 3.04315 5.83417 2.77676C5.34968 2.51038 4.78408 2.43171 4.24528 2.55576C3.70649 2.67981 3.23223 2.9979 2.91302 3.44933C2.5938 3.90075 2.45197 4.45391 2.51459 5.00324C2.57722 5.55257 2.83991 6.05962 3.25254 6.42761C3.66517 6.79561 4.19885 6.99879 4.75174 6.99839C5.30463 6.99799 5.83802 6.79403 6.25012 6.42544C6.66222 6.05684 6.92417 5.54942 6.986 5H11.5C11.8978 5 12.2794 5.15804 12.5607 5.43934C12.842 5.72064 13 6.10218 13 6.5V11.5C13 11.8978 12.842 12.2794 12.5607 12.5607C12.2794 12.842 11.8978 13 11.5 13H6.5C6.10218 13 5.72064 12.842 5.43934 12.5607C5.15804 12.2794 5 11.8978 5 11.5C5 11.3674 4.94732 11.2402 4.85355 11.1464C4.75979 11.0527 4.63261 11 4.5 11ZM4.75 3.5C5.08152 3.5 5.39946 3.6317 5.63388 3.86612C5.8683 4.10054 6 4.41848 6 4.75C6 5.08152 5.8683 5.39946 5.63388 5.63388C5.39946 5.8683 5.08152 6 4.75 6C4.41848 6 4.10054 5.8683 3.86612 5.63388C3.6317 5.39946 3.5 5.08152 3.5 4.75C3.5 4.41848 3.6317 4.10054 3.86612 3.86612C4.10054 3.6317 4.41848 3.5 4.75 3.5V3.5Z" fill="#1A2030"/>
</svg>
